<svg width="294" height="43" viewBox="0 0 294 43" fill="none" xmlns="http://www.w3.org/2000/svg">
<g filter="url(#filter0_d_175_40)">
<mask id="path-1-outside-1_175_40" maskUnits="userSpaceOnUse" x="4" y="0" width="286" height="35" fill="black">
<rect fill="white" x="4" width="286" height="35"/>
<path d="M6.8 32V3.2H16.12C16.3467 3.2 16.8133 3.20667 17.52 3.22C18.2267 3.23333 18.9067 3.28 19.56 3.36C21.88 3.64 23.8467 4.44667 25.46 5.78C27.0733 7.11333 28.3 8.80667 29.14 10.86C29.98 12.9133 30.4 15.16 30.4 17.6C30.4 20.04 29.98 22.2867 29.14 24.34C28.3 26.3933 27.0733 28.0867 25.46 29.42C23.8467 30.7533 21.88 31.56 19.56 31.84C18.9067 31.92 18.2267 31.9667 17.52 31.98C16.8133 31.9933 16.3467 32 16.12 32H6.8ZM12.32 26.88H16.12C16.48 26.88 16.9667 26.8733 17.58 26.86C18.1933 26.8333 18.7467 26.7733 19.24 26.68C20.4933 26.4267 21.5133 25.84 22.3 24.92C23.1 24 23.6867 22.8933 24.06 21.6C24.4467 20.3067 24.64 18.9733 24.64 17.6C24.64 16.16 24.44 14.7933 24.04 13.5C23.6533 12.2067 23.06 11.1133 22.26 10.22C21.46 9.32667 20.4533 8.76 19.24 8.52C18.7467 8.41333 18.1933 8.35333 17.58 8.34C16.9667 8.32667 16.48 8.32 16.12 8.32H12.32V26.88ZM37.5984 32V3.2H56.3984V8.28H43.0384V14.44H53.9984V19.52H43.0384V26.92H56.3984V32H37.5984ZM74.4722 32.6C72.3389 32.6 70.4122 32.2267 68.6922 31.48C66.9855 30.72 65.5789 29.64 64.4722 28.24C63.3789 26.8267 62.6855 25.1467 62.3922 23.2L68.0722 22.36C68.4722 24.0133 69.2989 25.2867 70.5522 26.18C71.8055 27.0733 73.2322 27.52 74.8322 27.52C75.7255 27.52 76.5922 27.38 77.4322 27.1C78.2722 26.82 78.9589 26.4067 79.4922 25.86C80.0389 25.3133 80.3122 24.64 80.3122 23.84C80.3122 23.5467 80.2655 23.2667 80.1722 23C80.0922 22.72 79.9522 22.46 79.7522 22.22C79.5522 21.98 79.2655 21.7533 78.8922 21.54C78.5322 21.3267 78.0722 21.1333 77.5122 20.96L70.0322 18.76C69.4722 18.6 68.8189 18.3733 68.0722 18.08C67.3389 17.7867 66.6255 17.3667 65.9322 16.82C65.2389 16.2733 64.6589 15.5533 64.1922 14.66C63.7389 13.7533 63.5122 12.6133 63.5122 11.24C63.5122 9.30666 63.9989 7.7 64.9722 6.42C65.9455 5.14 67.2455 4.18666 68.8722 3.56C70.4989 2.93333 72.2989 2.62666 74.2722 2.64C76.2589 2.66667 78.0322 3.00667 79.5922 3.66C81.1522 4.31333 82.4589 5.26667 83.5122 6.52C84.5655 7.76 85.3255 9.28 85.7922 11.08L79.9122 12.08C79.6989 11.1467 79.3055 10.36 78.7322 9.72C78.1589 9.08 77.4722 8.59333 76.6722 8.26C75.8855 7.92667 75.0589 7.74667 74.1922 7.72C73.3389 7.69333 72.5322 7.81333 71.7722 8.08C71.0255 8.33333 70.4122 8.70667 69.9322 9.2C69.4655 9.69333 69.2322 10.28 69.2322 10.96C69.2322 11.5867 69.4255 12.1 69.8122 12.5C70.1989 12.8867 70.6855 13.2 71.2722 13.44C71.8589 13.68 72.4589 13.88 73.0722 14.04L78.0722 15.4C78.8189 15.6 79.6455 15.8667 80.5522 16.2C81.4589 16.52 82.3255 16.9733 83.1522 17.56C83.9922 18.1333 84.6789 18.8933 85.2122 19.84C85.7589 20.7867 86.0322 21.9867 86.0322 23.44C86.0322 24.9867 85.7055 26.34 85.0522 27.5C84.4122 28.6467 83.5455 29.6 82.4522 30.36C81.3589 31.1067 80.1189 31.6667 78.7322 32.04C77.3589 32.4133 75.9389 32.6 74.4722 32.6ZM90.8281 32L99.6281 3.2H107.748L116.548 32H110.948L103.108 6.6H104.148L96.4281 32H90.8281ZM96.1081 26V20.92H111.308V26H96.1081ZM122.533 32V3.2H134.693C134.973 3.2 135.346 3.21333 135.813 3.24C136.293 3.25333 136.719 3.29333 137.093 3.36C138.813 3.62667 140.219 4.19333 141.313 5.06C142.419 5.92666 143.233 7.02 143.753 8.34C144.273 9.64667 144.533 11.1067 144.533 12.72C144.533 15.1333 143.933 17.2 142.733 18.92C141.533 20.6267 139.653 21.68 137.093 22.08L134.693 22.24H127.973V32H122.533ZM138.773 32L133.093 20.28L138.693 19.2L144.933 32H138.773ZM127.973 17.16H134.453C134.733 17.16 135.039 17.1467 135.373 17.12C135.706 17.0933 136.013 17.04 136.293 16.96C137.026 16.76 137.593 16.4267 137.993 15.96C138.393 15.48 138.666 14.9533 138.813 14.38C138.973 13.7933 139.053 13.24 139.053 12.72C139.053 12.2 138.973 11.6533 138.813 11.08C138.666 10.4933 138.393 9.96667 137.993 9.5C137.593 9.02 137.026 8.68 136.293 8.48C136.013 8.4 135.706 8.34667 135.373 8.32C135.039 8.29333 134.733 8.28 134.453 8.28H127.973V17.16ZM151.73 32V3.2H163.89C164.17 3.2 164.543 3.21333 165.01 3.24C165.49 3.25333 165.916 3.29333 166.29 3.36C168.01 3.62667 169.416 4.19333 170.51 5.06C171.616 5.92666 172.43 7.02 172.95 8.34C173.47 9.64667 173.73 11.1067 173.73 12.72C173.73 15.1333 173.13 17.2 171.93 18.92C170.73 20.6267 168.85 21.68 166.29 22.08L163.89 22.24H157.17V32H151.73ZM167.97 32L162.29 20.28L167.89 19.2L174.13 32H167.97ZM157.17 17.16H163.65C163.93 17.16 164.236 17.1467 164.57 17.12C164.903 17.0933 165.21 17.04 165.49 16.96C166.223 16.76 166.79 16.4267 167.19 15.96C167.59 15.48 167.863 14.9533 168.01 14.38C168.17 13.7933 168.25 13.24 168.25 12.72C168.25 12.2 168.17 11.6533 168.01 11.08C167.863 10.4933 167.59 9.96667 167.19 9.5C166.79 9.02 166.223 8.68 165.49 8.48C165.21 8.4 164.903 8.34667 164.57 8.32C164.236 8.29333 163.93 8.28 163.65 8.28H157.17V17.16ZM193.287 32.6C190.407 32.6 187.92 31.9733 185.827 30.72C183.747 29.4667 182.14 27.7133 181.007 25.46C179.887 23.2067 179.327 20.5867 179.327 17.6C179.327 14.6133 179.887 11.9933 181.007 9.74C182.14 7.48667 183.747 5.73333 185.827 4.48C187.92 3.22667 190.407 2.6 193.287 2.6C196.167 2.6 198.647 3.22667 200.727 4.48C202.82 5.73333 204.427 7.48667 205.547 9.74C206.68 11.9933 207.247 14.6133 207.247 17.6C207.247 20.5867 206.68 23.2067 205.547 25.46C204.427 27.7133 202.82 29.4667 200.727 30.72C198.647 31.9733 196.167 32.6 193.287 32.6ZM193.287 27.48C195.113 27.5067 196.633 27.1133 197.847 26.3C199.06 25.4867 199.967 24.3333 200.567 22.84C201.18 21.3467 201.487 19.6 201.487 17.6C201.487 15.6 201.18 13.8667 200.567 12.4C199.967 10.9333 199.06 9.79333 197.847 8.98C196.633 8.16667 195.113 7.74667 193.287 7.72C191.46 7.69333 189.94 8.08666 188.727 8.9C187.513 9.71333 186.6 10.8667 185.987 12.36C185.387 13.8533 185.087 15.6 185.087 17.6C185.087 19.6 185.387 21.3333 185.987 22.8C186.6 24.2667 187.513 25.4067 188.727 26.22C189.94 27.0333 191.46 27.4533 193.287 27.48ZM214.039 32V3.2H219.479V26.92H231.879V32H214.039ZM238.08 32V3.2H243.52V26.92H255.92V32H238.08ZM273.299 32.6C270.419 32.6 267.932 31.9733 265.839 30.72C263.759 29.4667 262.152 27.7133 261.019 25.46C259.899 23.2067 259.339 20.5867 259.339 17.6C259.339 14.6133 259.899 11.9933 261.019 9.74C262.152 7.48667 263.759 5.73333 265.839 4.48C267.932 3.22667 270.419 2.6 273.299 2.6C276.179 2.6 278.659 3.22667 280.739 4.48C282.832 5.73333 284.439 7.48667 285.559 9.74C286.692 11.9933 287.259 14.6133 287.259 17.6C287.259 20.5867 286.692 23.2067 285.559 25.46C284.439 27.7133 282.832 29.4667 280.739 30.72C278.659 31.9733 276.179 32.6 273.299 32.6ZM273.299 27.48C275.126 27.5067 276.646 27.1133 277.859 26.3C279.072 25.4867 279.979 24.3333 280.579 22.84C281.192 21.3467 281.499 19.6 281.499 17.6C281.499 15.6 281.192 13.8667 280.579 12.4C279.979 10.9333 279.072 9.79333 277.859 8.98C276.646 8.16667 275.126 7.74667 273.299 7.72C271.472 7.69333 269.952 8.08666 268.739 8.9C267.526 9.71333 266.612 10.8667 265.999 12.36C265.399 13.8533 265.099 15.6 265.099 17.6C265.099 19.6 265.399 21.3333 265.999 22.8C266.612 24.2667 267.526 25.4067 268.739 26.22C269.952 27.0333 271.472 27.4533 273.299 27.48Z"/>
</mask>
<path d="M6.8 32H4.8V34H6.8V32ZM6.8 3.2V1.2H4.8V3.2H6.8ZM17.52 3.22L17.4823 5.21964L17.4823 5.21964L17.52 3.22ZM19.56 3.36L19.3169 5.34517L19.3204 5.34559L19.56 3.36ZM25.46 5.78L26.7341 4.23835L26.7341 4.23835L25.46 5.78ZM29.14 10.86L30.9911 10.1027L30.9911 10.1027L29.14 10.86ZM29.14 24.34L30.9911 25.0973L30.9911 25.0973L29.14 24.34ZM25.46 29.42L26.7341 30.9617L26.7341 30.9617L25.46 29.42ZM19.56 31.84L19.3204 29.8544L19.3169 29.8548L19.56 31.84ZM17.52 31.98L17.5577 33.9796L17.52 31.98ZM12.32 26.88H10.32V28.88H12.32V26.88ZM17.58 26.86L17.6235 28.8595L17.6452 28.8591L17.6669 28.8581L17.58 26.86ZM19.24 26.68L19.6118 28.6451L19.624 28.6428L19.6362 28.6404L19.24 26.68ZM22.3 24.92L20.7908 23.6076L20.7853 23.6139L20.7799 23.6202L22.3 24.92ZM24.06 21.6L22.1438 21.0271L22.1411 21.0362L22.1385 21.0453L24.06 21.6ZM24.04 13.5L22.1238 14.0729L22.1265 14.0819L22.1293 14.0909L24.04 13.5ZM22.26 10.22L23.7499 8.88576L23.7499 8.88576L22.26 10.22ZM19.24 8.52L18.8173 10.4748L18.8346 10.4786L18.8519 10.482L19.24 8.52ZM17.58 8.34L17.6235 6.34047L17.6235 6.34047L17.58 8.34ZM12.32 8.32V6.32H10.32V8.32H12.32ZM6.8 32H8.8V3.2H6.8H4.8V32H6.8ZM6.8 3.2V5.2H16.12V3.2V1.2H6.8V3.2ZM16.12 3.2V5.2C16.3245 5.2 16.7719 5.20624 17.4823 5.21964L17.52 3.22L17.5577 1.22036C16.8548 1.20709 16.3689 1.2 16.12 1.2V3.2ZM17.52 3.22L17.4823 5.21964C18.1253 5.23178 18.7365 5.2741 19.3169 5.34517L19.56 3.36L19.8031 1.37483C19.0768 1.2859 18.3281 1.23489 17.5577 1.22036L17.52 3.22ZM19.56 3.36L19.3204 5.34559C21.3059 5.58523 22.9014 6.26008 24.1859 7.32165L25.46 5.78L26.7341 4.23835C24.7919 2.63326 22.4541 1.69477 19.7996 1.37441L19.56 3.36ZM25.46 5.78L24.1859 7.32165C25.53 8.43244 26.566 9.85007 27.2889 11.6173L29.14 10.86L30.9911 10.1027C30.034 7.76326 28.6167 5.79422 26.7341 4.23835L25.46 5.78ZM29.14 10.86L27.2889 11.6173C28.0212 13.4073 28.4 15.3937 28.4 17.6H30.4H32.4C32.4 14.9263 31.9388 12.4194 30.9911 10.1027L29.14 10.86ZM30.4 17.6H28.4C28.4 19.8063 28.0212 21.7927 27.2889 23.5827L29.14 24.34L30.9911 25.0973C31.9388 22.7806 32.4 20.2737 32.4 17.6H30.4ZM29.14 24.34L27.2889 23.5827C26.566 25.3499 25.53 26.7676 24.1859 27.8783L25.46 29.42L26.7341 30.9617C28.6167 29.4058 30.034 27.4367 30.9911 25.0973L29.14 24.34ZM25.46 29.42L24.1859 27.8783C22.9014 28.9399 21.3059 29.6148 19.3204 29.8544L19.56 31.84L19.7996 33.8256C22.4541 33.5052 24.7919 32.5667 26.7341 30.9617L25.46 29.42ZM19.56 31.84L19.3169 29.8548C18.7365 29.9259 18.1253 29.9682 17.4823 29.9804L17.52 31.98L17.5577 33.9796C18.3281 33.9651 19.0768 33.9141 19.8031 33.8252L19.56 31.84ZM17.52 31.98L17.4823 29.9804C16.7719 29.9938 16.3245 30 16.12 30V32V34C16.3689 34 16.8548 33.9929 17.5577 33.9796L17.52 31.98ZM16.12 32V30H6.8V32V34H16.12V32ZM12.32 26.88V28.88H16.12V26.88V24.88H12.32V26.88ZM16.12 26.88V28.88C16.5011 28.88 17.0042 28.873 17.6235 28.8595L17.58 26.86L17.5365 24.8605C16.9292 24.8737 16.4589 24.88 16.12 24.88V26.88ZM17.58 26.86L17.6669 28.8581C18.3556 28.8282 19.0064 28.7597 19.6118 28.6451L19.24 26.68L18.8682 24.7149C18.4869 24.787 18.031 24.8385 17.4931 24.8619L17.58 26.86ZM19.24 26.68L19.6362 28.6404C21.301 28.3039 22.726 27.4993 23.8201 26.2198L22.3 24.92L20.7799 23.6202C20.3007 24.1807 19.6857 24.5495 18.8438 24.7196L19.24 26.68ZM22.3 24.92L23.8092 26.2324C24.8192 25.0708 25.536 23.6982 25.9815 22.1547L24.06 21.6L22.1385 21.0453C21.8373 22.0885 21.3808 22.9292 20.7908 23.6076L22.3 24.92ZM24.06 21.6L25.9762 22.1729C26.4194 20.6904 26.64 19.1639 26.64 17.6H24.64H22.64C22.64 18.7827 22.4739 19.9229 22.1438 21.0271L24.06 21.6ZM24.64 17.6H26.64C26.64 15.9724 26.4136 14.4056 25.9507 12.9091L24.04 13.5L22.1293 14.0909C22.4664 15.181 22.64 16.3476 22.64 17.6H24.64ZM24.04 13.5L25.9562 12.9271C25.4958 11.3873 24.7697 10.0245 23.7499 8.88576L22.26 10.22L20.7701 11.5542C21.3503 12.2022 21.8108 13.026 22.1238 14.0729L24.04 13.5ZM22.26 10.22L23.7499 8.88576C22.6508 7.65846 21.2527 6.87937 19.6281 6.55801L19.24 8.52L18.8519 10.482C19.654 10.6406 20.2692 10.9949 20.7701 11.5542L22.26 10.22ZM19.24 8.52L19.6627 6.56517C19.0214 6.42652 18.3381 6.35601 17.6235 6.34047L17.58 8.34L17.5365 10.3395C18.0485 10.3507 18.4719 10.4001 18.8173 10.4748L19.24 8.52ZM17.58 8.34L17.6235 6.34047C17.0042 6.32701 16.5011 6.32 16.12 6.32V8.32V10.32C16.4589 10.32 16.9292 10.3263 17.5365 10.3395L17.58 8.34ZM16.12 8.32V6.32H12.32V8.32V10.32H16.12V8.32ZM12.32 8.32H10.32V26.88H12.32H14.32V8.32H12.32ZM37.5984 32H35.5984V34H37.5984V32ZM37.5984 3.2V1.2H35.5984V3.2H37.5984ZM56.3984 3.2H58.3984V1.2H56.3984V3.2ZM56.3984 8.28V10.28H58.3984V8.28H56.3984ZM43.0384 8.28V6.28H41.0384V8.28H43.0384ZM43.0384 14.44H41.0384V16.44H43.0384V14.44ZM53.9984 14.44H55.9984V12.44H53.9984V14.44ZM53.9984 19.52V21.52H55.9984V19.52H53.9984ZM43.0384 19.52V17.52H41.0384V19.52H43.0384ZM43.0384 26.92H41.0384V28.92H43.0384V26.92ZM56.3984 26.92H58.3984V24.92H56.3984V26.92ZM56.3984 32V34H58.3984V32H56.3984ZM37.5984 32H39.5984V3.2H37.5984H35.5984V32H37.5984ZM37.5984 3.2V5.2H56.3984V3.2V1.2H37.5984V3.2ZM56.3984 3.2H54.3984V8.28H56.3984H58.3984V3.2H56.3984ZM56.3984 8.28V6.28H43.0384V8.28V10.28H56.3984V8.28ZM43.0384 8.28H41.0384V14.44H43.0384H45.0384V8.28H43.0384ZM43.0384 14.44V16.44H53.9984V14.44V12.44H43.0384V14.44ZM53.9984 14.44H51.9984V19.52H53.9984H55.9984V14.44H53.9984ZM53.9984 19.52V17.52H43.0384V19.52V21.52H53.9984V19.52ZM43.0384 19.52H41.0384V26.92H43.0384H45.0384V19.52H43.0384ZM43.0384 26.92V28.92H56.3984V26.92V24.92H43.0384V26.92ZM56.3984 26.92H54.3984V32H56.3984H58.3984V26.92H56.3984ZM56.3984 32V30H37.5984V32V34H56.3984V32ZM68.6922 31.48L67.8786 33.307L67.8872 33.3109L67.8958 33.3146L68.6922 31.48ZM64.4722 28.24L62.8903 29.4637L62.8967 29.472L62.9032 29.4803L64.4722 28.24ZM62.3922 23.2L62.0996 21.2215L60.1157 21.5149L60.4145 23.498L62.3922 23.2ZM68.0722 22.36L70.0161 21.8897L69.5866 20.1143L67.7796 20.3815L68.0722 22.36ZM70.5522 26.18L71.713 24.5514L71.713 24.5514L70.5522 26.18ZM77.4322 27.1L76.7997 25.2026L76.7997 25.2026L77.4322 27.1ZM79.4922 25.86L78.078 24.4458L78.0692 24.4545L78.0606 24.4634L79.4922 25.86ZM80.1722 23L78.2491 23.5494L78.2652 23.6056L78.2845 23.6607L80.1722 23ZM79.7522 22.22L81.2886 20.9396L81.2886 20.9396L79.7522 22.22ZM78.8922 21.54L77.8726 23.2606L77.8862 23.2686L77.8999 23.2765L78.8922 21.54ZM77.5122 20.96L78.1036 19.0494L78.0901 19.0453L78.0765 19.0413L77.5122 20.96ZM70.0322 18.76L70.5965 16.8413L70.5891 16.8391L70.5816 16.837L70.0322 18.76ZM68.0722 18.08L67.3294 19.937L67.3409 19.9415L68.0722 18.08ZM65.9322 16.82L67.1705 15.2495L67.1705 15.2495L65.9322 16.82ZM64.1922 14.66L62.4033 15.5544L62.4113 15.5703L62.4195 15.586L64.1922 14.66ZM64.9722 6.42L66.5642 7.63059L66.5642 7.63059L64.9722 6.42ZM68.8722 3.56L69.5912 5.4263L69.5912 5.4263L68.8722 3.56ZM74.2722 2.64L74.299 0.640135L74.2857 0.640045L74.2722 2.64ZM79.5922 3.66L80.3648 1.81525L80.3648 1.81525L79.5922 3.66ZM83.5122 6.52L81.9811 7.80678L81.9879 7.81482L83.5122 6.52ZM85.7922 11.08L86.1275 13.0517L88.2748 12.6865L87.7282 10.5781L85.7922 11.08ZM79.9122 12.08L77.9625 12.5256L78.3837 14.3687L80.2475 14.0517L79.9122 12.08ZM78.7322 9.72L77.2425 11.0545L77.2425 11.0545L78.7322 9.72ZM76.6722 8.26L75.8919 10.1015L75.903 10.1062L76.6722 8.26ZM74.1922 7.72L74.1297 9.71902L74.1307 9.71905L74.1922 7.72ZM71.7722 8.08L72.4148 9.97395L72.4246 9.97063L72.4344 9.9672L71.7722 8.08ZM69.9322 9.2L68.4987 7.80529L68.4889 7.81537L68.4792 7.8256L69.9322 9.2ZM69.8122 12.5L68.3742 13.89L68.386 13.9022L68.398 13.9142L69.8122 12.5ZM71.2722 13.44L72.0295 11.5889L72.0295 11.5889L71.2722 13.44ZM73.0722 14.04L73.5971 12.1101L73.5871 12.1074L73.577 12.1048L73.0722 14.04ZM78.0722 15.4L77.5473 17.3299L77.5547 17.3319L78.0722 15.4ZM80.5522 16.2L79.8621 18.0772L79.8743 18.0816L79.8865 18.086L80.5522 16.2ZM83.1522 17.56L81.9947 19.191L82.0096 19.2016L82.0247 19.2119L83.1522 17.56ZM85.2122 19.84L83.4697 20.8217L83.4749 20.8309L83.4802 20.8401L85.2122 19.84ZM85.0522 27.5L83.3096 26.5185L83.3058 26.5253L85.0522 27.5ZM82.4522 30.36L83.5801 32.0116L83.5869 32.0069L83.5937 32.0022L82.4522 30.36ZM78.7322 32.04L78.2122 30.1088L78.2075 30.11L78.7322 32.04ZM74.4722 32.6V30.6C72.5752 30.6 70.9249 30.2689 69.4886 29.6454L68.6922 31.48L67.8958 33.3146C69.8995 34.1844 72.1025 34.6 74.4722 34.6V32.6ZM68.6922 31.48L69.5058 29.653C68.0804 29.0182 66.9377 28.1339 66.0412 26.9997L64.4722 28.24L62.9032 29.4803C64.22 31.1461 65.8907 32.4218 67.8786 33.307L68.6922 31.48ZM64.4722 28.24L66.0541 27.0163C65.1902 25.8995 64.6177 24.5465 64.3699 22.902L62.3922 23.2L60.4145 23.498C60.7534 25.7468 61.5675 27.7539 62.8903 29.4637L64.4722 28.24ZM62.3922 23.2L62.6848 25.1785L68.3648 24.3385L68.0722 22.36L67.7796 20.3815L62.0996 21.2215L62.3922 23.2ZM68.0722 22.36L66.1283 22.8303C66.6286 24.8985 67.704 26.606 69.3914 27.8086L70.5522 26.18L71.713 24.5514C70.8937 23.9674 70.3157 23.1281 70.0161 21.8897L68.0722 22.36ZM70.5522 26.18L69.3914 27.8086C70.9976 28.9535 72.8336 29.52 74.8322 29.52V27.52V25.52C73.6308 25.52 72.6135 25.1932 71.713 24.5514L70.5522 26.18ZM74.8322 27.52V29.52C75.9385 29.52 77.0189 29.346 78.0646 28.9974L77.4322 27.1L76.7997 25.2026C76.1655 25.414 75.5125 25.52 74.8322 25.52V27.52ZM77.4322 27.1L78.0646 28.9974C79.1588 28.6326 80.1347 28.0654 80.9238 27.2566L79.4922 25.86L78.0606 24.4634C77.783 24.7479 77.3856 25.0074 76.7997 25.2026L77.4322 27.1ZM79.4922 25.86L80.9064 27.2742C81.8425 26.3381 82.3122 25.1498 82.3122 23.84H80.3122H78.3122C78.3122 24.1302 78.2352 24.2885 78.078 24.4458L79.4922 25.86ZM80.3122 23.84H82.3122C82.3122 23.3304 82.2304 22.8264 82.0599 22.3393L80.1722 23L78.2845 23.6607C78.3007 23.707 78.3122 23.7629 78.3122 23.84H80.3122ZM80.1722 23L82.0952 22.4506C81.9332 21.8835 81.6538 21.3779 81.2886 20.9396L79.7522 22.22L78.2157 23.5004C78.2349 23.5234 78.2433 23.5378 78.2462 23.5432C78.2478 23.5461 78.2485 23.5478 78.2488 23.5483C78.249 23.5489 78.2491 23.5491 78.2491 23.5494L80.1722 23ZM79.7522 22.22L81.2886 20.9396C80.8903 20.4616 80.3924 20.0938 79.8845 19.8035L78.8922 21.54L77.8999 23.2765C78.0145 23.342 78.0941 23.3972 78.1467 23.4388C78.1995 23.4805 78.2176 23.5026 78.2157 23.5004L79.7522 22.22ZM78.8922 21.54L79.9118 19.8194C79.3753 19.5015 78.7585 19.2522 78.1036 19.0494L77.5122 20.96L76.9208 22.8706C77.3858 23.0145 77.6891 23.1518 77.8726 23.2606L78.8922 21.54ZM77.5122 20.96L78.0765 19.0413L70.5965 16.8413L70.0322 18.76L69.4679 20.6787L76.9479 22.8787L77.5122 20.96ZM70.0322 18.76L70.5816 16.837C70.1012 16.6997 69.511 16.4965 68.8035 16.2185L68.0722 18.08L67.3409 19.9415C68.1267 20.2502 68.8431 20.5003 69.4827 20.683L70.0322 18.76ZM68.0722 18.08L68.815 16.223C68.2793 16.0088 67.7307 15.6912 67.1705 15.2495L65.9322 16.82L64.6939 18.3905C65.5203 19.0421 66.3984 19.5646 67.3294 19.937L68.0722 18.08ZM65.9322 16.82L67.1705 15.2495C66.7281 14.9006 66.3193 14.4125 65.9649 13.734L64.1922 14.66L62.4195 15.586C62.9984 16.6942 63.7497 17.6461 64.6939 18.3905L65.9322 16.82ZM64.1922 14.66L65.981 13.7656C65.7068 13.2172 65.5122 12.4076 65.5122 11.24H63.5122H61.5122C61.5122 12.8191 61.7709 14.2895 62.4033 15.5544L64.1922 14.66ZM63.5122 11.24H65.5122C65.5122 9.65287 65.9058 8.49638 66.5642 7.63059L64.9722 6.42L63.3802 5.20941C62.0919 6.90362 61.5122 8.96046 61.5122 11.24H63.5122ZM64.9722 6.42L66.5642 7.63059C67.2942 6.67064 68.2805 5.93123 69.5912 5.4263L68.8722 3.56L68.1532 1.6937C66.2105 2.4421 64.5969 3.60936 63.3802 5.20941L64.9722 6.42ZM68.8722 3.56L69.5912 5.4263C70.9554 4.90073 72.5029 4.62809 74.2587 4.63995L74.2722 2.64L74.2857 0.640045C72.0948 0.625241 70.0423 0.96593 68.1532 1.6937L68.8722 3.56ZM74.2722 2.64L74.2453 4.63982C76.0198 4.66364 77.5334 4.9661 78.8196 5.50475L79.5922 3.66L80.3648 1.81525C78.5309 1.04723 76.4979 0.669694 74.299 0.640179L74.2722 2.64ZM79.5922 3.66L78.8196 5.50475C80.096 6.03931 81.1395 6.80535 81.9811 7.80677L83.5122 6.52L85.0433 5.23323C83.7782 3.72799 82.2084 2.58735 80.3648 1.81525L79.5922 3.66ZM83.5122 6.52L81.9879 7.81482C82.8198 8.79415 83.4544 10.0321 83.8562 11.5819L85.7922 11.08L87.7282 10.5781C87.1967 8.52793 86.3112 6.72585 85.0365 5.22518L83.5122 6.52ZM85.7922 11.08L85.4569 9.10831L79.5769 10.1083L79.9122 12.08L80.2475 14.0517L86.1275 13.0517L85.7922 11.08ZM79.9122 12.08L81.8619 11.6344C81.5818 10.409 81.0464 9.30587 80.2219 8.3855L78.7322 9.72L77.2425 11.0545C77.5647 11.4141 77.8159 11.8843 77.9625 12.5256L79.9122 12.08ZM78.7322 9.72L80.2219 8.3855C79.4478 7.52139 78.5142 6.86086 77.4414 6.41385L76.6722 8.26L75.903 10.1062C76.4301 10.3258 76.87 10.6386 77.2425 11.0545L78.7322 9.72ZM76.6722 8.26L77.4525 6.4185C76.4346 5.98719 75.3639 5.75511 74.2537 5.72094L74.1922 7.72L74.1307 9.71905C74.7538 9.73823 75.3364 9.86615 75.8919 10.1015L76.6722 8.26ZM74.1922 7.72L74.2547 5.72097C73.1699 5.68708 72.1163 5.83971 71.11 6.1928L71.7722 8.08L72.4344 9.9672C72.9481 9.78695 73.5078 9.69959 74.1297 9.71902L74.1922 7.72ZM71.7722 8.08L71.1296 6.18604C70.1273 6.52609 69.2293 7.0544 68.4987 7.80529L69.9322 9.2L71.3656 10.5947C71.595 10.3589 71.9237 10.1406 72.4148 9.97395L71.7722 8.08ZM69.9322 9.2L68.4792 7.8256C67.6607 8.69087 67.2322 9.76956 67.2322 10.96H69.2322H71.2322C71.2322 10.7904 71.2703 10.6958 71.3851 10.5744L69.9322 9.2ZM69.2322 10.96H67.2322C67.2322 12.0342 67.5804 13.0689 68.3742 13.89L69.8122 12.5L71.2502 11.11C71.2448 11.1044 71.2447 11.1034 71.2468 11.1066C71.2488 11.1098 71.2495 11.1118 71.2488 11.1101C71.2482 11.1084 71.2322 11.0665 71.2322 10.96H69.2322ZM69.8122 12.5L68.398 13.9142C68.9999 14.5162 69.7211 14.9664 70.5149 15.2911L71.2722 13.44L72.0295 11.5889C71.6499 11.4336 71.3978 11.2572 71.2264 11.0858L69.8122 12.5ZM71.2722 13.44L70.5149 15.2911C71.1838 15.5647 71.8681 15.7928 72.5673 15.9752L73.0722 14.04L73.577 12.1048C73.0496 11.9672 72.5339 11.7953 72.0295 11.5889L71.2722 13.44ZM73.0722 14.04L72.5473 15.9699L77.5473 17.3299L78.0722 15.4L78.5971 13.4701L73.5971 12.1101L73.0722 14.04ZM78.0722 15.4L77.5547 17.3319C78.2308 17.513 78.9988 17.7598 79.8621 18.0772L80.5522 16.2L81.2423 14.3228C80.2923 13.9736 79.4069 13.687 78.5897 13.4681L78.0722 15.4ZM80.5522 16.2L79.8865 18.086C80.609 18.341 81.3111 18.7059 81.9947 19.191L83.1522 17.56L84.3097 15.929C83.3399 15.2408 82.3087 14.699 81.2178 14.314L80.5522 16.2ZM83.1522 17.56L82.0247 19.2119C82.5938 19.6003 83.0766 20.124 83.4697 20.8217L85.2122 19.84L86.9547 18.8583C86.2811 17.6627 85.3906 16.6664 84.2797 15.9081L83.1522 17.56ZM85.2122 19.84L83.4802 20.8401C83.8027 21.3986 84.0322 22.2258 84.0322 23.44H86.0322H88.0322C88.0322 21.7475 87.715 20.1747 86.9442 18.8399L85.2122 19.84ZM86.0322 23.44H84.0322C84.0322 24.6989 83.7686 25.7035 83.3096 26.5185L85.0522 27.5L86.7948 28.4815C87.6424 26.9765 88.0322 25.2744 88.0322 23.44H86.0322ZM85.0522 27.5L83.3058 26.5253C82.8162 27.4025 82.1578 28.1289 81.3106 28.7178L82.4522 30.36L83.5937 32.0022C84.9332 31.0711 86.0082 29.8908 86.7986 28.4747L85.0522 27.5ZM82.4522 30.36L81.3243 28.7084C80.4315 29.3181 79.4003 29.7889 78.2122 30.1088L78.7322 32.04L79.2521 33.9712C80.8374 33.5444 82.2862 32.8953 83.5801 32.0116L82.4522 30.36ZM78.7322 32.04L78.2075 30.11C77.0104 30.4355 75.7671 30.6 74.4722 30.6V32.6V34.6C76.1106 34.6 77.7073 34.3912 79.2568 33.97L78.7322 32.04ZM90.8281 32L88.9154 31.4156L88.1257 34H90.8281V32ZM99.6281 3.2V1.2H98.148L97.7154 2.61556L99.6281 3.2ZM107.748 3.2L109.661 2.61556L109.228 1.2H107.748V3.2ZM116.548 32V34H119.251L118.461 31.4156L116.548 32ZM110.948 32L109.037 32.5899L109.472 34H110.948V32ZM103.108 6.6V4.6H100.398L101.197 7.18986L103.108 6.6ZM104.148 6.6L106.062 7.1816L106.846 4.6H104.148V6.6ZM96.4281 32V34H97.9106L98.3417 32.5816L96.4281 32ZM96.1081 26H94.1081V28H96.1081V26ZM96.1081 20.92V18.92H94.1081V20.92H96.1081ZM111.308 20.92H113.308V18.92H111.308V20.92ZM111.308 26V28H113.308V26H111.308ZM90.8281 32L92.7408 32.5844L101.541 3.78444L99.6281 3.2L97.7154 2.61556L88.9154 31.4156L90.8281 32ZM99.6281 3.2V5.2H107.748V3.2V1.2H99.6281V3.2ZM107.748 3.2L105.835 3.78444L114.635 32.5844L116.548 32L118.461 31.4156L109.661 2.61556L107.748 3.2ZM116.548 32V30H110.948V32V34H116.548V32ZM110.948 32L112.859 31.4101L105.019 6.01013L103.108 6.6L101.197 7.18986L109.037 32.5899L110.948 32ZM103.108 6.6V8.6H104.148V6.6V4.6H103.108V6.6ZM104.148 6.6L102.235 6.01839L94.5146 31.4184L96.4281 32L98.3417 32.5816L106.062 7.1816L104.148 6.6ZM96.4281 32V30H90.8281V32V34H96.4281V32ZM96.1081 26H98.1081V20.92H96.1081H94.1081V26H96.1081ZM96.1081 20.92V22.92H111.308V20.92V18.92H96.1081V20.92ZM111.308 20.92H109.308V26H111.308H113.308V20.92H111.308ZM111.308 26V24H96.1081V26V28H111.308V26ZM122.533 32H120.533V34H122.533V32ZM122.533 3.2V1.2H120.533V3.2H122.533ZM135.813 3.24L135.699 5.23674L135.728 5.23841L135.757 5.23923L135.813 3.24ZM137.093 3.36L136.741 5.32885L136.764 5.33288L136.786 5.33639L137.093 3.36ZM141.313 5.06L140.07 6.62734L140.08 6.63461L141.313 5.06ZM143.753 8.34L141.892 9.07305L141.895 9.07951L143.753 8.34ZM142.733 18.92L144.369 20.0704L144.373 20.0644L142.733 18.92ZM137.093 22.08L137.226 24.0756L137.314 24.0697L137.402 24.056L137.093 22.08ZM134.693 22.24V24.24H134.759L134.826 24.2356L134.693 22.24ZM127.973 22.24V20.24H125.973V22.24H127.973ZM127.973 32V34H129.973V32H127.973ZM138.773 32L136.973 32.8722L137.52 34H138.773V32ZM133.093 20.28L132.714 18.3162L130.158 18.8092L131.293 21.1522L133.093 20.28ZM138.693 19.2L140.491 18.3236L139.819 16.946L138.314 17.2362L138.693 19.2ZM144.933 32V34H148.133L146.731 31.1236L144.933 32ZM127.973 17.16H125.973V19.16H127.973V17.16ZM135.373 17.12L135.532 19.1136L135.532 19.1136L135.373 17.12ZM136.293 16.96L135.767 15.0305L135.755 15.0336L135.743 15.037L136.293 16.96ZM137.993 15.96L139.511 17.2616L139.52 17.251L139.529 17.2404L137.993 15.96ZM138.813 14.38L136.883 13.8538L136.879 13.869L136.875 13.8843L138.813 14.38ZM138.813 11.08L136.873 11.5651L136.879 11.5914L136.886 11.6176L138.813 11.08ZM137.993 9.5L136.456 10.7804L136.465 10.791L136.474 10.8016L137.993 9.5ZM136.293 8.48L135.743 10.403L135.755 10.4064L135.767 10.4095L136.293 8.48ZM135.373 8.32L135.213 10.3136L135.213 10.3136L135.373 8.32ZM127.973 8.28V6.28H125.973V8.28H127.973ZM122.533 32H124.533V3.2H122.533H120.533V32H122.533ZM122.533 3.2V5.2H134.693V3.2V1.2H122.533V3.2ZM134.693 3.2V5.2C134.918 5.2 135.249 5.21102 135.699 5.23674L135.813 3.24L135.927 1.24326C135.444 1.21564 135.028 1.2 134.693 1.2V3.2ZM135.813 3.24L135.757 5.23923C136.163 5.25049 136.487 5.28353 136.741 5.32885L137.093 3.36L137.444 1.39114C136.952 1.30314 136.423 1.25617 135.868 1.24077L135.813 3.24ZM137.093 3.36L136.786 5.33639C138.248 5.56297 139.308 6.0228 140.07 6.62731L141.313 5.06L142.555 3.49268C141.131 2.36386 139.378 1.69036 137.399 1.38361L137.093 3.36ZM141.313 5.06L140.08 6.63461C140.903 7.27951 141.501 8.08121 141.892 9.07305L143.753 8.34L145.614 7.60695C144.964 5.95879 143.936 4.57382 142.546 3.48539L141.313 5.06ZM143.753 8.34L141.895 9.07951C142.308 10.1189 142.533 11.323 142.533 12.72H144.533H146.533C146.533 10.8903 146.237 9.17447 145.611 7.60049L143.753 8.34ZM144.533 12.72H142.533C142.533 14.7878 142.024 16.44 141.093 17.7756L142.733 18.92L144.373 20.0644C145.841 17.96 146.533 15.4789 146.533 12.72H144.533ZM142.733 18.92L141.097 17.7696C140.281 18.9298 138.946 19.7662 136.784 20.104L137.093 22.08L137.402 24.056C140.36 23.5938 142.785 22.3235 144.369 20.0704L142.733 18.92ZM137.093 22.08L136.96 20.0844L134.56 20.2444L134.693 22.24L134.826 24.2356L137.226 24.0756L137.093 22.08ZM134.693 22.24V20.24H127.973V22.24V24.24H134.693V22.24ZM127.973 22.24H125.973V32H127.973H129.973V22.24H127.973ZM127.973 32V30H122.533V32V34H127.973V32ZM138.773 32L140.573 31.1278L134.893 19.4078L133.093 20.28L131.293 21.1522L136.973 32.8722L138.773 32ZM133.093 20.28L133.472 22.2438L139.072 21.1638L138.693 19.2L138.314 17.2362L132.714 18.3162L133.093 20.28ZM138.693 19.2L136.895 20.0764L143.135 32.8764L144.933 32L146.731 31.1236L140.491 18.3236L138.693 19.2ZM144.933 32V30H138.773V32V34H144.933V32ZM127.973 17.16V19.16H134.453V17.16V15.16H127.973V17.16ZM134.453 17.16V19.16C134.795 19.16 135.156 19.1438 135.532 19.1136L135.373 17.12L135.213 15.1264C134.923 15.1496 134.671 15.16 134.453 15.16V17.16ZM135.373 17.12L135.532 19.1136C135.979 19.0779 136.418 19.0043 136.842 18.883L136.293 16.96L135.743 15.037C135.608 15.0757 135.434 15.1087 135.213 15.1264L135.373 17.12ZM136.293 16.96L136.819 18.8895C137.846 18.6093 138.795 18.0973 139.511 17.2616L137.993 15.96L136.474 14.6584C136.391 14.756 136.206 14.9107 135.767 15.0305L136.293 16.96ZM137.993 15.96L139.529 17.2404C140.109 16.5449 140.526 15.7532 140.75 14.8757L138.813 14.38L136.875 13.8843C136.806 14.1535 136.677 14.4151 136.456 14.6796L137.993 15.96ZM138.813 14.38L140.742 14.9062C140.941 14.1763 141.053 13.4448 141.053 12.72H139.053H137.053C137.053 13.0352 137.004 13.4104 136.883 13.8538L138.813 14.38ZM139.053 12.72H141.053C141.053 11.9943 140.941 11.266 140.739 10.5424L138.813 11.08L136.886 11.6176C137.004 12.0407 137.053 12.4057 137.053 12.72H139.053ZM138.813 11.08L140.753 10.5949C140.53 9.70196 140.11 8.89682 139.511 8.19842L137.993 9.5L136.474 10.8016C136.676 11.0365 136.802 11.2847 136.873 11.5651L138.813 11.08ZM137.993 9.5L139.529 8.21963C138.815 7.3621 137.861 6.83457 136.819 6.55047L136.293 8.48L135.767 10.4095C136.192 10.5254 136.371 10.6779 136.456 10.7804L137.993 9.5ZM136.293 8.48L136.842 6.55695C136.418 6.43569 135.979 6.36208 135.532 6.32637L135.373 8.32L135.213 10.3136C135.434 10.3313 135.608 10.3643 135.743 10.403L136.293 8.48ZM135.373 8.32L135.532 6.32637C135.156 6.29624 134.795 6.28 134.453 6.28V8.28V10.28C134.671 10.28 134.923 10.2904 135.213 10.3136L135.373 8.32ZM134.453 8.28V6.28H127.973V8.28V10.28H134.453V8.28ZM127.973 8.28H125.973V17.16H127.973H129.973V8.28H127.973ZM151.73 32H149.73V34H151.73V32ZM151.73 3.2V1.2H149.73V3.2H151.73ZM165.01 3.24L164.896 5.23674L164.925 5.23841L164.954 5.23923L165.01 3.24ZM166.29 3.36L165.938 5.32885L165.961 5.33288L165.983 5.33639L166.29 3.36ZM170.51 5.06L169.267 6.62734L169.277 6.63461L170.51 5.06ZM172.95 8.34L171.089 9.07305L171.091 9.07951L172.95 8.34ZM171.93 18.92L173.566 20.0704L173.57 20.0644L171.93 18.92ZM166.29 22.08L166.423 24.0756L166.511 24.0697L166.598 24.056L166.29 22.08ZM163.89 22.24V24.24H163.956L164.023 24.2356L163.89 22.24ZM157.17 22.24V20.24H155.17V22.24H157.17ZM157.17 32V34H159.17V32H157.17ZM167.97 32L166.17 32.8722L166.716 34H167.97V32ZM162.29 20.28L161.911 18.3162L159.354 18.8092L160.49 21.1522L162.29 20.28ZM167.89 19.2L169.687 18.3236L169.016 16.946L167.511 17.2362L167.89 19.2ZM174.13 32V34H177.33L175.927 31.1236L174.13 32ZM157.17 17.16H155.17V19.16H157.17V17.16ZM164.57 17.12L164.729 19.1136L164.729 19.1136L164.57 17.12ZM165.49 16.96L164.963 15.0305L164.952 15.0336L164.94 15.037L165.49 16.96ZM167.19 15.96L168.708 17.2616L168.717 17.251L168.726 17.2404L167.19 15.96ZM168.01 14.38L166.08 13.8538L166.076 13.869L166.072 13.8843L168.01 14.38ZM168.01 11.08L166.069 11.5651L166.076 11.5914L166.083 11.6176L168.01 11.08ZM167.19 9.5L165.653 10.7804L165.662 10.791L165.671 10.8016L167.19 9.5ZM165.49 8.48L164.94 10.403L164.952 10.4064L164.963 10.4095L165.49 8.48ZM164.57 8.32L164.41 10.3136L164.41 10.3136L164.57 8.32ZM157.17 8.28V6.28H155.17V8.28H157.17ZM151.73 32H153.73V3.2H151.73H149.73V32H151.73ZM151.73 3.2V5.2H163.89V3.2V1.2H151.73V3.2ZM163.89 3.2V5.2C164.115 5.2 164.445 5.21102 164.896 5.23674L165.01 3.24L165.124 1.24326C164.641 1.21564 164.224 1.2 163.89 1.2V3.2ZM165.01 3.24L164.954 5.23923C165.36 5.25049 165.684 5.28353 165.938 5.32885L166.29 3.36L166.641 1.39114C166.148 1.30314 165.62 1.25617 165.065 1.24077L165.01 3.24ZM166.29 3.36L165.983 5.33639C167.445 5.56297 168.505 6.0228 169.267 6.62731L170.51 5.06L171.752 3.49268C170.328 2.36386 168.575 1.69036 166.596 1.38361L166.29 3.36ZM170.51 5.06L169.277 6.63461C170.1 7.27951 170.698 8.08121 171.089 9.07305L172.95 8.34L174.811 7.60695C174.161 5.95879 173.133 4.57382 171.743 3.48539L170.51 5.06ZM172.95 8.34L171.091 9.07951C171.505 10.1189 171.73 11.323 171.73 12.72H173.73H175.73C175.73 10.8903 175.434 9.17447 174.808 7.60049L172.95 8.34ZM173.73 12.72H171.73C171.73 14.7878 171.221 16.44 170.289 17.7756L171.93 18.92L173.57 20.0644C175.038 17.96 175.73 15.4789 175.73 12.72H173.73ZM171.93 18.92L170.294 17.7696C169.478 18.9298 168.143 19.7662 165.981 20.104L166.29 22.08L166.598 24.056C169.557 23.5938 171.981 22.3235 173.566 20.0704L171.93 18.92ZM166.29 22.08L166.157 20.0844L163.757 20.2444L163.89 22.24L164.023 24.2356L166.423 24.0756L166.29 22.08ZM163.89 22.24V20.24H157.17V22.24V24.24H163.89V22.24ZM157.17 22.24H155.17V32H157.17H159.17V22.24H157.17ZM157.17 32V30H151.73V32V34H157.17V32ZM167.97 32L169.769 31.1278L164.089 19.4078L162.29 20.28L160.49 21.1522L166.17 32.8722L167.97 32ZM162.29 20.28L162.668 22.2438L168.268 21.1638L167.89 19.2L167.511 17.2362L161.911 18.3162L162.29 20.28ZM167.89 19.2L166.092 20.0764L172.332 32.8764L174.13 32L175.927 31.1236L169.687 18.3236L167.89 19.2ZM174.13 32V30H167.97V32V34H174.13V32ZM157.17 17.16V19.16H163.65V17.16V15.16H157.17V17.16ZM163.65 17.16V19.16C163.992 19.16 164.353 19.1438 164.729 19.1136L164.57 17.12L164.41 15.1264C164.12 15.1496 163.867 15.16 163.65 15.16V17.16ZM164.57 17.12L164.729 19.1136C165.176 19.0779 165.615 19.0043 166.039 18.883L165.49 16.96L164.94 15.037C164.805 15.0757 164.631 15.1087 164.41 15.1264L164.57 17.12ZM165.49 16.96L166.016 18.8895C167.043 18.6093 167.992 18.0973 168.708 17.2616L167.19 15.96L165.671 14.6584C165.587 14.756 165.403 14.9107 164.963 15.0305L165.49 16.96ZM167.19 15.96L168.726 17.2404C169.306 16.5449 169.723 15.7532 169.947 14.8757L168.01 14.38L166.072 13.8843C166.003 14.1535 165.874 14.4151 165.653 14.6796L167.19 15.96ZM168.01 14.38L169.939 14.9062C170.138 14.1763 170.25 13.4448 170.25 12.72H168.25H166.25C166.25 13.0352 166.201 13.4104 166.08 13.8538L168.01 14.38ZM168.25 12.72H170.25C170.25 11.9943 170.138 11.266 169.936 10.5424L168.01 11.08L166.083 11.6176C166.201 12.0407 166.25 12.4057 166.25 12.72H168.25ZM168.01 11.08L169.95 10.5949C169.727 9.70196 169.307 8.89682 168.708 8.19842L167.19 9.5L165.671 10.8016C165.873 11.0365 165.999 11.2847 166.069 11.5651L168.01 11.08ZM167.19 9.5L168.726 8.21963C168.012 7.3621 167.058 6.83457 166.016 6.55047L165.49 8.48L164.963 10.4095C165.388 10.5254 165.568 10.6779 165.653 10.7804L167.19 9.5ZM165.49 8.48L166.039 6.55695C165.615 6.43569 165.176 6.36208 164.729 6.32637L164.57 8.32L164.41 10.3136C164.631 10.3313 164.805 10.3643 164.94 10.403L165.49 8.48ZM164.57 8.32L164.729 6.32637C164.353 6.29624 163.992 6.28 163.65 6.28V8.28V10.28C163.867 10.28 164.12 10.2904 164.41 10.3136L164.57 8.32ZM163.65 8.28V6.28H157.17V8.28V10.28H163.65V8.28ZM157.17 8.28H155.17V17.16H157.17H159.17V8.28H157.17ZM185.827 30.72L184.794 32.4331L184.799 32.4359L185.827 30.72ZM181.007 25.46L179.216 26.3502L179.22 26.3587L181.007 25.46ZM181.007 9.74L179.22 8.84134L179.216 8.84981L181.007 9.74ZM185.827 4.48L184.799 2.76404L184.794 2.76695L185.827 4.48ZM200.727 4.48L199.694 6.19305L199.699 6.19595L200.727 4.48ZM205.547 9.74L203.756 10.6302L203.76 10.6387L205.547 9.74ZM205.547 25.46L203.76 24.5613L203.756 24.5698L205.547 25.46ZM200.727 30.72L199.699 29.004L199.694 29.007L200.727 30.72ZM193.287 27.48L193.257 29.4798L193.287 27.48ZM197.847 26.3L198.96 27.9613L198.96 27.9613L197.847 26.3ZM200.567 22.84L198.717 22.0802L198.714 22.0873L198.711 22.0944L200.567 22.84ZM200.567 12.4L198.715 13.1573L198.718 13.1645L198.721 13.1716L200.567 12.4ZM197.847 8.98L198.96 7.31871L198.96 7.31871L197.847 8.98ZM193.287 7.72L193.316 5.72021L193.316 5.72021L193.287 7.72ZM185.987 12.36L184.137 11.6002L184.134 11.6073L184.131 11.6144L185.987 12.36ZM185.987 22.8L184.135 23.5573L184.138 23.5645L184.141 23.5716L185.987 22.8ZM188.727 26.22L187.613 27.8813L187.613 27.8813L188.727 26.22ZM193.287 32.6V30.6C190.703 30.6 188.585 30.0403 186.854 29.0041L185.827 30.72L184.799 32.4359C187.255 33.9063 190.111 34.6 193.287 34.6V32.6ZM185.827 30.72L186.859 29.007C185.115 27.9562 183.764 26.4912 182.793 24.5613L181.007 25.46L179.22 26.3587C180.516 28.9355 182.378 30.9771 184.794 32.433L185.827 30.72ZM181.007 25.46L182.798 24.5698C181.838 22.6402 181.327 20.3351 181.327 17.6H179.327H177.327C177.327 20.8382 177.935 23.7731 179.216 26.3502L181.007 25.46ZM179.327 17.6H181.327C181.327 14.8649 181.838 12.5598 182.798 10.6302L181.007 9.74L179.216 8.84981C177.935 11.4269 177.327 14.3618 177.327 17.6H179.327ZM181.007 9.74L182.793 10.6387C183.764 8.70884 185.115 7.24378 186.859 6.19304L185.827 4.48L184.794 2.76695C182.378 4.22288 180.516 6.2645 179.22 8.84135L181.007 9.74ZM185.827 4.48L186.854 6.19595C188.585 5.15965 190.703 4.6 193.287 4.6V2.6V0.599999C190.111 0.599999 187.255 1.29368 184.799 2.76405L185.827 4.48ZM193.287 2.6V4.6C195.871 4.6 197.98 5.15979 199.694 6.19304L200.727 4.48L201.759 2.76695C199.314 1.29354 196.462 0.599999 193.287 0.599999V2.6ZM200.727 4.48L199.699 6.19595C201.454 7.24633 202.8 8.70814 203.756 10.6302L205.547 9.74L207.338 8.84981C206.053 6.26519 204.186 4.22033 201.754 2.76405L200.727 4.48ZM205.547 9.74L203.76 10.6387C204.729 12.5663 205.247 14.8683 205.247 17.6H207.247H209.247C209.247 14.3584 208.63 11.4204 207.333 8.84135L205.547 9.74ZM207.247 17.6H205.247C205.247 20.3317 204.729 22.6337 203.76 24.5613L205.547 25.46L207.333 26.3587C208.63 23.7796 209.247 20.8416 209.247 17.6H207.247ZM205.547 25.46L203.756 24.5698C202.8 26.4919 201.454 27.9537 199.699 29.0041L200.727 30.72L201.754 32.4359C204.186 30.9797 206.053 28.9348 207.338 26.3502L205.547 25.46ZM200.727 30.72L199.694 29.007C197.98 30.0402 195.871 30.6 193.287 30.6V32.6V34.6C196.462 34.6 199.314 33.9065 201.759 32.433L200.727 30.72ZM193.287 27.48L193.257 29.4798C195.388 29.5109 197.333 29.052 198.96 27.9613L197.847 26.3L196.733 24.6387C195.933 25.1747 194.838 25.5024 193.316 25.4802L193.287 27.48ZM197.847 26.3L198.96 27.9613C200.541 26.9016 201.688 25.4122 202.422 23.5856L200.567 22.84L198.711 22.0944C198.245 23.2544 197.579 24.0717 196.733 24.6387L197.847 26.3ZM200.567 22.84L202.417 23.5998C203.15 21.8153 203.487 19.8004 203.487 17.6H201.487H199.487C199.487 19.3996 199.21 20.878 198.717 22.0802L200.567 22.84ZM201.487 17.6H203.487C203.487 15.401 203.15 13.3937 202.412 11.6284L200.567 12.4L198.721 13.1716C199.21 14.3396 199.487 15.799 199.487 17.6H201.487ZM200.567 12.4L202.418 11.6427C201.68 9.8408 200.532 8.37227 198.96 7.31871L197.847 8.98L196.733 10.6413C197.588 11.2144 198.253 12.0259 198.715 13.1573L200.567 12.4ZM197.847 8.98L198.96 7.31871C197.354 6.24189 195.432 5.75111 193.316 5.72021L193.287 7.72L193.257 9.71978C194.794 9.74222 195.913 10.0914 196.733 10.6413L197.847 8.98ZM193.287 7.72L193.316 5.72021C191.185 5.68911 189.24 6.14799 187.613 7.23871L188.727 8.9L189.84 10.5613C190.64 10.0253 191.735 9.69756 193.257 9.71978L193.287 7.72ZM188.727 8.9L187.613 7.23871C186.036 8.29586 184.884 9.78014 184.137 11.6002L185.987 12.36L187.837 13.1198C188.316 11.9532 188.991 11.1308 189.84 10.5613L188.727 8.9ZM185.987 12.36L184.131 11.6144C183.415 13.3946 183.087 15.4044 183.087 17.6H185.087H187.087C187.087 15.7956 187.358 14.312 187.842 13.1056L185.987 12.36ZM185.087 17.6H183.087C183.087 19.7942 183.415 21.7963 184.135 23.5573L185.987 22.8L187.838 22.0427C187.358 20.8704 187.087 19.4058 187.087 17.6H185.087ZM185.987 22.8L184.141 23.5716C184.892 25.3668 186.045 26.8302 187.613 27.8813L188.727 26.22L189.84 24.5587C188.981 23.9831 188.308 23.1665 187.832 22.0284L185.987 22.8ZM188.727 26.22L187.613 27.8813C189.219 28.9581 191.141 29.4489 193.257 29.4798L193.287 27.48L193.316 25.4802C191.779 25.4578 190.66 25.1086 189.84 24.5587L188.727 26.22ZM214.039 32H212.039V34H214.039V32ZM214.039 3.2V1.2H212.039V3.2H214.039ZM219.479 3.2H221.479V1.2H219.479V3.2ZM219.479 26.92H217.479V28.92H219.479V26.92ZM231.879 26.92H233.879V24.92H231.879V26.92ZM231.879 32V34H233.879V32H231.879ZM214.039 32H216.039V3.2H214.039H212.039V32H214.039ZM214.039 3.2V5.2H219.479V3.2V1.2H214.039V3.2ZM219.479 3.2H217.479V26.92H219.479H221.479V3.2H219.479ZM219.479 26.92V28.92H231.879V26.92V24.92H219.479V26.92ZM231.879 26.92H229.879V32H231.879H233.879V26.92H231.879ZM231.879 32V30H214.039V32V34H231.879V32ZM238.08 32H236.08V34H238.08V32ZM238.08 3.2V1.2H236.08V3.2H238.08ZM243.52 3.2H245.52V1.2H243.52V3.2ZM243.52 26.92H241.52V28.92H243.52V26.92ZM255.92 26.92H257.92V24.92H255.92V26.92ZM255.92 32V34H257.92V32H255.92ZM238.08 32H240.08V3.2H238.08H236.08V32H238.08ZM238.08 3.2V5.2H243.52V3.2V1.2H238.08V3.2ZM243.52 3.2H241.52V26.92H243.52H245.52V3.2H243.52ZM243.52 26.92V28.92H255.92V26.92V24.92H243.52V26.92ZM255.92 26.92H253.92V32H255.92H257.92V26.92H255.92ZM255.92 32V30H238.08V32V34H255.92V32ZM265.839 30.72L264.807 32.4331L264.812 32.4359L265.839 30.72ZM261.019 25.46L259.228 26.3502L259.232 26.3587L261.019 25.46ZM261.019 9.74L259.232 8.84134L259.228 8.84981L261.019 9.74ZM265.839 4.48L264.812 2.76404L264.807 2.76695L265.839 4.48ZM280.739 4.48L279.707 6.19305L279.712 6.19595L280.739 4.48ZM285.559 9.74L283.768 10.6302L283.772 10.6387L285.559 9.74ZM285.559 25.46L283.772 24.5613L283.768 24.5698L285.559 25.46ZM280.739 30.72L279.712 29.004L279.707 29.007L280.739 30.72ZM273.299 27.48L273.27 29.4798L273.299 27.48ZM277.859 26.3L278.973 27.9613L278.973 27.9613L277.859 26.3ZM280.579 22.84L278.729 22.0802L278.726 22.0873L278.723 22.0944L280.579 22.84ZM280.579 12.4L278.728 13.1573L278.731 13.1645L278.734 13.1716L280.579 12.4ZM277.859 8.98L278.973 7.31871L278.973 7.31871L277.859 8.98ZM273.299 7.72L273.328 5.72021L273.328 5.72021L273.299 7.72ZM265.999 12.36L264.149 11.6002L264.146 11.6073L264.143 11.6144L265.999 12.36ZM265.999 22.8L264.148 23.5573L264.151 23.5645L264.154 23.5716L265.999 22.8ZM268.739 26.22L267.625 27.8813L267.625 27.8813L268.739 26.22ZM273.299 32.6V30.6C270.715 30.6 268.597 30.0403 266.866 29.0041L265.839 30.72L264.812 32.4359C267.268 33.9063 270.123 34.6 273.299 34.6V32.6ZM265.839 30.72L266.871 29.007C265.128 27.9562 263.776 26.4912 262.806 24.5613L261.019 25.46L259.232 26.3587C260.528 28.9355 262.391 30.9771 264.807 32.433L265.839 30.72ZM261.019 25.46L262.81 24.5698C261.851 22.6402 261.339 20.3351 261.339 17.6H259.339H257.339C257.339 20.8382 257.947 23.7731 259.228 26.3502L261.019 25.46ZM259.339 17.6H261.339C261.339 14.8649 261.851 12.5598 262.81 10.6302L261.019 9.74L259.228 8.84981C257.947 11.4269 257.339 14.3618 257.339 17.6H259.339ZM261.019 9.74L262.806 10.6387C263.776 8.70884 265.128 7.24378 266.871 6.19304L265.839 4.48L264.807 2.76695C262.391 4.22288 260.528 6.2645 259.232 8.84135L261.019 9.74ZM265.839 4.48L266.866 6.19595C268.597 5.15965 270.715 4.6 273.299 4.6V2.6V0.599999C270.123 0.599999 267.268 1.29368 264.812 2.76405L265.839 4.48ZM273.299 2.6V4.6C275.884 4.6 277.992 5.15979 279.707 6.19304L280.739 4.48L281.771 2.76695C279.326 1.29354 276.475 0.599999 273.299 0.599999V2.6ZM280.739 4.48L279.712 6.19595C281.466 7.24633 282.813 8.70814 283.768 10.6302L285.559 9.74L287.35 8.84981C286.065 6.26519 284.199 4.22033 281.766 2.76405L280.739 4.48ZM285.559 9.74L283.772 10.6387C284.742 12.5663 285.259 14.8683 285.259 17.6H287.259H289.259C289.259 14.3584 288.643 11.4204 287.346 8.84135L285.559 9.74ZM287.259 17.6H285.259C285.259 20.3317 284.742 22.6337 283.772 24.5613L285.559 25.46L287.346 26.3587C288.643 23.7796 289.259 20.8416 289.259 17.6H287.259ZM285.559 25.46L283.768 24.5698C282.813 26.4919 281.466 27.9537 279.712 29.0041L280.739 30.72L281.766 32.4359C284.199 30.9797 286.065 28.9348 287.35 26.3502L285.559 25.46ZM280.739 30.72L279.707 29.007C277.992 30.0402 275.884 30.6 273.299 30.6V32.6V34.6C276.475 34.6 279.326 33.9065 281.771 32.433L280.739 30.72ZM273.299 27.48L273.27 29.4798C275.401 29.5109 277.346 29.052 278.973 27.9613L277.859 26.3L276.745 24.6387C275.946 25.1747 274.851 25.5024 273.328 25.4802L273.299 27.48ZM277.859 26.3L278.973 27.9613C280.554 26.9016 281.701 25.4122 282.435 23.5856L280.579 22.84L278.723 22.0944C278.257 23.2544 277.591 24.0717 276.745 24.6387L277.859 26.3ZM280.579 22.84L282.429 23.5998C283.162 21.8153 283.499 19.8004 283.499 17.6H281.499H279.499C279.499 19.3996 279.223 20.878 278.729 22.0802L280.579 22.84ZM281.499 17.6H283.499C283.499 15.401 283.162 13.3937 282.424 11.6284L280.579 12.4L278.734 13.1716C279.222 14.3396 279.499 15.799 279.499 17.6H281.499ZM280.579 12.4L282.43 11.6427C281.693 9.8408 280.544 8.37227 278.973 7.31871L277.859 8.98L276.745 10.6413C277.6 11.2144 278.265 12.0259 278.728 13.1573L280.579 12.4ZM277.859 8.98L278.973 7.31871C277.366 6.24189 275.445 5.75111 273.328 5.72021L273.299 7.72L273.27 9.71978C274.807 9.74222 275.925 10.0914 276.745 10.6413L277.859 8.98ZM273.299 7.72L273.328 5.72021C271.198 5.68911 269.253 6.14799 267.625 7.23871L268.739 8.9L269.853 10.5613C270.652 10.0253 271.747 9.69756 273.27 9.71978L273.299 7.72ZM268.739 8.9L267.625 7.23871C266.048 8.29586 264.897 9.78014 264.149 11.6002L265.999 12.36L267.849 13.1198C268.328 11.9532 269.003 11.1308 269.853 10.5613L268.739 8.9ZM265.999 12.36L264.143 11.6144C263.428 13.3946 263.099 15.4044 263.099 17.6H265.099H267.099C267.099 15.7956 267.37 14.312 267.855 13.1056L265.999 12.36ZM265.099 17.6H263.099C263.099 19.7942 263.428 21.7963 264.148 23.5573L265.999 22.8L267.85 22.0427C267.371 20.8704 267.099 19.4058 267.099 17.6H265.099ZM265.999 22.8L264.154 23.5716C264.905 25.3668 266.058 26.8302 267.625 27.8813L268.739 26.22L269.853 24.5587C268.994 23.9831 268.32 23.1665 267.844 22.0284L265.999 22.8ZM268.739 26.22L267.625 27.8813C269.232 28.9581 271.153 29.4489 273.27 29.4798L273.299 27.48L273.328 25.4802C271.791 25.4578 270.673 25.1086 269.853 24.5587L268.739 26.22Z" fill="black" mask="url(#path-1-outside-1_175_40)"/>
</g>
<defs>
<filter id="filter0_d_175_40" x="0.800049" y="0.600098" width="292.459" height="42" filterUnits="userSpaceOnUse" color-interpolation-filters="sRGB">
<feFlood flood-opacity="0" result="BackgroundImageFix"/>
<feColorMatrix in="SourceAlpha" type="matrix" values="0 0 0 0 0 0 0 0 0 0 0 0 0 0 0 0 0 0 127 0" result="hardAlpha"/>
<feOffset dy="4"/>
<feGaussianBlur stdDeviation="2"/>
<feComposite in2="hardAlpha" operator="out"/>
<feColorMatrix type="matrix" values="0 0 0 0 0.533333 0 0 0 0 0.47451 0 0 0 0 0.807843 0 0 0 1 0"/>
<feBlend mode="normal" in2="BackgroundImageFix" result="effect1_dropShadow_175_40"/>
<feBlend mode="normal" in="SourceGraphic" in2="effect1_dropShadow_175_40" result="shape"/>
</filter>
</defs>
</svg>
