<svg width="371" height="51" viewBox="0 0 371 51" fill="none" xmlns="http://www.w3.org/2000/svg">
<g filter="url(#filter0_d_175_40)">
<mask id="path-1-outside-1_175_40" maskUnits="userSpaceOnUse" x="4" y="0" width="363" height="43" fill="black">
<rect fill="white" x="4" width="363" height="43"/>
<path d="M6.57 40V3.28H18.453C18.742 3.28 19.337 3.2885 20.238 3.3055C21.139 3.3225 22.006 3.382 22.839 3.484C25.797 3.841 28.3045 4.8695 30.3615 6.5695C32.4185 8.2695 33.9825 10.4285 35.0535 13.0465C36.1245 15.6645 36.66 18.529 36.66 21.64C36.66 24.751 36.1245 27.6155 35.0535 30.2335C33.9825 32.8515 32.4185 35.0105 30.3615 36.7105C28.3045 38.4105 25.797 39.439 22.839 39.796C22.006 39.898 21.139 39.9575 20.238 39.9745C19.337 39.9915 18.742 40 18.453 40H6.57ZM13.608 33.472H18.453C18.912 33.472 19.5325 33.4635 20.3145 33.4465C21.0965 33.4125 21.802 33.336 22.431 33.217C24.029 32.894 25.3295 32.146 26.3325 30.973C27.3525 29.8 28.1005 28.389 28.5765 26.74C29.0695 25.091 29.316 23.391 29.316 21.64C29.316 19.804 29.061 18.0615 28.551 16.4125C28.058 14.7635 27.3015 13.3695 26.2815 12.2305C25.2615 11.0915 23.978 10.369 22.431 10.063C21.802 9.927 21.0965 9.8505 20.3145 9.8335C19.5325 9.8165 18.912 9.808 18.453 9.808H13.608V33.472ZM45.838 40V3.28H69.808V9.757H52.774V17.611H66.748V24.088H52.774V33.523H69.808V40H45.838ZM92.852 40.765C90.132 40.765 87.6755 40.289 85.4825 39.337C83.3065 38.368 81.513 36.991 80.102 35.206C78.708 33.404 77.824 31.262 77.45 28.78L84.692 27.709C85.202 29.817 86.256 31.4405 87.854 32.5795C89.452 33.7185 91.271 34.288 93.311 34.288C94.45 34.288 95.555 34.1095 96.626 33.7525C97.697 33.3955 98.5725 32.8685 99.2525 32.1715C99.9495 31.4745 100.298 30.616 100.298 29.596C100.298 29.222 100.239 28.865 100.12 28.525C100.018 28.168 99.839 27.8365 99.584 27.5305C99.329 27.2245 98.9635 26.9355 98.4875 26.6635C98.0285 26.3915 97.442 26.145 96.728 25.924L87.191 23.119C86.477 22.915 85.644 22.626 84.692 22.252C83.757 21.878 82.8475 21.3425 81.9635 20.6455C81.0795 19.9485 80.34 19.0305 79.745 17.8915C79.167 16.7355 78.878 15.282 78.878 13.531C78.878 11.066 79.4985 9.0175 80.7395 7.3855C81.9805 5.7535 83.638 4.538 85.712 3.739C87.786 2.94 90.081 2.549 92.597 2.566C95.13 2.6 97.391 3.0335 99.38 3.8665C101.369 4.6995 103.035 5.915 104.378 7.513C105.721 9.094 106.69 11.032 107.285 13.327L99.788 14.602C99.516 13.412 99.0145 12.409 98.2835 11.593C97.5525 10.777 96.677 10.1565 95.657 9.7315C94.654 9.3065 93.6 9.077 92.495 9.043C91.407 9.009 90.3785 9.162 89.4095 9.502C88.4575 9.825 87.6755 10.301 87.0635 10.93C86.4685 11.559 86.171 12.307 86.171 13.174C86.171 13.973 86.4175 14.6275 86.9105 15.1375C87.4035 15.6305 88.024 16.03 88.772 16.336C89.52 16.642 90.285 16.897 91.067 17.101L97.442 18.835C98.394 19.09 99.448 19.43 100.604 19.855C101.76 20.263 102.865 20.841 103.919 21.589C104.99 22.32 105.866 23.289 106.546 24.496C107.243 25.703 107.591 27.233 107.591 29.086C107.591 31.058 107.175 32.7835 106.342 34.2625C105.526 35.7245 104.421 36.94 103.027 37.909C101.633 38.861 100.052 39.575 98.2835 40.051C96.5325 40.527 94.722 40.765 92.852 40.765ZM113.706 40L124.926 3.28H135.279L146.499 40H139.359L129.363 7.615H130.689L120.846 40H113.706ZM120.438 32.35V25.873H139.818V32.35H120.438ZM154.129 40V3.28H169.633C169.99 3.28 170.466 3.297 171.061 3.331C171.673 3.348 172.217 3.399 172.693 3.484C174.886 3.824 176.68 4.5465 178.074 5.6515C179.485 6.7565 180.522 8.1505 181.185 9.8335C181.848 11.4995 182.179 13.361 182.179 15.418C182.179 18.495 181.414 21.13 179.884 23.323C178.354 25.499 175.957 26.842 172.693 27.352L169.633 27.556H161.065V40H154.129ZM174.835 40L167.593 25.057L174.733 23.68L182.689 40H174.835ZM161.065 21.079H169.327C169.684 21.079 170.075 21.062 170.5 21.028C170.925 20.994 171.316 20.926 171.673 20.824C172.608 20.569 173.331 20.144 173.841 19.549C174.351 18.937 174.699 18.2655 174.886 17.5345C175.09 16.7865 175.192 16.081 175.192 15.418C175.192 14.755 175.09 14.058 174.886 13.327C174.699 12.579 174.351 11.9075 173.841 11.3125C173.331 10.7005 172.608 10.267 171.673 10.012C171.316 9.91 170.925 9.842 170.5 9.808C170.075 9.774 169.684 9.757 169.327 9.757H161.065V21.079ZM191.355 40V3.28H206.859C207.216 3.28 207.692 3.297 208.287 3.331C208.899 3.348 209.443 3.399 209.919 3.484C212.112 3.824 213.906 4.5465 215.3 5.6515C216.711 6.7565 217.748 8.1505 218.411 9.8335C219.074 11.4995 219.405 13.361 219.405 15.418C219.405 18.495 218.64 21.13 217.11 23.323C215.58 25.499 213.183 26.842 209.919 27.352L206.859 27.556H198.291V40H191.355ZM212.061 40L204.819 25.057L211.959 23.68L219.915 40H212.061ZM198.291 21.079H206.553C206.91 21.079 207.301 21.062 207.726 21.028C208.151 20.994 208.542 20.926 208.899 20.824C209.834 20.569 210.557 20.144 211.067 19.549C211.577 18.937 211.925 18.2655 212.112 17.5345C212.316 16.7865 212.418 16.081 212.418 15.418C212.418 14.755 212.316 14.058 212.112 13.327C211.925 12.579 211.577 11.9075 211.067 11.3125C210.557 10.7005 209.834 10.267 208.899 10.012C208.542 9.91 208.151 9.842 207.726 9.808C207.301 9.774 206.91 9.757 206.553 9.757H198.291V21.079ZM244.34 40.765C240.668 40.765 237.498 39.966 234.829 38.368C232.177 36.77 230.128 34.5345 228.683 31.6615C227.255 28.7885 226.541 25.448 226.541 21.64C226.541 17.832 227.255 14.4915 228.683 11.6185C230.128 8.7455 232.177 6.51 234.829 4.912C237.498 3.314 240.668 2.515 244.34 2.515C248.012 2.515 251.174 3.314 253.826 4.912C256.495 6.51 258.544 8.7455 259.972 11.6185C261.417 14.4915 262.139 17.832 262.139 21.64C262.139 25.448 261.417 28.7885 259.972 31.6615C258.544 34.5345 256.495 36.77 253.826 38.368C251.174 39.966 248.012 40.765 244.34 40.765ZM244.34 34.237C246.669 34.271 248.607 33.7695 250.154 32.7325C251.701 31.6955 252.857 30.225 253.622 28.321C254.404 26.417 254.795 24.19 254.795 21.64C254.795 19.09 254.404 16.88 253.622 15.01C252.857 13.14 251.701 11.6865 250.154 10.6495C248.607 9.6125 246.669 9.077 244.34 9.043C242.011 9.009 240.073 9.5105 238.526 10.5475C236.979 11.5845 235.815 13.055 235.033 14.959C234.268 16.863 233.885 19.09 233.885 21.64C233.885 24.19 234.268 26.4 235.033 28.27C235.815 30.14 236.979 31.5935 238.526 32.6305C240.073 33.6675 242.011 34.203 244.34 34.237ZM270.8 40V3.28H277.736V33.523H293.546V40H270.8ZM301.452 40V3.28H308.388V33.523H324.198V40H301.452ZM346.356 40.765C342.684 40.765 339.514 39.966 336.845 38.368C334.193 36.77 332.144 34.5345 330.699 31.6615C329.271 28.7885 328.557 25.448 328.557 21.64C328.557 17.832 329.271 14.4915 330.699 11.6185C332.144 8.7455 334.193 6.51 336.845 4.912C339.514 3.314 342.684 2.515 346.356 2.515C350.028 2.515 353.19 3.314 355.842 4.912C358.511 6.51 360.56 8.7455 361.988 11.6185C363.433 14.4915 364.155 17.832 364.155 21.64C364.155 25.448 363.433 28.7885 361.988 31.6615C360.56 34.5345 358.511 36.77 355.842 38.368C353.19 39.966 350.028 40.765 346.356 40.765ZM346.356 34.237C348.685 34.271 350.623 33.7695 352.17 32.7325C353.717 31.6955 354.873 30.225 355.638 28.321C356.42 26.417 356.811 24.19 356.811 21.64C356.811 19.09 356.42 16.88 355.638 15.01C354.873 13.14 353.717 11.6865 352.17 10.6495C350.623 9.6125 348.685 9.077 346.356 9.043C344.027 9.009 342.089 9.5105 340.542 10.5475C338.995 11.5845 337.831 13.055 337.049 14.959C336.284 16.863 335.901 19.09 335.901 21.64C335.901 24.19 336.284 26.4 337.049 28.27C337.831 30.14 338.995 31.5935 340.542 32.6305C342.089 33.6675 344.027 34.203 346.356 34.237Z"/>
</mask>
<path d="M6.57 40H4.57V42H6.57V40ZM6.57 3.28V1.28H4.57V3.28H6.57ZM20.238 3.3055L20.2003 5.30514L20.2003 5.30514L20.238 3.3055ZM22.839 3.484L22.5959 5.46917L22.5994 5.46959L22.839 3.484ZM30.3615 6.5695L31.6356 5.02785L31.6356 5.02784L30.3615 6.5695ZM35.0535 13.0465L36.9046 12.2892L36.9046 12.2892L35.0535 13.0465ZM35.0535 30.2335L36.9046 30.9908L36.9046 30.9908L35.0535 30.2335ZM30.3615 36.7105L31.6356 38.2522L31.6356 38.2522L30.3615 36.7105ZM22.839 39.796L22.5994 37.8104L22.5959 37.8108L22.839 39.796ZM20.238 39.9745L20.2757 41.9741L20.238 39.9745ZM13.608 33.472H11.608V35.472H13.608V33.472ZM20.3145 33.4465L20.358 35.446L20.3797 35.4456L20.4014 35.4446L20.3145 33.4465ZM22.431 33.217L22.8028 35.1821L22.815 35.1798L22.8272 35.1774L22.431 33.217ZM26.3325 30.973L24.8233 29.6606L24.8178 29.6669L24.8124 29.6732L26.3325 30.973ZM28.5765 26.74L26.6603 26.1671L26.6576 26.1762L26.655 26.1853L28.5765 26.74ZM28.551 16.4125L26.6348 16.9854L26.6375 16.9944L26.6403 17.0034L28.551 16.4125ZM26.2815 12.2305L27.7714 10.8963L27.7714 10.8963L26.2815 12.2305ZM22.431 10.063L22.0083 12.0178L22.0256 12.0216L22.0429 12.025L22.431 10.063ZM20.3145 9.8335L20.358 7.83397L20.358 7.83397L20.3145 9.8335ZM13.608 9.808V7.808H11.608V9.808H13.608ZM6.57 40H8.57V3.28H6.57H4.57V40H6.57ZM6.57 3.28V5.28H18.453V3.28V1.28H6.57V3.28ZM18.453 3.28V5.28C18.7198 5.28 19.2956 5.28807 20.2003 5.30514L20.238 3.3055L20.2757 1.30586C19.3784 1.28892 18.7642 1.28 18.453 1.28V3.28ZM20.238 3.3055L20.2003 5.30514C21.0376 5.32094 21.8359 5.3761 22.5959 5.46917L22.839 3.484L23.0821 1.49883C22.1762 1.3879 21.2404 1.32406 20.2757 1.30586L20.238 3.3055ZM22.839 3.484L22.5994 5.46959C25.2229 5.78623 27.3592 6.68291 29.0874 8.11115L30.3615 6.5695L31.6356 5.02784C29.2498 3.05609 26.3711 1.89577 23.0786 1.49841L22.839 3.484ZM30.3615 6.5695L29.0874 8.11115C30.8751 9.58861 32.2485 11.4719 33.2024 13.8038L35.0535 13.0465L36.9046 12.2892C35.7165 9.38509 33.9619 6.95039 31.6356 5.02785L30.3615 6.5695ZM35.0535 13.0465L33.2024 13.8038C34.1657 16.1584 34.66 18.7627 34.66 21.64H36.66H38.66C38.66 18.2953 38.0833 15.1706 36.9046 12.2892L35.0535 13.0465ZM36.66 21.64H34.66C34.66 24.5173 34.1657 27.1216 33.2024 29.4762L35.0535 30.2335L36.9046 30.9908C38.0833 28.1094 38.66 24.9847 38.66 21.64H36.66ZM35.0535 30.2335L33.2024 29.4762C32.2485 31.8081 30.8751 33.6914 29.0874 35.1688L30.3615 36.7105L31.6356 38.2522C33.9619 36.3296 35.7165 33.8949 36.9046 30.9908L35.0535 30.2335ZM30.3615 36.7105L29.0874 35.1688C27.3592 36.5971 25.2229 37.4938 22.5994 37.8104L22.839 39.796L23.0786 41.7816C26.3711 41.3842 29.2498 40.2239 31.6356 38.2522L30.3615 36.7105ZM22.839 39.796L22.5959 37.8108C21.8359 37.9039 21.0376 37.9591 20.2003 37.9749L20.238 39.9745L20.2757 41.9741C21.2404 41.9559 22.1762 41.8921 23.0821 41.7812L22.839 39.796ZM20.238 39.9745L20.2003 37.9749C19.2956 37.9919 18.7198 38 18.453 38V40V42C18.7642 42 19.3784 41.9911 20.2757 41.9741L20.238 39.9745ZM18.453 40V38H6.57V40V42H18.453V40ZM13.608 33.472V35.472H18.453V33.472V31.472H13.608V33.472ZM18.453 33.472V35.472C18.9331 35.472 19.57 35.4632 20.358 35.446L20.3145 33.4465L20.271 31.447C19.495 31.4638 18.8909 31.472 18.453 31.472V33.472ZM20.3145 33.4465L20.4014 35.4446C21.2588 35.4073 22.0618 35.3223 22.8028 35.1821L22.431 33.217L22.0592 31.2519C21.5423 31.3497 20.9342 31.4177 20.2276 31.4484L20.3145 33.4465ZM22.431 33.217L22.8272 35.1774C24.8366 34.7712 26.5422 33.8053 27.8526 32.2728L26.3325 30.973L24.8124 29.6732C24.1168 30.4867 23.2214 31.0168 22.0348 31.2566L22.431 33.217ZM26.3325 30.973L27.8417 32.2854C29.0717 30.8708 29.9498 29.1938 30.498 27.2947L28.5765 26.74L26.655 26.1853C26.2512 27.5842 25.6333 28.7292 24.8233 29.6606L26.3325 30.973ZM28.5765 26.74L30.4927 27.3129C31.0422 25.4748 31.316 23.5816 31.316 21.64H29.316H27.316C27.316 23.2004 27.0968 24.7072 26.6603 26.1671L28.5765 26.74ZM29.316 21.64H31.316C31.316 19.6164 31.0346 17.6738 30.4617 15.8216L28.551 16.4125L26.6403 17.0034C27.0874 18.4492 27.316 19.9916 27.316 21.64H29.316ZM28.551 16.4125L30.4672 15.8396C29.9005 13.9442 29.0112 12.2807 27.7714 10.8963L26.2815 12.2305L24.7916 13.5647C25.5918 14.4583 26.2155 15.5828 26.6348 16.9854L28.551 16.4125ZM26.2815 12.2305L27.7714 10.8963C26.4523 9.42329 24.7774 8.48837 22.8191 8.10101L22.431 10.063L22.0429 12.025C23.1786 12.2496 24.0707 12.7597 24.7916 13.5647L26.2815 12.2305ZM22.431 10.063L22.8537 8.10817C22.0768 7.94019 21.2413 7.85317 20.358 7.83397L20.3145 9.8335L20.271 11.833C20.9517 11.8478 21.5272 11.9138 22.0083 12.0178L22.431 10.063ZM20.3145 9.8335L20.358 7.83397C19.57 7.81684 18.9331 7.808 18.453 7.808V9.808V11.808C18.8909 11.808 19.495 11.8162 20.271 11.833L20.3145 9.8335ZM18.453 9.808V7.808H13.608V9.808V11.808H18.453V9.808ZM13.608 9.808H11.608V33.472H13.608H15.608V9.808H13.608ZM45.838 40H43.838V42H45.838V40ZM45.838 3.28V1.28H43.838V3.28H45.838ZM69.808 3.28H71.808V1.28H69.808V3.28ZM69.808 9.757V11.757H71.808V9.757H69.808ZM52.774 9.757V7.757H50.774V9.757H52.774ZM52.774 17.611H50.774V19.611H52.774V17.611ZM66.748 17.611H68.748V15.611H66.748V17.611ZM66.748 24.088V26.088H68.748V24.088H66.748ZM52.774 24.088V22.088H50.774V24.088H52.774ZM52.774 33.523H50.774V35.523H52.774V33.523ZM69.808 33.523H71.808V31.523H69.808V33.523ZM69.808 40V42H71.808V40H69.808ZM45.838 40H47.838V3.28H45.838H43.838V40H45.838ZM45.838 3.28V5.28H69.808V3.28V1.28H45.838V3.28ZM69.808 3.28H67.808V9.757H69.808H71.808V3.28H69.808ZM69.808 9.757V7.757H52.774V9.757V11.757H69.808V9.757ZM52.774 9.757H50.774V17.611H52.774H54.774V9.757H52.774ZM52.774 17.611V19.611H66.748V17.611V15.611H52.774V17.611ZM66.748 17.611H64.748V24.088H66.748H68.748V17.611H66.748ZM66.748 24.088V22.088H52.774V24.088V26.088H66.748V24.088ZM52.774 24.088H50.774V33.523H52.774H54.774V24.088H52.774ZM52.774 33.523V35.523H69.808V33.523V31.523H52.774V33.523ZM69.808 33.523H67.808V40H69.808H71.808V33.523H69.808ZM69.808 40V38H45.838V40V42H69.808V40ZM85.4825 39.337L84.6689 41.164L84.6775 41.1679L84.6861 41.1716L85.4825 39.337ZM80.102 35.206L78.5201 36.4297L78.5265 36.438L78.533 36.4463L80.102 35.206ZM77.45 28.78L77.1574 26.8015L75.1735 27.0949L75.4724 29.078L77.45 28.78ZM84.692 27.709L86.636 27.2387L86.2064 25.4633L84.3995 25.7305L84.692 27.709ZM87.854 32.5795L89.0149 30.9509L89.0149 30.9509L87.854 32.5795ZM96.626 33.7525L95.9936 31.8551L95.9936 31.8551L96.626 33.7525ZM99.2525 32.1715L97.8383 30.7573L97.8296 30.766L97.821 30.7749L99.2525 32.1715ZM100.12 28.525L98.1965 29.0744L98.2125 29.1306L98.2318 29.1857L100.12 28.525ZM99.584 27.5305L101.12 26.2501L101.12 26.2501L99.584 27.5305ZM98.4875 26.6635L97.4679 28.3841L97.4815 28.3921L97.4953 28.4L98.4875 26.6635ZM96.728 25.924L97.3194 24.0134L97.3059 24.0093L97.2924 24.0053L96.728 25.924ZM87.191 23.119L87.7554 21.2003L87.7479 21.1981L87.7405 21.196L87.191 23.119ZM84.692 22.252L83.9492 24.109L83.9607 24.1135L84.692 22.252ZM81.9635 20.6455L83.2019 19.075L83.2019 19.075L81.9635 20.6455ZM79.745 17.8915L77.9562 18.7859L77.9641 18.8018L77.9723 18.8175L79.745 17.8915ZM80.7395 7.3855L82.3315 8.59609L82.3315 8.59609L80.7395 7.3855ZM85.712 3.739L86.431 5.6053L86.431 5.6053L85.712 3.739ZM92.597 2.566L92.6239 0.566134L92.6106 0.566044L92.597 2.566ZM99.38 3.8665L100.153 2.02175L100.153 2.02175L99.38 3.8665ZM104.378 7.513L102.847 8.79978L102.854 8.80782L104.378 7.513ZM107.285 13.327L107.62 15.2987L109.768 14.9335L109.221 12.8251L107.285 13.327ZM99.788 14.602L97.8383 15.0476L98.2596 16.8907L100.123 16.5737L99.788 14.602ZM98.2835 11.593L96.7939 12.9275L96.7939 12.9275L98.2835 11.593ZM95.657 9.7315L94.8767 11.573L94.8878 11.5777L95.657 9.7315ZM92.495 9.043L92.4326 11.042L92.4335 11.0421L92.495 9.043ZM89.4095 9.502L90.0521 11.396L90.0619 11.3926L90.0717 11.3892L89.4095 9.502ZM87.0635 10.93L85.6301 9.53529L85.6203 9.54537L85.6106 9.5556L87.0635 10.93ZM86.9105 15.1375L85.4726 16.5275L85.4843 16.5397L85.4963 16.5517L86.9105 15.1375ZM88.772 16.336L89.5293 14.4849L89.5293 14.4849L88.772 16.336ZM91.067 17.101L91.592 15.1711L91.5819 15.1684L91.5719 15.1658L91.067 17.101ZM97.442 18.835L96.9171 20.7649L96.9246 20.7669L97.442 18.835ZM100.604 19.855L99.9139 21.7322L99.9261 21.7366L99.9384 21.741L100.604 19.855ZM103.919 21.589L102.762 23.22L102.776 23.2306L102.792 23.2409L103.919 21.589ZM106.546 24.496L104.803 25.4777L104.808 25.4869L104.814 25.4961L106.546 24.496ZM106.342 34.2625L104.599 33.281L104.595 33.2878L106.342 34.2625ZM103.027 37.909L104.154 39.5606L104.161 39.5559L104.168 39.5512L103.027 37.909ZM98.2835 40.051L97.7636 38.1198L97.7589 38.121L98.2835 40.051ZM92.852 40.765V38.765C90.3684 38.765 88.1883 38.3313 86.279 37.5024L85.4825 39.337L84.6861 41.1716C87.1628 42.2467 89.8957 42.765 92.852 42.765V40.765ZM85.4825 39.337L86.2961 37.51C84.4014 36.6662 82.8719 35.4849 81.671 33.9657L80.102 35.206L78.533 36.4463C80.1542 38.4971 82.2117 40.0698 84.6689 41.164L85.4825 39.337ZM80.102 35.206L81.684 33.9823C80.5194 32.4768 79.7562 30.6618 79.4277 28.482L77.45 28.78L75.4724 29.078C75.8919 31.8622 76.8967 34.3312 78.5201 36.4297L80.102 35.206ZM77.45 28.78L77.7426 30.7585L84.9846 29.6875L84.692 27.709L84.3995 25.7305L77.1574 26.8015L77.45 28.78ZM84.692 27.709L82.7481 28.1793C83.3585 30.7022 84.6612 32.7598 86.6932 34.2081L87.854 32.5795L89.0149 30.9509C87.8509 30.1212 87.0456 28.9318 86.636 27.2387L84.692 27.709ZM87.854 32.5795L86.6932 34.2081C88.6441 35.5987 90.8724 36.288 93.311 36.288V34.288V32.288C91.6697 32.288 90.26 31.8383 89.0149 30.9509L87.854 32.5795ZM93.311 34.288V36.288C94.6631 36.288 95.9817 36.0755 97.2585 35.6499L96.626 33.7525L95.9936 31.8551C95.1284 32.1435 94.237 32.288 93.311 32.288V34.288ZM96.626 33.7525L97.2585 35.6499C98.5837 35.2081 99.7484 34.5272 100.684 33.5681L99.2525 32.1715L97.821 30.7749C97.3967 31.2098 96.8104 31.5829 95.9936 31.8551L96.626 33.7525ZM99.2525 32.1715L100.667 33.5857C101.753 32.4993 102.298 31.1258 102.298 29.596H100.298H98.298C98.298 30.1062 98.1459 30.4497 97.8383 30.7573L99.2525 32.1715ZM100.298 29.596H102.298C102.298 29.0057 102.203 28.4247 102.007 27.8643L100.12 28.525L98.2318 29.1857C98.2737 29.3053 98.298 29.4383 98.298 29.596H100.298ZM100.12 28.525L102.043 27.9756C101.859 27.3315 101.541 26.7544 101.12 26.2501L99.584 27.5305L98.0476 28.8109C98.1374 28.9186 98.1765 29.0045 98.1965 29.0744L100.12 28.525ZM99.584 27.5305L101.12 26.2501C100.667 25.7061 100.09 25.276 99.4798 24.927L98.4875 26.6635L97.4953 28.4C97.8366 28.595 97.9909 28.7429 98.0476 28.8109L99.584 27.5305ZM98.4875 26.6635L99.5071 24.9429C98.8717 24.5663 98.1284 24.2638 97.3194 24.0134L96.728 25.924L96.1367 27.8346C96.7557 28.0262 97.1854 28.2167 97.4679 28.3841L98.4875 26.6635ZM96.728 25.924L97.2924 24.0053L87.7554 21.2003L87.191 23.119L86.6267 25.0377L96.1637 27.8427L96.728 25.924ZM87.191 23.119L87.7405 21.196C87.1061 21.0147 86.3362 20.7491 85.4233 20.3905L84.692 22.252L83.9607 24.1135C84.9519 24.5029 85.848 24.8153 86.6416 25.042L87.191 23.119ZM84.692 22.252L85.4348 20.395C84.6974 20.1001 83.9528 19.667 83.2019 19.075L81.9635 20.6455L80.7252 22.216C81.7423 23.018 82.8166 23.6559 83.9493 24.109L84.692 22.252ZM81.9635 20.6455L83.2019 19.075C82.5687 18.5758 82.0005 17.8897 81.5177 16.9655L79.745 17.8915L77.9723 18.8175C78.6796 20.1713 79.5903 21.3212 80.7252 22.216L81.9635 20.6455ZM79.745 17.8915L81.5339 16.9971C81.135 16.1993 80.878 15.0762 80.878 13.531H78.878H76.878C76.878 15.4878 77.1991 17.2717 77.9562 18.7859L79.745 17.8915ZM78.878 13.531H80.878C80.878 11.4122 81.4055 9.81388 82.3315 8.59609L80.7395 7.3855L79.1475 6.17491C77.5916 8.22112 76.878 10.7198 76.878 13.531H78.878ZM80.7395 7.3855L82.3315 8.59609C83.3292 7.28413 84.673 6.28256 86.431 5.6053L85.712 3.739L84.9931 1.8727C82.6031 2.79344 80.6319 4.22286 79.1475 6.17491L80.7395 7.3855ZM85.712 3.739L86.431 5.6053C88.2426 4.9074 90.2851 4.55042 92.5835 4.56595L92.597 2.566L92.6106 0.566044C89.877 0.547573 87.3295 0.972597 84.9931 1.8727L85.712 3.739ZM92.597 2.566L92.5702 4.56582C94.891 4.59697 96.8923 4.99293 98.6075 5.71125L99.38 3.8665L100.153 2.02175C97.8898 1.07406 95.3691 0.603026 92.6239 0.566179L92.597 2.566ZM99.38 3.8665L98.6075 5.71125C100.313 6.42548 101.716 7.45368 102.847 8.79976L104.378 7.513L105.909 6.22623C104.354 4.37632 102.425 2.97352 100.153 2.02175L99.38 3.8665ZM104.378 7.513L102.854 8.80782C103.975 10.1281 104.819 11.7841 105.349 13.8289L107.285 13.327L109.221 12.8251C108.561 10.2799 107.467 8.05985 105.902 6.21818L104.378 7.513ZM107.285 13.327L106.95 11.3553L99.4527 12.6303L99.788 14.602L100.123 16.5737L107.62 15.2987L107.285 13.327ZM99.788 14.602L101.738 14.1564C101.399 12.6744 100.755 11.3549 99.7732 10.2585L98.2835 11.593L96.7939 12.9275C97.2737 13.4631 97.6331 14.1496 97.8383 15.0476L99.788 14.602ZM98.2835 11.593L99.7732 10.2585C98.8414 9.21839 97.7191 8.42402 96.4263 7.88534L95.657 9.7315L94.8878 11.5777C95.635 11.889 96.2636 12.3356 96.7939 12.9275L98.2835 11.593ZM95.657 9.7315L96.4373 7.89C95.2031 7.36702 93.9051 7.08544 92.5566 7.04394L92.495 9.043L92.4335 11.0421C93.295 11.0686 94.105 11.246 94.8767 11.573L95.657 9.7315ZM92.495 9.043L92.5575 7.04397C91.2381 7.00274 89.9627 7.18838 88.7474 7.6148L89.4095 9.502L90.0717 11.3892C90.7944 11.1356 91.576 11.0153 92.4326 11.042L92.495 9.043ZM89.4095 9.502L88.7669 7.60804C87.5594 8.01776 86.4927 8.64874 85.6301 9.53529L87.0635 10.93L88.497 12.3247C88.8584 11.9533 89.3557 11.6322 90.0521 11.396L89.4095 9.502ZM87.0635 10.93L85.6106 9.5556C84.6638 10.5565 84.171 11.7966 84.171 13.174H86.171H88.171C88.171 12.8174 88.2733 12.5615 88.5165 12.3044L87.0635 10.93ZM86.171 13.174H84.171C84.171 14.4205 84.5724 15.5964 85.4726 16.5275L86.9105 15.1375L88.3485 13.7475C88.2626 13.6586 88.171 13.5255 88.171 13.174H86.171ZM86.9105 15.1375L85.4963 16.5517C86.2046 17.26 87.0597 17.7964 88.0148 18.1871L88.772 16.336L89.5293 14.4849C88.9884 14.2636 88.6025 14.001 88.3248 13.7233L86.9105 15.1375ZM88.772 16.336L88.0148 18.1871C88.845 18.5267 89.6943 18.8098 90.5622 19.0362L91.067 17.101L91.5719 15.1658C90.8758 14.9842 90.1951 14.7573 89.5293 14.4849L88.772 16.336ZM91.067 17.101L90.5421 19.0309L96.9171 20.7649L97.442 18.835L97.967 16.9051L91.592 15.1711L91.067 17.101ZM97.442 18.835L96.9246 20.7669C97.806 21.003 98.8013 21.3231 99.9139 21.7322L100.604 19.855L101.294 17.9778C100.095 17.5369 98.9821 17.177 97.9595 16.9031L97.442 18.835ZM100.604 19.855L99.9384 21.741C100.91 22.084 101.851 22.5736 102.762 23.22L103.919 21.589L105.077 19.958C103.879 19.1084 102.61 18.442 101.27 17.969L100.604 19.855ZM103.919 21.589L102.792 23.2409C103.592 23.787 104.263 24.5196 104.803 25.4777L106.546 24.496L108.288 23.5143C107.468 22.0584 106.388 20.853 105.047 19.9371L103.919 21.589ZM106.546 24.496L104.814 25.4961C105.286 26.3149 105.591 27.4722 105.591 29.086H107.591H109.591C109.591 26.9938 109.199 25.0911 108.278 23.4959L106.546 24.496ZM107.591 29.086H105.591C105.591 30.7703 105.238 32.147 104.599 33.281L106.342 34.2625L108.084 35.244C109.111 33.42 109.591 31.3457 109.591 29.086H107.591ZM106.342 34.2625L104.595 33.2878C103.93 34.4804 103.033 35.4689 101.885 36.2668L103.027 37.909L104.168 39.5512C105.808 38.4111 107.122 36.9686 108.088 35.2372L106.342 34.2625ZM103.027 37.909L101.899 36.2574C100.705 37.0724 99.333 37.6972 97.7636 38.1198L98.2835 40.051L98.8035 41.9822C100.77 41.4528 102.56 40.6496 104.154 39.5606L103.027 37.909ZM98.2835 40.051L97.7589 38.121C96.1841 38.5491 94.5503 38.765 92.852 38.765V40.765V42.765C94.8938 42.765 96.881 42.5049 98.8082 41.981L98.2835 40.051ZM113.706 40L111.793 39.4156L111.003 42H113.706V40ZM124.926 3.28V1.28H123.446L123.013 2.69556L124.926 3.28ZM135.279 3.28L137.192 2.69556L136.759 1.28H135.279V3.28ZM146.499 40V42H149.201L148.412 39.4156L146.499 40ZM139.359 40L137.448 40.5899L137.883 42H139.359V40ZM129.363 7.615V5.615H126.652L127.452 8.20486L129.363 7.615ZM130.689 7.615L132.602 8.1966L133.387 5.615H130.689V7.615ZM120.846 40V42H122.328L122.759 40.5816L120.846 40ZM120.438 32.35H118.438V34.35H120.438V32.35ZM120.438 25.873V23.873H118.438V25.873H120.438ZM139.818 25.873H141.818V23.873H139.818V25.873ZM139.818 32.35V34.35H141.818V32.35H139.818ZM113.706 40L115.619 40.5844L126.839 3.86444L124.926 3.28L123.013 2.69556L111.793 39.4156L113.706 40ZM124.926 3.28V5.28H135.279V3.28V1.28H124.926V3.28ZM135.279 3.28L133.366 3.86444L144.586 40.5844L146.499 40L148.412 39.4156L137.192 2.69556L135.279 3.28ZM146.499 40V38H139.359V40V42H146.499V40ZM139.359 40L141.27 39.4101L131.274 7.02513L129.363 7.615L127.452 8.20486L137.448 40.5899L139.359 40ZM129.363 7.615V9.615H130.689V7.615V5.615H129.363V7.615ZM130.689 7.615L128.775 7.03339L118.932 39.4184L120.846 40L122.759 40.5816L132.602 8.1966L130.689 7.615ZM120.846 40V38H113.706V40V42H120.846V40ZM120.438 32.35H122.438V25.873H120.438H118.438V32.35H120.438ZM120.438 25.873V27.873H139.818V25.873V23.873H120.438V25.873ZM139.818 25.873H137.818V32.35H139.818H141.818V25.873H139.818ZM139.818 32.35V30.35H120.438V32.35V34.35H139.818V32.35ZM154.129 40H152.129V42H154.129V40ZM154.129 3.28V1.28H152.129V3.28H154.129ZM171.061 3.331L170.947 5.32774L170.977 5.32941L171.006 5.33023L171.061 3.331ZM172.693 3.484L172.342 5.45285L172.364 5.45688L172.387 5.46039L172.693 3.484ZM178.074 5.6515L176.831 7.21884L176.841 7.22611L178.074 5.6515ZM181.185 9.8335L179.324 10.5666L179.327 10.573L181.185 9.8335ZM179.884 23.323L181.52 24.4734L181.525 24.4674L179.884 23.323ZM172.693 27.352L172.826 29.3476L172.915 29.3417L173.002 29.328L172.693 27.352ZM169.633 27.556V29.556H169.7L169.766 29.5516L169.633 27.556ZM161.065 27.556V25.556H159.065V27.556H161.065ZM161.065 40V42H163.065V40H161.065ZM174.835 40L173.036 40.8722L173.582 42H174.835V40ZM167.593 25.057L167.215 23.0932L164.658 23.5862L165.794 25.9292L167.593 25.057ZM174.733 23.68L176.531 22.8036L175.859 21.426L174.355 21.7162L174.733 23.68ZM182.689 40V42H185.889L184.487 39.1236L182.689 40ZM161.065 21.079H159.065V23.079H161.065V21.079ZM170.5 21.028L170.66 23.0216L170.66 23.0216L170.5 21.028ZM171.673 20.824L171.147 18.8945L171.135 18.8976L171.124 18.901L171.673 20.824ZM173.841 19.549L175.359 20.8506L175.368 20.84L175.377 20.8294L173.841 19.549ZM174.886 17.5345L172.957 17.0083L172.953 17.0235L172.949 17.0388L174.886 17.5345ZM174.886 13.327L172.946 13.8121L172.953 13.8384L172.96 13.8646L174.886 13.327ZM173.841 11.3125L172.304 12.5929L172.313 12.6035L172.322 12.6141L173.841 11.3125ZM171.673 10.012L171.124 11.935L171.135 11.9384L171.147 11.9415L171.673 10.012ZM170.5 9.808L170.341 11.8016L170.341 11.8016L170.5 9.808ZM161.065 9.757V7.757H159.065V9.757H161.065ZM154.129 40H156.129V3.28H154.129H152.129V40H154.129ZM154.129 3.28V5.28H169.633V3.28V1.28H154.129V3.28ZM169.633 3.28V5.28C169.936 5.28 170.369 5.29469 170.947 5.32774L171.061 3.331L171.175 1.33426C170.564 1.29931 170.045 1.28 169.633 1.28V3.28ZM171.061 3.331L171.006 5.33023C171.543 5.34516 171.985 5.38919 172.342 5.45285L172.693 3.484L173.045 1.51514C172.449 1.4088 171.803 1.35084 171.117 1.33177L171.061 3.331ZM172.693 3.484L172.387 5.46039C174.321 5.76031 175.768 6.37597 176.831 7.21881L178.074 5.6515L179.316 4.08418C177.592 2.71703 175.451 1.88769 173 1.50761L172.693 3.484ZM178.074 5.6515L176.841 7.22611C177.969 8.10934 178.79 9.21171 179.324 10.5665L181.185 9.8335L183.046 9.10045C182.253 7.08929 181.001 5.40365 179.307 4.07689L178.074 5.6515ZM181.185 9.8335L179.327 10.573C179.883 11.9717 180.179 13.5774 180.179 15.418H182.179H184.179C184.179 13.1446 183.812 11.0273 183.043 9.09399L181.185 9.8335ZM182.179 15.418H180.179C180.179 18.1494 179.506 20.37 178.244 22.1786L179.884 23.323L181.525 24.4674C183.323 21.89 184.179 18.8406 184.179 15.418H182.179ZM179.884 23.323L178.248 22.1726C177.103 23.8021 175.251 24.9282 172.385 25.376L172.693 27.352L173.002 29.328C176.664 28.7558 179.606 27.1958 181.52 24.4734L179.884 23.323ZM172.693 27.352L172.56 25.3564L169.5 25.5604L169.633 27.556L169.766 29.5516L172.826 29.3476L172.693 27.352ZM169.633 27.556V25.556H161.065V27.556V29.556H169.633V27.556ZM161.065 27.556H159.065V40H161.065H163.065V27.556H161.065ZM161.065 40V38H154.129V40V42H161.065V40ZM174.835 40L176.635 39.1278L169.393 24.1848L167.593 25.057L165.794 25.9292L173.036 40.8722L174.835 40ZM167.593 25.057L167.972 27.0208L175.112 25.6438L174.733 23.68L174.355 21.7162L167.215 23.0932L167.593 25.057ZM174.733 23.68L172.936 24.5564L180.892 40.8764L182.689 40L184.487 39.1236L176.531 22.8036L174.733 23.68ZM182.689 40V38H174.835V40V42H182.689V40ZM161.065 21.079V23.079H169.327V21.079V19.079H161.065V21.079ZM169.327 21.079V23.079C169.747 23.079 170.192 23.0591 170.66 23.0216L170.5 21.028L170.341 19.0344C169.959 19.0649 169.622 19.079 169.327 19.079V21.079ZM170.5 21.028L170.66 23.0216C171.198 22.9786 171.721 22.8903 172.223 22.747L171.673 20.824L171.124 18.901C170.911 18.9617 170.653 19.0094 170.341 19.0344L170.5 21.028ZM171.673 20.824L172.2 22.7535C173.429 22.4183 174.533 21.8146 175.359 20.8506L173.841 19.549L172.322 18.2474C172.129 18.4734 171.788 18.7197 171.147 18.8945L171.673 20.824ZM173.841 19.549L175.377 20.8294C176.067 20.0019 176.559 19.0653 176.824 18.0302L174.886 17.5345L172.949 17.0388C172.84 17.4657 172.635 17.8721 172.304 18.2686L173.841 19.549ZM174.886 17.5345L176.816 18.0607C177.059 17.1694 177.192 16.2858 177.192 15.418H175.192H173.192C173.192 15.8762 173.122 16.4036 172.957 17.0083L174.886 17.5345ZM175.192 15.418H177.192C177.192 14.5493 177.059 13.6707 176.813 12.7894L174.886 13.327L172.96 13.8646C173.122 14.4453 173.192 14.9607 173.192 15.418H175.192ZM174.886 13.327L176.827 12.8419C176.563 11.7876 176.068 10.8376 175.359 10.0109L173.841 11.3125L172.322 12.6141C172.634 12.9773 172.836 13.3704 172.946 13.8121L174.886 13.327ZM173.841 11.3125L175.377 10.0321C174.553 9.0426 173.443 8.42157 172.2 8.08247L171.673 10.012L171.147 11.9415C171.774 12.1124 172.109 12.3584 172.304 12.5929L173.841 11.3125ZM171.673 10.012L172.223 8.08895C171.721 7.94569 171.198 7.85741 170.66 7.81437L170.5 9.808L170.341 11.8016C170.653 11.8266 170.911 11.8743 171.124 11.935L171.673 10.012ZM170.5 9.808L170.66 7.81437C170.192 7.77691 169.747 7.757 169.327 7.757V9.757V11.757C169.622 11.757 169.959 11.7711 170.341 11.8016L170.5 9.808ZM169.327 9.757V7.757H161.065V9.757V11.757H169.327V9.757ZM161.065 9.757H159.065V21.079H161.065H163.065V9.757H161.065ZM191.355 40H189.355V42H191.355V40ZM191.355 3.28V1.28H189.355V3.28H191.355ZM208.287 3.331L208.173 5.32774L208.203 5.32941L208.232 5.33023L208.287 3.331ZM209.919 3.484L209.568 5.45285L209.59 5.45688L209.613 5.46039L209.919 3.484ZM215.3 5.6515L214.057 7.21884L214.067 7.22611L215.3 5.6515ZM218.411 9.8335L216.55 10.5666L216.553 10.573L218.411 9.8335ZM217.11 23.323L218.746 24.4734L218.751 24.4674L217.11 23.323ZM209.919 27.352L210.052 29.3476L210.141 29.3417L210.228 29.328L209.919 27.352ZM206.859 27.556V29.556H206.926L206.992 29.5516L206.859 27.556ZM198.291 27.556V25.556H196.291V27.556H198.291ZM198.291 40V42H200.291V40H198.291ZM212.061 40L210.262 40.8722L210.808 42H212.061V40ZM204.819 25.057L204.441 23.0932L201.884 23.5862L203.02 25.9292L204.819 25.057ZM211.959 23.68L213.757 22.8036L213.086 21.426L211.581 21.7162L211.959 23.68ZM219.915 40V42H223.115L221.713 39.1236L219.915 40ZM198.291 21.079H196.291V23.079H198.291V21.079ZM207.726 21.028L207.886 23.0216L207.886 23.0216L207.726 21.028ZM208.899 20.824L208.373 18.8945L208.361 18.8976L208.35 18.901L208.899 20.824ZM211.067 19.549L212.585 20.8506L212.594 20.84L212.603 20.8294L211.067 19.549ZM212.112 17.5345L210.183 17.0083L210.179 17.0235L210.175 17.0388L212.112 17.5345ZM212.112 13.327L210.172 13.8121L210.179 13.8384L210.186 13.8646L212.112 13.327ZM211.067 11.3125L209.53 12.5929L209.539 12.6035L209.548 12.6141L211.067 11.3125ZM208.899 10.012L208.35 11.935L208.361 11.9384L208.373 11.9415L208.899 10.012ZM207.726 9.808L207.567 11.8016L207.567 11.8016L207.726 9.808ZM198.291 9.757V7.757H196.291V9.757H198.291ZM191.355 40H193.355V3.28H191.355H189.355V40H191.355ZM191.355 3.28V5.28H206.859V3.28V1.28H191.355V3.28ZM206.859 3.28V5.28C207.162 5.28 207.595 5.29469 208.173 5.32774L208.287 3.331L208.401 1.33426C207.79 1.29931 207.271 1.28 206.859 1.28V3.28ZM208.287 3.331L208.232 5.33023C208.769 5.34516 209.211 5.38919 209.568 5.45285L209.919 3.484L210.271 1.51514C209.675 1.4088 209.029 1.35084 208.343 1.33177L208.287 3.331ZM209.919 3.484L209.613 5.46039C211.547 5.76031 212.994 6.37597 214.057 7.21881L215.3 5.6515L216.542 4.08418C214.818 2.71703 212.677 1.88769 210.226 1.50761L209.919 3.484ZM215.3 5.6515L214.067 7.22611C215.195 8.10934 216.016 9.21171 216.55 10.5665L218.411 9.8335L220.272 9.10045C219.479 7.08929 218.227 5.40365 216.533 4.07689L215.3 5.6515ZM218.411 9.8335L216.553 10.573C217.109 11.9717 217.405 13.5774 217.405 15.418H219.405H221.405C221.405 13.1446 221.038 11.0273 220.269 9.09399L218.411 9.8335ZM219.405 15.418H217.405C217.405 18.1494 216.732 20.37 215.47 22.1786L217.11 23.323L218.751 24.4674C220.549 21.89 221.405 18.8406 221.405 15.418H219.405ZM217.11 23.323L215.474 22.1726C214.329 23.8021 212.477 24.9282 209.611 25.376L209.919 27.352L210.228 29.328C213.89 28.7558 216.832 27.1958 218.746 24.4734L217.11 23.323ZM209.919 27.352L209.786 25.3564L206.726 25.5604L206.859 27.556L206.992 29.5516L210.052 29.3476L209.919 27.352ZM206.859 27.556V25.556H198.291V27.556V29.556H206.859V27.556ZM198.291 27.556H196.291V40H198.291H200.291V27.556H198.291ZM198.291 40V38H191.355V40V42H198.291V40ZM212.061 40L213.861 39.1278L206.619 24.1848L204.819 25.057L203.02 25.9292L210.262 40.8722L212.061 40ZM204.819 25.057L205.198 27.0208L212.338 25.6438L211.959 23.68L211.581 21.7162L204.441 23.0932L204.819 25.057ZM211.959 23.68L210.162 24.5564L218.118 40.8764L219.915 40L221.713 39.1236L213.757 22.8036L211.959 23.68ZM219.915 40V38H212.061V40V42H219.915V40ZM198.291 21.079V23.079H206.553V21.079V19.079H198.291V21.079ZM206.553 21.079V23.079C206.973 23.079 207.418 23.0591 207.886 23.0216L207.726 21.028L207.567 19.0344C207.185 19.0649 206.848 19.079 206.553 19.079V21.079ZM207.726 21.028L207.886 23.0216C208.424 22.9786 208.947 22.8903 209.449 22.747L208.899 20.824L208.35 18.901C208.137 18.9617 207.879 19.0094 207.567 19.0344L207.726 21.028ZM208.899 20.824L209.426 22.7535C210.655 22.4183 211.759 21.8146 212.585 20.8506L211.067 19.549L209.548 18.2474C209.355 18.4734 209.014 18.7197 208.373 18.8945L208.899 20.824ZM211.067 19.549L212.603 20.8294C213.293 20.0019 213.785 19.0653 214.05 18.0302L212.112 17.5345L210.175 17.0388C210.066 17.4657 209.861 17.8721 209.53 18.2686L211.067 19.549ZM212.112 17.5345L214.042 18.0607C214.285 17.1694 214.418 16.2858 214.418 15.418H212.418H210.418C210.418 15.8762 210.348 16.4036 210.183 17.0083L212.112 17.5345ZM212.418 15.418H214.418C214.418 14.5493 214.285 13.6707 214.039 12.7894L212.112 13.327L210.186 13.8646C210.348 14.4453 210.418 14.9607 210.418 15.418H212.418ZM212.112 13.327L214.053 12.8419C213.789 11.7876 213.294 10.8376 212.585 10.0109L211.067 11.3125L209.548 12.6141C209.86 12.9773 210.062 13.3704 210.172 13.8121L212.112 13.327ZM211.067 11.3125L212.603 10.0321C211.779 9.0426 210.669 8.42157 209.426 8.08247L208.899 10.012L208.373 11.9415C209 12.1124 209.335 12.3584 209.53 12.5929L211.067 11.3125ZM208.899 10.012L209.449 8.08895C208.947 7.94569 208.424 7.85741 207.886 7.81437L207.726 9.808L207.567 11.8016C207.879 11.8266 208.137 11.8743 208.35 11.935L208.899 10.012ZM207.726 9.808L207.886 7.81437C207.418 7.77691 206.973 7.757 206.553 7.757V9.757V11.757C206.848 11.757 207.185 11.7711 207.567 11.8016L207.726 9.808ZM206.553 9.757V7.757H198.291V9.757V11.757H206.553V9.757ZM198.291 9.757H196.291V21.079H198.291H200.291V9.757H198.291ZM234.829 38.368L233.797 40.0811L233.801 40.0839L234.829 38.368ZM228.683 31.6615L226.892 32.5517L226.897 32.5602L228.683 31.6615ZM228.683 11.6185L226.897 10.7198L226.892 10.7283L228.683 11.6185ZM234.829 4.912L233.801 3.19604L233.797 3.19895L234.829 4.912ZM253.826 4.912L252.794 6.62505L252.799 6.62795L253.826 4.912ZM259.972 11.6185L258.181 12.5087L258.185 12.5172L259.972 11.6185ZM259.972 31.6615L258.185 30.7628L258.181 30.7713L259.972 31.6615ZM253.826 38.368L252.799 36.652L252.794 36.655L253.826 38.368ZM244.34 34.237L244.311 36.2368L244.34 34.237ZM250.154 32.7325L251.268 34.3938L251.268 34.3938L250.154 32.7325ZM253.622 28.321L251.772 27.5612L251.769 27.5683L251.767 27.5754L253.622 28.321ZM253.622 15.01L251.771 15.7673L251.774 15.7745L251.777 15.7816L253.622 15.01ZM250.154 10.6495L251.268 8.98821L251.268 8.98821L250.154 10.6495ZM244.34 9.043L244.37 7.04321L244.37 7.04321L244.34 9.043ZM235.033 14.959L233.183 14.1992L233.18 14.2063L233.177 14.2134L235.033 14.959ZM235.033 28.27L233.182 29.0273L233.185 29.0345L233.188 29.0416L235.033 28.27ZM238.526 32.6305L237.413 34.2918L237.413 34.2918L238.526 32.6305ZM244.34 40.765V38.765C240.964 38.765 238.163 38.033 235.856 36.6521L234.829 38.368L233.801 40.0839C236.833 41.899 240.372 42.765 244.34 42.765V40.765ZM234.829 38.368L235.861 36.655C233.545 35.2595 231.752 33.3123 230.47 30.7628L228.683 31.6615L226.897 32.5602C228.504 35.7567 230.808 38.2805 233.797 40.081L234.829 38.368ZM228.683 31.6615L230.474 30.7713C229.207 28.222 228.541 25.1964 228.541 21.64H226.541H224.541C224.541 25.6996 225.303 29.355 226.892 32.5517L228.683 31.6615ZM226.541 21.64H228.541C228.541 18.0836 229.207 15.058 230.474 12.5087L228.683 11.6185L226.892 10.7283C225.303 13.925 224.541 17.5804 224.541 21.64H226.541ZM228.683 11.6185L230.47 12.5172C231.752 9.96767 233.545 8.02045 235.861 6.62504L234.829 4.912L233.797 3.19895C230.808 4.99955 228.504 7.52333 226.897 10.7198L228.683 11.6185ZM234.829 4.912L235.856 6.62795C238.163 5.24699 240.964 4.515 244.34 4.515V2.515V0.514999C240.372 0.514999 236.833 1.38101 233.801 3.19605L234.829 4.912ZM244.34 2.515V4.515C247.717 4.515 250.507 5.24712 252.794 6.62504L253.826 4.912L254.859 3.19895C251.841 1.38087 248.308 0.514999 244.34 0.514999V2.515ZM253.826 4.912L252.799 6.62795C255.129 8.023 256.918 9.96698 258.181 12.5087L259.972 11.6185L261.763 10.7283C260.17 7.52402 257.862 4.997 254.854 3.19605L253.826 4.912ZM259.972 11.6185L258.185 12.5172C259.466 15.0644 260.139 18.087 260.139 21.64H262.139H264.139C264.139 17.577 263.367 13.9186 261.759 10.7198L259.972 11.6185ZM262.139 21.64H260.139C260.139 25.193 259.466 28.2156 258.185 30.7628L259.972 31.6615L261.759 32.5602C263.367 29.3614 264.139 25.703 264.139 21.64H262.139ZM259.972 31.6615L258.181 30.7713C256.918 33.313 255.129 35.257 252.799 36.6521L253.826 38.368L254.854 40.0839C257.862 38.283 260.17 35.756 261.763 32.5517L259.972 31.6615ZM253.826 38.368L252.794 36.655C250.507 38.0329 247.717 38.765 244.34 38.765V40.765V42.765C248.308 42.765 251.841 41.8991 254.859 40.081L253.826 38.368ZM244.34 34.237L244.311 36.2368C246.944 36.2752 249.307 35.7082 251.268 34.3938L250.154 32.7325L249.041 31.0712C247.908 31.8308 246.395 32.2668 244.37 32.2372L244.34 34.237ZM250.154 32.7325L251.268 34.3938C253.183 33.1104 254.579 31.3039 255.478 29.0666L253.622 28.321L251.767 27.5754C251.135 29.1461 250.22 30.2806 249.041 31.0712L250.154 32.7325ZM253.622 28.321L255.472 29.0808C256.374 26.8856 256.795 24.3904 256.795 21.64H254.795H252.795C252.795 23.9896 252.435 25.9484 251.772 27.5612L253.622 28.321ZM254.795 21.64H256.795C256.795 18.891 256.374 16.407 255.468 14.2384L253.622 15.01L251.777 15.7816C252.434 17.353 252.795 19.289 252.795 21.64H254.795ZM253.622 15.01L255.473 14.2527C254.571 12.0475 253.173 10.2654 251.268 8.98821L250.154 10.6495L249.041 12.3108C250.229 13.1076 251.143 14.2325 251.771 15.7673L253.622 15.01ZM250.154 10.6495L251.268 8.98821C249.328 7.68772 246.988 7.08144 244.37 7.04321L244.34 9.043L244.311 11.0428C246.35 11.0726 247.887 11.5373 249.041 12.3108L250.154 10.6495ZM244.34 9.043L244.37 7.04321C241.737 7.00477 239.374 7.57182 237.413 8.88621L238.526 10.5475L239.64 12.2088C240.773 11.4492 242.286 11.0132 244.311 11.0428L244.34 9.043ZM238.526 10.5475L237.413 8.88621C235.502 10.167 234.099 11.9685 233.183 14.1992L235.033 14.959L236.883 15.7188C237.531 14.1415 238.457 13.002 239.64 12.2088L238.526 10.5475ZM235.033 14.959L233.177 14.2134C232.297 16.4043 231.885 18.8944 231.885 21.64H233.885H235.885C235.885 19.2856 236.239 17.3217 236.889 15.7046L235.033 14.959ZM233.885 21.64H231.885C231.885 24.3842 232.296 26.8629 233.182 29.0273L235.033 28.27L236.884 27.5127C236.239 25.9371 235.885 23.9958 235.885 21.64H233.885ZM235.033 28.27L233.188 29.0416C234.107 31.2401 235.511 33.0171 237.413 34.2918L238.526 32.6305L239.64 30.9692C238.448 30.1699 237.523 29.0399 236.878 27.4984L235.033 28.27ZM238.526 32.6305L237.413 34.2918C239.353 35.5923 241.692 36.1986 244.311 36.2368L244.34 34.237L244.37 32.2372C242.33 32.2074 240.794 31.7427 239.64 30.9692L238.526 32.6305ZM270.8 40H268.8V42H270.8V40ZM270.8 3.28V1.28H268.8V3.28H270.8ZM277.736 3.28H279.736V1.28H277.736V3.28ZM277.736 33.523H275.736V35.523H277.736V33.523ZM293.546 33.523H295.546V31.523H293.546V33.523ZM293.546 40V42H295.546V40H293.546ZM270.8 40H272.8V3.28H270.8H268.8V40H270.8ZM270.8 3.28V5.28H277.736V3.28V1.28H270.8V3.28ZM277.736 3.28H275.736V33.523H277.736H279.736V3.28H277.736ZM277.736 33.523V35.523H293.546V33.523V31.523H277.736V33.523ZM293.546 33.523H291.546V40H293.546H295.546V33.523H293.546ZM293.546 40V38H270.8V40V42H293.546V40ZM301.452 40H299.452V42H301.452V40ZM301.452 3.28V1.28H299.452V3.28H301.452ZM308.388 3.28H310.388V1.28H308.388V3.28ZM308.388 33.523H306.388V35.523H308.388V33.523ZM324.198 33.523H326.198V31.523H324.198V33.523ZM324.198 40V42H326.198V40H324.198ZM301.452 40H303.452V3.28H301.452H299.452V40H301.452ZM301.452 3.28V5.28H308.388V3.28V1.28H301.452V3.28ZM308.388 3.28H306.388V33.523H308.388H310.388V3.28H308.388ZM308.388 33.523V35.523H324.198V33.523V31.523H308.388V33.523ZM324.198 33.523H322.198V40H324.198H326.198V33.523H324.198ZM324.198 40V38H301.452V40V42H324.198V40ZM336.845 38.368L335.813 40.0811L335.817 40.0839L336.845 38.368ZM330.699 31.6615L328.908 32.5517L328.913 32.5602L330.699 31.6615ZM330.699 11.6185L328.913 10.7198L328.908 10.7283L330.699 11.6185ZM336.845 4.912L335.817 3.19604L335.813 3.19895L336.845 4.912ZM355.842 4.912L354.81 6.62505L354.815 6.62795L355.842 4.912ZM361.988 11.6185L360.197 12.5087L360.201 12.5172L361.988 11.6185ZM361.988 31.6615L360.201 30.7628L360.197 30.7713L361.988 31.6615ZM355.842 38.368L354.815 36.652L354.81 36.655L355.842 38.368ZM346.356 34.237L346.327 36.2368L346.356 34.237ZM352.17 32.7325L353.284 34.3938L353.284 34.3938L352.17 32.7325ZM355.638 28.321L353.788 27.5612L353.785 27.5683L353.783 27.5754L355.638 28.321ZM355.638 15.01L353.787 15.7673L353.79 15.7745L353.793 15.7816L355.638 15.01ZM352.17 10.6495L353.284 8.98821L353.284 8.98821L352.17 10.6495ZM346.356 9.043L346.386 7.04321L346.386 7.04321L346.356 9.043ZM337.049 14.959L335.199 14.1992L335.196 14.2063L335.193 14.2134L337.049 14.959ZM337.049 28.27L335.198 29.0273L335.201 29.0345L335.204 29.0416L337.049 28.27ZM340.542 32.6305L339.429 34.2918L339.429 34.2918L340.542 32.6305ZM346.356 40.765V38.765C342.98 38.765 340.179 38.033 337.872 36.6521L336.845 38.368L335.817 40.0839C338.849 41.899 342.388 42.765 346.356 42.765V40.765ZM336.845 38.368L337.877 36.655C335.561 35.2595 333.768 33.3123 332.486 30.7628L330.699 31.6615L328.913 32.5602C330.52 35.7567 332.824 38.2805 335.813 40.081L336.845 38.368ZM330.699 31.6615L332.49 30.7713C331.223 28.222 330.557 25.1964 330.557 21.64H328.557H326.557C326.557 25.6996 327.319 29.355 328.908 32.5517L330.699 31.6615ZM328.557 21.64H330.557C330.557 18.0836 331.223 15.058 332.49 12.5087L330.699 11.6185L328.908 10.7283C327.319 13.925 326.557 17.5804 326.557 21.64H328.557ZM330.699 11.6185L332.486 12.5172C333.768 9.96767 335.561 8.02045 337.877 6.62504L336.845 4.912L335.813 3.19895C332.824 4.99955 330.52 7.52333 328.913 10.7198L330.699 11.6185ZM336.845 4.912L337.872 6.62795C340.179 5.24699 342.98 4.515 346.356 4.515V2.515V0.514999C342.388 0.514999 338.849 1.38101 335.817 3.19605L336.845 4.912ZM346.356 2.515V4.515C349.733 4.515 352.523 5.24712 354.81 6.62504L355.842 4.912L356.875 3.19895C353.857 1.38087 350.324 0.514999 346.356 0.514999V2.515ZM355.842 4.912L354.815 6.62795C357.145 8.023 358.934 9.96698 360.197 12.5087L361.988 11.6185L363.779 10.7283C362.186 7.52402 359.878 4.997 356.87 3.19605L355.842 4.912ZM361.988 11.6185L360.201 12.5172C361.482 15.0644 362.155 18.087 362.155 21.64H364.155H366.155C366.155 17.577 365.383 13.9186 363.775 10.7198L361.988 11.6185ZM364.155 21.64H362.155C362.155 25.193 361.482 28.2156 360.201 30.7628L361.988 31.6615L363.775 32.5602C365.383 29.3614 366.155 25.703 366.155 21.64H364.155ZM361.988 31.6615L360.197 30.7713C358.934 33.313 357.145 35.257 354.815 36.6521L355.842 38.368L356.87 40.0839C359.878 38.283 362.186 35.756 363.779 32.5517L361.988 31.6615ZM355.842 38.368L354.81 36.655C352.523 38.0329 349.733 38.765 346.356 38.765V40.765V42.765C350.324 42.765 353.857 41.8991 356.875 40.081L355.842 38.368ZM346.356 34.237L346.327 36.2368C348.96 36.2752 351.323 35.7082 353.284 34.3938L352.17 32.7325L351.057 31.0712C349.924 31.8308 348.41 32.2668 346.386 32.2372L346.356 34.237ZM352.17 32.7325L353.284 34.3938C355.198 33.1104 356.595 31.3039 357.494 29.0666L355.638 28.321L353.783 27.5754C353.151 29.1461 352.236 30.2806 351.057 31.0712L352.17 32.7325ZM355.638 28.321L357.488 29.0808C358.39 26.8856 358.811 24.3904 358.811 21.64H356.811H354.811C354.811 23.9896 354.451 25.9484 353.788 27.5612L355.638 28.321ZM356.811 21.64H358.811C358.811 18.891 358.39 16.407 357.483 14.2384L355.638 15.01L353.793 15.7816C354.45 17.353 354.811 19.289 354.811 21.64H356.811ZM355.638 15.01L357.489 14.2527C356.587 12.0475 355.189 10.2654 353.284 8.98821L352.17 10.6495L351.057 12.3108C352.245 13.1076 353.159 14.2325 353.787 15.7673L355.638 15.01ZM352.17 10.6495L353.284 8.98821C351.344 7.68772 349.004 7.08144 346.386 7.04321L346.356 9.043L346.327 11.0428C348.366 11.0726 349.903 11.5373 351.057 12.3108L352.17 10.6495ZM346.356 9.043L346.386 7.04321C343.752 7.00477 341.39 7.57182 339.429 8.88621L340.542 10.5475L341.656 12.2088C342.789 11.4492 344.302 11.0132 346.327 11.0428L346.356 9.043ZM340.542 10.5475L339.429 8.88621C337.518 10.167 336.115 11.9685 335.199 14.1992L337.049 14.959L338.899 15.7188C339.547 14.1415 340.473 13.002 341.656 12.2088L340.542 10.5475ZM337.049 14.959L335.193 14.2134C334.313 16.4043 333.901 18.8944 333.901 21.64H335.901H337.901C337.901 19.2856 338.255 17.3217 338.905 15.7046L337.049 14.959ZM335.901 21.64H333.901C333.901 24.3842 334.312 26.8629 335.198 29.0273L337.049 28.27L338.9 27.5127C338.255 25.9371 337.901 23.9958 337.901 21.64H335.901ZM337.049 28.27L335.204 29.0416C336.123 31.2401 337.527 33.0171 339.429 34.2918L340.542 32.6305L341.656 30.9692C340.464 30.1699 339.539 29.0399 338.894 27.4984L337.049 28.27ZM340.542 32.6305L339.429 34.2918C341.369 35.5923 343.708 36.1986 346.327 36.2368L346.356 34.237L346.386 32.2372C344.346 32.2074 342.81 31.7427 341.656 30.9692L340.542 32.6305Z" fill="black" mask="url(#path-1-outside-1_175_40)"/>
</g>
<defs>
<filter id="filter0_d_175_40" x="0.569946" y="0.515137" width="369.585" height="50.25" filterUnits="userSpaceOnUse" color-interpolation-filters="sRGB">
<feFlood flood-opacity="0" result="BackgroundImageFix"/>
<feColorMatrix in="SourceAlpha" type="matrix" values="0 0 0 0 0 0 0 0 0 0 0 0 0 0 0 0 0 0 127 0" result="hardAlpha"/>
<feOffset dy="4"/>
<feGaussianBlur stdDeviation="2"/>
<feComposite in2="hardAlpha" operator="out"/>
<feColorMatrix type="matrix" values="0 0 0 0 0.533333 0 0 0 0 0.47451 0 0 0 0 0.807843 0 0 0 1 0"/>
<feBlend mode="normal" in2="BackgroundImageFix" result="effect1_dropShadow_175_40"/>
<feBlend mode="normal" in="SourceGraphic" in2="effect1_dropShadow_175_40" result="shape"/>
</filter>
</defs>
</svg>
