<svg width="617" height="80" viewBox="0 0 617 80" fill="none" xmlns="http://www.w3.org/2000/svg">
<g filter="url(#filter0_d_175_40)">
<mask id="path-1-outside-1_175_40" maskUnits="userSpaceOnUse" x="4" y="0" width="610" height="72" fill="black">
<rect fill="white" x="4" width="610" height="72"/>
<path d="M7.02 67V5.08H27.058C27.5453 5.08 28.5487 5.09433 30.068 5.123C31.5873 5.15166 33.0493 5.252 34.454 5.424C39.442 6.026 43.6703 7.76033 47.139 10.627C50.6077 13.4937 53.245 17.1343 55.051 21.549C56.857 25.9637 57.76 30.794 57.76 36.04C57.76 41.286 56.857 46.1163 55.051 50.531C53.245 54.9457 50.6077 58.5863 47.139 61.453C43.6703 64.3197 39.442 66.054 34.454 66.656C33.0493 66.828 31.5873 66.9283 30.068 66.957C28.5487 66.9857 27.5453 67 27.058 67H7.02ZM18.888 55.992H27.058C27.832 55.992 28.8783 55.9777 30.197 55.949C31.5157 55.8917 32.7053 55.7627 33.766 55.562C36.4607 55.0173 38.6537 53.756 40.345 51.778C42.065 49.8 43.3263 47.4207 44.129 44.64C44.9603 41.8593 45.376 38.9927 45.376 36.04C45.376 32.944 44.946 30.0057 44.086 27.225C43.2547 24.4443 41.979 22.0937 40.259 20.173C38.539 18.2523 36.3747 17.034 33.766 16.518C32.7053 16.2887 31.5157 16.1597 30.197 16.131C28.8783 16.1023 27.832 16.088 27.058 16.088H18.888V55.992ZM73.2366 67V5.08H113.657V16.002H84.9326V29.246H108.497V40.168H84.9326V56.078H113.657V67H73.2366ZM152.515 68.29C147.929 68.29 143.786 67.4873 140.088 65.882C136.419 64.248 133.395 61.926 131.015 58.916C128.665 55.8773 127.174 52.2653 126.543 48.08L138.755 46.274C139.615 49.8287 141.393 52.5663 144.087 54.487C146.782 56.4077 149.849 57.368 153.289 57.368C155.21 57.368 157.073 57.067 158.879 56.465C160.685 55.863 162.162 54.9743 163.308 53.799C164.484 52.6237 165.071 51.176 165.071 49.456C165.071 48.8253 164.971 48.2233 164.77 47.65C164.598 47.048 164.297 46.489 163.867 45.973C163.437 45.457 162.821 44.9697 162.018 44.511C161.244 44.0523 160.255 43.6367 159.051 43.264L142.969 38.534C141.765 38.19 140.361 37.7027 138.755 37.072C137.179 36.4413 135.645 35.5383 134.154 34.363C132.664 33.1877 131.417 31.6397 130.413 29.719C129.439 27.7697 128.951 25.3187 128.951 22.366C128.951 18.2093 129.998 14.755 132.09 12.003C134.183 9.251 136.978 7.20133 140.475 5.854C143.973 4.50666 147.843 3.84733 152.085 3.876C156.357 3.93333 160.169 4.66433 163.523 6.069C166.877 7.47366 169.687 9.52333 171.951 12.218C174.216 14.884 175.85 18.152 176.853 22.022L164.211 24.172C163.753 22.1653 162.907 20.474 161.674 19.098C160.442 17.722 158.965 16.6757 157.245 15.959C155.554 15.2423 153.777 14.8553 151.913 14.798C150.079 14.7407 148.344 14.9987 146.71 15.572C145.105 16.1167 143.786 16.9193 142.754 17.98C141.751 19.0407 141.249 20.302 141.249 21.764C141.249 23.1113 141.665 24.215 142.496 25.075C143.328 25.9063 144.374 26.58 145.635 27.096C146.897 27.612 148.187 28.042 149.505 28.386L160.255 31.31C161.861 31.74 163.638 32.3133 165.587 33.03C167.537 33.718 169.4 34.6927 171.177 35.954C172.983 37.1867 174.46 38.8207 175.606 40.856C176.782 42.8913 177.369 45.4713 177.369 48.596C177.369 51.9213 176.667 54.831 175.262 57.325C173.886 59.7903 172.023 61.84 169.672 63.474C167.322 65.0793 164.656 66.2833 161.674 67.086C158.722 67.8887 155.669 68.29 152.515 68.29ZM187.68 67L206.6 5.08H224.058L242.978 67H230.938L214.082 12.39H216.318L199.72 67H187.68ZM199.032 54.1V43.178H231.712V54.1H199.032ZM255.846 67V5.08H281.99C282.592 5.08 283.394 5.10866 284.398 5.166C285.43 5.19466 286.347 5.28067 287.15 5.424C290.848 5.99733 293.872 7.21566 296.223 9.07899C298.602 10.9423 300.351 13.293 301.469 16.131C302.587 18.9403 303.146 22.0793 303.146 25.548C303.146 30.7367 301.856 35.18 299.276 38.878C296.696 42.5473 292.654 44.812 287.15 45.672L281.99 46.016H267.542V67H255.846ZM290.762 67L278.55 41.802L290.59 39.48L304.006 67H290.762ZM267.542 35.094H281.474C282.076 35.094 282.735 35.0653 283.452 35.008C284.168 34.9507 284.828 34.836 285.43 34.664C287.006 34.234 288.225 33.5173 289.085 32.514C289.945 31.482 290.532 30.3497 290.848 29.117C291.192 27.8557 291.364 26.666 291.364 25.548C291.364 24.43 291.192 23.2547 290.848 22.022C290.532 20.7607 289.945 19.6283 289.085 18.625C288.225 17.593 287.006 16.862 285.43 16.432C284.828 16.26 284.168 16.1453 283.452 16.088C282.735 16.0307 282.076 16.002 281.474 16.002H267.542V35.094ZM318.619 67V5.08H344.763C345.365 5.08 346.167 5.10866 347.171 5.166C348.203 5.19466 349.12 5.28067 349.923 5.424C353.621 5.99733 356.645 7.21566 358.996 9.07899C361.375 10.9423 363.124 13.293 364.242 16.131C365.36 18.9403 365.919 22.0793 365.919 25.548C365.919 30.7367 364.629 35.18 362.049 38.878C359.469 42.5473 355.427 44.812 349.923 45.672L344.763 46.016H330.315V67H318.619ZM353.535 67L341.323 41.802L353.363 39.48L366.779 67H353.535ZM330.315 35.094H344.247C344.849 35.094 345.508 35.0653 346.225 35.008C346.941 34.9507 347.601 34.836 348.203 34.664C349.779 34.234 350.998 33.5173 351.858 32.514C352.718 31.482 353.305 30.3497 353.621 29.117C353.965 27.8557 354.137 26.666 354.137 25.548C354.137 24.43 353.965 23.2547 353.621 22.022C353.305 20.7607 352.718 19.6283 351.858 18.625C350.998 17.593 349.779 16.862 348.203 16.432C347.601 16.26 346.941 16.1453 346.225 16.088C345.508 16.0307 344.849 16.002 344.247 16.002H330.315V35.094ZM407.966 68.29C401.774 68.29 396.428 66.9427 391.927 64.248C387.455 61.5533 384.001 57.7837 381.564 52.939C379.156 48.0943 377.952 42.4613 377.952 36.04C377.952 29.6187 379.156 23.9857 381.564 19.141C384.001 14.2963 387.455 10.5267 391.927 7.832C396.428 5.13733 401.774 3.79 407.966 3.79C414.158 3.79 419.49 5.13733 423.962 7.832C428.463 10.5267 431.917 14.2963 434.325 19.141C436.762 23.9857 437.98 29.6187 437.98 36.04C437.98 42.4613 436.762 48.0943 434.325 52.939C431.917 57.7837 428.463 61.5533 423.962 64.248C419.49 66.9427 414.158 68.29 407.966 68.29ZM407.966 57.282C411.893 57.3393 415.161 56.4937 417.77 54.745C420.379 52.9963 422.328 50.5167 423.618 47.306C424.937 44.0953 425.596 40.34 425.596 36.04C425.596 31.74 424.937 28.0133 423.618 24.86C422.328 21.7067 420.379 19.2557 417.77 17.507C415.161 15.7583 411.893 14.8553 407.966 14.798C404.039 14.7407 400.771 15.5863 398.162 17.335C395.553 19.0837 393.59 21.5633 392.271 24.774C390.981 27.9847 390.336 31.74 390.336 36.04C390.336 40.34 390.981 44.0667 392.271 47.22C393.59 50.3733 395.553 52.8243 398.162 54.573C400.771 56.3217 404.039 57.2247 407.966 57.282ZM452.584 67V5.08H464.28V56.078H490.94V67H452.584ZM504.271 67V5.08H515.967V56.078H542.627V67H504.271ZM579.993 68.29C573.801 68.29 568.455 66.9427 563.954 64.248C559.482 61.5533 556.028 57.7837 553.591 52.939C551.183 48.0943 549.979 42.4613 549.979 36.04C549.979 29.6187 551.183 23.9857 553.591 19.141C556.028 14.2963 559.482 10.5267 563.954 7.832C568.455 5.13733 573.801 3.79 579.993 3.79C586.185 3.79 591.517 5.13733 595.989 7.832C600.49 10.5267 603.944 14.2963 606.352 19.141C608.789 23.9857 610.007 29.6187 610.007 36.04C610.007 42.4613 608.789 48.0943 606.352 52.939C603.944 57.7837 600.49 61.5533 595.989 64.248C591.517 66.9427 586.185 68.29 579.993 68.29ZM579.993 57.282C583.92 57.3393 587.188 56.4937 589.797 54.745C592.406 52.9963 594.355 50.5167 595.645 47.306C596.964 44.0953 597.623 40.34 597.623 36.04C597.623 31.74 596.964 28.0133 595.645 24.86C594.355 21.7067 592.406 19.2557 589.797 17.507C587.188 15.7583 583.92 14.8553 579.993 14.798C576.066 14.7407 572.798 15.5863 570.189 17.335C567.58 19.0837 565.617 21.5633 564.298 24.774C563.008 27.9847 562.363 31.74 562.363 36.04C562.363 40.34 563.008 44.0667 564.298 47.22C565.617 50.3733 567.58 52.8243 570.189 54.573C572.798 56.3217 576.066 57.2247 579.993 57.282Z"/>
</mask>
<path d="M7.02 67H4.02V70H7.02V67ZM7.02 5.08V2.08H4.02V5.08H7.02ZM30.068 5.123L30.0114 8.12247L30.0114 8.12247L30.068 5.123ZM34.454 5.424L34.0894 8.40176L34.0945 8.40239L34.454 5.424ZM47.139 10.627L49.0501 8.31452L49.0501 8.31452L47.139 10.627ZM55.051 21.549L57.8276 20.4131L57.8276 20.4131L55.051 21.549ZM55.051 50.531L57.8276 51.6669L57.8276 51.6669L55.051 50.531ZM47.139 61.453L49.0501 63.7655L49.0501 63.7655L47.139 61.453ZM34.454 66.656L34.0945 63.6776L34.0894 63.6782L34.454 66.656ZM30.068 66.957L30.1246 69.9565L30.1246 69.9565L30.068 66.957ZM18.888 55.992H15.888V58.992H18.888V55.992ZM30.197 55.949L30.2622 58.9483L30.2948 58.9476L30.3273 58.9462L30.197 55.949ZM33.766 55.562L34.3237 58.5097L34.342 58.5062L34.3604 58.5025L33.766 55.562ZM40.345 51.778L38.0812 49.8095L38.073 49.8189L38.0649 49.8283L40.345 51.778ZM44.129 44.64L41.2547 43.7807L41.2506 43.7943L41.2467 43.808L44.129 44.64ZM44.086 27.225L41.2117 28.0843L41.2158 28.0979L41.2199 28.1114L44.086 27.225ZM40.259 20.173L42.4939 18.1716L42.4939 18.1716L40.259 20.173ZM33.766 16.518L33.132 19.4502L33.1579 19.4558L33.1839 19.461L33.766 16.518ZM30.197 16.131L30.2622 13.1317L30.2622 13.1317L30.197 16.131ZM18.888 16.088V13.088H15.888V16.088H18.888ZM7.02 67H10.02V5.08H7.02H4.02V67H7.02ZM7.02 5.08V8.08H27.058V5.08V2.08H7.02V5.08ZM27.058 5.08V8.08C27.512 8.08 28.4865 8.09369 30.0114 8.12247L30.068 5.123L30.1246 2.12353C28.6108 2.09497 27.5786 2.08 27.058 2.08V5.08ZM30.068 5.123L30.0114 8.12247C31.4352 8.14933 32.7941 8.24315 34.0894 8.40176L34.454 5.424L34.8186 2.44624C33.3046 2.26084 31.7394 2.154 30.1246 2.12353L30.068 5.123ZM34.454 5.424L34.0945 8.40239C38.5809 8.94384 42.2524 10.4804 45.2279 12.9395L47.139 10.627L49.0501 8.31452C45.0882 5.04022 40.3031 3.10816 34.8135 2.44561L34.454 5.424ZM47.139 10.627L45.2279 12.9395C48.2926 15.4723 50.6439 18.6994 52.2744 22.6849L55.051 21.549L57.8276 20.4131C55.8461 15.5692 52.9227 11.515 49.0501 8.31452L47.139 10.627ZM55.051 21.549L52.2744 22.6849C53.9188 26.7046 54.76 31.1445 54.76 36.04H57.76H60.76C60.76 30.4435 59.7952 25.2227 57.8276 20.4131L55.051 21.549ZM57.76 36.04H54.76C54.76 40.9355 53.9188 45.3754 52.2744 49.3951L55.051 50.531L57.8276 51.6669C59.7952 46.8573 60.76 41.6365 60.76 36.04H57.76ZM55.051 50.531L52.2744 49.3951C50.6439 53.3806 48.2926 56.6077 45.2279 59.1405L47.139 61.453L49.0501 63.7655C52.9227 60.565 55.8461 56.5108 57.8276 51.6669L55.051 50.531ZM47.139 61.453L45.2279 59.1405C42.2524 61.5996 38.5809 63.1362 34.0945 63.6776L34.454 66.656L34.8135 69.6344C40.3031 68.9718 45.0882 67.0398 49.0501 63.7655L47.139 61.453ZM34.454 66.656L34.0894 63.6782C32.7941 63.8368 31.4352 63.9307 30.0114 63.9575L30.068 66.957L30.1246 69.9565C31.7394 69.926 33.3046 69.8192 34.8186 69.6338L34.454 66.656ZM30.068 66.957L30.0114 63.9575C28.4865 63.9863 27.5121 64 27.058 64V67V70C27.5786 70 28.6108 69.985 30.1246 69.9565L30.068 66.957ZM27.058 67V64H7.02V67V70H27.058V67ZM18.888 55.992V58.992H27.058V55.992V52.992H18.888V55.992ZM27.058 55.992V58.992C27.8636 58.992 28.9346 58.9772 30.2622 58.9483L30.197 55.949L30.1318 52.9497C28.8221 52.9782 27.8004 52.992 27.058 52.992V55.992ZM30.197 55.949L30.3273 58.9462C31.7591 58.8839 33.095 58.7422 34.3237 58.5097L33.766 55.562L33.2083 52.6143C32.3157 52.7832 31.2722 52.8994 30.0667 52.9518L30.197 55.949ZM33.766 55.562L34.3604 58.5025C37.6721 57.8331 40.4727 56.2449 42.6251 53.7277L40.345 51.778L38.0649 49.8283C36.8347 51.2671 35.2492 52.2015 33.1716 52.6215L33.766 55.562ZM40.345 51.778L42.6088 53.7465C44.6439 51.4062 46.1003 48.6279 47.0113 45.472L44.129 44.64L41.2467 43.808C40.5523 46.2134 39.4861 48.1938 38.0812 49.8095L40.345 51.778ZM44.129 44.64L47.0033 45.4993C47.9194 42.435 48.376 39.2786 48.376 36.04H45.376H42.376C42.376 38.7068 42.0012 41.2837 41.2547 43.7807L44.129 44.64ZM45.376 36.04H48.376C48.376 32.6626 47.9063 29.4241 46.9521 26.3386L44.086 27.225L41.2199 28.1114C41.9857 30.5872 42.376 33.2254 42.376 36.04H45.376ZM44.086 27.225L46.9603 26.3657C46.0184 23.2153 44.5435 20.4604 42.4939 18.1716L40.259 20.173L38.0242 22.1744C39.4145 23.7269 40.4909 25.6733 41.2117 28.0843L44.086 27.225ZM40.259 20.173L42.4939 18.1716C40.3252 15.75 37.5737 14.213 34.3481 13.575L33.766 16.518L33.1839 19.461C35.1756 19.855 36.7528 20.7546 38.0242 22.1744L40.259 20.173ZM33.766 16.518L34.4 13.5858C33.1175 13.3085 31.7329 13.1637 30.2622 13.1317L30.197 16.131L30.1318 19.1303C31.2984 19.1557 32.2932 19.2689 33.132 19.4502L33.766 16.518ZM30.197 16.131L30.2622 13.1317C28.9346 13.1028 27.8636 13.088 27.058 13.088V16.088V19.088C27.8004 19.088 28.8221 19.1018 30.1318 19.1303L30.197 16.131ZM27.058 16.088V13.088H18.888V16.088V19.088H27.058V16.088ZM18.888 16.088H15.888V55.992H18.888H21.888V16.088H18.888ZM73.2366 67H70.2366V70H73.2366V67ZM73.2366 5.08V2.08H70.2366V5.08H73.2366ZM113.657 5.08H116.657V2.08H113.657V5.08ZM113.657 16.002V19.002H116.657V16.002H113.657ZM84.9326 16.002V13.002H81.9326V16.002H84.9326ZM84.9326 29.246H81.9326V32.246H84.9326V29.246ZM108.497 29.246H111.497V26.246H108.497V29.246ZM108.497 40.168V43.168H111.497V40.168H108.497ZM84.9326 40.168V37.168H81.9326V40.168H84.9326ZM84.9326 56.078H81.9326V59.078H84.9326V56.078ZM113.657 56.078H116.657V53.078H113.657V56.078ZM113.657 67V70H116.657V67H113.657ZM73.2366 67H76.2366V5.08H73.2366H70.2366V67H73.2366ZM73.2366 5.08V8.08H113.657V5.08V2.08H73.2366V5.08ZM113.657 5.08H110.657V16.002H113.657H116.657V5.08H113.657ZM113.657 16.002V13.002H84.9326V16.002V19.002H113.657V16.002ZM84.9326 16.002H81.9326V29.246H84.9326H87.9326V16.002H84.9326ZM84.9326 29.246V32.246H108.497V29.246V26.246H84.9326V29.246ZM108.497 29.246H105.497V40.168H108.497H111.497V29.246H108.497ZM108.497 40.168V37.168H84.9326V40.168V43.168H108.497V40.168ZM84.9326 40.168H81.9326V56.078H84.9326H87.9326V40.168H84.9326ZM84.9326 56.078V59.078H113.657V56.078V53.078H84.9326V56.078ZM113.657 56.078H110.657V67H113.657H116.657V56.078H113.657ZM113.657 67V64H73.2366V67V70H113.657V67ZM140.088 65.882L138.868 68.6226L138.881 68.6283L138.894 68.6339L140.088 65.882ZM131.015 58.916L128.642 60.7516L128.652 60.7641L128.662 60.7764L131.015 58.916ZM126.543 48.08L126.104 45.1123L123.128 45.5524L123.577 48.527L126.543 48.08ZM138.755 46.274L141.671 45.5685L141.027 42.9054L138.316 43.3063L138.755 46.274ZM144.087 54.487L145.828 52.044L145.828 52.044L144.087 54.487ZM158.879 56.465L157.931 53.6189L157.931 53.619L158.879 56.465ZM163.308 53.799L161.187 51.6777L161.174 51.6908L161.161 51.704L163.308 53.799ZM164.77 47.65L161.886 48.4742L161.91 48.5584L161.939 48.6411L164.77 47.65ZM163.867 45.973L166.172 44.0524L166.172 44.0524L163.867 45.973ZM162.018 44.511L160.489 47.0919L160.509 47.104L160.53 47.1157L162.018 44.511ZM159.051 43.264L159.938 40.3981L159.918 40.3919L159.898 40.3859L159.051 43.264ZM142.969 38.534L143.816 35.6559L143.805 35.6526L143.793 35.6494L142.969 38.534ZM138.755 37.072L137.641 39.8574L137.65 39.8609L137.658 39.8643L138.755 37.072ZM134.154 34.363L136.012 32.0072L136.012 32.0072L134.154 34.363ZM130.413 29.719L127.73 31.0606L127.742 31.0845L127.754 31.1081L130.413 29.719ZM132.09 12.003L134.478 13.8189L134.478 13.8189L132.09 12.003ZM140.475 5.854L141.554 8.65344L141.554 8.65344L140.475 5.854ZM152.085 3.876L152.125 0.876268L152.115 0.876134L152.105 0.876066L152.085 3.876ZM163.523 6.069L164.682 3.30187L164.682 3.30187L163.523 6.069ZM171.951 12.218L169.655 14.1481L169.66 14.1542L169.665 14.1602L171.951 12.218ZM176.853 22.022L177.356 24.9795L180.577 24.4318L179.757 21.2691L176.853 22.022ZM164.211 24.172L161.287 24.8405L161.919 27.605L164.714 27.1295L164.211 24.172ZM161.674 19.098L159.44 21.0997L159.44 21.0997L161.674 19.098ZM157.245 15.959L156.075 18.7213L156.083 18.7248L156.091 18.7282L157.245 15.959ZM151.913 14.798L151.82 17.7965L151.821 17.7966L151.913 14.798ZM146.71 15.572L147.674 18.4129L147.689 18.4079L147.703 18.4028L146.71 15.572ZM142.754 17.98L140.604 15.8879L140.589 15.9031L140.575 15.9184L142.754 17.98ZM142.496 25.075L140.339 27.1601L140.357 27.1783L140.375 27.1963L142.496 25.075ZM145.635 27.096L146.771 24.3194L146.771 24.3194L145.635 27.096ZM149.505 28.386L150.293 25.4912L150.278 25.4871L150.262 25.4831L149.505 28.386ZM160.255 31.31L159.468 34.2048L159.479 34.2078L160.255 31.31ZM165.587 33.03L164.552 35.8457L164.57 35.8525L164.589 35.859L165.587 33.03ZM171.177 35.954L169.441 38.4005L169.463 38.4164L169.486 38.4318L171.177 35.954ZM175.606 40.856L172.992 42.3285L173 42.3424L173.008 42.3562L175.606 40.856ZM175.262 57.325L172.648 55.8528L172.643 55.8629L175.262 57.325ZM169.672 63.474L171.364 65.9514L171.374 65.9444L171.385 65.9373L169.672 63.474ZM161.674 67.086L160.894 64.1891L160.887 64.1911L161.674 67.086ZM152.515 68.29V65.29C148.283 65.29 144.555 64.5507 141.283 63.1301L140.088 65.882L138.894 68.6339C143.017 70.4239 147.574 71.29 152.515 71.29V68.29ZM140.088 65.882L141.309 63.1414C138.061 61.6953 135.433 59.6669 133.369 57.0556L131.015 58.916L128.662 60.7764C131.356 64.1851 134.777 66.8007 138.868 68.6226L140.088 65.882ZM131.015 58.916L133.388 57.0804C131.382 54.4865 130.072 51.3651 129.51 47.633L126.543 48.08L123.577 48.527C124.276 53.1656 125.948 57.2681 128.642 60.7516L131.015 58.916ZM126.543 48.08L126.982 51.0477L139.194 49.2417L138.755 46.274L138.316 43.3063L126.104 45.1123L126.543 48.08ZM138.755 46.274L135.839 46.9795C136.85 51.1565 139 54.5453 142.346 56.93L144.087 54.487L145.828 52.044C143.785 50.5874 142.381 48.5009 141.671 45.5685L138.755 46.274ZM144.087 54.487L142.346 56.93C145.57 59.2279 149.251 60.368 153.289 60.368V57.368V54.368C150.447 54.368 147.994 53.5874 145.828 52.044L144.087 54.487ZM153.289 57.368V60.368C155.529 60.368 157.713 60.0159 159.828 59.311L158.879 56.465L157.931 53.619C156.433 54.1181 154.89 54.368 153.289 54.368V57.368ZM158.879 56.465L159.828 59.311C162.015 58.582 163.925 57.4624 165.456 55.894L163.308 53.799L161.161 51.704C160.398 52.4862 159.355 53.144 157.931 53.6189L158.879 56.465ZM163.308 53.799L165.43 55.9203C167.189 54.1609 168.071 51.9407 168.071 49.456H165.071H162.071C162.071 50.4113 161.778 51.0865 161.187 51.6777L163.308 53.799ZM165.071 49.456H168.071C168.071 48.5009 167.918 47.5629 167.602 46.6589L164.77 47.65L161.939 48.6411C162.024 48.8838 162.071 49.1497 162.071 49.456H165.071ZM164.77 47.65L167.655 46.8258C167.36 45.7933 166.85 44.8658 166.172 44.0524L163.867 45.973L161.563 47.8936C161.745 48.1122 161.837 48.3027 161.886 48.4742L164.77 47.65ZM163.867 45.973L166.172 44.0524C165.444 43.1794 164.511 42.4803 163.507 41.9063L162.018 44.511L160.53 47.1157C161.13 47.459 161.43 47.7346 161.563 47.8936L163.867 45.973ZM162.018 44.511L163.548 41.9301C162.509 41.3146 161.285 40.8149 159.938 40.3981L159.051 43.264L158.164 46.1299C159.226 46.4584 159.98 46.7901 160.489 47.0919L162.018 44.511ZM159.051 43.264L159.898 40.3859L143.816 35.6559L142.969 38.534L142.123 41.4121L158.205 46.1421L159.051 43.264ZM142.969 38.534L143.793 35.6494C142.709 35.3395 141.399 34.8873 139.852 34.2797L138.755 37.072L137.658 39.8643C139.322 40.518 140.822 41.0405 142.145 41.4186L142.969 38.534ZM138.755 37.072L139.869 34.2866C138.589 33.7745 137.303 33.0251 136.012 32.0072L134.154 34.363L132.297 36.7188C133.987 38.0515 135.768 39.1082 137.641 39.8574L138.755 37.072ZM134.154 34.363L136.012 32.0072C134.897 31.1286 133.907 29.9284 133.072 28.3299L130.413 29.719L127.754 31.1081C128.926 33.3509 130.43 35.2467 132.297 36.7188L134.154 34.363ZM130.413 29.719L133.096 28.3774C132.391 26.9654 131.951 25.01 131.951 22.366H128.951H125.951C125.951 25.6273 126.487 28.5739 127.73 31.0606L130.413 29.719ZM128.951 22.366H131.951C131.951 18.7286 132.858 15.9496 134.478 13.8189L132.09 12.003L129.702 10.1871C127.137 13.5604 125.951 17.69 125.951 22.366H128.951ZM132.09 12.003L134.478 13.8189C136.206 11.547 138.53 9.81817 141.554 8.65344L140.475 5.854L139.397 3.05455C135.425 4.58449 132.16 6.95504 129.702 10.1871L132.09 12.003ZM140.475 5.854L141.554 8.65344C144.657 7.45776 148.149 6.84947 152.065 6.87593L152.085 3.876L152.105 0.876066C147.536 0.845193 143.288 1.55556 139.397 3.05455L140.475 5.854ZM152.085 3.876L152.045 6.87573C155.998 6.92879 159.421 7.60348 162.364 8.83612L163.523 6.069L164.682 3.30187C160.917 1.72518 156.715 0.937873 152.125 0.876268L152.085 3.876ZM163.523 6.069L162.364 8.83612C165.293 10.0626 167.707 11.8314 169.655 14.1481L171.951 12.218L174.248 10.2878C171.666 7.21531 168.461 4.88469 164.682 3.30187L163.523 6.069ZM171.951 12.218L169.665 14.1602C171.597 16.4352 173.043 19.2801 173.949 22.7749L176.853 22.022L179.757 21.2691C178.657 17.0239 176.834 13.3328 174.238 10.2758L171.951 12.218ZM176.853 22.022L176.35 19.0645L163.708 21.2145L164.211 24.172L164.714 27.1295L177.356 24.9795L176.853 22.022ZM164.211 24.172L167.136 23.5035C166.577 21.0589 165.518 18.8928 163.909 17.0962L161.674 19.098L159.44 21.0997C160.296 22.0552 160.928 23.2718 161.287 24.8405L164.211 24.172ZM161.674 19.098L163.909 17.0963C162.375 15.3841 160.528 14.077 158.399 13.1898L157.245 15.959L156.091 18.7282C157.402 19.2744 158.508 20.0599 159.44 21.0997L161.674 19.098ZM157.245 15.959L158.416 13.1967C156.377 12.3331 154.234 11.868 152.005 11.7994L151.913 14.798L151.821 17.7966C153.319 17.8427 154.73 18.1516 156.075 18.7213L157.245 15.959ZM151.913 14.798L152.007 11.7995C149.825 11.7313 147.72 12.0382 145.717 12.7412L146.71 15.572L147.703 18.4028C148.968 17.9591 150.332 17.75 151.82 17.7965L151.913 14.798ZM146.71 15.572L145.746 12.7311C143.758 13.4058 142.012 14.4409 140.604 15.8879L142.754 17.98L144.904 20.0721C145.56 19.3977 146.452 18.8275 147.674 18.4129L146.71 15.572ZM142.754 17.98L140.575 15.9184C139.044 17.537 138.249 19.5363 138.249 21.764H141.249H144.249C144.249 21.0677 144.458 20.5444 144.934 20.0416L142.754 17.98ZM141.249 21.764H138.249C138.249 23.7826 138.897 25.6683 140.339 27.1601L142.496 25.075L144.653 22.9899C144.433 22.7617 144.249 22.44 144.249 21.764H141.249ZM142.496 25.075L140.375 27.1963C141.529 28.3506 142.927 29.2295 144.499 29.8726L145.635 27.096L146.771 24.3194C145.82 23.9304 145.126 23.4621 144.618 22.9537L142.496 25.075ZM145.635 27.096L144.499 29.8726C145.884 30.4391 147.3 30.9112 148.748 31.2888L149.505 28.386L150.262 25.4831C149.073 25.1728 147.909 24.7849 146.771 24.3194L145.635 27.096ZM149.505 28.386L148.718 31.2808L159.468 34.2048L160.255 31.31L161.043 28.4152L150.293 25.4912L149.505 28.386ZM160.255 31.31L159.479 34.2078C160.978 34.6095 162.668 35.153 164.552 35.8457L165.587 33.03L166.622 30.2143C164.608 29.4737 162.743 28.8705 161.031 28.4122L160.255 31.31ZM165.587 33.03L164.589 35.859C166.262 36.4494 167.878 37.2915 169.441 38.4005L171.177 35.954L172.913 33.5075C170.921 32.0938 168.811 30.9866 166.586 30.201L165.587 33.03ZM171.177 35.954L169.486 38.4318C170.886 39.3871 172.056 40.6666 172.992 42.3285L175.606 40.856L178.22 39.3835C176.863 36.9747 175.081 34.9862 172.868 33.4761L171.177 35.954ZM175.606 40.856L173.008 42.3562C173.847 43.8092 174.369 45.8301 174.369 48.596H177.369H180.369C180.369 45.1126 179.716 41.9734 178.204 39.3558L175.606 40.856ZM177.369 48.596H174.369C174.369 51.4897 173.762 53.8762 172.648 55.8528L175.262 57.325L177.876 58.7972C179.572 55.7858 180.369 52.3529 180.369 48.596H177.369ZM175.262 57.325L172.643 55.8629C171.492 57.9241 169.941 59.6333 167.96 61.0107L169.672 63.474L171.385 65.9373C174.104 64.0467 176.28 61.6566 177.882 58.7871L175.262 57.325ZM169.672 63.474L167.98 60.9966C165.931 62.3964 163.578 63.4667 160.894 64.1892L161.674 67.086L162.454 69.9828C165.733 69.1 168.713 67.7622 171.364 65.9514L169.672 63.474ZM161.674 67.086L160.887 64.1911C158.199 64.9219 155.411 65.29 152.515 65.29V68.29V71.29C155.926 71.29 159.244 70.8554 162.461 69.9809L161.674 67.086ZM187.68 67L184.811 66.1233L183.627 70H187.68V67ZM206.6 5.08V2.08H204.38L203.731 4.20334L206.6 5.08ZM224.058 5.08L226.928 4.20334L226.279 2.08H224.058V5.08ZM242.978 67V70H247.032L245.848 66.1233L242.978 67ZM230.938 67L228.072 67.8848L228.725 70H230.938V67ZM214.082 12.39V9.39H210.017L211.216 13.2748L214.082 12.39ZM216.318 12.39L219.189 13.2624L220.366 9.39H216.318V12.39ZM199.72 67V70H201.944L202.591 67.8724L199.72 67ZM199.032 54.1H196.032V57.1H199.032V54.1ZM199.032 43.178V40.178H196.032V43.178H199.032ZM231.712 43.178H234.712V40.178H231.712V43.178ZM231.712 54.1V57.1H234.712V54.1H231.712ZM187.68 67L190.55 67.8767L209.47 5.95665L206.6 5.08L203.731 4.20334L184.811 66.1233L187.68 67ZM206.6 5.08V8.08H224.058V5.08V2.08H206.6V5.08ZM224.058 5.08L221.189 5.95665L240.109 67.8767L242.978 67L245.848 66.1233L226.928 4.20334L224.058 5.08ZM242.978 67V64H230.938V67V70H242.978V67ZM230.938 67L233.805 66.1152L216.949 11.5052L214.082 12.39L211.216 13.2748L228.072 67.8848L230.938 67ZM214.082 12.39V15.39H216.318V12.39V9.39H214.082V12.39ZM216.318 12.39L213.448 11.5176L196.85 66.1276L199.72 67L202.591 67.8724L219.189 13.2624L216.318 12.39ZM199.72 67V64H187.68V67V70H199.72V67ZM199.032 54.1H202.032V43.178H199.032H196.032V54.1H199.032ZM199.032 43.178V46.178H231.712V43.178V40.178H199.032V43.178ZM231.712 43.178H228.712V54.1H231.712H234.712V43.178H231.712ZM231.712 54.1V51.1H199.032V54.1V57.1H231.712V54.1ZM255.846 67H252.846V70H255.846V67ZM255.846 5.08V2.08H252.846V5.08H255.846ZM284.398 5.166L284.226 8.16111L284.27 8.16362L284.314 8.16484L284.398 5.166ZM287.15 5.424L286.622 8.37728L286.656 8.38332L286.69 8.38858L287.15 5.424ZM296.223 9.07899L294.359 11.43L294.366 11.4355L294.373 11.4409L296.223 9.07899ZM301.469 16.131L298.677 17.2306L298.681 17.2403L301.469 16.131ZM299.276 38.878L301.73 40.6035L301.736 40.5945L299.276 38.878ZM287.15 45.672L287.349 48.6654L287.482 48.6565L287.613 48.636L287.15 45.672ZM281.99 46.016V49.016H282.089L282.189 49.0094L281.99 46.016ZM267.542 46.016V43.016H264.542V46.016H267.542ZM267.542 67V70H270.542V67H267.542ZM290.762 67L288.062 68.3084L288.882 70H290.762V67ZM278.55 41.802L277.981 38.8563L274.147 39.5959L275.85 43.1104L278.55 41.802ZM290.59 39.48L293.286 38.1654L292.279 36.0989L290.021 36.5343L290.59 39.48ZM304.006 67V70H308.806L306.702 65.6854L304.006 67ZM267.542 35.094H264.542V38.094H267.542V35.094ZM283.452 35.008L283.691 37.9984L283.691 37.9984L283.452 35.008ZM285.43 34.664L284.64 31.7697L284.623 31.7745L284.605 31.7794L285.43 34.664ZM289.085 32.514L291.362 34.4664L291.376 34.4506L291.389 34.4345L289.085 32.514ZM290.848 29.117L287.953 28.3276L287.947 28.3505L287.941 28.3735L290.848 29.117ZM290.848 22.022L287.937 22.7496L287.947 22.7891L287.958 22.8284L290.848 22.022ZM289.085 18.625L286.78 20.5456L286.793 20.5616L286.807 20.5774L289.085 18.625ZM285.43 16.432L284.605 19.3166L284.623 19.3215L284.64 19.3263L285.43 16.432ZM283.452 16.088L283.212 19.0784L283.212 19.0784L283.452 16.088ZM267.542 16.002V13.002H264.542V16.002H267.542ZM255.846 67H258.846V5.08H255.846H252.846V67H255.846ZM255.846 5.08V8.08H281.99V5.08V2.08H255.846V5.08ZM281.99 5.08V8.08C282.509 8.08 283.248 8.1052 284.226 8.16111L284.398 5.166L284.569 2.17088C283.541 2.11213 282.674 2.08 281.99 2.08V5.08ZM284.398 5.166L284.314 8.16484C285.234 8.1904 285.999 8.26596 286.622 8.37728L287.15 5.424L287.677 2.47072C286.695 2.29537 285.625 2.19893 284.481 2.16715L284.398 5.166ZM287.15 5.424L286.69 8.38858C290 8.90179 292.504 9.95987 294.359 11.43L296.223 9.07899L298.086 6.72802C295.239 4.47146 291.695 3.09287 287.609 2.45942L287.15 5.424ZM296.223 9.07899L294.373 11.4409C296.327 12.9716 297.753 14.8848 298.677 17.2306L301.469 16.131L304.26 15.0314C302.948 11.7012 300.876 8.91306 298.072 6.71708L296.223 9.07899ZM301.469 16.131L298.681 17.2403C299.64 19.6486 300.146 22.4039 300.146 25.548H303.146H306.146C306.146 21.7548 305.534 18.232 304.256 15.0217L301.469 16.131ZM303.146 25.548H300.146C300.146 30.2183 298.993 34.04 296.815 37.1615L299.276 38.878L301.736 40.5945C304.718 36.32 306.146 31.255 306.146 25.548H303.146ZM299.276 38.878L296.821 37.1525C294.818 40.0021 291.593 41.9413 286.686 42.708L287.15 45.672L287.613 48.636C293.714 47.6827 298.573 45.0926 301.73 40.6035L299.276 38.878ZM287.15 45.672L286.95 42.6786L281.79 43.0226L281.99 46.016L282.189 49.0094L287.349 48.6654L287.15 45.672ZM281.99 46.016V43.016H267.542V46.016V49.016H281.99V46.016ZM267.542 46.016H264.542V67H267.542H270.542V46.016H267.542ZM267.542 67V64H255.846V67V70H267.542V67ZM290.762 67L293.461 65.6916L281.249 40.4936L278.55 41.802L275.85 43.1104L288.062 68.3084L290.762 67ZM278.55 41.802L279.118 44.7477L291.158 42.4257L290.59 39.48L290.021 36.5343L277.981 38.8563L278.55 41.802ZM290.59 39.48L287.893 40.7946L301.309 68.3146L304.006 67L306.702 65.6854L293.286 38.1654L290.59 39.48ZM304.006 67V64H290.762V67V70H304.006V67ZM267.542 35.094V38.094H281.474V35.094V32.094H267.542V35.094ZM281.474 35.094V38.094C282.169 38.094 282.909 38.061 283.691 37.9984L283.452 35.008L283.212 32.0176C282.56 32.0697 281.982 32.094 281.474 32.094V35.094ZM283.452 35.008L283.691 37.9984C284.577 37.9275 285.435 37.7825 286.254 37.5486L285.43 34.664L284.605 31.7794C284.22 31.8895 283.759 31.9738 283.212 32.0176L283.452 35.008ZM285.43 34.664L286.219 37.5583C288.237 37.008 290.028 36.0233 291.362 34.4664L289.085 32.514L286.807 30.5616C286.421 31.0114 285.776 31.46 284.64 31.7697L285.43 34.664ZM289.085 32.514L291.389 34.4345C292.519 33.0794 293.322 31.5494 293.754 29.8605L290.848 29.117L287.941 28.3735C287.743 29.1499 287.371 29.8846 286.78 30.5934L289.085 32.514ZM290.848 29.117L293.742 29.9063C294.144 28.4301 294.364 26.9732 294.364 25.548H291.364H288.364C288.364 26.3588 288.239 27.2813 287.953 28.3276L290.848 29.117ZM291.364 25.548H294.364C294.364 24.1214 294.144 22.6737 293.737 21.2156L290.848 22.022L287.958 22.8284C288.239 23.8357 288.364 24.7386 288.364 25.548H291.364ZM290.848 22.022L293.758 21.2944C293.328 19.5736 292.52 18.0236 291.362 16.6726L289.085 18.625L286.807 20.5774C287.369 21.2331 287.737 21.9477 287.937 22.7496L290.848 22.022ZM289.085 18.625L291.389 16.7044C290.057 15.1062 288.258 14.0939 286.219 13.5377L285.43 16.432L284.64 19.3263C285.754 19.6301 286.392 20.0798 286.78 20.5456L289.085 18.625ZM285.43 16.432L286.254 13.5474C285.435 13.3135 284.577 13.1684 283.691 13.0976L283.452 16.088L283.212 19.0784C283.759 19.1222 284.22 19.2065 284.605 19.3166L285.43 16.432ZM283.452 16.088L283.691 13.0976C282.909 13.035 282.169 13.002 281.474 13.002V16.002V19.002C281.982 19.002 282.56 19.0263 283.212 19.0784L283.452 16.088ZM281.474 16.002V13.002H267.542V16.002V19.002H281.474V16.002ZM267.542 16.002H264.542V35.094H267.542H270.542V16.002H267.542ZM318.619 67H315.619V70H318.619V67ZM318.619 5.08V2.08H315.619V5.08H318.619ZM347.171 5.166L347 8.16111L347.044 8.16362L347.088 8.16484L347.171 5.166ZM349.923 5.424L349.395 8.37728L349.429 8.38332L349.463 8.38858L349.923 5.424ZM358.996 9.07899L357.132 11.43L357.139 11.4355L357.146 11.4409L358.996 9.07899ZM364.242 16.131L361.451 17.2306L361.454 17.2403L364.242 16.131ZM362.049 38.878L364.503 40.6035L364.509 40.5945L362.049 38.878ZM349.923 45.672L350.122 48.6654L350.255 48.6565L350.386 48.636L349.923 45.672ZM344.763 46.016V49.016H344.863L344.962 49.0094L344.763 46.016ZM330.315 46.016V43.016H327.315V46.016H330.315ZM330.315 67V70H333.315V67H330.315ZM353.535 67L350.835 68.3084L351.655 70H353.535V67ZM341.323 41.802L340.755 38.8563L336.92 39.5959L338.623 43.1104L341.323 41.802ZM353.363 39.48L356.059 38.1654L355.052 36.0989L352.795 36.5343L353.363 39.48ZM366.779 67V70H371.579L369.475 65.6854L366.779 67ZM330.315 35.094H327.315V38.094H330.315V35.094ZM346.225 35.008L346.464 37.9984L346.464 37.9984L346.225 35.008ZM348.203 34.664L347.413 31.7697L347.396 31.7745L347.379 31.7794L348.203 34.664ZM351.858 32.514L354.136 34.4664L354.149 34.4506L354.162 34.4345L351.858 32.514ZM353.621 29.117L350.727 28.3276L350.72 28.3505L350.714 28.3735L353.621 29.117ZM353.621 22.022L350.71 22.7496L350.72 22.7891L350.731 22.8284L353.621 22.022ZM351.858 18.625L349.553 20.5456L349.566 20.5616L349.58 20.5774L351.858 18.625ZM348.203 16.432L347.379 19.3166L347.396 19.3215L347.413 19.3263L348.203 16.432ZM346.225 16.088L345.986 19.0784L345.986 19.0784L346.225 16.088ZM330.315 16.002V13.002H327.315V16.002H330.315ZM318.619 67H321.619V5.08H318.619H315.619V67H318.619ZM318.619 5.08V8.08H344.763V5.08V2.08H318.619V5.08ZM344.763 5.08V8.08C345.283 8.08 346.021 8.1052 347 8.16111L347.171 5.166L347.342 2.17088C346.314 2.11213 345.447 2.08 344.763 2.08V5.08ZM347.171 5.166L347.088 8.16484C348.008 8.1904 348.772 8.26596 349.395 8.37728L349.923 5.424L350.45 2.47072C349.468 2.29537 348.398 2.19893 347.254 2.16715L347.171 5.166ZM349.923 5.424L349.463 8.38858C352.773 8.90179 355.278 9.95987 357.132 11.43L358.996 9.07899L360.859 6.72802C358.013 4.47146 354.468 3.09287 350.382 2.45942L349.923 5.424ZM358.996 9.07899L357.146 11.4409C359.101 12.9716 360.527 14.8848 361.451 17.2306L364.242 16.131L367.033 15.0314C365.721 11.7012 363.65 8.91306 360.846 6.71708L358.996 9.07899ZM364.242 16.131L361.454 17.2403C362.413 19.6486 362.919 22.4039 362.919 25.548H365.919H368.919C368.919 21.7548 368.307 18.232 367.029 15.0217L364.242 16.131ZM365.919 25.548H362.919C362.919 30.2183 361.766 34.04 359.588 37.1615L362.049 38.878L364.509 40.5945C367.491 36.32 368.919 31.255 368.919 25.548H365.919ZM362.049 38.878L359.595 37.1525C357.591 40.0021 354.367 41.9413 349.46 42.708L349.923 45.672L350.386 48.636C356.487 47.6827 361.347 45.0926 364.503 40.6035L362.049 38.878ZM349.923 45.672L349.723 42.6786L344.563 43.0226L344.763 46.016L344.962 49.0094L350.122 48.6654L349.923 45.672ZM344.763 46.016V43.016H330.315V46.016V49.016H344.763V46.016ZM330.315 46.016H327.315V67H330.315H333.315V46.016H330.315ZM330.315 67V64H318.619V67V70H330.315V67ZM353.535 67L356.234 65.6916L344.022 40.4936L341.323 41.802L338.623 43.1104L350.835 68.3084L353.535 67ZM341.323 41.802L341.891 44.7477L353.931 42.4257L353.363 39.48L352.795 36.5343L340.755 38.8563L341.323 41.802ZM353.363 39.48L350.666 40.7946L364.082 68.3146L366.779 67L369.475 65.6854L356.059 38.1654L353.363 39.48ZM366.779 67V64H353.535V67V70H366.779V67ZM330.315 35.094V38.094H344.247V35.094V32.094H330.315V35.094ZM344.247 35.094V38.094C344.942 38.094 345.683 38.061 346.464 37.9984L346.225 35.008L345.986 32.0176C345.334 32.0697 344.755 32.094 344.247 32.094V35.094ZM346.225 35.008L346.464 37.9984C347.35 37.9275 348.208 37.7825 349.027 37.5486L348.203 34.664L347.379 31.7794C346.993 31.8895 346.533 31.9738 345.986 32.0176L346.225 35.008ZM348.203 34.664L348.992 37.5583C351.01 37.008 352.801 36.0233 354.136 34.4664L351.858 32.514L349.58 30.5616C349.195 31.0114 348.549 31.46 347.413 31.7697L348.203 34.664ZM351.858 32.514L354.162 34.4345C355.292 33.0794 356.095 31.5494 356.527 29.8605L353.621 29.117L350.714 28.3735C350.516 29.1499 350.144 29.8846 349.553 30.5934L351.858 32.514ZM353.621 29.117L356.515 29.9063C356.918 28.4301 357.137 26.9732 357.137 25.548H354.137H351.137C351.137 26.3588 351.012 27.2813 350.727 28.3276L353.621 29.117ZM354.137 25.548H357.137C357.137 24.1214 356.917 22.6737 356.51 21.2156L353.621 22.022L350.731 22.8284C351.012 23.8357 351.137 24.7386 351.137 25.548H354.137ZM353.621 22.022L356.531 21.2944C356.101 19.5736 355.294 18.0236 354.136 16.6726L351.858 18.625L349.58 20.5774C350.142 21.2331 350.51 21.9477 350.71 22.7496L353.621 22.022ZM351.858 18.625L354.162 16.7044C352.831 15.1062 351.031 14.0939 348.992 13.5377L348.203 16.432L347.413 19.3263C348.528 19.6301 349.165 20.0798 349.553 20.5456L351.858 18.625ZM348.203 16.432L349.027 13.5474C348.208 13.3135 347.35 13.1684 346.464 13.0976L346.225 16.088L345.986 19.0784C346.533 19.1222 346.993 19.2065 347.379 19.3166L348.203 16.432ZM346.225 16.088L346.464 13.0976C345.683 13.035 344.942 13.002 344.247 13.002V16.002V19.002C344.755 19.002 345.334 19.0263 345.986 19.0784L346.225 16.088ZM344.247 16.002V13.002H330.315V16.002V19.002H344.247V16.002ZM330.315 16.002H327.315V35.094H330.315H333.315V16.002H330.315ZM391.927 64.248L390.379 66.8176L390.386 66.8219L391.927 64.248ZM381.564 52.939L378.878 54.2743L378.881 54.2806L378.884 54.287L381.564 52.939ZM381.564 19.141L378.884 17.793L378.881 17.7994L378.878 17.8057L381.564 19.141ZM391.927 7.832L390.386 5.25806L390.379 5.26243L391.927 7.832ZM423.962 7.832L422.414 10.4016L422.421 10.4059L423.962 7.832ZM434.325 19.141L431.639 20.4763L431.642 20.4826L431.645 20.489L434.325 19.141ZM434.325 52.939L431.645 51.591L431.642 51.5974L431.639 51.6037L434.325 52.939ZM423.962 64.248L422.421 61.6741L422.414 61.6784L423.962 64.248ZM407.966 57.282L407.922 60.2817L407.966 57.282ZM417.77 54.745L419.441 57.2369L419.441 57.2369L417.77 54.745ZM423.618 47.306L420.843 46.1662L420.839 46.1769L420.834 46.1875L423.618 47.306ZM423.618 24.86L420.841 25.9959L420.846 26.0067L420.85 26.0174L423.618 24.86ZM417.77 17.507L419.441 15.0151L419.441 15.0151L417.77 17.507ZM407.966 14.798L408.01 11.7983L408.01 11.7983L407.966 14.798ZM392.271 24.774L389.496 23.6342L389.492 23.6449L389.487 23.6555L392.271 24.774ZM392.271 47.22L389.494 48.3559L389.499 48.3667L389.503 48.3774L392.271 47.22ZM398.162 54.573L396.492 57.0649L396.492 57.0649L398.162 54.573ZM407.966 68.29V65.29C402.218 65.29 397.425 64.0432 393.468 61.6741L391.927 64.248L390.386 66.8219C395.43 69.8421 401.33 71.29 407.966 71.29V68.29ZM391.927 64.248L393.475 61.6784C389.508 59.2877 386.437 55.9504 384.244 51.591L381.564 52.939L378.884 54.287C381.565 59.6169 385.402 63.819 390.379 66.8176L391.927 64.248ZM381.564 52.939L384.251 51.6037C382.084 47.2446 380.952 42.084 380.952 36.04H377.952H374.952C374.952 42.8387 376.228 48.944 378.878 54.2743L381.564 52.939ZM377.952 36.04H380.952C380.952 29.996 382.084 24.8354 384.251 20.4763L381.564 19.141L378.878 17.8057C376.228 23.136 374.952 29.2413 374.952 36.04H377.952ZM381.564 19.141L384.244 20.489C386.437 16.1296 389.508 12.7923 393.475 10.4016L391.927 7.832L390.379 5.26243C385.402 8.26099 381.565 12.4631 378.884 17.793L381.564 19.141ZM391.927 7.832L393.468 10.4059C397.425 8.03681 402.218 6.79 407.966 6.79V3.79V0.789999C401.33 0.789999 395.43 2.23785 390.386 5.25807L391.927 7.832ZM407.966 3.79V6.79C413.715 6.79 418.49 8.03702 422.414 10.4016L423.962 7.832L425.51 5.26243C420.491 2.23764 414.601 0.789999 407.966 0.789999V3.79ZM423.962 7.832L422.421 10.4059C426.413 12.7962 429.478 16.1285 431.639 20.4763L434.325 19.141L437.012 17.8057C434.357 12.4641 430.512 8.25717 425.503 5.25807L423.962 7.832ZM434.325 19.141L431.645 20.489C433.836 24.8451 434.98 30.0011 434.98 36.04H437.98H440.98C440.98 29.2362 439.688 23.1263 437.005 17.793L434.325 19.141ZM437.98 36.04H434.98C434.98 42.0789 433.836 47.2349 431.645 51.591L434.325 52.939L437.005 54.287C439.688 48.9537 440.98 42.8438 440.98 36.04H437.98ZM434.325 52.939L431.639 51.6037C429.478 55.9514 426.413 59.2838 422.421 61.6741L423.962 64.248L425.503 66.8219C430.512 63.8228 434.357 59.6159 437.012 54.2743L434.325 52.939ZM423.962 64.248L422.414 61.6784C418.49 64.043 413.715 65.29 407.966 65.29V68.29V71.29C414.601 71.29 420.491 69.8424 425.51 66.8176L423.962 64.248ZM407.966 57.282L407.922 60.2817C412.306 60.3457 416.211 59.4017 419.441 57.2369L417.77 54.745L416.1 52.2531C414.112 53.5856 411.481 54.333 408.01 54.2823L407.966 57.282ZM417.77 54.745L419.441 57.2369C422.6 55.1187 424.911 52.135 426.402 48.4245L423.618 47.306L420.834 46.1875C419.745 48.8983 418.157 50.874 416.1 52.2531L417.77 54.745ZM423.618 47.306L426.393 48.4458C427.891 44.7983 428.596 40.6405 428.596 36.04H425.596H422.596C422.596 40.0395 421.982 43.3924 420.843 46.1662L423.618 47.306ZM425.596 36.04H428.596C428.596 31.4415 427.892 27.3039 426.386 23.7026L423.618 24.86L420.85 26.0174C421.982 28.7228 422.596 32.0385 422.596 36.04H425.596ZM423.618 24.86L426.395 23.7241C424.899 20.0679 422.587 17.1241 419.441 15.0151L417.77 17.507L416.1 19.9989C418.171 21.3873 419.757 23.3455 420.841 25.9959L423.618 24.86ZM417.77 17.507L419.441 15.0151C416.242 12.8712 412.372 11.862 408.01 11.7983L407.966 14.798L407.922 17.7977C411.415 17.8487 414.081 18.6455 416.1 19.9989L417.77 17.507ZM407.966 14.798L408.01 11.7983C403.627 11.7343 399.721 12.6783 396.492 14.8431L398.162 17.335L399.833 19.8269C401.82 18.4943 404.451 17.747 407.922 17.7977L407.966 14.798ZM398.162 17.335L396.492 14.8431C393.337 16.9575 391.016 19.9335 389.496 23.6342L392.271 24.774L395.046 25.9138C396.164 23.1931 397.769 21.2099 399.833 19.8269L398.162 17.335ZM392.271 24.774L389.487 23.6555C388.024 27.2966 387.336 31.4466 387.336 36.04H390.336H393.336C393.336 32.0333 393.938 28.6727 395.055 25.8925L392.271 24.774ZM390.336 36.04H387.336C387.336 40.6313 388.024 44.7611 389.494 48.3559L392.271 47.22L395.048 46.0841C393.938 43.3723 393.336 40.0487 393.336 36.04H390.336ZM392.271 47.22L389.503 48.3774C391.028 52.0235 393.351 54.9597 396.492 57.0649L398.162 54.573L399.833 52.0811C397.756 50.689 396.151 48.7231 395.039 46.0626L392.271 47.22ZM398.162 54.573L396.492 57.0649C399.69 59.2088 403.56 60.218 407.922 60.2817L407.966 57.282L408.01 54.2823C404.517 54.2313 401.852 53.4345 399.833 52.0811L398.162 54.573ZM452.584 67H449.584V70H452.584V67ZM452.584 5.08V2.08H449.584V5.08H452.584ZM464.28 5.08H467.28V2.08H464.28V5.08ZM464.28 56.078H461.28V59.078H464.28V56.078ZM490.94 56.078H493.94V53.078H490.94V56.078ZM490.94 67V70H493.94V67H490.94ZM452.584 67H455.584V5.08H452.584H449.584V67H452.584ZM452.584 5.08V8.08H464.28V5.08V2.08H452.584V5.08ZM464.28 5.08H461.28V56.078H464.28H467.28V5.08H464.28ZM464.28 56.078V59.078H490.94V56.078V53.078H464.28V56.078ZM490.94 56.078H487.94V67H490.94H493.94V56.078H490.94ZM490.94 67V64H452.584V67V70H490.94V67ZM504.271 67H501.271V70H504.271V67ZM504.271 5.08V2.08H501.271V5.08H504.271ZM515.967 5.08H518.967V2.08H515.967V5.08ZM515.967 56.078H512.967V59.078H515.967V56.078ZM542.627 56.078H545.627V53.078H542.627V56.078ZM542.627 67V70H545.627V67H542.627ZM504.271 67H507.271V5.08H504.271H501.271V67H504.271ZM504.271 5.08V8.08H515.967V5.08V2.08H504.271V5.08ZM515.967 5.08H512.967V56.078H515.967H518.967V5.08H515.967ZM515.967 56.078V59.078H542.627V56.078V53.078H515.967V56.078ZM542.627 56.078H539.627V67H542.627H545.627V56.078H542.627ZM542.627 67V64H504.271V67V70H542.627V67ZM563.954 64.248L562.406 66.8176L562.413 66.8219L563.954 64.248ZM553.591 52.939L550.905 54.2743L550.908 54.2806L550.911 54.287L553.591 52.939ZM553.591 19.141L550.911 17.793L550.908 17.7994L550.905 17.8057L553.591 19.141ZM563.954 7.832L562.413 5.25806L562.406 5.26243L563.954 7.832ZM595.989 7.832L594.441 10.4016L594.448 10.4059L595.989 7.832ZM606.352 19.141L603.666 20.4763L603.669 20.4826L603.672 20.489L606.352 19.141ZM606.352 52.939L603.672 51.591L603.669 51.5974L603.666 51.6037L606.352 52.939ZM595.989 64.248L594.448 61.6741L594.441 61.6784L595.989 64.248ZM579.993 57.282L579.949 60.2817L579.993 57.282ZM589.797 54.745L591.467 57.2369L591.467 57.2369L589.797 54.745ZM595.645 47.306L592.87 46.1662L592.866 46.1769L592.861 46.1875L595.645 47.306ZM595.645 24.86L592.868 25.9959L592.873 26.0067L592.877 26.0174L595.645 24.86ZM589.797 17.507L591.467 15.0151L591.467 15.0151L589.797 17.507ZM579.993 14.798L580.037 11.7983L580.037 11.7983L579.993 14.798ZM564.298 24.774L561.523 23.6342L561.519 23.6449L561.514 23.6555L564.298 24.774ZM564.298 47.22L561.521 48.3559L561.526 48.3667L561.53 48.3774L564.298 47.22ZM570.189 54.573L568.519 57.0649L568.519 57.0649L570.189 54.573ZM579.993 68.29V65.29C574.245 65.29 569.452 64.0432 565.495 61.6741L563.954 64.248L562.413 66.8219C567.457 69.8421 573.357 71.29 579.993 71.29V68.29ZM563.954 64.248L565.502 61.6784C561.535 59.2877 558.464 55.9504 556.271 51.591L553.591 52.939L550.911 54.287C553.592 59.6169 557.429 63.819 562.406 66.8176L563.954 64.248ZM553.591 52.939L556.277 51.6037C554.111 47.2446 552.979 42.084 552.979 36.04H549.979H546.979C546.979 42.8387 548.255 48.944 550.905 54.2743L553.591 52.939ZM549.979 36.04H552.979C552.979 29.996 554.111 24.8354 556.277 20.4763L553.591 19.141L550.905 17.8057C548.255 23.136 546.979 29.2413 546.979 36.04H549.979ZM553.591 19.141L556.271 20.489C558.464 16.1296 561.535 12.7923 565.502 10.4016L563.954 7.832L562.406 5.26243C557.429 8.26099 553.592 12.4631 550.911 17.793L553.591 19.141ZM563.954 7.832L565.495 10.4059C569.452 8.03681 574.245 6.79 579.993 6.79V3.79V0.789999C573.357 0.789999 567.457 2.23785 562.413 5.25807L563.954 7.832ZM579.993 3.79V6.79C585.742 6.79 590.517 8.03702 594.441 10.4016L595.989 7.832L597.537 5.26243C592.517 2.23764 586.628 0.789999 579.993 0.789999V3.79ZM595.989 7.832L594.448 10.4059C598.44 12.7962 601.505 16.1285 603.666 20.4763L606.352 19.141L609.038 17.8057C606.383 12.4641 602.539 8.25717 597.53 5.25807L595.989 7.832ZM606.352 19.141L603.672 20.489C605.863 24.8451 607.007 30.0011 607.007 36.04H610.007H613.007C613.007 29.2362 611.714 23.1263 609.032 17.793L606.352 19.141ZM610.007 36.04H607.007C607.007 42.0789 605.863 47.2349 603.672 51.591L606.352 52.939L609.032 54.287C611.714 48.9537 613.007 42.8438 613.007 36.04H610.007ZM606.352 52.939L603.666 51.6037C601.505 55.9514 598.44 59.2838 594.448 61.6741L595.989 64.248L597.53 66.8219C602.539 63.8228 606.383 59.6159 609.038 54.2743L606.352 52.939ZM595.989 64.248L594.441 61.6784C590.517 64.043 585.742 65.29 579.993 65.29V68.29V71.29C586.628 71.29 592.517 69.8424 597.537 66.8176L595.989 64.248ZM579.993 57.282L579.949 60.2817C584.333 60.3457 588.238 59.4017 591.467 57.2369L589.797 54.745L588.127 52.2531C586.139 53.5856 583.508 54.333 580.037 54.2823L579.993 57.282ZM589.797 54.745L591.467 57.2369C594.627 55.1187 596.938 52.135 598.429 48.4245L595.645 47.306L592.861 46.1875C591.772 48.8983 590.184 50.874 588.127 52.2531L589.797 54.745ZM595.645 47.306L598.42 48.4458C599.918 44.7983 600.623 40.6405 600.623 36.04H597.623H594.623C594.623 40.0395 594.009 43.3924 592.87 46.1662L595.645 47.306ZM597.623 36.04H600.623C600.623 31.4415 599.919 27.3039 598.413 23.7026L595.645 24.86L592.877 26.0174C594.009 28.7228 594.623 32.0385 594.623 36.04H597.623ZM595.645 24.86L598.422 23.7241C596.926 20.0679 594.614 17.1241 591.467 15.0151L589.797 17.507L588.127 19.9989C590.198 21.3873 591.784 23.3455 592.868 25.9959L595.645 24.86ZM589.797 17.507L591.467 15.0151C588.269 12.8712 584.399 11.862 580.037 11.7983L579.993 14.798L579.949 17.7977C583.442 17.8487 586.108 18.6455 588.127 19.9989L589.797 17.507ZM579.993 14.798L580.037 11.7983C575.653 11.7343 571.748 12.6783 568.519 14.8431L570.189 17.335L571.859 19.8269C573.847 18.4943 576.478 17.747 579.949 17.7977L579.993 14.798ZM570.189 17.335L568.519 14.8431C565.364 16.9575 563.043 19.9335 561.523 23.6342L564.298 24.774L567.073 25.9138C568.19 23.1931 569.796 21.2099 571.859 19.8269L570.189 17.335ZM564.298 24.774L561.514 23.6555C560.051 27.2966 559.363 31.4466 559.363 36.04H562.363H565.363C565.363 32.0333 565.965 28.6727 567.082 25.8925L564.298 24.774ZM562.363 36.04H559.363C559.363 40.6313 560.051 44.7611 561.521 48.3559L564.298 47.22L567.075 46.0841C565.965 43.3723 565.363 40.0487 565.363 36.04H562.363ZM564.298 47.22L561.53 48.3774C563.055 52.0235 565.378 54.9597 568.519 57.0649L570.189 54.573L571.859 52.0811C569.783 50.689 568.178 48.7231 567.066 46.0626L564.298 47.22ZM570.189 54.573L568.519 57.0649C571.717 59.2088 575.587 60.218 579.949 60.2817L579.993 57.282L580.037 54.2823C576.544 54.2313 573.878 53.4345 571.859 52.0811L570.189 54.573Z" fill="black" mask="url(#path-1-outside-1_175_40)"/>
</g>
<defs>
<filter id="filter0_d_175_40" x="0.0200195" y="0.790039" width="616.987" height="78.5" filterUnits="userSpaceOnUse" color-interpolation-filters="sRGB">
<feFlood flood-opacity="0" result="BackgroundImageFix"/>
<feColorMatrix in="SourceAlpha" type="matrix" values="0 0 0 0 0 0 0 0 0 0 0 0 0 0 0 0 0 0 127 0" result="hardAlpha"/>
<feOffset dy="4"/>
<feGaussianBlur stdDeviation="2"/>
<feComposite in2="hardAlpha" operator="out"/>
<feColorMatrix type="matrix" values="0 0 0 0 0.533333 0 0 0 0 0.47451 0 0 0 0 0.807843 0 0 0 1 0"/>
<feBlend mode="normal" in2="BackgroundImageFix" result="effect1_dropShadow_175_40"/>
<feBlend mode="normal" in="SourceGraphic" in2="effect1_dropShadow_175_40" result="shape"/>
</filter>
</defs>
</svg>
