<svg width="187" height="56" viewBox="0 0 187 56" fill="none" xmlns="http://www.w3.org/2000/svg">
<g filter="url(#filter0_d_175_39)">
<mask id="path-1-outside-1_175_39" maskUnits="userSpaceOnUse" x="4" y="0" width="179" height="48" fill="black">
<rect fill="white" x="4" width="179" height="48"/>
<path d="M6.08 45V13.32H16.332C16.5813 13.32 17.0947 13.3273 17.872 13.342C18.6493 13.3567 19.3973 13.408 20.116 13.496C22.668 13.804 24.8313 14.6913 26.606 16.158C28.3807 17.6247 29.73 19.4873 30.654 21.746C31.578 24.0047 32.04 26.476 32.04 29.16C32.04 31.844 31.578 34.3153 30.654 36.574C29.73 38.8327 28.3807 40.6953 26.606 42.162C24.8313 43.6287 22.668 44.516 20.116 44.824C19.3973 44.912 18.6493 44.9633 17.872 44.978C17.0947 44.9927 16.5813 45 16.332 45H6.08ZM12.152 39.368H16.332C16.728 39.368 17.2633 39.3607 17.938 39.346C18.6127 39.3167 19.2213 39.2507 19.764 39.148C21.1427 38.8693 22.2647 38.224 23.13 37.212C24.01 36.2 24.6553 34.9827 25.066 33.56C25.4913 32.1373 25.704 30.6707 25.704 29.16C25.704 27.576 25.484 26.0727 25.044 24.65C24.6187 23.2273 23.966 22.0247 23.086 21.042C22.206 20.0593 21.0987 19.436 19.764 19.172C19.2213 19.0547 18.6127 18.9887 17.938 18.974C17.2633 18.9593 16.728 18.952 16.332 18.952H12.152V39.368ZM40.3983 45V13.32H46.3823V45H40.3983ZM67.5858 45.66C65.2391 45.66 63.1198 45.2493 61.2278 44.428C59.3505 43.592 57.8031 42.404 56.5858 40.864C55.3831 39.3093 54.6205 37.4613 54.2978 35.32L60.5458 34.396C60.9858 36.2147 61.8951 37.6153 63.2738 38.598C64.6525 39.5807 66.2218 40.072 67.9818 40.072C68.9645 40.072 69.9178 39.918 70.8418 39.61C71.7658 39.302 72.5211 38.8473 73.1078 38.246C73.7091 37.6447 74.0098 36.904 74.0098 36.024C74.0098 35.7013 73.9585 35.3933 73.8558 35.1C73.7678 34.792 73.6138 34.506 73.3938 34.242C73.1738 33.978 72.8585 33.7287 72.4478 33.494C72.0518 33.2593 71.5458 33.0467 70.9298 32.856L62.7018 30.436C62.0858 30.26 61.3671 30.0107 60.5458 29.688C59.7391 29.3653 58.9545 28.9033 58.1918 28.302C57.4291 27.7007 56.7911 26.9087 56.2778 25.926C55.7791 24.9287 55.5298 23.6747 55.5298 22.164C55.5298 20.0373 56.0651 18.27 57.1358 16.862C58.2065 15.454 59.6365 14.4053 61.4258 13.716C63.2151 13.0267 65.1951 12.6893 67.3658 12.704C69.5511 12.7333 71.5018 13.1073 73.2178 13.826C74.9338 14.5447 76.3711 15.5933 77.5298 16.972C78.6885 18.336 79.5245 20.008 80.0378 21.988L73.5698 23.088C73.3351 22.0613 72.9025 21.196 72.2718 20.492C71.6411 19.788 70.8858 19.2527 70.0058 18.886C69.1405 18.5193 68.2311 18.3213 67.2778 18.292C66.3391 18.2627 65.4518 18.3947 64.6158 18.688C63.7945 18.9667 63.1198 19.3773 62.5918 19.92C62.0785 20.4627 61.8218 21.108 61.8218 21.856C61.8218 22.5453 62.0345 23.11 62.4598 23.55C62.8851 23.9753 63.4205 24.32 64.0658 24.584C64.7111 24.848 65.3711 25.068 66.0458 25.244L71.5458 26.74C72.3671 26.96 73.2765 27.2533 74.2738 27.62C75.2711 27.972 76.2245 28.4707 77.1338 29.116C78.0578 29.7467 78.8131 30.5827 79.3998 31.624C80.0011 32.6653 80.3018 33.9853 80.3018 35.584C80.3018 37.2853 79.9425 38.774 79.2238 40.05C78.5198 41.3113 77.5665 42.36 76.3638 43.196C75.1611 44.0173 73.7971 44.6333 72.2718 45.044C70.7611 45.4547 69.1991 45.66 67.5858 45.66ZM87.7773 45V13.32H108.457V18.908H93.7613V25.684H105.817V31.272H93.7613V39.412H108.457V45H87.7773ZM133.574 9.888C132.856 9.888 132.166 9.72667 131.506 9.404C130.861 9.06667 130.238 8.68533 129.636 8.26C129.05 7.83466 128.5 7.46066 127.986 7.138C127.473 6.80066 127.004 6.632 126.578 6.632C126.138 6.632 125.83 6.88133 125.654 7.38C125.493 7.864 125.508 8.48 125.698 9.228H122.002C121.548 7.30667 121.636 5.686 122.266 4.366C122.912 3.03133 124.158 2.364 126.006 2.364C126.725 2.364 127.407 2.53266 128.052 2.87C128.712 3.19266 129.336 3.56666 129.922 3.992C130.524 4.41733 131.081 4.79867 131.594 5.136C132.108 5.45867 132.577 5.62 133.002 5.62C133.442 5.62 133.75 5.378 133.926 4.894C134.102 4.39533 134.088 3.772 133.882 3.024H137.578C138.048 4.93066 137.96 6.55133 137.314 7.886C136.669 9.22067 135.422 9.888 133.574 9.888ZM116.37 45V13.32H122.442L136.214 34.44V13.32H142.286V45H136.214L122.442 23.88V45H116.37ZM164.661 45.66C161.493 45.66 158.758 44.9707 156.455 43.592C154.167 42.2133 152.4 40.2847 151.153 37.806C149.921 35.3273 149.305 32.4453 149.305 29.16C149.305 25.8747 149.921 22.9927 151.153 20.514C152.4 18.0353 154.167 16.1067 156.455 14.728C158.758 13.3493 161.493 12.66 164.661 12.66C167.829 12.66 170.557 13.3493 172.845 14.728C175.148 16.1067 176.915 18.0353 178.147 20.514C179.394 22.9927 180.017 25.8747 180.017 29.16C180.017 32.4453 179.394 35.3273 178.147 37.806C176.915 40.2847 175.148 42.2133 172.845 43.592C170.557 44.9707 167.829 45.66 164.661 45.66ZM164.661 40.028C166.67 40.0573 168.342 39.6247 169.677 38.73C171.012 37.8353 172.009 36.5667 172.669 34.924C173.344 33.2813 173.681 31.36 173.681 29.16C173.681 26.96 173.344 25.0533 172.669 23.44C172.009 21.8267 171.012 20.5727 169.677 19.678C168.342 18.7833 166.67 18.3213 164.661 18.292C162.652 18.2627 160.98 18.6953 159.645 19.59C158.31 20.4847 157.306 21.7533 156.631 23.396C155.971 25.0387 155.641 26.96 155.641 29.16C155.641 31.36 155.971 33.2667 156.631 34.88C157.306 36.4933 158.31 37.7473 159.645 38.642C160.98 39.5367 162.652 39.9987 164.661 40.028Z"/>
</mask>
<path d="M6.08 45H4.08V47H6.08V45ZM6.08 13.32V11.32H4.08V13.32H6.08ZM17.872 13.342L17.8343 15.3416L17.8343 15.3416L17.872 13.342ZM20.116 13.496L19.8729 15.4812L19.8764 15.4816L20.116 13.496ZM26.606 16.158L27.8801 14.6163L27.8801 14.6163L26.606 16.158ZM30.654 21.746L32.5051 20.9887L32.5051 20.9887L30.654 21.746ZM30.654 36.574L32.5051 37.3313L32.5051 37.3313L30.654 36.574ZM26.606 42.162L27.8801 43.7037L27.8801 43.7037L26.606 42.162ZM20.116 44.824L19.8764 42.8384L19.8729 42.8388L20.116 44.824ZM17.872 44.978L17.9097 46.9776L17.872 44.978ZM12.152 39.368H10.152V41.368H12.152V39.368ZM17.938 39.346L17.9815 41.3455L18.0032 41.3451L18.0249 41.3441L17.938 39.346ZM19.764 39.148L20.1358 41.1131L20.148 41.1108L20.1602 41.1084L19.764 39.148ZM23.13 37.212L21.6208 35.8996L21.6153 35.9059L21.6099 35.9122L23.13 37.212ZM25.066 33.56L23.1498 32.9871L23.1471 32.9962L23.1445 33.0053L25.066 33.56ZM25.044 24.65L23.1278 25.2229L23.1305 25.2319L23.1333 25.2409L25.044 24.65ZM23.086 21.042L24.5759 19.7078L24.5759 19.7078L23.086 21.042ZM19.764 19.172L19.3413 21.1268L19.3586 21.1306L19.3759 21.134L19.764 19.172ZM17.938 18.974L17.9815 16.9745L17.9815 16.9745L17.938 18.974ZM12.152 18.952V16.952H10.152V18.952H12.152ZM6.08 45H8.08V13.32H6.08H4.08V45H6.08ZM6.08 13.32V15.32H16.332V13.32V11.32H6.08V13.32ZM16.332 13.32V15.32C16.5591 15.32 17.0532 15.3269 17.8343 15.3416L17.872 13.342L17.9097 11.3424C17.1361 11.3278 16.6035 11.32 16.332 11.32V13.32ZM17.872 13.342L17.8343 15.3416C18.5479 15.3551 19.2272 15.4021 19.8729 15.4812L20.116 13.496L20.3591 11.5108C19.5675 11.4139 18.7507 11.3582 17.9097 11.3424L17.872 13.342ZM20.116 13.496L19.8764 15.4816C22.0939 15.7492 23.8861 16.5047 25.3319 17.6996L26.606 16.158L27.8801 14.6163C25.7766 12.8779 23.2421 11.8588 20.3556 11.5104L20.116 13.496ZM26.606 16.158L25.3319 17.6996C26.8373 18.9438 27.996 20.5307 28.8029 22.5033L30.654 21.746L32.5051 20.9887C31.464 18.4439 29.924 16.3056 27.8801 14.6163L26.606 16.158ZM30.654 21.746L28.8029 22.5033C29.6192 24.4986 30.04 26.7097 30.04 29.16H32.04H34.04C34.04 26.2423 33.5368 23.5107 32.5051 20.9887L30.654 21.746ZM32.04 29.16H30.04C30.04 31.6103 29.6192 33.8214 28.8029 35.8167L30.654 36.574L32.5051 37.3313C33.5368 34.8093 34.04 32.0777 34.04 29.16H32.04ZM30.654 36.574L28.8029 35.8167C27.996 37.7893 26.8373 39.3762 25.3319 40.6203L26.606 42.162L27.8801 43.7037C29.924 42.0144 31.464 39.8761 32.5051 37.3313L30.654 36.574ZM26.606 42.162L25.3319 40.6203C23.8861 41.8153 22.0939 42.5708 19.8764 42.8384L20.116 44.824L20.3556 46.8096C23.2421 46.4612 25.7766 45.4421 27.8801 43.7037L26.606 42.162ZM20.116 44.824L19.8729 42.8388C19.2272 42.9179 18.5479 42.9649 17.8343 42.9784L17.872 44.978L17.9097 46.9776C18.7507 46.9618 19.5675 46.9061 20.3591 46.8092L20.116 44.824ZM17.872 44.978L17.8343 42.9784C17.0532 42.9931 16.5591 43 16.332 43V45V47C16.6035 47 17.1361 46.9922 17.9097 46.9776L17.872 44.978ZM16.332 45V43H6.08V45V47H16.332V45ZM12.152 39.368V41.368H16.332V39.368V37.368H12.152V39.368ZM16.332 39.368V41.368C16.7491 41.368 17.3008 41.3603 17.9815 41.3455L17.938 39.346L17.8945 37.3465C17.2258 37.361 16.7069 37.368 16.332 37.368V39.368ZM17.938 39.346L18.0249 41.3441C18.775 41.3115 19.4811 41.237 20.1358 41.1131L19.764 39.148L19.3922 37.1829C18.9616 37.2643 18.4504 37.3218 17.8511 37.3479L17.938 39.346ZM19.764 39.148L20.1602 41.1084C21.9503 40.7465 23.4773 39.8833 24.6501 38.5118L23.13 37.212L21.6099 35.9122C21.052 36.5647 20.335 36.9921 19.3678 37.1876L19.764 39.148ZM23.13 37.212L24.6392 38.5244C25.7292 37.2708 26.5047 35.7875 26.9875 34.1147L25.066 33.56L23.1445 33.0053C22.806 34.1778 22.2908 35.1292 21.6208 35.8996L23.13 37.212ZM25.066 33.56L26.9822 34.1329C27.4641 32.5211 27.704 30.8613 27.704 29.16H25.704H23.704C23.704 30.4801 23.5186 31.7536 23.1498 32.9871L25.066 33.56ZM25.704 29.16H27.704C27.704 27.3884 27.4576 25.685 26.9547 24.0591L25.044 24.65L23.1333 25.2409C23.5104 26.4604 23.704 27.7636 23.704 29.16H25.704ZM25.044 24.65L26.9602 24.0771C26.4612 22.408 25.6757 20.9358 24.5759 19.7078L23.086 21.042L21.5961 22.3762C22.2563 23.1135 22.7762 24.0467 23.1278 25.2229L25.044 24.65ZM23.086 21.042L24.5759 19.7078C23.3968 18.3911 21.898 17.5554 20.1521 17.21L19.764 19.172L19.3759 21.134C20.2993 21.3166 21.0152 21.7275 21.5961 22.3762L23.086 21.042ZM19.764 19.172L20.1867 17.2172C19.4961 17.0679 18.7575 16.9913 17.9815 16.9745L17.938 18.974L17.8945 20.9735C18.4679 20.986 18.9466 21.0415 19.3413 21.1268L19.764 19.172ZM17.938 18.974L17.9815 16.9745C17.3008 16.9597 16.7491 16.952 16.332 16.952V18.952V20.952C16.7069 20.952 17.2258 20.959 17.8945 20.9735L17.938 18.974ZM16.332 18.952V16.952H12.152V18.952V20.952H16.332V18.952ZM12.152 18.952H10.152V39.368H12.152H14.152V18.952H12.152ZM40.3983 45H38.3983V47H40.3983V45ZM40.3983 13.32V11.32H38.3983V13.32H40.3983ZM46.3823 13.32H48.3823V11.32H46.3823V13.32ZM46.3823 45V47H48.3823V45H46.3823ZM40.3983 45H42.3983V13.32H40.3983H38.3983V45H40.3983ZM40.3983 13.32V15.32H46.3823V13.32V11.32H40.3983V13.32ZM46.3823 13.32H44.3823V45H46.3823H48.3823V13.32H46.3823ZM46.3823 45V43H40.3983V45V47H46.3823V45ZM61.2278 44.428L60.4142 46.255L60.4228 46.2589L60.4314 46.2626L61.2278 44.428ZM56.5858 40.864L55.0039 42.0877L55.0103 42.096L55.0168 42.1043L56.5858 40.864ZM54.2978 35.32L54.0052 33.3415L52.0213 33.6349L52.3201 35.618L54.2978 35.32ZM60.5458 34.396L62.4897 33.9257L62.0602 32.1503L60.2532 32.4175L60.5458 34.396ZM63.2738 38.598L64.4346 36.9694L64.4346 36.9694L63.2738 38.598ZM70.8418 39.61L70.2094 37.7126L70.2094 37.7126L70.8418 39.61ZM73.1078 38.246L71.6936 36.8318L71.6849 36.8405L71.6762 36.8494L73.1078 38.246ZM73.8558 35.1L71.9328 35.6494L71.9488 35.7056L71.9681 35.7607L73.8558 35.1ZM73.3938 34.242L74.9303 32.9616L74.9303 32.9616L73.3938 34.242ZM72.4478 33.494L71.4282 35.2146L71.4418 35.2226L71.4555 35.2305L72.4478 33.494ZM70.9298 32.856L71.5212 30.9454L71.5077 30.9413L71.4941 30.9373L70.9298 32.856ZM62.7018 30.436L63.2661 28.5173L63.2587 28.5151L63.2513 28.513L62.7018 30.436ZM60.5458 29.688L59.803 31.545L59.8145 31.5495L60.5458 29.688ZM58.1918 28.302L59.4301 26.7315L59.4301 26.7315L58.1918 28.302ZM56.2778 25.926L54.489 26.8204L54.4969 26.8363L54.5051 26.852L56.2778 25.926ZM57.1358 16.862L58.7278 18.0726L58.7278 18.0726L57.1358 16.862ZM61.4258 13.716L62.1448 15.5823L62.1448 15.5823L61.4258 13.716ZM67.3658 12.704L67.3927 10.7041L67.3793 10.704L67.3658 12.704ZM73.2178 13.826L73.9904 11.9812L73.9904 11.9812L73.2178 13.826ZM77.5298 16.972L75.9987 18.2588L76.0055 18.2668L77.5298 16.972ZM80.0378 21.988L80.3731 23.9597L82.5204 23.5945L81.9738 21.4861L80.0378 21.988ZM73.5698 23.088L71.6201 23.5336L72.0414 25.3767L73.9051 25.0597L73.5698 23.088ZM72.2718 20.492L70.7821 21.8265L70.7821 21.8265L72.2718 20.492ZM70.0058 18.886L69.2255 20.7275L69.2366 20.7322L70.0058 18.886ZM67.2778 18.292L67.2153 20.291L67.2163 20.2911L67.2778 18.292ZM64.6158 18.688L65.2584 20.582L65.2682 20.5786L65.278 20.5752L64.6158 18.688ZM62.5918 19.92L61.1584 18.5253L61.1485 18.5354L61.1389 18.5456L62.5918 19.92ZM62.4598 23.55L61.0218 24.94L61.0336 24.9522L61.0456 24.9642L62.4598 23.55ZM64.0658 24.584L64.8231 22.7329L64.8231 22.7329L64.0658 24.584ZM66.0458 25.244L66.5707 23.3141L66.5607 23.3114L66.5507 23.3088L66.0458 25.244ZM71.5458 26.74L71.0209 28.6699L71.0283 28.6719L71.5458 26.74ZM74.2738 27.62L73.5837 29.4972L73.5959 29.5016L73.6082 29.506L74.2738 27.62ZM77.1338 29.116L75.9763 30.747L75.9912 30.7576L76.0063 30.7679L77.1338 29.116ZM79.3998 31.624L77.6573 32.6057L77.6625 32.6149L77.6678 32.6241L79.3998 31.624ZM79.2238 40.05L77.4812 39.0685L77.4774 39.0753L79.2238 40.05ZM76.3638 43.196L77.4917 44.8476L77.4986 44.8429L77.5054 44.8382L76.3638 43.196ZM72.2718 45.044L71.7519 43.1128L71.7472 43.114L72.2718 45.044ZM67.5858 45.66V43.66C65.4755 43.66 63.6325 43.2916 62.0242 42.5934L61.2278 44.428L60.4314 46.2626C62.6071 47.2071 65.0028 47.66 67.5858 47.66V45.66ZM61.2278 44.428L62.0414 42.601C60.4453 41.8902 59.162 40.8979 58.1548 39.6237L56.5858 40.864L55.0168 42.1043C56.4443 43.9101 58.2556 45.2938 60.4142 46.255L61.2278 44.428ZM56.5858 40.864L58.1677 39.6403C57.1945 38.3821 56.5526 36.8612 56.2755 35.022L54.2978 35.32L52.3201 35.618C52.6883 38.0615 53.5718 40.2365 55.0039 42.0877L56.5858 40.864ZM54.2978 35.32L54.5904 37.2985L60.8384 36.3745L60.5458 34.396L60.2532 32.4175L54.0052 33.3415L54.2978 35.32ZM60.5458 34.396L58.6019 34.8663C59.1423 37.0999 60.3003 38.9346 62.113 40.2266L63.2738 38.598L64.4346 36.9694C63.49 36.296 62.8294 35.3295 62.4897 33.9257L60.5458 34.396ZM63.2738 38.598L62.113 40.2266C63.8445 41.4608 65.8232 42.072 67.9818 42.072V40.072V38.072C66.6204 38.072 65.4604 37.7005 64.4346 36.9694L63.2738 38.598ZM67.9818 40.072V42.072C69.1775 42.072 70.3445 41.884 71.4743 41.5074L70.8418 39.61L70.2094 37.7126C69.4911 37.952 68.7515 38.072 67.9818 38.072V40.072ZM70.8418 39.61L71.4743 41.5074C72.6524 41.1146 73.697 40.5061 74.5394 39.6426L73.1078 38.246L71.6762 36.8494C71.3453 37.1886 70.8792 37.4894 70.2094 37.7126L70.8418 39.61ZM73.1078 38.246L74.522 39.6602C75.5128 38.6695 76.0098 37.4138 76.0098 36.024H74.0098H72.0098C72.0098 36.3942 71.9055 36.6199 71.6936 36.8318L73.1078 38.246ZM74.0098 36.024H76.0098C76.0098 35.4851 75.9233 34.953 75.7435 34.4393L73.8558 35.1L71.9681 35.7607C71.9936 35.8336 72.0098 35.9176 72.0098 36.024H74.0098ZM73.8558 35.1L75.7789 34.5506C75.6089 33.9555 75.3155 33.4239 74.9303 32.9616L73.3938 34.242L71.8574 35.5224C71.9122 35.5881 71.9268 35.6285 71.9328 35.6494L73.8558 35.1ZM73.3938 34.242L74.9303 32.9616C74.5119 32.4596 73.9854 32.0691 73.4401 31.7575L72.4478 33.494L71.4555 35.2305C71.7316 35.3882 71.8357 35.4964 71.8574 35.5224L73.3938 34.242ZM72.4478 33.494L73.4674 31.7734C72.8949 31.4342 72.2322 31.1655 71.5212 30.9454L70.9298 32.856L70.3384 34.7666C70.8595 34.9278 71.2087 35.0845 71.4282 35.2146L72.4478 33.494ZM70.9298 32.856L71.4941 30.9373L63.2661 28.5173L62.7018 30.436L62.1375 32.3547L70.3655 34.7747L70.9298 32.856ZM62.7018 30.436L63.2513 28.513C62.7149 28.3597 62.0593 28.1338 61.2771 27.8265L60.5458 29.688L59.8145 31.5495C60.675 31.8875 61.4568 32.1603 62.1524 32.359L62.7018 30.436ZM60.5458 29.688L61.2886 27.831C60.6795 27.5874 60.0597 27.2279 59.4301 26.7315L58.1918 28.302L56.9535 29.8725C57.8493 30.5788 58.7987 31.1432 59.803 31.545L60.5458 29.688ZM58.1918 28.302L59.4301 26.7315C58.9183 26.3279 58.4516 25.7678 58.0505 25L56.2778 25.926L54.5051 26.852C55.1307 28.0495 55.9399 29.0734 56.9535 29.8725L58.1918 28.302ZM56.2778 25.926L58.0667 25.0316C57.7471 24.3925 57.5298 23.4689 57.5298 22.164H55.5298H53.5298C53.5298 23.8804 53.8112 25.4648 54.489 26.8204L56.2778 25.926ZM55.5298 22.164H57.5298C57.5298 20.3835 57.9721 19.0664 58.7278 18.0726L57.1358 16.862L55.5438 15.6514C54.1582 17.4736 53.5298 19.6911 53.5298 22.164H55.5298ZM57.1358 16.862L58.7278 18.0726C59.5551 16.9846 60.6715 16.1499 62.1448 15.5823L61.4258 13.716L60.7068 11.8497C58.6015 12.6608 56.8578 13.9234 55.5438 15.6514L57.1358 16.862ZM61.4258 13.716L62.1448 15.5823C63.6717 14.9941 65.3992 14.6908 67.3523 14.704L67.3658 12.704L67.3793 10.704C64.9911 10.6879 62.7586 11.0593 60.7068 11.8497L61.4258 13.716ZM67.3658 12.704L67.339 14.7038C69.3121 14.7303 71.0031 15.0668 72.4452 15.6708L73.2178 13.826L73.9904 11.9812C72.0006 11.1479 69.7902 10.7364 67.3927 10.7042L67.3658 12.704ZM73.2178 13.826L72.4452 15.6707C73.8776 16.2706 75.0518 17.132 75.9987 18.2588L77.5298 16.972L79.0609 15.6852C77.6905 14.0547 75.99 12.8187 73.9904 11.9812L73.2178 13.826ZM77.5298 16.972L76.0055 18.2668C76.9428 19.3701 77.6533 20.7601 78.1018 22.4899L80.0378 21.988L81.9738 21.4861C81.3956 19.2559 80.4342 17.3018 79.0541 15.6772L77.5298 16.972ZM80.0378 21.988L79.7025 20.0163L73.2345 21.1163L73.5698 23.088L73.9051 25.0597L80.3731 23.9597L80.0378 21.988ZM73.5698 23.088L75.5195 22.6424C75.2181 21.3237 74.6433 20.1419 73.7615 19.1575L72.2718 20.492L70.7821 21.8265C71.1616 22.2501 71.4522 22.799 71.6201 23.5336L73.5698 23.088ZM72.2718 20.492L73.7615 19.1575C72.93 18.2294 71.9279 17.5202 70.775 17.0398L70.0058 18.886L69.2366 20.7322C69.8438 20.9851 70.3522 21.3466 70.7821 21.8265L72.2718 20.492ZM70.0058 18.886L70.7861 17.0445C69.6896 16.5799 68.5362 16.3298 67.3393 16.2929L67.2778 18.292L67.2163 20.2911C67.9261 20.3129 68.5914 20.4588 69.2255 20.7275L70.0058 18.886ZM67.2778 18.292L67.3403 16.293C66.1702 16.2564 65.0359 16.421 63.9536 16.8008L64.6158 18.688L65.278 20.5752C65.8677 20.3683 66.5081 20.2689 67.2153 20.291L67.2778 18.292ZM64.6158 18.688L63.9732 16.794C62.8963 17.1594 61.937 17.7251 61.1584 18.5253L62.5918 19.92L64.0253 21.3147C64.3027 21.0296 64.6927 20.7739 65.2584 20.582L64.6158 18.688ZM62.5918 19.92L61.1389 18.5456C60.2737 19.4602 59.8218 20.5976 59.8218 21.856H61.8218H63.8218C63.8218 21.6184 63.8832 21.4651 64.0447 21.2944L62.5918 19.92ZM61.8218 21.856H59.8218C59.8218 22.9929 60.1894 24.0789 61.0218 24.94L62.4598 23.55L63.8978 22.16C63.8796 22.1411 63.8218 22.0978 63.8218 21.856H61.8218ZM62.4598 23.55L61.0456 24.9642C61.6862 25.6048 62.4561 26.0864 63.3085 26.4351L64.0658 24.584L64.8231 22.7329C64.3849 22.5536 64.0841 22.3458 63.874 22.1358L62.4598 23.55ZM64.0658 24.584L63.3085 26.4351C64.0361 26.7327 64.7804 26.9808 65.541 27.1792L66.0458 25.244L66.5507 23.3088C65.9619 23.1552 65.3862 22.9633 64.8231 22.7329L64.0658 24.584ZM66.0458 25.244L65.5209 27.1739L71.0209 28.6699L71.5458 26.74L72.0707 24.8101L66.5707 23.3141L66.0458 25.244ZM71.5458 26.74L71.0283 28.6719C71.7791 28.873 72.6297 29.1464 73.5837 29.4972L74.2738 27.62L74.9639 25.7428C73.9232 25.3602 72.9552 25.047 72.0633 24.8081L71.5458 26.74ZM74.2738 27.62L73.6082 29.506C74.4213 29.793 75.2101 30.2032 75.9763 30.747L77.1338 29.116L78.2913 27.485C77.2389 26.7381 76.121 26.151 74.9395 25.734L74.2738 27.62ZM77.1338 29.116L76.0063 30.7679C76.6594 31.2136 77.2109 31.8133 77.6573 32.6057L79.3998 31.624L81.1423 30.6423C80.4154 29.352 79.4562 28.2797 78.2613 27.4641L77.1338 29.116ZM79.3998 31.624L77.6678 32.6241C78.045 33.2773 78.3018 34.2245 78.3018 35.584H80.3018H82.3018C82.3018 33.7462 81.9573 32.0534 81.1318 30.6239L79.3998 31.624ZM80.3018 35.584H78.3018C78.3018 36.9976 78.0056 38.1375 77.4812 39.0685L79.2238 40.05L80.9664 41.0315C81.8794 39.4105 82.3018 37.5731 82.3018 35.584H80.3018ZM79.2238 40.05L77.4774 39.0753C76.9238 40.0672 76.1788 40.8889 75.2223 41.5538L76.3638 43.196L77.5054 44.8382C78.9542 43.8311 80.1158 42.5555 80.9702 41.0247L79.2238 40.05ZM76.3638 43.196L75.2359 41.5444C74.2338 42.2287 73.0786 42.7556 71.7519 43.1128L72.2718 45.044L72.7918 46.9752C74.5157 46.5111 76.0885 45.8059 77.4917 44.8476L76.3638 43.196ZM72.2718 45.044L71.7472 43.114C70.4127 43.4768 69.0274 43.66 67.5858 43.66V45.66V47.66C69.3709 47.66 71.1096 47.4325 72.7965 46.974L72.2718 45.044ZM87.7773 45H85.7773V47H87.7773V45ZM87.7773 13.32V11.32H85.7773V13.32H87.7773ZM108.457 13.32H110.457V11.32H108.457V13.32ZM108.457 18.908V20.908H110.457V18.908H108.457ZM93.7613 18.908V16.908H91.7613V18.908H93.7613ZM93.7613 25.684H91.7613V27.684H93.7613V25.684ZM105.817 25.684H107.817V23.684H105.817V25.684ZM105.817 31.272V33.272H107.817V31.272H105.817ZM93.7613 31.272V29.272H91.7613V31.272H93.7613ZM93.7613 39.412H91.7613V41.412H93.7613V39.412ZM108.457 39.412H110.457V37.412H108.457V39.412ZM108.457 45V47H110.457V45H108.457ZM87.7773 45H89.7773V13.32H87.7773H85.7773V45H87.7773ZM87.7773 13.32V15.32H108.457V13.32V11.32H87.7773V13.32ZM108.457 13.32H106.457V18.908H108.457H110.457V13.32H108.457ZM108.457 18.908V16.908H93.7613V18.908V20.908H108.457V18.908ZM93.7613 18.908H91.7613V25.684H93.7613H95.7613V18.908H93.7613ZM93.7613 25.684V27.684H105.817V25.684V23.684H93.7613V25.684ZM105.817 25.684H103.817V31.272H105.817H107.817V25.684H105.817ZM105.817 31.272V29.272H93.7613V31.272V33.272H105.817V31.272ZM93.7613 31.272H91.7613V39.412H93.7613H95.7613V31.272H93.7613ZM93.7613 39.412V41.412H108.457V39.412V37.412H93.7613V39.412ZM108.457 39.412H106.457V45H108.457H110.457V39.412H108.457ZM108.457 45V43H87.7773V45V47H108.457V45ZM131.506 9.404L130.58 11.1765L130.604 11.1889L130.628 11.2008L131.506 9.404ZM129.636 8.26L128.463 9.87922L128.472 9.88608L128.482 9.89283L129.636 8.26ZM127.986 7.138L126.888 8.80941L126.905 8.82051L126.922 8.83127L127.986 7.138ZM125.654 7.38L123.768 6.71436L123.763 6.7309L123.757 6.74754L125.654 7.38ZM125.698 9.228V11.228H128.272L127.636 8.73399L125.698 9.228ZM122.002 9.228L120.056 9.68856L120.421 11.228H122.002V9.228ZM122.266 4.366L120.466 3.49538L120.462 3.5038L122.266 4.366ZM128.052 2.87L127.126 4.64245L127.15 4.65493L127.174 4.66677L128.052 2.87ZM129.922 3.992L128.749 5.61122L128.758 5.61808L128.768 5.62483L129.922 3.992ZM131.594 5.136L130.496 6.80741L130.513 6.81851L130.53 6.82927L131.594 5.136ZM133.926 4.894L135.806 5.57748L135.809 5.56858L135.812 5.55964L133.926 4.894ZM133.882 3.024V1.024H131.259L131.954 3.55343L133.882 3.024ZM137.578 3.024L139.52 2.54596L139.146 1.024H137.578V3.024ZM137.314 7.886L135.514 7.01539L135.514 7.0154L137.314 7.886ZM116.37 45H114.37V47H116.37V45ZM116.37 13.32V11.32H114.37V13.32H116.37ZM122.442 13.32L124.118 12.2276L123.526 11.32H122.442V13.32ZM136.214 34.44L134.539 35.5324L138.214 41.1687V34.44H136.214ZM136.214 13.32V11.32H134.214V13.32H136.214ZM142.286 13.32H144.286V11.32H142.286V13.32ZM142.286 45V47H144.286V45H142.286ZM136.214 45L134.539 46.0924L135.131 47H136.214V45ZM122.442 23.88L124.118 22.7876L120.442 17.1513V23.88H122.442ZM122.442 45V47H124.442V45H122.442ZM133.574 9.888V7.888C133.167 7.888 132.778 7.79925 132.385 7.60723L131.506 9.404L130.628 11.2008C131.555 11.6541 132.544 11.888 133.574 11.888V9.888ZM131.506 9.404L132.433 7.63155C131.868 7.33607 131.321 7.00151 130.791 6.62717L129.636 8.26L128.482 9.89283C129.155 10.3692 129.855 10.7973 130.58 11.1765L131.506 9.404ZM129.636 8.26L130.81 6.64078C130.195 6.19437 129.608 5.79485 129.051 5.44472L127.986 7.138L126.922 8.83127C127.392 9.12648 127.905 9.47496 128.463 9.87922L129.636 8.26ZM127.986 7.138L129.085 5.46659C128.383 5.0054 127.532 4.632 126.578 4.632V6.632V8.632C126.525 8.632 126.519 8.62112 126.573 8.64065C126.63 8.66101 126.734 8.70827 126.888 8.80941L127.986 7.138ZM126.578 6.632V4.632C125.954 4.632 125.309 4.81952 124.759 5.26451C124.237 5.68728 123.94 6.22976 123.768 6.71436L125.654 7.38L127.54 8.04564C127.545 8.03157 127.49 8.20005 127.276 8.37349C127.034 8.56915 126.763 8.632 126.578 8.632V6.632ZM125.654 7.38L123.757 6.74754C123.427 7.73708 123.52 8.78001 123.76 9.72201L125.698 9.228L127.636 8.73399C127.569 8.47107 127.547 8.28254 127.544 8.15739C127.541 8.03375 127.558 7.99518 127.552 8.01246L125.654 7.38ZM125.698 9.228V7.228H122.002V9.228V11.228H125.698V9.228ZM122.002 9.228L123.949 8.76744C123.562 7.13535 123.696 6.0126 124.071 5.2282L122.266 4.366L120.462 3.5038C119.575 5.3594 119.533 7.47798 120.056 9.68856L122.002 9.228ZM122.266 4.366L124.067 5.2366C124.215 4.93026 124.398 4.75186 124.629 4.62777C124.887 4.4899 125.314 4.364 126.006 4.364V2.364V0.363998C124.851 0.363998 123.731 0.571759 122.742 1.10123C121.727 1.64447 120.963 2.46707 120.466 3.49539L122.266 4.366ZM126.006 2.364V4.364C126.398 4.364 126.763 4.45253 127.126 4.64245L128.052 2.87L128.979 1.09755C128.052 0.612797 127.052 0.363998 126.006 0.363998V2.364ZM128.052 2.87L127.174 4.66677C127.732 4.93957 128.256 5.25439 128.749 5.61122L129.922 3.992L131.096 2.37278C130.415 1.87893 129.693 1.44576 128.931 1.07323L128.052 2.87ZM129.922 3.992L128.768 5.62483C129.384 6.06085 129.96 6.45537 130.496 6.80741L131.594 5.136L132.693 3.46459C132.202 3.14196 131.664 2.77382 131.077 2.35917L129.922 3.992ZM131.594 5.136L130.53 6.82927C131.233 7.27124 132.073 7.62 133.002 7.62V5.62V3.62C133.044 3.62 133.041 3.62811 132.982 3.60762C132.92 3.58643 132.813 3.53964 132.659 3.44272L131.594 5.136ZM133.002 5.62V7.62C133.612 7.62 134.249 7.44299 134.799 7.01114C135.325 6.59768 135.63 6.06217 135.806 5.57748L133.926 4.894L132.047 4.21051C132.047 4.20982 132.11 4.03731 132.328 3.86586C132.569 3.67601 132.833 3.62 133.002 3.62V5.62ZM133.926 4.894L135.812 5.55964C136.174 4.53508 136.077 3.46139 135.811 2.49456L133.882 3.024L131.954 3.55343C132.099 4.0826 132.031 4.25558 132.04 4.22836L133.926 4.894ZM133.882 3.024V5.024H137.578V3.024V1.024H133.882V3.024ZM137.578 3.024L135.636 3.50203C136.031 5.10433 135.899 6.21935 135.514 7.01539L137.314 7.886L139.115 8.7566C140.021 6.88331 140.065 4.757 139.52 2.54596L137.578 3.024ZM137.314 7.886L135.514 7.0154C135.366 7.32174 135.183 7.50014 134.952 7.62423C134.694 7.76209 134.267 7.888 133.574 7.888V9.888V11.888C134.73 11.888 135.85 11.6802 136.839 11.1508C137.854 10.6075 138.618 9.78493 139.115 8.7566L137.314 7.886ZM116.37 45H118.37V13.32H116.37H114.37V45H116.37ZM116.37 13.32V15.32H122.442V13.32V11.32H116.37V13.32ZM122.442 13.32L120.767 14.4124L134.539 35.5324L136.214 34.44L137.89 33.3476L124.118 12.2276L122.442 13.32ZM136.214 34.44H138.214V13.32H136.214H134.214V34.44H136.214ZM136.214 13.32V15.32H142.286V13.32V11.32H136.214V13.32ZM142.286 13.32H140.286V45H142.286H144.286V13.32H142.286ZM142.286 45V43H136.214V45V47H142.286V45ZM136.214 45L137.89 43.9076L124.118 22.7876L122.442 23.88L120.767 24.9724L134.539 46.0924L136.214 45ZM122.442 23.88H120.442V45H122.442H124.442V23.88H122.442ZM122.442 45V43H116.37V45V47H122.442V45ZM156.455 43.592L155.423 45.3051L155.428 45.3079L156.455 43.592ZM151.153 37.806L149.362 38.6962L149.366 38.7047L151.153 37.806ZM151.153 20.514L149.366 19.6153L149.362 19.6238L151.153 20.514ZM156.455 14.728L155.428 13.012L155.423 13.015L156.455 14.728ZM172.845 14.728L171.813 16.4411L171.818 16.4439L172.845 14.728ZM178.147 20.514L176.356 21.4042L176.36 21.4127L178.147 20.514ZM178.147 37.806L176.36 36.9073L176.356 36.9158L178.147 37.806ZM172.845 43.592L171.818 41.876L171.813 41.879L172.845 43.592ZM164.661 40.028L164.632 42.0278L164.661 40.028ZM169.677 38.73L170.791 40.3913L170.791 40.3913L169.677 38.73ZM172.669 34.924L170.819 34.1642L170.816 34.1713L170.813 34.1784L172.669 34.924ZM172.669 23.44L170.818 24.1973L170.821 24.2045L170.824 24.2116L172.669 23.44ZM169.677 19.678L170.791 18.0167L170.791 18.0167L169.677 19.678ZM164.661 18.292L164.69 16.2922L164.69 16.2922L164.661 18.292ZM156.631 23.396L154.781 22.6362L154.778 22.6433L154.775 22.6504L156.631 23.396ZM156.631 34.88L154.78 35.6373L154.783 35.6445L154.786 35.6516L156.631 34.88ZM159.645 38.642L158.532 40.3033L158.532 40.3033L159.645 38.642ZM164.661 45.66V43.66C161.789 43.66 159.423 43.0377 157.483 41.8761L156.455 43.592L155.428 45.3079C158.093 46.9037 161.197 47.66 164.661 47.66V45.66ZM156.455 43.592L157.487 41.879C155.536 40.7029 154.024 39.0625 152.94 36.9073L151.153 37.806L149.366 38.7047C150.776 41.5068 152.799 43.7238 155.423 45.305L156.455 43.592ZM151.153 37.806L152.944 36.9158C151.873 34.7609 151.305 32.1938 151.305 29.16H149.305H147.305C147.305 32.6969 147.969 35.8938 149.362 38.6962L151.153 37.806ZM149.305 29.16H151.305C151.305 26.1262 151.873 23.5591 152.944 21.4042L151.153 20.514L149.362 19.6238C147.969 22.4262 147.305 25.6231 147.305 29.16H149.305ZM151.153 20.514L152.94 21.4127C154.024 19.2575 155.536 17.6171 157.487 16.441L156.455 14.728L155.423 13.015C152.799 14.5962 150.776 16.8132 149.366 19.6153L151.153 20.514ZM156.455 14.728L157.483 16.4439C159.423 15.2823 161.789 14.66 164.661 14.66V12.66V10.66C161.197 10.66 158.093 11.4163 155.428 13.012L156.455 14.728ZM164.661 12.66V14.66C167.534 14.66 169.89 15.2825 171.813 16.441L172.845 14.728L173.877 13.015C171.224 11.4162 168.125 10.66 164.661 10.66V12.66ZM172.845 14.728L171.818 16.4439C173.781 17.6197 175.289 19.2568 176.356 21.4042L178.147 20.514L179.938 19.6238C178.541 16.8139 176.514 14.5937 173.873 13.012L172.845 14.728ZM178.147 20.514L176.36 21.4127C177.443 23.5656 178.017 26.1296 178.017 29.16H180.017H182.017C182.017 25.6197 181.344 22.4197 179.934 19.6153L178.147 20.514ZM180.017 29.16H178.017C178.017 32.1904 177.443 34.7544 176.36 36.9073L178.147 37.806L179.934 38.7047C181.344 35.9003 182.017 32.7003 182.017 29.16H180.017ZM178.147 37.806L176.356 36.9158C175.289 39.0632 173.781 40.7003 171.818 41.8761L172.845 43.592L173.873 45.3079C176.514 43.7263 178.541 41.5061 179.938 38.6962L178.147 37.806ZM172.845 43.592L171.813 41.879C169.89 43.0375 167.534 43.66 164.661 43.66V45.66V47.66C168.125 47.66 171.224 46.9038 173.877 45.305L172.845 43.592ZM164.661 40.028L164.632 42.0278C166.945 42.0616 169.042 41.5633 170.791 40.3913L169.677 38.73L168.564 37.0687C167.643 37.686 166.396 38.0531 164.69 38.0282L164.661 40.028ZM169.677 38.73L170.791 40.3913C172.493 39.2503 173.731 37.6456 174.525 35.6696L172.669 34.924L170.813 34.1784C170.287 35.4878 169.531 36.4204 168.564 37.0687L169.677 38.73ZM172.669 34.924L174.519 35.6838C175.313 33.75 175.681 31.5604 175.681 29.16H173.681H171.681C171.681 31.1596 171.374 32.8127 170.819 34.1642L172.669 34.924ZM173.681 29.16H175.681C175.681 26.761 175.314 24.5804 174.514 22.6684L172.669 23.44L170.824 24.2116C171.374 25.5263 171.681 27.159 171.681 29.16H173.681ZM172.669 23.44L174.52 22.6827C173.723 20.7341 172.484 19.1516 170.791 18.0167L169.677 19.678L168.564 21.3393C169.54 21.9937 170.295 22.9192 170.818 24.1973L172.669 23.44ZM169.677 19.678L170.791 18.0167C169.063 16.8586 166.989 16.3258 164.69 16.2922L164.661 18.292L164.632 20.2918C166.351 20.3169 167.622 20.7081 168.564 21.3393L169.677 19.678ZM164.661 18.292L164.69 16.2922C162.377 16.2584 160.28 16.7567 158.532 17.9287L159.645 19.59L160.759 21.2513C161.68 20.634 162.927 20.2669 164.632 20.2918L164.661 18.292ZM159.645 19.59L158.532 17.9287C156.833 19.0672 155.59 20.6668 154.781 22.6362L156.631 23.396L158.481 24.1558C159.022 22.8399 159.788 21.9021 160.759 21.2513L159.645 19.59ZM156.631 23.396L154.775 22.6504C154 24.58 153.641 26.7644 153.641 29.16H155.641H157.641C157.641 27.1556 157.942 25.4974 158.487 24.1416L156.631 23.396ZM155.641 29.16H153.641C153.641 31.5542 154 33.7296 154.78 35.6373L156.631 34.88L158.482 34.1227C157.943 32.8037 157.641 31.1658 157.641 29.16H155.641ZM156.631 34.88L154.786 35.6516C155.598 37.5935 156.842 39.1709 158.532 40.3033L159.645 38.642L160.759 36.9807C159.779 36.3238 159.014 35.3932 158.476 34.1084L156.631 34.88ZM159.645 38.642L158.532 40.3033C160.259 41.4614 162.333 41.9942 164.632 42.0278L164.661 40.028L164.69 38.0282C162.971 38.0031 161.7 37.6119 160.759 36.9807L159.645 38.642Z" fill="black" mask="url(#path-1-outside-1_175_39)"/>
</g>
<defs>
<filter id="filter0_d_175_39" x="0.0799561" y="0.36377" width="185.937" height="55.2964" filterUnits="userSpaceOnUse" color-interpolation-filters="sRGB">
<feFlood flood-opacity="0" result="BackgroundImageFix"/>
<feColorMatrix in="SourceAlpha" type="matrix" values="0 0 0 0 0 0 0 0 0 0 0 0 0 0 0 0 0 0 127 0" result="hardAlpha"/>
<feOffset dy="4"/>
<feGaussianBlur stdDeviation="2"/>
<feComposite in2="hardAlpha" operator="out"/>
<feColorMatrix type="matrix" values="0 0 0 0 0.533333 0 0 0 0 0.47451 0 0 0 0 0.807843 0 0 0 1 0"/>
<feBlend mode="normal" in2="BackgroundImageFix" result="effect1_dropShadow_175_39"/>
<feBlend mode="normal" in="SourceGraphic" in2="effect1_dropShadow_175_39" result="shape"/>
</filter>
</defs>
</svg>
