<svg width="395" height="110" viewBox="0 0 395 110" fill="none" xmlns="http://www.w3.org/2000/svg">
<g filter="url(#filter0_d_175_39)">
<mask id="path-1-outside-1_175_39" maskUnits="userSpaceOnUse" x="4" y="0" width="387" height="102" fill="black">
<rect fill="white" x="4" width="387" height="102"/>
<path d="M7.72 97V27.88H30.088C30.632 27.88 31.752 27.896 33.448 27.928C35.144 27.96 36.776 28.072 38.344 28.264C43.912 28.936 48.632 30.872 52.504 34.072C56.376 37.272 59.32 41.336 61.336 46.264C63.352 51.192 64.36 56.584 64.36 62.44C64.36 68.296 63.352 73.688 61.336 78.616C59.32 83.544 56.376 87.608 52.504 90.808C48.632 94.008 43.912 95.944 38.344 96.616C36.776 96.808 35.144 96.92 33.448 96.952C31.752 96.984 30.632 97 30.088 97H7.72ZM20.968 84.712H30.088C30.952 84.712 32.12 84.696 33.592 84.664C35.064 84.6 36.392 84.456 37.576 84.232C40.584 83.624 43.032 82.216 44.92 80.008C46.84 77.8 48.248 75.144 49.144 72.04C50.072 68.936 50.536 65.736 50.536 62.44C50.536 58.984 50.056 55.704 49.096 52.6C48.168 49.496 46.744 46.872 44.824 44.728C42.904 42.584 40.488 41.224 37.576 40.648C36.392 40.392 35.064 40.248 33.592 40.216C32.12 40.184 30.952 40.168 30.088 40.168H20.968V84.712ZM82.5963 97V27.88H95.6523V97H82.5963ZM141.915 98.44C136.795 98.44 132.171 97.544 128.043 95.752C123.947 93.928 120.571 91.336 117.915 87.976C115.291 84.584 113.627 80.552 112.923 75.88L126.555 73.864C127.515 77.832 129.499 80.888 132.507 83.032C135.515 85.176 138.939 86.248 142.779 86.248C144.923 86.248 147.003 85.912 149.019 85.24C151.035 84.568 152.683 83.576 153.963 82.264C155.275 80.952 155.931 79.336 155.931 77.416C155.931 76.712 155.819 76.04 155.595 75.4C155.403 74.728 155.067 74.104 154.587 73.528C154.107 72.952 153.419 72.408 152.523 71.896C151.659 71.384 150.555 70.92 149.211 70.504L131.259 65.224C129.915 64.84 128.347 64.296 126.555 63.592C124.795 62.888 123.083 61.88 121.419 60.568C119.755 59.256 118.363 57.528 117.243 55.384C116.155 53.208 115.611 50.472 115.611 47.176C115.611 42.536 116.779 38.68 119.115 35.608C121.451 32.536 124.571 30.248 128.475 28.744C132.379 27.24 136.699 26.504 141.435 26.536C146.203 26.6 150.459 27.416 154.203 28.984C157.947 30.552 161.083 32.84 163.611 35.848C166.139 38.824 167.963 42.472 169.083 46.792L154.971 49.192C154.459 46.952 153.515 45.064 152.139 43.528C150.763 41.992 149.115 40.824 147.195 40.024C145.307 39.224 143.323 38.792 141.243 38.728C139.195 38.664 137.259 38.952 135.435 39.592C133.643 40.2 132.171 41.096 131.019 42.28C129.899 43.464 129.339 44.872 129.339 46.504C129.339 48.008 129.803 49.24 130.731 50.2C131.659 51.128 132.827 51.88 134.235 52.456C135.643 53.032 137.083 53.512 138.555 53.896L150.555 57.16C152.347 57.64 154.331 58.28 156.507 59.08C158.683 59.848 160.763 60.936 162.747 62.344C164.763 63.72 166.411 65.544 167.691 67.816C169.003 70.088 169.659 72.968 169.659 76.456C169.659 80.168 168.875 83.416 167.307 86.2C165.771 88.952 163.691 91.24 161.067 93.064C158.443 94.856 155.467 96.2 152.139 97.096C148.843 97.992 145.435 98.44 141.915 98.44ZM185.969 97V27.88H231.089V40.072H199.025V54.856H225.329V67.048H199.025V84.808H231.089V97H185.969ZM285.89 20.392C284.322 20.392 282.818 20.04 281.378 19.336C279.97 18.6 278.61 17.768 277.298 16.84C276.018 15.912 274.818 15.096 273.698 14.392C272.578 13.656 271.554 13.288 270.626 13.288C269.666 13.288 268.994 13.832 268.61 14.92C268.258 15.976 268.29 17.32 268.706 18.952H260.642C259.65 14.76 259.842 11.224 261.218 8.34399C262.626 5.432 265.346 3.976 269.378 3.976C270.946 3.976 272.434 4.344 273.842 5.08C275.282 5.78399 276.642 6.59999 277.922 7.528C279.234 8.456 280.45 9.288 281.57 10.024C282.69 10.728 283.714 11.08 284.642 11.08C285.602 11.08 286.274 10.552 286.658 9.496C287.042 8.408 287.01 7.04799 286.562 5.41599H294.626C295.65 9.57599 295.458 13.112 294.05 16.024C292.642 18.936 289.922 20.392 285.89 20.392ZM248.354 97V27.88H261.602L291.65 73.96V27.88H304.898V97H291.65L261.602 50.92V97H248.354ZM353.715 98.44C346.803 98.44 340.835 96.936 335.811 93.928C330.819 90.92 326.963 86.712 324.243 81.304C321.555 75.896 320.211 69.608 320.211 62.44C320.211 55.272 321.555 48.984 324.243 43.576C326.963 38.168 330.819 33.96 335.811 30.952C340.835 27.944 346.803 26.44 353.715 26.44C360.627 26.44 366.579 27.944 371.571 30.952C376.595 33.96 380.451 38.168 383.139 43.576C385.859 48.984 387.219 55.272 387.219 62.44C387.219 69.608 385.859 75.896 383.139 81.304C380.451 86.712 376.595 90.92 371.571 93.928C366.579 96.936 360.627 98.44 353.715 98.44ZM353.715 86.152C358.099 86.216 361.747 85.272 364.659 83.32C367.571 81.368 369.747 78.6 371.187 75.016C372.659 71.432 373.395 67.24 373.395 62.44C373.395 57.64 372.659 53.48 371.187 49.96C369.747 46.44 367.571 43.704 364.659 41.752C361.747 39.8 358.099 38.792 353.715 38.728C349.331 38.664 345.683 39.608 342.771 41.56C339.859 43.512 337.667 46.28 336.195 49.864C334.755 53.448 334.035 57.64 334.035 62.44C334.035 67.24 334.755 71.4 336.195 74.92C337.667 78.44 339.859 81.176 342.771 83.128C345.683 85.08 349.331 86.088 353.715 86.152Z"/>
</mask>
<path d="M7.72 97H4.72V100H7.72V97ZM7.72 27.88V24.88H4.72V27.88H7.72ZM33.448 27.928L33.3914 30.9275L33.3914 30.9275L33.448 27.928ZM38.344 28.264L37.9794 31.2418L37.9845 31.2424L38.344 28.264ZM52.504 34.072L54.4151 31.7595L54.4151 31.7595L52.504 34.072ZM61.336 46.264L64.1126 45.1281L64.1126 45.1281L61.336 46.264ZM61.336 78.616L64.1126 79.7519L64.1126 79.7519L61.336 78.616ZM52.504 90.808L54.4151 93.1205L54.4151 93.1205L52.504 90.808ZM38.344 96.616L37.9845 93.6376L37.9794 93.6382L38.344 96.616ZM33.448 96.952L33.5046 99.9515L33.5046 99.9515L33.448 96.952ZM20.968 84.712H17.968V87.712H20.968V84.712ZM33.592 84.664L33.6572 87.6633L33.6898 87.6626L33.7223 87.6612L33.592 84.664ZM37.576 84.232L38.1337 87.1797L38.152 87.1762L38.1704 87.1725L37.576 84.232ZM44.92 80.008L42.6562 78.0395L42.648 78.0489L42.6399 78.0583L44.92 80.008ZM49.144 72.04L46.2697 71.1807L46.2656 71.1943L46.2617 71.208L49.144 72.04ZM49.096 52.6L46.2217 53.4593L46.2258 53.4729L46.2299 53.4864L49.096 52.6ZM44.824 44.728L47.0589 42.7266L47.0589 42.7266L44.824 44.728ZM37.576 40.648L36.942 43.5802L36.9679 43.5858L36.9939 43.591L37.576 40.648ZM33.592 40.216L33.6572 37.2167L33.6572 37.2167L33.592 40.216ZM20.968 40.168V37.168H17.968V40.168H20.968ZM7.72 97H10.72V27.88H7.72H4.72V97H7.72ZM7.72 27.88V30.88H30.088V27.88V24.88H7.72V27.88ZM30.088 27.88V30.88C30.5987 30.88 31.6899 30.8954 33.3914 30.9275L33.448 27.928L33.5046 24.9285C31.8141 24.8966 30.6653 24.88 30.088 24.88V27.88ZM33.448 27.928L33.3914 30.9275C34.9919 30.9577 36.5208 31.0632 37.9794 31.2418L38.344 28.264L38.7086 25.2862C37.0312 25.0808 35.2961 24.9623 33.5046 24.9285L33.448 27.928ZM38.344 28.264L37.9845 31.2424C43.0509 31.8538 47.2141 33.5921 50.5929 36.3845L52.504 34.072L54.4151 31.7595C50.0499 28.1519 44.7731 26.0182 38.7035 25.2856L38.344 28.264ZM52.504 34.072L50.5929 36.3845C54.0609 39.2507 56.7189 42.9011 58.5594 47.3999L61.336 46.264L64.1126 45.1281C61.9211 39.7709 58.6911 35.2933 54.4151 31.7595L52.504 34.072ZM61.336 46.264L58.5594 47.3999C60.4138 51.9329 61.36 56.9345 61.36 62.44H64.36H67.36C67.36 56.2335 66.2902 50.4511 64.1126 45.1281L61.336 46.264ZM64.36 62.44H61.36C61.36 67.9455 60.4138 72.9471 58.5594 77.4801L61.336 78.616L64.1126 79.7519C66.2902 74.4289 67.36 68.6465 67.36 62.44H64.36ZM61.336 78.616L58.5594 77.4801C56.7189 81.9789 54.0609 85.6293 50.5929 88.4955L52.504 90.808L54.4151 93.1205C58.6911 89.5867 61.9211 85.1091 64.1126 79.7519L61.336 78.616ZM52.504 90.808L50.5929 88.4955C47.2141 91.2879 43.0509 93.0262 37.9845 93.6376L38.344 96.616L38.7035 99.5944C44.7731 98.8618 50.0499 96.7281 54.4151 93.1205L52.504 90.808ZM38.344 96.616L37.9794 93.6382C36.5208 93.8168 34.9919 93.9223 33.3914 93.9525L33.448 96.952L33.5046 99.9515C35.2961 99.9177 37.0312 99.7992 38.7086 99.5938L38.344 96.616ZM33.448 96.952L33.3914 93.9525C31.6899 93.9846 30.5987 94 30.088 94V97V100C30.6653 100 31.8141 99.9834 33.5046 99.9515L33.448 96.952ZM30.088 97V94H7.72V97V100H30.088V97ZM20.968 84.712V87.712H30.088V84.712V81.712H20.968V84.712ZM30.088 84.712V87.712C30.9836 87.712 32.1763 87.6955 33.6572 87.6633L33.592 84.664L33.5268 81.6647C32.0637 81.6965 30.9204 81.712 30.088 81.712V84.712ZM33.592 84.664L33.7223 87.6612C35.3075 87.5922 36.7816 87.4355 38.1337 87.1797L37.576 84.232L37.0183 81.2843C36.0024 81.4765 34.8205 81.6078 33.4617 81.6668L33.592 84.664ZM37.576 84.232L38.1704 87.1725C41.7955 86.4398 44.851 84.7049 47.2001 81.9577L44.92 80.008L42.6399 78.0583C41.213 79.7271 39.3725 80.8082 36.9816 81.2915L37.576 84.232ZM44.92 80.008L47.1838 81.9765C49.4189 79.4062 51.022 76.3513 52.0263 72.872L49.144 72.04L46.2617 71.208C45.474 73.9367 44.2611 76.1938 42.6562 78.0395L44.92 80.008ZM49.144 72.04L52.0183 72.8993C53.0311 69.5116 53.536 66.0219 53.536 62.44H50.536H47.536C47.536 65.4501 47.1129 68.3604 46.2697 71.1807L49.144 72.04ZM50.536 62.44H53.536C53.536 58.7026 53.0163 55.1224 51.9621 51.7136L49.096 52.6L46.2299 53.4864C47.0957 56.2856 47.536 59.2654 47.536 62.44H50.536ZM49.096 52.6L51.9703 51.7407C50.9318 48.267 49.3085 45.2388 47.0589 42.7266L44.824 44.728L42.5892 46.7294C44.1795 48.5052 45.4042 50.725 46.2217 53.4593L49.096 52.6ZM44.824 44.728L47.0589 42.7266C44.6902 40.0817 41.687 38.403 38.1581 37.705L37.576 40.648L36.9939 43.591C39.289 44.045 41.1178 45.0863 42.5892 46.7294L44.824 44.728ZM37.576 40.648L38.21 37.7158C36.8041 37.4118 35.2812 37.252 33.6572 37.2167L33.592 40.216L33.5268 43.2153C34.8468 43.244 35.9799 43.3722 36.942 43.5802L37.576 40.648ZM33.592 40.216L33.6572 37.2167C32.1763 37.1845 30.9836 37.168 30.088 37.168V40.168V43.168C30.9204 43.168 32.0637 43.1835 33.5268 43.2153L33.592 40.216ZM30.088 40.168V37.168H20.968V40.168V43.168H30.088V40.168ZM20.968 40.168H17.968V84.712H20.968H23.968V40.168H20.968ZM82.5963 97H79.5963V100H82.5963V97ZM82.5963 27.88V24.88H79.5963V27.88H82.5963ZM95.6523 27.88H98.6523V24.88H95.6523V27.88ZM95.6523 97V100H98.6523V97H95.6523ZM82.5963 97H85.5963V27.88H82.5963H79.5963V97H82.5963ZM82.5963 27.88V30.88H95.6523V27.88V24.88H82.5963V27.88ZM95.6523 27.88H92.6523V97H95.6523H98.6523V27.88H95.6523ZM95.6523 97V94H82.5963V97V100H95.6523V97ZM128.043 95.752L126.822 98.4926L126.835 98.4983L126.848 98.5039L128.043 95.752ZM117.915 87.976L115.542 89.8116L115.551 89.8241L115.561 89.8364L117.915 87.976ZM112.923 75.88L112.484 72.9123L109.508 73.3524L109.956 76.327L112.923 75.88ZM126.555 73.864L129.47 73.1585L128.826 70.4954L126.116 70.8963L126.555 73.864ZM132.507 83.032L134.248 80.589L134.248 80.589L132.507 83.032ZM149.019 85.24L148.07 82.3939L148.07 82.394L149.019 85.24ZM153.963 82.264L151.841 80.1427L151.828 80.1558L151.815 80.169L153.963 82.264ZM155.595 75.4L152.71 76.2242L152.734 76.3084L152.763 76.3911L155.595 75.4ZM154.587 73.528L156.891 71.6074L156.891 71.6074L154.587 73.528ZM152.523 71.896L150.993 74.4769L151.013 74.489L151.034 74.5007L152.523 71.896ZM149.211 70.504L150.098 67.6381L150.077 67.6319L150.057 67.6259L149.211 70.504ZM131.259 65.224L132.105 62.3459L132.094 62.3426L132.083 62.3394L131.259 65.224ZM126.555 63.592L125.44 66.3774L125.449 66.3809L125.458 66.3843L126.555 63.592ZM121.419 60.568L123.276 58.2122L123.276 58.2122L121.419 60.568ZM117.243 55.384L114.559 56.7256L114.571 56.7495L114.583 56.7731L117.243 55.384ZM119.115 35.608L121.503 37.4239L121.503 37.4239L119.115 35.608ZM128.475 28.744L129.553 31.5434L129.553 31.5434L128.475 28.744ZM141.435 26.536L141.475 23.5363L141.465 23.5361L141.455 23.5361L141.435 26.536ZM154.203 28.984L155.361 26.2169L155.361 26.2169L154.203 28.984ZM163.611 35.848L161.314 37.7781L161.319 37.7842L161.324 37.7902L163.611 35.848ZM169.083 46.792L169.585 49.7495L172.806 49.2018L171.986 46.0391L169.083 46.792ZM154.971 49.192L152.046 49.8605L152.678 52.625L155.473 52.1495L154.971 49.192ZM152.139 43.528L149.904 45.5297L149.904 45.5297L152.139 43.528ZM147.195 40.024L146.024 42.7863L146.032 42.7898L146.041 42.7932L147.195 40.024ZM141.243 38.728L141.149 41.7265L141.15 41.7266L141.243 38.728ZM135.435 39.592L136.398 42.4329L136.413 42.4279L136.428 42.4228L135.435 39.592ZM131.019 42.28L128.868 40.1879L128.854 40.2031L128.839 40.2184L131.019 42.28ZM130.731 50.2L128.574 52.2851L128.591 52.3033L128.609 52.3213L130.731 50.2ZM134.235 52.456L135.37 49.6794L135.37 49.6794L134.235 52.456ZM138.555 53.896L139.342 51.0012L139.327 50.9971L139.312 50.9931L138.555 53.896ZM150.555 57.16L149.767 60.0548L149.778 60.0578L150.555 57.16ZM156.507 59.08L155.471 61.8957L155.49 61.9025L155.508 61.909L156.507 59.08ZM162.747 62.344L161.01 64.7905L161.033 64.8064L161.055 64.8218L162.747 62.344ZM167.691 67.816L165.077 69.2885L165.085 69.3024L165.093 69.3162L167.691 67.816ZM167.307 86.2L164.693 84.7278L164.687 84.7379L167.307 86.2ZM161.067 93.064L162.758 95.5414L162.769 95.5344L162.779 95.5273L161.067 93.064ZM152.139 97.096L151.359 94.1991L151.352 94.2011L152.139 97.096ZM141.915 98.44V95.44C137.149 95.44 132.94 94.6074 129.237 93.0001L128.043 95.752L126.848 98.5039C131.401 100.481 136.44 101.44 141.915 101.44V98.44ZM128.043 95.752L129.263 93.0114C125.589 91.3753 122.609 89.0769 120.268 86.1156L117.915 87.976L115.561 89.8364C118.532 93.5951 122.304 96.4807 126.822 98.4926L128.043 95.752ZM117.915 87.976L120.287 86.1404C118.007 83.1932 116.525 79.6518 115.889 75.433L112.923 75.88L109.956 76.327C110.728 81.4522 112.574 85.9748 115.542 89.8116L117.915 87.976ZM112.923 75.88L113.361 78.8477L126.993 76.8317L126.555 73.864L126.116 70.8963L112.484 72.9123L112.923 75.88ZM126.555 73.864L123.639 74.5695C124.749 79.1598 127.106 82.8669 130.765 85.475L132.507 83.032L134.248 80.589C131.891 78.9091 130.28 76.5042 129.47 73.1585L126.555 73.864ZM132.507 83.032L130.765 85.475C134.303 87.9963 138.341 89.248 142.779 89.248V86.248V83.248C139.536 83.248 136.726 82.3557 134.248 80.589L132.507 83.032ZM142.779 86.248V89.248C145.242 89.248 147.643 88.8609 149.967 88.086L149.019 85.24L148.07 82.394C146.362 82.9631 144.603 83.248 142.779 83.248V86.248ZM149.019 85.24L149.967 88.086C152.364 87.287 154.446 86.0641 156.11 84.359L153.963 82.264L151.815 80.169C150.919 81.0879 149.705 81.849 148.07 82.3939L149.019 85.24ZM153.963 82.264L156.084 84.3853C157.98 82.4892 158.931 80.1007 158.931 77.416H155.931H152.931C152.931 78.5713 152.569 79.4148 151.841 80.1427L153.963 82.264ZM155.931 77.416H158.931C158.931 76.3876 158.766 75.3796 158.426 74.4089L155.595 75.4L152.763 76.3911C152.871 76.7004 152.931 77.0364 152.931 77.416H155.931ZM155.595 75.4L158.479 74.5758C158.164 73.4733 157.619 72.4808 156.891 71.6074L154.587 73.528L152.282 75.4486C152.514 75.7272 152.641 75.9827 152.71 76.2242L155.595 75.4ZM154.587 73.528L156.891 71.6074C156.114 70.6744 155.109 69.9187 154.011 69.2913L152.523 71.896L151.034 74.5007C151.728 74.8973 152.099 75.2296 152.282 75.4486L154.587 73.528ZM152.523 71.896L154.052 69.3151C152.923 68.6462 151.584 68.0982 150.098 67.6381L149.211 70.504L148.323 73.3699C149.525 73.7418 150.394 74.1218 150.993 74.4769L152.523 71.896ZM149.211 70.504L150.057 67.6259L132.105 62.3459L131.259 65.224L130.412 68.1021L148.364 73.3821L149.211 70.504ZM131.259 65.224L132.083 62.3394C130.858 61.9895 129.385 61.4807 127.651 60.7997L126.555 63.592L125.458 66.3843C127.308 67.1113 128.971 67.6905 130.434 68.1086L131.259 65.224ZM126.555 63.592L127.669 60.8066C126.205 60.2211 124.74 59.3668 123.276 58.2122L121.419 60.568L119.561 62.9238C121.425 64.3932 123.384 65.5549 125.44 66.3774L126.555 63.592ZM121.419 60.568L123.276 58.2122C121.988 57.1969 120.853 55.8167 119.902 53.9949L117.243 55.384L114.583 56.7731C115.872 59.2393 117.521 61.3151 119.561 62.9238L121.419 60.568ZM117.243 55.384L119.926 54.0424C119.106 52.4037 118.611 50.1634 118.611 47.176H115.611H112.611C112.611 50.7806 113.203 54.0122 114.559 56.7256L117.243 55.384ZM115.611 47.176H118.611C118.611 43.0553 119.639 39.8746 121.503 37.4239L119.115 35.608L116.726 33.7921C113.918 37.4854 112.611 42.0167 112.611 47.176H115.611ZM119.115 35.608L121.503 37.4239C123.473 34.832 126.123 32.8648 129.553 31.5434L128.475 28.744L127.396 25.9446C123.018 27.6312 119.428 30.24 116.726 33.7921L119.115 35.608ZM128.475 28.744L129.553 31.5434C133.063 30.1911 137.005 29.5061 141.414 29.5359L141.435 26.536L141.455 23.5361C136.392 23.5019 131.694 24.2889 127.396 25.9446L128.475 28.744ZM141.435 26.536L141.394 29.5357C145.844 29.5955 149.71 30.3551 153.044 31.7511L154.203 28.984L155.361 26.2169C151.207 24.4768 146.561 23.6045 141.475 23.5363L141.435 26.536ZM154.203 28.984L153.044 31.7511C156.362 33.141 159.103 35.148 161.314 37.7781L163.611 35.848L165.907 33.9178C163.062 30.532 159.531 27.963 155.361 26.2169L154.203 28.984ZM163.611 35.848L161.324 37.7902C163.52 40.3752 165.156 43.6001 166.179 47.5449L169.083 46.792L171.986 46.0391C170.769 41.3439 168.757 37.2728 165.897 33.9058L163.611 35.848ZM169.083 46.792L168.58 43.8345L154.468 46.2345L154.971 49.192L155.473 52.1495L169.585 49.7495L169.083 46.792ZM154.971 49.192L157.895 48.5235C157.283 45.8455 156.126 43.4828 154.373 41.5262L152.139 43.528L149.904 45.5297C150.903 46.6452 151.634 48.0584 152.046 49.8605L154.971 49.192ZM152.139 43.528L154.373 41.5263C152.696 39.6541 150.678 38.2253 148.348 37.2548L147.195 40.024L146.041 42.7932C147.551 43.4227 148.829 44.3299 149.904 45.5297L152.139 43.528ZM147.195 40.024L148.365 37.2617C146.13 36.3148 143.78 35.8047 141.335 35.7294L141.243 38.728L141.15 41.7266C142.865 41.7793 144.483 42.1332 146.024 42.7863L147.195 40.024ZM141.243 38.728L141.336 35.7295C138.941 35.6546 136.635 35.9916 134.441 36.7612L135.435 39.592L136.428 42.4228C137.882 41.9124 139.448 41.6734 141.149 41.7265L141.243 38.728ZM135.435 39.592L134.471 36.7511C132.295 37.4891 130.396 38.6176 128.868 40.1879L131.019 42.28L133.169 44.3721C133.945 43.5744 134.99 42.9109 136.398 42.4329L135.435 39.592ZM131.019 42.28L128.839 40.2184C127.191 41.9603 126.339 44.1063 126.339 46.504H129.339H132.339C132.339 45.6377 132.606 44.9677 133.198 44.3416L131.019 42.28ZM129.339 46.504H126.339C126.339 48.6793 127.035 50.6933 128.574 52.2851L130.731 50.2L132.887 48.1149C132.57 47.7867 132.339 47.3367 132.339 46.504H129.339ZM130.731 50.2L128.609 52.3213C129.86 53.5722 131.38 54.5295 133.099 55.2326L134.235 52.456L135.37 49.6794C134.273 49.2304 133.457 48.6838 132.852 48.0787L130.731 50.2ZM134.235 52.456L133.099 55.2326C134.63 55.8591 136.196 56.3812 137.797 56.7988L138.555 53.896L139.312 50.9931C137.969 50.6428 136.655 50.2049 135.37 49.6794L134.235 52.456ZM138.555 53.896L137.767 56.7908L149.767 60.0548L150.555 57.16L151.342 54.2652L139.342 51.0012L138.555 53.896ZM150.555 57.16L149.778 60.0578C151.464 60.5095 153.36 61.1197 155.471 61.8957L156.507 59.08L157.542 56.2643C155.301 55.4403 153.229 54.7705 151.331 54.2622L150.555 57.16ZM156.507 59.08L155.508 61.909C157.408 62.5794 159.241 63.5349 161.01 64.7905L162.747 62.344L164.483 59.8975C162.284 58.3371 159.957 57.1166 157.505 56.251L156.507 59.08ZM162.747 62.344L161.055 64.8218C162.665 65.9205 164.007 67.39 165.077 69.2885L167.691 67.816L170.304 66.3435C168.814 63.698 166.86 61.5195 164.438 59.8661L162.747 62.344ZM167.691 67.816L165.093 69.3162C166.068 71.0059 166.659 73.3268 166.659 76.456H169.659H172.659C172.659 72.6092 171.937 69.1701 170.288 66.3158L167.691 67.816ZM169.659 76.456H166.659C166.659 79.7364 165.969 82.4612 164.693 84.7278L167.307 86.2L169.92 87.6722C171.78 84.3708 172.659 80.5996 172.659 76.456H169.659ZM167.307 86.2L164.687 84.7379C163.376 87.0858 161.609 89.0333 159.354 90.6007L161.067 93.064L162.779 95.5273C165.772 93.4467 168.165 90.8182 169.926 87.6621L167.307 86.2ZM161.067 93.064L159.375 90.5866C157.052 92.1731 154.389 93.3833 151.359 94.1992L152.139 97.096L152.918 99.9928C156.544 99.0167 159.834 97.5389 162.758 95.5414L161.067 93.064ZM152.139 97.096L151.352 94.2011C148.32 95.0252 145.177 95.44 141.915 95.44V98.44V101.44C145.692 101.44 149.365 100.959 152.925 99.9909L152.139 97.096ZM185.969 97H182.969V100H185.969V97ZM185.969 27.88V24.88H182.969V27.88H185.969ZM231.089 27.88H234.089V24.88H231.089V27.88ZM231.089 40.072V43.072H234.089V40.072H231.089ZM199.025 40.072V37.072H196.025V40.072H199.025ZM199.025 54.856H196.025V57.856H199.025V54.856ZM225.329 54.856H228.329V51.856H225.329V54.856ZM225.329 67.048V70.048H228.329V67.048H225.329ZM199.025 67.048V64.048H196.025V67.048H199.025ZM199.025 84.808H196.025V87.808H199.025V84.808ZM231.089 84.808H234.089V81.808H231.089V84.808ZM231.089 97V100H234.089V97H231.089ZM185.969 97H188.969V27.88H185.969H182.969V97H185.969ZM185.969 27.88V30.88H231.089V27.88V24.88H185.969V27.88ZM231.089 27.88H228.089V40.072H231.089H234.089V27.88H231.089ZM231.089 40.072V37.072H199.025V40.072V43.072H231.089V40.072ZM199.025 40.072H196.025V54.856H199.025H202.025V40.072H199.025ZM199.025 54.856V57.856H225.329V54.856V51.856H199.025V54.856ZM225.329 54.856H222.329V67.048H225.329H228.329V54.856H225.329ZM225.329 67.048V64.048H199.025V67.048V70.048H225.329V67.048ZM199.025 67.048H196.025V84.808H199.025H202.025V67.048H199.025ZM199.025 84.808V87.808H231.089V84.808V81.808H199.025V84.808ZM231.089 84.808H228.089V97H231.089H234.089V84.808H231.089ZM231.089 97V94H185.969V97V100H231.089V97ZM281.378 19.336L279.988 21.9947L280.024 22.0134L280.06 22.0312L281.378 19.336ZM277.298 16.84L275.537 19.2688L275.551 19.2791L275.565 19.2892L277.298 16.84ZM273.698 14.392L272.05 16.8991L272.076 16.9158L272.101 16.9319L273.698 14.392ZM268.61 14.92L265.781 13.9215L265.772 13.9464L265.764 13.9713L268.61 14.92ZM268.706 18.952V21.952H272.566L271.613 18.211L268.706 18.952ZM260.642 18.952L257.722 19.6428L258.269 21.952H260.642V18.952ZM261.218 8.34399L258.517 7.03807L258.511 7.05069L261.218 8.34399ZM273.842 5.08L272.452 7.73867L272.488 7.7574L272.524 7.77515L273.842 5.08ZM277.922 7.528L276.161 9.95683L276.175 9.96712L276.189 9.97724L277.922 7.528ZM281.57 10.024L279.922 12.5311L279.948 12.5478L279.973 12.5639L281.57 10.024ZM286.658 9.496L289.477 10.5212L289.482 10.5079L289.487 10.4945L286.658 9.496ZM286.562 5.41599V2.41599H282.627L283.669 6.21015L286.562 5.41599ZM294.626 5.41599L297.539 4.69894L296.977 2.41599H294.626V5.41599ZM294.05 16.024L291.349 14.7181L291.349 14.7181L294.05 16.024ZM248.354 97H245.354V100H248.354V97ZM248.354 27.88V24.88H245.354V27.88H248.354ZM261.602 27.88L264.115 26.2414L263.227 24.88H261.602V27.88ZM291.65 73.96L289.137 75.5986L294.65 84.053V73.96H291.65ZM291.65 27.88V24.88H288.65V27.88H291.65ZM304.898 27.88H307.898V24.88H304.898V27.88ZM304.898 97V100H307.898V97H304.898ZM291.65 97L289.137 98.6386L290.025 100H291.65V97ZM261.602 50.92L264.115 49.2814L258.602 40.827V50.92H261.602ZM261.602 97V100H264.602V97H261.602ZM285.89 20.392V17.392C284.789 17.392 283.735 17.1489 282.695 16.6408L281.378 19.336L280.06 22.0312C281.901 22.9311 283.855 23.392 285.89 23.392V20.392ZM281.378 19.336L282.768 16.6773C281.48 16.0041 280.234 15.2423 279.03 14.3908L277.298 16.84L275.565 19.2892C276.986 20.2937 278.46 21.1959 279.988 21.9947L281.378 19.336ZM277.298 16.84L279.059 14.4112C277.735 13.4516 276.48 12.5973 275.294 11.8521L273.698 14.392L272.101 16.9319C273.156 17.5947 274.3 18.3724 275.537 19.2688L277.298 16.84ZM273.698 14.392L275.345 11.8849C273.943 10.9631 272.345 10.288 270.626 10.288V13.288V16.288C270.762 16.288 271.213 16.3489 272.05 16.8991L273.698 14.392ZM270.626 13.288V10.288C269.539 10.288 268.444 10.6118 267.514 11.3643C266.626 12.0834 266.097 13.0246 265.781 13.9215L268.61 14.92L271.439 15.9185C271.506 15.7274 271.506 15.8526 271.289 16.0277C271.179 16.1169 271.048 16.1897 270.908 16.236C270.773 16.2811 270.671 16.288 270.626 16.288V13.288ZM268.61 14.92L265.764 13.9713C265.159 15.7856 265.309 17.77 265.799 19.693L268.706 18.952L271.613 18.211C271.271 16.87 271.357 16.1664 271.456 15.8687L268.61 14.92ZM268.706 18.952V15.952H260.642V18.952V21.952H268.706V18.952ZM260.642 18.952L263.561 18.2612C262.672 14.503 262.933 11.7139 263.925 9.6373L261.218 8.34399L258.511 7.05069C256.751 10.7341 256.628 15.017 257.722 19.6428L260.642 18.952ZM261.218 8.34399L263.919 9.6499C264.361 8.73539 264.957 8.12653 265.73 7.7129C266.541 7.27861 267.709 6.976 269.378 6.976V3.976V0.975996C267.014 0.975996 264.807 1.40139 262.898 2.42309C260.951 3.46546 259.483 5.0406 258.517 7.03809L261.218 8.34399ZM269.378 3.976V6.976C270.455 6.976 271.467 7.2238 272.452 7.73867L273.842 5.08L275.232 2.42132C273.4 1.46419 271.436 0.975996 269.378 0.975996V3.976ZM273.842 5.08L272.524 7.77515C273.811 8.40435 275.023 9.13159 276.161 9.95683L277.922 7.528L279.683 5.09917C278.261 4.0684 276.752 3.16364 275.159 2.38484L273.842 5.08ZM277.922 7.528L276.189 9.97724C277.524 10.9213 278.769 11.7731 279.922 12.5311L281.57 10.024L283.217 7.51688C282.131 6.80294 280.943 5.99072 279.654 5.07875L277.922 7.528ZM281.57 10.024L279.973 12.5639C281.378 13.4469 282.957 14.08 284.642 14.08V11.08V8.08C284.47 8.08 284.002 8.00914 283.166 7.48409L281.57 10.024ZM284.642 11.08V14.08C285.706 14.08 286.79 13.7732 287.719 13.043C288.614 12.3403 289.153 11.4133 289.477 10.5212L286.658 9.496L283.838 8.47077C283.779 8.63473 283.79 8.49972 284.012 8.32504C284.124 8.23755 284.253 8.16923 284.384 8.12666C284.512 8.08539 284.605 8.08 284.642 8.08V11.08ZM286.658 9.496L289.487 10.4945C290.149 8.61762 289.993 6.58209 289.455 4.62184L286.562 5.41599L283.669 6.21015C284.027 7.5139 283.934 8.19837 283.829 8.49754L286.658 9.496ZM286.562 5.41599V8.41599H294.626V5.41599V2.41599H286.562V5.41599ZM294.626 5.41599L291.713 6.13305C292.624 9.83649 292.366 12.614 291.349 14.7181L294.05 16.024L296.751 17.3299C298.549 13.61 298.675 9.3155 297.539 4.69894L294.626 5.41599ZM294.05 16.024L291.349 14.7181C290.907 15.6326 290.311 16.2415 289.538 16.6551C288.727 17.0894 287.558 17.392 285.89 17.392V20.392V23.392C288.253 23.392 290.461 22.9666 292.37 21.9449C294.317 20.9025 295.785 19.3274 296.751 17.3299L294.05 16.024ZM248.354 97H251.354V27.88H248.354H245.354V97H248.354ZM248.354 27.88V30.88H261.602V27.88V24.88H248.354V27.88ZM261.602 27.88L259.089 29.5186L289.137 75.5986L291.65 73.96L294.163 72.3214L264.115 26.2414L261.602 27.88ZM291.65 73.96H294.65V27.88H291.65H288.65V73.96H291.65ZM291.65 27.88V30.88H304.898V27.88V24.88H291.65V27.88ZM304.898 27.88H301.898V97H304.898H307.898V27.88H304.898ZM304.898 97V94H291.65V97V100H304.898V97ZM291.65 97L294.163 95.3614L264.115 49.2814L261.602 50.92L259.089 52.5586L289.137 98.6386L291.65 97ZM261.602 50.92H258.602V97H261.602H264.602V50.92H261.602ZM261.602 97V94H248.354V97V100H261.602V97ZM335.811 93.928L334.263 96.4976L334.27 96.5019L335.811 93.928ZM324.243 81.304L321.557 82.6393L321.56 82.6456L321.563 82.652L324.243 81.304ZM324.243 43.576L321.563 42.228L321.56 42.2344L321.557 42.2407L324.243 43.576ZM335.811 30.952L334.27 28.3781L334.263 28.3824L335.811 30.952ZM371.571 30.952L370.023 33.5216L370.03 33.5259L371.571 30.952ZM383.139 43.576L380.453 44.9113L380.456 44.9176L380.459 44.924L383.139 43.576ZM383.139 81.304L380.459 79.956L380.456 79.9624L380.453 79.9687L383.139 81.304ZM371.571 93.928L370.03 91.3541L370.023 91.3584L371.571 93.928ZM353.715 86.152L353.671 89.1517L353.715 86.152ZM364.659 83.32L366.33 85.8119L366.33 85.8119L364.659 83.32ZM371.187 75.016L368.412 73.8762L368.408 73.8869L368.404 73.8975L371.187 75.016ZM371.187 49.96L368.411 51.0959L368.415 51.1067L368.42 51.1174L371.187 49.96ZM364.659 41.752L366.33 39.2601L366.33 39.2601L364.659 41.752ZM353.715 38.728L353.759 35.7283L353.759 35.7283L353.715 38.728ZM336.195 49.864L333.42 48.7242L333.416 48.7349L333.412 48.7455L336.195 49.864ZM336.195 74.92L333.419 76.0559L333.423 76.0667L333.427 76.0774L336.195 74.92ZM342.771 83.128L341.101 85.6199L341.101 85.6199L342.771 83.128ZM353.715 98.44V95.44C347.247 95.44 341.833 94.0365 337.352 91.3541L335.811 93.928L334.27 96.5019C339.838 99.8355 346.359 101.44 353.715 101.44V98.44ZM335.811 93.928L337.36 91.3584C332.872 88.6543 329.399 84.8787 326.923 79.956L324.243 81.304L321.563 82.652C324.527 88.5453 328.767 93.1857 334.263 96.4976L335.811 93.928ZM324.243 81.304L326.93 79.9687C324.483 75.0463 323.211 69.2306 323.211 62.44H320.211H317.211C317.211 69.9854 318.627 76.7457 321.557 82.6393L324.243 81.304ZM320.211 62.44H323.211C323.211 55.6494 324.483 49.8337 326.93 44.9113L324.243 43.576L321.557 42.2407C318.627 48.1343 317.211 54.8946 317.211 62.44H320.211ZM324.243 43.576L326.923 44.924C329.399 40.0013 332.872 36.2257 337.36 33.5216L335.811 30.952L334.263 28.3824C328.767 31.6943 324.527 36.3347 321.563 42.228L324.243 43.576ZM335.811 30.952L337.352 33.5259C341.833 30.8435 347.247 29.44 353.715 29.44V26.44V23.44C346.359 23.44 339.838 25.0445 334.27 28.3781L335.811 30.952ZM353.715 26.44V29.44C360.184 29.44 365.579 30.8437 370.023 33.5216L371.571 30.952L373.12 28.3824C367.58 25.0443 361.071 23.44 353.715 23.44V26.44ZM371.571 30.952L370.03 33.5259C374.546 36.2295 378.012 40.0002 380.453 44.9113L383.139 43.576L385.826 42.2407C382.891 36.3358 378.645 31.6905 373.112 28.3781L371.571 30.952ZM383.139 43.576L380.459 44.924C382.933 49.8434 384.219 55.6544 384.219 62.44H387.219H390.219C390.219 54.8896 388.785 48.1246 385.819 42.228L383.139 43.576ZM387.219 62.44H384.219C384.219 69.2256 382.933 75.0366 380.459 79.956L383.139 81.304L385.819 82.652C388.785 76.7554 390.219 69.9904 390.219 62.44H387.219ZM383.139 81.304L380.453 79.9687C378.012 84.8798 374.546 88.6505 370.03 91.3541L371.571 93.928L373.112 96.5019C378.645 93.1895 382.891 88.5442 385.826 82.6393L383.139 81.304ZM371.571 93.928L370.023 91.3584C365.579 94.0363 360.184 95.44 353.715 95.44V98.44V101.44C361.071 101.44 367.58 99.8357 373.12 96.4976L371.571 93.928ZM353.715 86.152L353.671 89.1517C358.511 89.2223 362.797 88.18 366.33 85.8119L364.659 83.32L362.989 80.8281C360.698 82.364 357.687 83.2097 353.759 83.1523L353.715 86.152ZM364.659 83.32L366.33 85.8119C369.793 83.4904 372.33 80.2183 373.971 76.1345L371.187 75.016L368.404 73.8975C367.164 76.9817 365.35 79.2456 362.989 80.8281L364.659 83.32ZM371.187 75.016L373.962 76.1558C375.614 72.135 376.395 67.5405 376.395 62.44H373.395H370.395C370.395 66.9395 369.705 70.729 368.412 73.8762L371.187 75.016ZM373.395 62.44H376.395C376.395 57.3415 375.614 52.7706 373.955 48.8026L371.187 49.96L368.42 51.1174C369.704 54.1894 370.395 57.9385 370.395 62.44H373.395ZM371.187 49.96L373.964 48.8241C372.318 44.8012 369.779 41.5724 366.33 39.2601L364.659 41.752L362.989 44.2439C365.363 45.8356 367.176 48.0788 368.411 51.0959L371.187 49.96ZM364.659 41.752L366.33 39.2601C362.828 36.9128 358.578 35.7987 353.759 35.7283L353.715 38.728L353.671 41.7277C357.621 41.7853 360.666 42.6872 362.989 44.2439L364.659 41.752ZM353.715 38.728L353.759 35.7283C348.919 35.6577 344.634 36.7 341.101 39.0681L342.771 41.56L344.442 44.0519C346.733 42.516 349.743 41.6703 353.671 41.7277L353.715 38.728ZM342.771 41.56L341.101 39.0681C337.643 41.3858 335.093 44.6502 333.42 48.7242L336.195 49.864L338.97 51.0038C340.241 47.9098 342.075 45.6382 344.442 44.0519L342.771 41.56ZM336.195 49.864L333.412 48.7455C331.799 52.7599 331.035 57.3466 331.035 62.44H334.035H337.035C337.035 57.9333 337.712 54.136 338.979 50.9825L336.195 49.864ZM334.035 62.44H331.035C331.035 67.5313 331.798 72.0944 333.419 76.0559L336.195 74.92L338.972 73.7841C337.712 70.7056 337.035 66.9487 337.035 62.44H334.035ZM336.195 74.92L333.427 76.0774C335.106 80.0902 337.657 83.3114 341.101 85.6199L342.771 83.128L344.442 80.6361C342.062 79.0406 340.229 76.7898 338.963 73.7626L336.195 74.92ZM342.771 83.128L341.101 85.6199C344.602 87.9672 348.853 89.0813 353.671 89.1517L353.715 86.152L353.759 83.1523C349.81 83.0947 346.764 82.1928 344.442 80.6361L342.771 83.128Z" fill="black" mask="url(#path-1-outside-1_175_39)"/>
</g>
<defs>
<filter id="filter0_d_175_39" x="0.719971" y="0.976074" width="393.499" height="108.464" filterUnits="userSpaceOnUse" color-interpolation-filters="sRGB">
<feFlood flood-opacity="0" result="BackgroundImageFix"/>
<feColorMatrix in="SourceAlpha" type="matrix" values="0 0 0 0 0 0 0 0 0 0 0 0 0 0 0 0 0 0 127 0" result="hardAlpha"/>
<feOffset dy="4"/>
<feGaussianBlur stdDeviation="2"/>
<feComposite in2="hardAlpha" operator="out"/>
<feColorMatrix type="matrix" values="0 0 0 0 0.533333 0 0 0 0 0.47451 0 0 0 0 0.807843 0 0 0 1 0"/>
<feBlend mode="normal" in2="BackgroundImageFix" result="effect1_dropShadow_175_39"/>
<feBlend mode="normal" in="SourceGraphic" in2="effect1_dropShadow_175_39" result="shape"/>
</filter>
</defs>
</svg>
