<svg width="215" height="63" viewBox="0 0 215 63" fill="none" xmlns="http://www.w3.org/2000/svg">
<g filter="url(#filter0_d_175_39)">
<mask id="path-1-outside-1_175_39" maskUnits="userSpaceOnUse" x="4" y="0" width="207" height="55" fill="black">
<rect fill="white" x="4" width="207" height="55"/>
<path d="M6.57 52V15.28H18.453C18.742 15.28 19.337 15.2885 20.238 15.3055C21.139 15.3225 22.006 15.382 22.839 15.484C25.797 15.841 28.3045 16.8695 30.3615 18.5695C32.4185 20.2695 33.9825 22.4285 35.0535 25.0465C36.1245 27.6645 36.66 30.529 36.66 33.64C36.66 36.751 36.1245 39.6155 35.0535 42.2335C33.9825 44.8515 32.4185 47.0105 30.3615 48.7105C28.3045 50.4105 25.797 51.439 22.839 51.796C22.006 51.898 21.139 51.9575 20.238 51.9745C19.337 51.9915 18.742 52 18.453 52H6.57ZM13.608 45.472H18.453C18.912 45.472 19.5325 45.4635 20.3145 45.4465C21.0965 45.4125 21.802 45.336 22.431 45.217C24.029 44.894 25.3295 44.146 26.3325 42.973C27.3525 41.8 28.1005 40.389 28.5765 38.74C29.0695 37.091 29.316 35.391 29.316 33.64C29.316 31.804 29.061 30.0615 28.551 28.4125C28.058 26.7635 27.3015 25.3695 26.2815 24.2305C25.2615 23.0915 23.978 22.369 22.431 22.063C21.802 21.927 21.0965 21.8505 20.3145 21.8335C19.5325 21.8165 18.912 21.808 18.453 21.808H13.608V45.472ZM46.348 52V15.28H53.284V52H46.348ZM77.8608 52.765C75.1408 52.765 72.6843 52.289 70.4913 51.337C68.3153 50.368 66.5218 48.991 65.1108 47.206C63.7168 45.404 62.8328 43.262 62.4588 40.78L69.7008 39.709C70.2108 41.817 71.2648 43.4405 72.8628 44.5795C74.4608 45.7185 76.2798 46.288 78.3198 46.288C79.4588 46.288 80.5638 46.1095 81.6348 45.7525C82.7058 45.3955 83.5813 44.8685 84.2613 44.1715C84.9583 43.4745 85.3068 42.616 85.3068 41.596C85.3068 41.222 85.2473 40.865 85.1283 40.525C85.0263 40.168 84.8478 39.8365 84.5928 39.5305C84.3378 39.2245 83.9723 38.9355 83.4963 38.6635C83.0373 38.3915 82.4508 38.145 81.7368 37.924L72.1998 35.119C71.4858 34.915 70.6528 34.626 69.7008 34.252C68.7658 33.878 67.8563 33.3425 66.9723 32.6455C66.0883 31.9485 65.3488 31.0305 64.7538 29.8915C64.1758 28.7355 63.8868 27.282 63.8868 25.531C63.8868 23.066 64.5073 21.0175 65.7483 19.3855C66.9893 17.7535 68.6468 16.538 70.7208 15.739C72.7948 14.94 75.0898 14.549 77.6058 14.566C80.1388 14.6 82.3998 15.0335 84.3888 15.8665C86.3778 16.6995 88.0438 17.915 89.3868 19.513C90.7298 21.094 91.6988 23.032 92.2938 25.327L84.7968 26.602C84.5248 25.412 84.0233 24.409 83.2923 23.593C82.5613 22.777 81.6858 22.1565 80.6658 21.7315C79.6628 21.3065 78.6088 21.077 77.5038 21.043C76.4158 21.009 75.3873 21.162 74.4183 21.502C73.4663 21.825 72.6843 22.301 72.0723 22.93C71.4773 23.559 71.1798 24.307 71.1798 25.174C71.1798 25.973 71.4263 26.6275 71.9193 27.1375C72.4123 27.6305 73.0328 28.03 73.7808 28.336C74.5288 28.642 75.2938 28.897 76.0758 29.101L82.4508 30.835C83.4028 31.09 84.4568 31.43 85.6128 31.855C86.7688 32.263 87.8738 32.841 88.9278 33.589C89.9988 34.32 90.8743 35.289 91.5543 36.496C92.2513 37.703 92.5998 39.233 92.5998 41.086C92.5998 43.058 92.1833 44.7835 91.3503 46.2625C90.5343 47.7245 89.4293 48.94 88.0353 49.909C86.6413 50.861 85.0603 51.575 83.2923 52.051C81.5413 52.527 79.7308 52.765 77.8608 52.765ZM101.265 52V15.28H125.235V21.757H108.201V29.611H122.175V36.088H108.201V45.523H125.235V52H101.265ZM154.348 11.302C153.515 11.302 152.716 11.115 151.951 10.741C151.203 10.35 150.48 9.908 149.783 9.415C149.103 8.922 148.466 8.4885 147.871 8.1145C147.276 7.7235 146.732 7.528 146.239 7.528C145.729 7.528 145.372 7.817 145.168 8.395C144.981 8.956 144.998 9.67 145.219 10.537H140.935C140.408 8.31 140.51 6.4315 141.241 4.9015C141.989 3.3545 143.434 2.581 145.576 2.581C146.409 2.581 147.199 2.7765 147.947 3.1675C148.712 3.5415 149.435 3.975 150.115 4.468C150.812 4.961 151.458 5.403 152.053 5.794C152.648 6.168 153.192 6.355 153.685 6.355C154.195 6.355 154.552 6.0745 154.756 5.5135C154.96 4.9355 154.943 4.213 154.705 3.346H158.989C159.533 5.556 159.431 7.4345 158.683 8.9815C157.935 10.5285 156.49 11.302 154.348 11.302ZM134.407 52V15.28H141.445L157.408 39.76V15.28H164.446V52H157.408L141.445 27.52V52H134.407ZM190.38 52.765C186.708 52.765 183.537 51.966 180.868 50.368C178.216 48.77 176.168 46.5345 174.723 43.6615C173.295 40.7885 172.581 37.448 172.581 33.64C172.581 29.832 173.295 26.4915 174.723 23.6185C176.168 20.7455 178.216 18.51 180.868 16.912C183.537 15.314 186.708 14.515 190.38 14.515C194.052 14.515 197.214 15.314 199.866 16.912C202.535 18.51 204.583 20.7455 206.011 23.6185C207.456 26.4915 208.179 29.832 208.179 33.64C208.179 37.448 207.456 40.7885 206.011 43.6615C204.583 46.5345 202.535 48.77 199.866 50.368C197.214 51.966 194.052 52.765 190.38 52.765ZM190.38 46.237C192.709 46.271 194.647 45.7695 196.194 44.7325C197.741 43.6955 198.897 42.225 199.662 40.321C200.444 38.417 200.835 36.19 200.835 33.64C200.835 31.09 200.444 28.88 199.662 27.01C198.897 25.14 197.741 23.6865 196.194 22.6495C194.647 21.6125 192.709 21.077 190.38 21.043C188.051 21.009 186.113 21.5105 184.566 22.5475C183.019 23.5845 181.854 25.055 181.072 26.959C180.307 28.863 179.925 31.09 179.925 33.64C179.925 36.19 180.307 38.4 181.072 40.27C181.854 42.14 183.019 43.5935 184.566 44.6305C186.113 45.6675 188.051 46.203 190.38 46.237Z"/>
</mask>
<path d="M6.57 52H4.57V54H6.57V52ZM6.57 15.28V13.28H4.57V15.28H6.57ZM20.238 15.3055L20.2003 17.3051L20.2003 17.3051L20.238 15.3055ZM22.839 15.484L22.5959 17.4692L22.5994 17.4696L22.839 15.484ZM30.3615 18.5695L31.6356 17.0278L31.6356 17.0278L30.3615 18.5695ZM35.0535 25.0465L36.9046 24.2892L36.9046 24.2892L35.0535 25.0465ZM35.0535 42.2335L36.9046 42.9908L36.9046 42.9908L35.0535 42.2335ZM30.3615 48.7105L31.6356 50.2522L31.6356 50.2522L30.3615 48.7105ZM22.839 51.796L22.5994 49.8104L22.5959 49.8108L22.839 51.796ZM20.238 51.9745L20.2757 53.9741L20.238 51.9745ZM13.608 45.472H11.608V47.472H13.608V45.472ZM20.3145 45.4465L20.358 47.446L20.3797 47.4456L20.4014 47.4446L20.3145 45.4465ZM22.431 45.217L22.8028 47.1821L22.815 47.1798L22.8272 47.1774L22.431 45.217ZM26.3325 42.973L24.8233 41.6606L24.8178 41.6669L24.8124 41.6732L26.3325 42.973ZM28.5765 38.74L26.6603 38.1671L26.6576 38.1762L26.655 38.1853L28.5765 38.74ZM28.551 28.4125L26.6348 28.9854L26.6375 28.9944L26.6403 29.0034L28.551 28.4125ZM26.2815 24.2305L27.7714 22.8963L27.7714 22.8963L26.2815 24.2305ZM22.431 22.063L22.0083 24.0178L22.0256 24.0216L22.0429 24.025L22.431 22.063ZM20.3145 21.8335L20.358 19.834L20.358 19.834L20.3145 21.8335ZM13.608 21.808V19.808H11.608V21.808H13.608ZM6.57 52H8.57V15.28H6.57H4.57V52H6.57ZM6.57 15.28V17.28H18.453V15.28V13.28H6.57V15.28ZM18.453 15.28V17.28C18.7198 17.28 19.2956 17.2881 20.2003 17.3051L20.238 15.3055L20.2757 13.3059C19.3784 13.2889 18.7642 13.28 18.453 13.28V15.28ZM20.238 15.3055L20.2003 17.3051C21.0376 17.3209 21.8359 17.3761 22.5959 17.4692L22.839 15.484L23.0821 13.4988C22.1762 13.3879 21.2404 13.3241 20.2757 13.3059L20.238 15.3055ZM22.839 15.484L22.5994 17.4696C25.2229 17.7862 27.3592 18.6829 29.0874 20.1111L30.3615 18.5695L31.6356 17.0278C29.2498 15.0561 26.3711 13.8958 23.0786 13.4984L22.839 15.484ZM30.3615 18.5695L29.0874 20.1111C30.8751 21.5886 32.2485 23.4719 33.2024 25.8038L35.0535 25.0465L36.9046 24.2892C35.7165 21.3851 33.9619 18.9504 31.6356 17.0278L30.3615 18.5695ZM35.0535 25.0465L33.2024 25.8038C34.1657 28.1584 34.66 30.7627 34.66 33.64H36.66H38.66C38.66 30.2953 38.0833 27.1706 36.9046 24.2892L35.0535 25.0465ZM36.66 33.64H34.66C34.66 36.5173 34.1657 39.1216 33.2024 41.4762L35.0535 42.2335L36.9046 42.9908C38.0833 40.1094 38.66 36.9847 38.66 33.64H36.66ZM35.0535 42.2335L33.2024 41.4762C32.2485 43.8081 30.8751 45.6914 29.0874 47.1688L30.3615 48.7105L31.6356 50.2522C33.9619 48.3296 35.7165 45.8949 36.9046 42.9908L35.0535 42.2335ZM30.3615 48.7105L29.0874 47.1688C27.3592 48.5971 25.2229 49.4938 22.5994 49.8104L22.839 51.796L23.0786 53.7816C26.3711 53.3842 29.2498 52.2239 31.6356 50.2522L30.3615 48.7105ZM22.839 51.796L22.5959 49.8108C21.8359 49.9039 21.0376 49.9591 20.2003 49.9749L20.238 51.9745L20.2757 53.9741C21.2404 53.9559 22.1762 53.8921 23.0821 53.7812L22.839 51.796ZM20.238 51.9745L20.2003 49.9749C19.2956 49.9919 18.7198 50 18.453 50V52V54C18.7642 54 19.3784 53.9911 20.2757 53.9741L20.238 51.9745ZM18.453 52V50H6.57V52V54H18.453V52ZM13.608 45.472V47.472H18.453V45.472V43.472H13.608V45.472ZM18.453 45.472V47.472C18.9331 47.472 19.57 47.4632 20.358 47.446L20.3145 45.4465L20.271 43.447C19.495 43.4638 18.8909 43.472 18.453 43.472V45.472ZM20.3145 45.4465L20.4014 47.4446C21.2588 47.4073 22.0618 47.3223 22.8028 47.1821L22.431 45.217L22.0592 43.2519C21.5423 43.3497 20.9342 43.4177 20.2276 43.4484L20.3145 45.4465ZM22.431 45.217L22.8272 47.1774C24.8366 46.7712 26.5422 45.8053 27.8526 44.2728L26.3325 42.973L24.8124 41.6732C24.1168 42.4867 23.2214 43.0168 22.0348 43.2566L22.431 45.217ZM26.3325 42.973L27.8417 44.2854C29.0717 42.8708 29.9498 41.1938 30.498 39.2947L28.5765 38.74L26.655 38.1853C26.2512 39.5842 25.6333 40.7292 24.8233 41.6606L26.3325 42.973ZM28.5765 38.74L30.4927 39.3129C31.0422 37.4748 31.316 35.5816 31.316 33.64H29.316H27.316C27.316 35.2004 27.0968 36.7072 26.6603 38.1671L28.5765 38.74ZM29.316 33.64H31.316C31.316 31.6164 31.0346 29.6738 30.4617 27.8216L28.551 28.4125L26.6403 29.0034C27.0874 30.4492 27.316 31.9916 27.316 33.64H29.316ZM28.551 28.4125L30.4672 27.8396C29.9005 25.9442 29.0112 24.2807 27.7714 22.8963L26.2815 24.2305L24.7916 25.5647C25.5918 26.4583 26.2155 27.5828 26.6348 28.9854L28.551 28.4125ZM26.2815 24.2305L27.7714 22.8963C26.4523 21.4233 24.7774 20.4884 22.8191 20.101L22.431 22.063L22.0429 24.025C23.1786 24.2496 24.0707 24.7597 24.7916 25.5647L26.2815 24.2305ZM22.431 22.063L22.8537 20.1082C22.0768 19.9402 21.2413 19.8532 20.358 19.834L20.3145 21.8335L20.271 23.833C20.9517 23.8478 21.5272 23.9138 22.0083 24.0178L22.431 22.063ZM20.3145 21.8335L20.358 19.834C19.57 19.8168 18.9331 19.808 18.453 19.808V21.808V23.808C18.8909 23.808 19.495 23.8162 20.271 23.833L20.3145 21.8335ZM18.453 21.808V19.808H13.608V21.808V23.808H18.453V21.808ZM13.608 21.808H11.608V45.472H13.608H15.608V21.808H13.608ZM46.348 52H44.348V54H46.348V52ZM46.348 15.28V13.28H44.348V15.28H46.348ZM53.284 15.28H55.284V13.28H53.284V15.28ZM53.284 52V54H55.284V52H53.284ZM46.348 52H48.348V15.28H46.348H44.348V52H46.348ZM46.348 15.28V17.28H53.284V15.28V13.28H46.348V15.28ZM53.284 15.28H51.284V52H53.284H55.284V15.28H53.284ZM53.284 52V50H46.348V52V54H53.284V52ZM70.4913 51.337L69.6777 53.164L69.6863 53.1679L69.6949 53.1716L70.4913 51.337ZM65.1108 47.206L63.5289 48.4297L63.5353 48.438L63.5418 48.4463L65.1108 47.206ZM62.4588 40.78L62.1662 38.8015L60.1823 39.0949L60.4812 41.078L62.4588 40.78ZM69.7008 39.709L71.6447 39.2387L71.2152 37.4633L69.4082 37.7305L69.7008 39.709ZM72.8628 44.5795L74.0237 42.9509L74.0237 42.9509L72.8628 44.5795ZM81.6348 45.7525L81.0024 43.8551L81.0024 43.8551L81.6348 45.7525ZM84.2613 44.1715L82.8471 42.7573L82.8384 42.766L82.8298 42.7749L84.2613 44.1715ZM85.1283 40.525L83.2053 41.0744L83.2213 41.1306L83.2406 41.1857L85.1283 40.525ZM84.5928 39.5305L86.1293 38.2501L86.1293 38.2501L84.5928 39.5305ZM83.4963 38.6635L82.4767 40.3841L82.4903 40.3921L82.5041 40.4L83.4963 38.6635ZM81.7368 37.924L82.3282 36.0134L82.3147 36.0093L82.3012 36.0053L81.7368 37.924ZM72.1998 35.119L72.7642 33.2003L72.7567 33.1981L72.7493 33.196L72.1998 35.119ZM69.7008 34.252L68.958 36.109L68.9695 36.1135L69.7008 34.252ZM66.9723 32.6455L68.2106 31.075L68.2106 31.075L66.9723 32.6455ZM64.7538 29.8915L62.965 30.7859L62.9729 30.8018L62.9811 30.8175L64.7538 29.8915ZM65.7483 19.3855L67.3403 20.5961L67.3403 20.5961L65.7483 19.3855ZM70.7208 15.739L71.4398 17.6053L71.4398 17.6053L70.7208 15.739ZM77.6058 14.566L77.6327 12.5661L77.6193 12.566L77.6058 14.566ZM84.3888 15.8665L85.1614 14.0217L85.1614 14.0217L84.3888 15.8665ZM89.3868 19.513L87.8557 20.7998L87.8625 20.8078L89.3868 19.513ZM92.2938 25.327L92.6291 27.2987L94.7764 26.9335L94.2298 24.8251L92.2938 25.327ZM84.7968 26.602L82.8471 27.0476L83.2684 28.8907L85.1321 28.5737L84.7968 26.602ZM83.2923 23.593L81.8027 24.9275L81.8027 24.9275L83.2923 23.593ZM80.6658 21.7315L79.8855 23.573L79.8966 23.5777L80.6658 21.7315ZM77.5038 21.043L77.4414 23.042L77.4423 23.0421L77.5038 21.043ZM74.4183 21.502L75.0609 23.396L75.0707 23.3926L75.0805 23.3892L74.4183 21.502ZM72.0723 22.93L70.6389 21.5353L70.6291 21.5454L70.6194 21.5556L72.0723 22.93ZM71.9193 27.1375L70.4814 28.5275L70.4931 28.5397L70.5051 28.5517L71.9193 27.1375ZM73.7808 28.336L74.5381 26.4849L74.5381 26.4849L73.7808 28.336ZM76.0758 29.101L76.6008 27.1711L76.5907 27.1684L76.5807 27.1658L76.0758 29.101ZM82.4508 30.835L81.9259 32.7649L81.9334 32.7669L82.4508 30.835ZM85.6128 31.855L84.9227 33.7322L84.9349 33.7366L84.9472 33.741L85.6128 31.855ZM88.9278 33.589L87.7703 35.22L87.7852 35.2306L87.8003 35.2409L88.9278 33.589ZM91.5543 36.496L89.8118 37.4777L89.817 37.4869L89.8224 37.4961L91.5543 36.496ZM91.3503 46.2625L89.6077 45.281L89.6039 45.2878L91.3503 46.2625ZM88.0353 49.909L89.1633 51.5606L89.1701 51.5559L89.1769 51.5512L88.0353 49.909ZM83.2923 52.051L82.7724 50.1198L82.7677 50.121L83.2923 52.051ZM77.8608 52.765V50.765C75.3772 50.765 73.1971 50.3313 71.2877 49.5024L70.4913 51.337L69.6949 53.1716C72.1716 54.2467 74.9044 54.765 77.8608 54.765V52.765ZM70.4913 51.337L71.3049 49.51C69.4102 48.6662 67.8807 47.4849 66.6798 45.9657L65.1108 47.206L63.5418 48.4463C65.163 50.4971 67.2205 52.0698 69.6777 53.164L70.4913 51.337ZM65.1108 47.206L66.6927 45.9823C65.5281 44.4768 64.765 42.6618 64.4365 40.482L62.4588 40.78L60.4812 41.078C60.9007 43.8622 61.9055 46.3312 63.5289 48.4297L65.1108 47.206ZM62.4588 40.78L62.7514 42.7585L69.9934 41.6875L69.7008 39.709L69.4082 37.7305L62.1662 38.8015L62.4588 40.78ZM69.7008 39.709L67.7569 40.1793C68.3673 42.7022 69.67 44.7598 71.702 46.2081L72.8628 44.5795L74.0237 42.9509C72.8597 42.1212 72.0544 40.9318 71.6447 39.2387L69.7008 39.709ZM72.8628 44.5795L71.702 46.2081C73.6529 47.5987 75.8812 48.288 78.3198 48.288V46.288V44.288C76.6784 44.288 75.2688 43.8383 74.0237 42.9509L72.8628 44.5795ZM78.3198 46.288V48.288C79.6718 48.288 80.9905 48.0755 82.2673 47.6499L81.6348 45.7525L81.0024 43.8551C80.1371 44.1435 79.2458 44.288 78.3198 44.288V46.288ZM81.6348 45.7525L82.2673 47.6499C83.5924 47.2081 84.7572 46.5272 85.6929 45.5681L84.2613 44.1715L82.8298 42.7749C82.4054 43.2098 81.8192 43.5829 81.0024 43.8551L81.6348 45.7525ZM84.2613 44.1715L85.6755 45.5857C86.7619 44.4993 87.3068 43.1258 87.3068 41.596H85.3068H83.3068C83.3068 42.1062 83.1547 42.4497 82.8471 42.7573L84.2613 44.1715ZM85.3068 41.596H87.3068C87.3068 41.0057 87.2122 40.4247 87.016 39.8643L85.1283 40.525L83.2406 41.1857C83.2825 41.3053 83.3068 41.4383 83.3068 41.596H85.3068ZM85.1283 40.525L87.0514 39.9756C86.8674 39.3315 86.5495 38.7544 86.1293 38.2501L84.5928 39.5305L83.0564 40.8109C83.1462 40.9186 83.1853 41.0045 83.2053 41.0744L85.1283 40.525ZM84.5928 39.5305L86.1293 38.2501C85.6759 37.7061 85.0992 37.276 84.4886 36.927L83.4963 38.6635L82.5041 40.4C82.8454 40.595 82.9997 40.7429 83.0564 40.8109L84.5928 39.5305ZM83.4963 38.6635L84.5159 36.9429C83.8804 36.5663 83.1372 36.2638 82.3282 36.0134L81.7368 37.924L81.1455 39.8346C81.7645 40.0262 82.1942 40.2167 82.4767 40.3841L83.4963 38.6635ZM81.7368 37.924L82.3012 36.0053L72.7642 33.2003L72.1998 35.119L71.6355 37.0377L81.1725 39.8427L81.7368 37.924ZM72.1998 35.119L72.7493 33.196C72.1149 33.0147 71.345 32.7491 70.4321 32.3905L69.7008 34.252L68.9695 36.1135C69.9607 36.5029 70.8568 36.8153 71.6504 37.042L72.1998 35.119ZM69.7008 34.252L70.4436 32.395C69.7062 32.1001 68.9615 31.667 68.2106 31.075L66.9723 32.6455L65.734 34.216C66.7511 35.018 67.8254 35.6559 68.958 36.109L69.7008 34.252ZM66.9723 32.6455L68.2106 31.075C67.5775 30.5758 67.0093 29.8897 66.5265 28.9655L64.7538 29.8915L62.9811 30.8175C63.6883 32.1713 64.5991 33.3212 65.734 34.216L66.9723 32.6455ZM64.7538 29.8915L66.5427 28.9971C66.1438 28.1993 65.8868 27.0762 65.8868 25.531H63.8868H61.8868C61.8868 27.4878 62.2078 29.2717 62.965 30.7859L64.7538 29.8915ZM63.8868 25.531H65.8868C65.8868 23.4122 66.4143 21.8139 67.3403 20.5961L65.7483 19.3855L64.1563 18.1749C62.6004 20.2211 61.8868 22.7198 61.8868 25.531H63.8868ZM65.7483 19.3855L67.3403 20.5961C68.338 19.2841 69.6818 18.2826 71.4398 17.6053L70.7208 15.739L70.0018 13.8727C67.6119 14.7934 65.6407 16.2229 64.1563 18.1749L65.7483 19.3855ZM70.7208 15.739L71.4398 17.6053C73.2514 16.9074 75.2939 16.5504 77.5923 16.566L77.6058 14.566L77.6193 12.566C74.8858 12.5476 72.3383 12.9726 70.0018 13.8727L70.7208 15.739ZM77.6058 14.566L77.579 16.5658C79.8998 16.597 81.9011 16.9929 83.6162 17.7112L84.3888 15.8665L85.1614 14.0217C82.8986 13.0741 80.3779 12.603 77.6327 12.5662L77.6058 14.566ZM84.3888 15.8665L83.6162 17.7112C85.3216 18.4255 86.7245 19.4537 87.8557 20.7998L89.3868 19.513L90.9179 18.2262C89.3632 16.3763 87.434 14.9735 85.1614 14.0217L84.3888 15.8665ZM89.3868 19.513L87.8625 20.8078C88.9841 22.1281 89.8277 23.7841 90.3578 25.8289L92.2938 25.327L94.2298 24.8251C93.57 22.2799 92.4755 20.0598 90.9111 18.2182L89.3868 19.513ZM92.2938 25.327L91.9585 23.3553L84.4615 24.6303L84.7968 26.602L85.1321 28.5737L92.6291 27.2987L92.2938 25.327ZM84.7968 26.602L86.7465 26.1564C86.4078 24.6744 85.7642 23.3549 84.782 22.2585L83.2923 23.593L81.8027 24.9275C82.2825 25.4631 82.6419 26.1496 82.8471 27.0476L84.7968 26.602ZM83.2923 23.593L84.782 22.2585C83.8502 21.2184 82.7279 20.424 81.4351 19.8853L80.6658 21.7315L79.8966 23.5777C80.6438 23.889 81.2724 24.3356 81.8027 24.9275L83.2923 23.593ZM80.6658 21.7315L81.4461 19.89C80.2119 19.367 78.9139 19.0854 77.5653 19.0439L77.5038 21.043L77.4423 23.0421C78.3038 23.0686 79.1138 23.246 79.8855 23.573L80.6658 21.7315ZM77.5038 21.043L77.5663 19.044C76.2469 19.0027 74.9714 19.1884 73.7562 19.6148L74.4183 21.502L75.0805 23.3892C75.8032 23.1356 76.5848 23.0153 77.4414 23.042L77.5038 21.043ZM74.4183 21.502L73.7757 19.608C72.5682 20.0178 71.5015 20.6487 70.6389 21.5353L72.0723 22.93L73.5058 24.3247C73.8672 23.9533 74.3645 23.6322 75.0609 23.396L74.4183 21.502ZM72.0723 22.93L70.6194 21.5556C69.6726 22.5565 69.1798 23.7966 69.1798 25.174H71.1798H73.1798C73.1798 24.8174 73.2821 24.5615 73.5253 24.3044L72.0723 22.93ZM71.1798 25.174H69.1798C69.1798 26.4205 69.5812 27.5964 70.4814 28.5275L71.9193 27.1375L73.3573 25.7475C73.2714 25.6586 73.1798 25.5255 73.1798 25.174H71.1798ZM71.9193 27.1375L70.5051 28.5517C71.2134 29.26 72.0685 29.7964 73.0236 30.1871L73.7808 28.336L74.5381 26.4849C73.9972 26.2636 73.6113 26.001 73.3335 25.7233L71.9193 27.1375ZM73.7808 28.336L73.0236 30.1871C73.8537 30.5267 74.7031 30.8098 75.571 31.0362L76.0758 29.101L76.5807 27.1658C75.8846 26.9842 75.2039 26.7573 74.5381 26.4849L73.7808 28.336ZM76.0758 29.101L75.5509 31.0309L81.9259 32.7649L82.4508 30.835L82.9758 28.9051L76.6008 27.1711L76.0758 29.101ZM82.4508 30.835L81.9334 32.7669C82.8148 33.003 83.8101 33.3231 84.9227 33.7322L85.6128 31.855L86.303 29.9778C85.1036 29.5369 83.9909 29.177 82.9683 28.9031L82.4508 30.835ZM85.6128 31.855L84.9472 33.741C85.9189 34.084 86.8594 34.5736 87.7703 35.22L88.9278 33.589L90.0853 31.958C88.8882 31.1084 87.6187 30.442 86.2785 29.969L85.6128 31.855ZM88.9278 33.589L87.8003 35.2409C88.6004 35.787 89.2721 36.5196 89.8118 37.4777L91.5543 36.496L93.2968 35.5143C92.4766 34.0584 91.3973 32.853 90.0553 31.9371L88.9278 33.589ZM91.5543 36.496L89.8224 37.4961C90.2952 38.3149 90.5998 39.4722 90.5998 41.086H92.5998H94.5998C94.5998 38.9938 94.2075 37.0911 93.2863 35.4959L91.5543 36.496ZM92.5998 41.086H90.5998C90.5998 42.7703 90.2464 44.147 89.6077 45.281L91.3503 46.2625L93.0929 47.244C94.1202 45.42 94.5998 43.3457 94.5998 41.086H92.5998ZM91.3503 46.2625L89.6039 45.2878C88.9383 46.4804 88.0417 47.4689 86.8938 48.2668L88.0353 49.909L89.1769 51.5512C90.817 50.4111 92.1304 48.9686 93.0967 47.2372L91.3503 46.2625ZM88.0353 49.909L86.9074 48.2574C85.714 49.0724 84.3418 49.6972 82.7724 50.1198L83.2923 52.051L83.8123 53.9822C85.7788 53.4528 87.5687 52.6496 89.1633 51.5606L88.0353 49.909ZM83.2923 52.051L82.7677 50.121C81.1929 50.5491 79.5591 50.765 77.8608 50.765V52.765V54.765C79.9026 54.765 81.8898 54.5049 83.817 53.981L83.2923 52.051ZM101.265 52H99.2646V54H101.265V52ZM101.265 15.28V13.28H99.2646V15.28H101.265ZM125.235 15.28H127.235V13.28H125.235V15.28ZM125.235 21.757V23.757H127.235V21.757H125.235ZM108.201 21.757V19.757H106.201V21.757H108.201ZM108.201 29.611H106.201V31.611H108.201V29.611ZM122.175 29.611H124.175V27.611H122.175V29.611ZM122.175 36.088V38.088H124.175V36.088H122.175ZM108.201 36.088V34.088H106.201V36.088H108.201ZM108.201 45.523H106.201V47.523H108.201V45.523ZM125.235 45.523H127.235V43.523H125.235V45.523ZM125.235 52V54H127.235V52H125.235ZM101.265 52H103.265V15.28H101.265H99.2646V52H101.265ZM101.265 15.28V17.28H125.235V15.28V13.28H101.265V15.28ZM125.235 15.28H123.235V21.757H125.235H127.235V15.28H125.235ZM125.235 21.757V19.757H108.201V21.757V23.757H125.235V21.757ZM108.201 21.757H106.201V29.611H108.201H110.201V21.757H108.201ZM108.201 29.611V31.611H122.175V29.611V27.611H108.201V29.611ZM122.175 29.611H120.175V36.088H122.175H124.175V29.611H122.175ZM122.175 36.088V34.088H108.201V36.088V38.088H122.175V36.088ZM108.201 36.088H106.201V45.523H108.201H110.201V36.088H108.201ZM108.201 45.523V47.523H125.235V45.523V43.523H108.201V45.523ZM125.235 45.523H123.235V52H125.235H127.235V45.523H125.235ZM125.235 52V50H101.265V52V54H125.235V52ZM151.951 10.741L151.024 12.5135L151.048 12.5259L151.072 12.5378L151.951 10.741ZM149.783 9.415L148.609 11.0342L148.619 11.0411L148.628 11.0478L149.783 9.415ZM147.871 8.1145L146.772 9.78591L146.789 9.79701L146.806 9.80777L147.871 8.1145ZM145.168 8.395L143.282 7.72936L143.276 7.7459L143.27 7.76254L145.168 8.395ZM145.219 10.537V12.537H147.792L147.157 10.043L145.219 10.537ZM140.935 10.537L138.988 10.9976L139.353 12.537H140.935V10.537ZM141.241 4.9015L139.44 4.03088L139.436 4.0393L141.241 4.9015ZM147.947 3.1675L147.021 4.93995L147.045 4.95243L147.069 4.96427L147.947 3.1675ZM150.115 4.468L148.941 6.08722L148.95 6.09408L148.96 6.10083L150.115 4.468ZM152.053 5.794L150.954 7.46541L150.971 7.47651L150.988 7.48727L152.053 5.794ZM154.756 5.5135L156.635 6.19698L156.639 6.18808L156.642 6.17914L154.756 5.5135ZM154.705 3.346V1.346H152.082L152.776 3.87543L154.705 3.346ZM158.989 3.346L160.931 2.86796L160.556 1.346H158.989V3.346ZM158.683 8.9815L156.882 8.11089L156.882 8.1109L158.683 8.9815ZM134.407 52H132.407V54H134.407V52ZM134.407 15.28V13.28H132.407V15.28H134.407ZM141.445 15.28L143.12 14.1876L142.528 13.28H141.445V15.28ZM157.408 39.76L155.732 40.8524L159.408 46.4887V39.76H157.408ZM157.408 15.28V13.28H155.408V15.28H157.408ZM164.446 15.28H166.446V13.28H164.446V15.28ZM164.446 52V54H166.446V52H164.446ZM157.408 52L155.732 53.0924L156.324 54H157.408V52ZM141.445 27.52L143.12 26.4276L139.445 20.7913V27.52H141.445ZM141.445 52V54H143.445V52H141.445ZM154.348 11.302V9.302C153.826 9.302 153.327 9.18758 152.829 8.94423L151.951 10.741L151.072 12.5378C152.104 13.0424 153.203 13.302 154.348 13.302V11.302ZM151.951 10.741L152.877 8.96855C152.209 8.61941 151.563 8.22417 150.938 7.78217L149.783 9.415L148.628 11.0478C149.397 11.5918 150.196 12.0806 151.024 12.5135L151.951 10.741ZM149.783 9.415L150.957 7.79578C150.248 7.2817 149.574 6.82268 148.935 6.42122L147.871 8.1145L146.806 9.80777C147.358 10.1543 147.958 10.5623 148.609 11.0342L149.783 9.415ZM147.871 8.1145L148.969 6.44309C148.186 5.92824 147.259 5.528 146.239 5.528V7.528V9.528C146.204 9.528 146.366 9.51876 146.772 9.78591L147.871 8.1145ZM146.239 7.528V5.528C145.579 5.528 144.904 5.72543 144.33 6.19026C143.783 6.63286 143.467 7.2051 143.282 7.72936L145.168 8.395L147.054 9.06064C147.073 9.0069 147.037 9.14564 146.847 9.29924C146.63 9.47506 146.388 9.528 146.239 9.528V7.528ZM145.168 8.395L143.27 7.76254C142.915 8.82908 143.01 9.97001 143.281 11.031L145.219 10.537L147.157 10.043C146.985 9.36998 147.047 9.08292 147.065 9.02746L145.168 8.395ZM145.219 10.537V8.537H140.935V10.537V12.537H145.219V10.537ZM140.935 10.537L142.881 10.0764C142.422 8.13869 142.57 6.7581 143.045 5.7637L141.241 4.9015L139.436 4.0393C138.449 6.1049 138.393 8.48131 138.988 10.9976L140.935 10.537ZM141.241 4.9015L143.041 5.7721C143.241 5.35959 143.498 5.10156 143.829 4.92439C144.186 4.73345 144.736 4.581 145.576 4.581V2.581V0.580998C144.273 0.580998 143.03 0.8153 141.942 1.39785C140.828 1.99418 139.989 2.8964 139.44 4.03089L141.241 4.9015ZM145.576 2.581V4.581C146.082 4.581 146.555 4.69637 147.021 4.93995L147.947 3.1675L148.874 1.39505C147.844 0.85663 146.736 0.580998 145.576 0.580998V2.581ZM147.947 3.1675L147.069 4.96427C147.732 5.2884 148.355 5.66273 148.941 6.08722L150.115 4.468L151.289 2.84878C150.514 2.28727 149.693 1.79459 148.826 1.37073L147.947 3.1675ZM150.115 4.468L148.96 6.10083C149.672 6.60452 150.337 7.05971 150.954 7.46541L152.053 5.794L153.151 4.12259C152.578 3.74629 151.952 3.31748 151.27 2.83517L150.115 4.468ZM152.053 5.794L150.988 7.48727C151.773 7.98057 152.687 8.355 153.685 8.355V6.355V4.355C153.696 4.355 153.522 4.35543 153.117 4.10072L152.053 5.794ZM153.685 6.355V8.355C154.329 8.355 154.996 8.16837 155.571 7.71726C156.121 7.28456 156.445 6.72017 156.635 6.19698L154.756 5.5135L152.876 4.83001C152.862 4.86782 152.906 4.72419 153.099 4.57199C153.316 4.40138 153.55 4.355 153.685 4.355V6.355ZM154.756 5.5135L156.642 6.17914C157.031 5.07525 156.931 3.90239 156.633 2.81656L154.705 3.346L152.776 3.87543C152.954 4.5236 152.888 4.79575 152.87 4.84786L154.756 5.5135ZM154.705 3.346V5.346H158.989V3.346V1.346H154.705V3.346ZM158.989 3.346L157.047 3.82403C157.516 5.72966 157.37 7.10252 156.882 8.11089L158.683 8.9815L160.483 9.8521C161.492 7.76648 161.55 5.38233 160.931 2.86796L158.989 3.346ZM158.683 8.9815L156.882 8.1109C156.683 8.5234 156.425 8.78143 156.094 8.95861C155.737 9.14955 155.187 9.302 154.348 9.302V11.302V13.302C155.65 13.302 156.894 13.0677 157.982 12.4851C159.096 11.8888 159.935 10.9866 160.483 9.8521L158.683 8.9815ZM134.407 52H136.407V15.28H134.407H132.407V52H134.407ZM134.407 15.28V17.28H141.445V15.28V13.28H134.407V15.28ZM141.445 15.28L139.769 16.3724L155.732 40.8524L157.408 39.76L159.083 38.6676L143.12 14.1876L141.445 15.28ZM157.408 39.76H159.408V15.28H157.408H155.408V39.76H157.408ZM157.408 15.28V17.28H164.446V15.28V13.28H157.408V15.28ZM164.446 15.28H162.446V52H164.446H166.446V15.28H164.446ZM164.446 52V50H157.408V52V54H164.446V52ZM157.408 52L159.083 50.9076L143.12 26.4276L141.445 27.52L139.769 28.6124L155.732 53.0924L157.408 52ZM141.445 27.52H139.445V52H141.445H143.445V27.52H141.445ZM141.445 52V50H134.407V52V54H141.445V52ZM180.868 50.368L179.836 52.0811L179.841 52.0839L180.868 50.368ZM174.723 43.6615L172.932 44.5517L172.936 44.5602L174.723 43.6615ZM174.723 23.6185L172.936 22.7198L172.932 22.7283L174.723 23.6185ZM180.868 16.912L179.841 15.196L179.836 15.199L180.868 16.912ZM199.866 16.912L198.834 18.6251L198.839 18.6279L199.866 16.912ZM206.011 23.6185L204.22 24.5087L204.225 24.5172L206.011 23.6185ZM206.011 43.6615L204.225 42.7628L204.221 42.7713L206.011 43.6615ZM199.866 50.368L198.839 48.652L198.834 48.655L199.866 50.368ZM190.38 46.237L190.351 48.2368L190.38 46.237ZM196.194 44.7325L197.308 46.3938L197.308 46.3938L196.194 44.7325ZM199.662 40.321L197.812 39.5612L197.809 39.5683L197.806 39.5754L199.662 40.321ZM199.662 27.01L197.811 27.7673L197.814 27.7745L197.817 27.7816L199.662 27.01ZM196.194 22.6495L197.308 20.9882L197.308 20.9882L196.194 22.6495ZM190.38 21.043L190.409 19.0432L190.409 19.0432L190.38 21.043ZM181.072 26.959L179.222 26.1992L179.22 26.2063L179.217 26.2134L181.072 26.959ZM181.072 40.27L179.221 41.0273L179.224 41.0345L179.227 41.0416L181.072 40.27ZM184.566 44.6305L183.452 46.2918L183.452 46.2918L184.566 44.6305ZM190.38 52.765V50.765C187.004 50.765 184.202 50.033 181.896 48.6521L180.868 50.368L179.841 52.0839C182.873 53.899 186.412 54.765 190.38 54.765V52.765ZM180.868 50.368L181.901 48.655C179.585 47.2595 177.792 45.3123 176.51 42.7628L174.723 43.6615L172.936 44.5602C174.544 47.7567 176.848 50.2805 179.836 52.081L180.868 50.368ZM174.723 43.6615L176.514 42.7713C175.247 40.222 174.581 37.1964 174.581 33.64H172.581H170.581C170.581 37.6996 171.343 41.355 172.932 44.5517L174.723 43.6615ZM172.581 33.64H174.581C174.581 30.0836 175.247 27.058 176.514 24.5087L174.723 23.6185L172.932 22.7283C171.343 25.925 170.581 29.5804 170.581 33.64H172.581ZM174.723 23.6185L176.51 24.5172C177.792 21.9677 179.585 20.0205 181.901 18.625L180.868 16.912L179.836 15.199C176.848 16.9995 174.544 19.5233 172.936 22.7198L174.723 23.6185ZM180.868 16.912L181.896 18.6279C184.202 17.247 187.004 16.515 190.38 16.515V14.515V12.515C186.412 12.515 182.873 13.381 179.841 15.196L180.868 16.912ZM190.38 14.515V16.515C193.756 16.515 196.547 17.2471 198.834 18.625L199.866 16.912L200.898 15.199C197.881 13.3809 194.348 12.515 190.38 12.515V14.515ZM199.866 16.912L198.839 18.6279C201.169 20.023 202.957 21.967 204.221 24.5087L206.011 23.6185L207.802 22.7283C206.21 19.524 203.901 16.997 200.893 15.196L199.866 16.912ZM206.011 23.6185L204.225 24.5172C205.506 27.0644 206.179 30.087 206.179 33.64H208.179H210.179C210.179 29.577 209.407 25.9186 207.798 22.7198L206.011 23.6185ZM208.179 33.64H206.179C206.179 37.193 205.506 40.2156 204.225 42.7628L206.011 43.6615L207.798 44.5602C209.407 41.3614 210.179 37.703 210.179 33.64H208.179ZM206.011 43.6615L204.221 42.7713C202.957 45.313 201.169 47.257 198.839 48.6521L199.866 50.368L200.893 52.0839C203.901 50.283 206.21 47.756 207.802 44.5517L206.011 43.6615ZM199.866 50.368L198.834 48.655C196.547 50.0329 193.756 50.765 190.38 50.765V52.765V54.765C194.348 54.765 197.881 53.8991 200.898 52.081L199.866 50.368ZM190.38 46.237L190.351 48.2368C192.984 48.2752 195.347 47.7082 197.308 46.3938L196.194 44.7325L195.08 43.0712C193.947 43.8308 192.434 44.2668 190.409 44.2372L190.38 46.237ZM196.194 44.7325L197.308 46.3938C199.222 45.1104 200.619 43.3039 201.518 41.0666L199.662 40.321L197.806 39.5754C197.175 41.1461 196.26 42.2806 195.08 43.0712L196.194 44.7325ZM199.662 40.321L201.512 41.0808C202.414 38.8856 202.835 36.3904 202.835 33.64H200.835H198.835C198.835 35.9896 198.474 37.9484 197.812 39.5612L199.662 40.321ZM200.835 33.64H202.835C202.835 30.891 202.414 28.407 201.507 26.2384L199.662 27.01L197.817 27.7816C198.474 29.353 198.835 31.289 198.835 33.64H200.835ZM199.662 27.01L201.513 26.2527C200.611 24.0475 199.213 22.2654 197.308 20.9882L196.194 22.6495L195.08 24.3108C196.269 25.1076 197.183 26.2325 197.811 27.7673L199.662 27.01ZM196.194 22.6495L197.308 20.9882C195.368 19.6877 193.028 19.0814 190.409 19.0432L190.38 21.043L190.351 23.0428C192.39 23.0726 193.926 23.5373 195.08 24.3108L196.194 22.6495ZM190.38 21.043L190.409 19.0432C187.776 19.0048 185.413 19.5718 183.452 20.8862L184.566 22.5475L185.68 24.2088C186.813 23.4492 188.326 23.0132 190.351 23.0428L190.38 21.043ZM184.566 22.5475L183.452 20.8862C181.542 22.167 180.139 23.9685 179.222 26.1992L181.072 26.959L182.923 27.7188C183.57 26.1415 184.496 25.002 185.68 24.2088L184.566 22.5475ZM181.072 26.959L179.217 26.2134C178.336 28.4043 177.925 30.8944 177.925 33.64H179.925H181.925C181.925 31.2856 182.279 29.3217 182.928 27.7046L181.072 26.959ZM179.925 33.64H177.925C177.925 36.3842 178.336 38.8629 179.221 41.0273L181.072 40.27L182.924 39.5127C182.279 37.9371 181.925 35.9958 181.925 33.64H179.925ZM181.072 40.27L179.227 41.0416C180.147 43.2401 181.551 45.0171 183.452 46.2918L184.566 44.6305L185.68 42.9692C184.487 42.1699 183.562 41.0399 182.918 39.4984L181.072 40.27ZM184.566 44.6305L183.452 46.2918C185.392 47.5923 187.732 48.1986 190.351 48.2368L190.38 46.237L190.409 44.2372C188.37 44.2074 186.834 43.7427 185.68 42.9692L184.566 44.6305Z" fill="black" mask="url(#path-1-outside-1_175_39)"/>
</g>
<defs>
<filter id="filter0_d_175_39" x="0.569946" y="0.581055" width="213.609" height="62.1841" filterUnits="userSpaceOnUse" color-interpolation-filters="sRGB">
<feFlood flood-opacity="0" result="BackgroundImageFix"/>
<feColorMatrix in="SourceAlpha" type="matrix" values="0 0 0 0 0 0 0 0 0 0 0 0 0 0 0 0 0 0 127 0" result="hardAlpha"/>
<feOffset dy="4"/>
<feGaussianBlur stdDeviation="2"/>
<feComposite in2="hardAlpha" operator="out"/>
<feColorMatrix type="matrix" values="0 0 0 0 0.533333 0 0 0 0 0.47451 0 0 0 0 0.807843 0 0 0 1 0"/>
<feBlend mode="normal" in2="BackgroundImageFix" result="effect1_dropShadow_175_39"/>
<feBlend mode="normal" in="SourceGraphic" in2="effect1_dropShadow_175_39" result="shape"/>
</filter>
</defs>
</svg>
