<svg width="169" height="62" viewBox="0 0 169 62" fill="none" xmlns="http://www.w3.org/2000/svg">
<path d="M0.7 61.14V17.25H10.295V51.64H26.635V17.25H36.135V51.64H52.57V17.25H62.07V52.59H53.52V61.14H35.185V52.59H27.585V61.14H0.7ZM78.3462 61.14V52.59H69.7012V25.895H78.3462V17.25H105.136V25.895H113.876V35.3H104.186V26.75H79.2962V34.35H96.5862V43.945H79.2962V51.64H104.186V42.9H113.876V52.495H105.136V61.14H78.3462ZM133.06 61.14V52.59H124.415V0.054996H134.01V17.25H159.85V25.895H168.59V52.59H159.85V61.14H133.06ZM134.01 51.64H158.9V26.75H134.01V51.64Z" fill="#FF5900"/>
</svg>
