<svg width="466" height="62" viewBox="0 0 466 62" fill="none" xmlns="http://www.w3.org/2000/svg">
<path d="M9.345 61.14V52.59H0.7V25.895H9.345V17.25H35.28V0.054996H44.875V52.59H36.135V61.14H9.345ZM10.295 51.64H35.185V26.75H10.295V51.64ZM62.2036 61.14V52.59H53.5586V25.895H62.2036V17.25H88.9936V25.895H97.7336V35.3H88.0436V26.75H63.1536V34.35H80.4436V43.945H63.1536V51.64H88.0436V42.9H97.7336V52.495H88.9936V61.14H62.2036ZM108.273 61.14V51.64H142.758V43.945H116.918V35.3H108.273V25.895H116.918V17.25H152.448V26.75H117.868V34.35H143.708V42.995H152.448V52.59H143.708V61.14H108.273ZM169.776 61.14V52.59H161.131V25.895H169.776V17.25H196.566V25.895H205.306V51.64H213.951V61.14H204.356V52.59H196.566V61.14H169.776ZM170.726 51.64H195.616V26.75H170.726V51.64ZM224.473 61.14V25.895H233.118V17.25H259.908V25.895H268.648V35.3H258.958V26.75H234.068V61.14H224.473ZM276.311 61.14V25.895H284.956V17.25H311.746V25.895H320.486V35.3H310.796V26.75H285.906V61.14H276.311ZM336.794 61.14V52.59H328.149V25.895H336.794V17.25H363.584V25.895H372.324V52.59H363.584V61.14H336.794ZM337.744 51.64H362.634V26.75H337.744V51.64ZM382.863 61.14V0.054996H392.458V61.14H382.863ZM402.973 61.14V0.054996H412.568V61.14H402.973ZM429.872 61.14V52.59H421.227V25.895H429.872V17.25H456.662V25.895H465.402V52.59H456.662V61.14H429.872ZM430.822 51.64H455.712V26.75H430.822V51.64Z" fill="#FF5900"/>
</svg>
