<?xml version="1.0" encoding="UTF-8"?>
<svg id="Capa_2" data-name="Capa 2" xmlns="http://www.w3.org/2000/svg" viewBox="0 0 197.5 52.24">
  <defs>
    <style>
      .cls-1 {
        fill: #ed6936;
        stroke-width: 0px;
      }
    </style>
  </defs>
  <g id="Capa_1-2" data-name="Capa 1">
    <g>
      <path class="cls-1" d="M11.3,40.02c-2.14,0-4.06-.48-5.76-1.44-1.7-.96-3.05-2.44-4.05-4.45-1-2.01-1.49-4.59-1.49-7.74s.56-5.82,1.68-7.9c1.12-2.08,2.61-3.64,4.45-4.67,1.85-1.03,3.86-1.55,6.03-1.55,1.27,0,2.48.13,3.64.38,1.16.25,2.19.63,3.1,1.14v-7.06c0-.76-.12-1.32-.35-1.68-.24-.36-.73-.62-1.49-.76l-1.03-.22v-.54l9.88-2.39.6.49-.22,7.6v26.55c0,.72.13,1.31.38,1.77.25.45.72.77,1.41.95l.49.16v.54l-9.29.6-.49-1.95c-.98.65-2.09,1.18-3.34,1.57s-2.63.6-4.15.6ZM14.45,38.01c1.52,0,2.91-.45,4.18-1.36V15.1c-1.34-.87-2.72-1.3-4.13-1.3-1.74,0-3.22,1-4.45,3.01-1.23,2.01-1.85,5.17-1.85,9.48s.58,7.34,1.74,9.1c1.16,1.76,2.66,2.63,4.51,2.63Z"/>
      <path class="cls-1" d="M31.06,39.21v-.54l.76-.22c.72-.22,1.22-.54,1.49-.98s.41-1.01.41-1.74v-17c0-.76-.14-1.33-.41-1.71-.27-.38-.77-.64-1.49-.79l-.76-.16v-.54l9.94-3.2.54.54-.16,7.71v15.21c0,.72.14,1.3.41,1.74.27.43.75.76,1.44.98l.54.16v.54h-12.71ZM37.47,9.45c-1.23,0-2.27-.39-3.12-1.17-.85-.78-1.28-1.77-1.28-2.96s.42-2.23,1.28-2.99c.85-.76,1.89-1.14,3.12-1.14s2.26.38,3.1,1.14c.83.76,1.25,1.76,1.25,2.99s-.42,2.18-1.25,2.96c-.83.78-1.87,1.17-3.1,1.17Z"/>
      <path class="cls-1" d="M55.55,40.02c-1.77,0-3.37-.21-4.78-.62-1.41-.42-2.72-.93-3.91-1.55l.05-6.46h.54l1.85,3.26c.8,1.45,1.67,2.52,2.63,3.23.96.71,2.18,1.06,3.67,1.06,1.74,0,3.14-.39,4.21-1.17,1.07-.78,1.6-1.82,1.6-3.12,0-1.19-.38-2.17-1.14-2.93s-2.17-1.45-4.24-2.06l-2.28-.71c-2.21-.65-3.95-1.66-5.21-3.04-1.27-1.38-1.9-3.06-1.9-5.05,0-2.39.94-4.42,2.82-6.08,1.88-1.67,4.58-2.5,8.09-2.5,1.41,0,2.74.15,3.99.46,1.25.31,2.45.77,3.61,1.38l-.33,5.87h-.54l-1.9-3.37c-.69-1.19-1.37-2.04-2.04-2.52-.67-.49-1.67-.73-3.01-.73-1.23,0-2.39.34-3.48,1.03-1.09.69-1.63,1.67-1.63,2.93s.46,2.21,1.38,2.93c.92.72,2.29,1.39,4.1,2.01l2.44.71c2.61.8,4.47,1.89,5.59,3.29,1.12,1.39,1.68,3.07,1.68,5.02,0,2.64-1.04,4.76-3.12,6.35-2.08,1.59-5.01,2.39-8.77,2.39Z"/>
      <path class="cls-1" d="M83.46,12.27c2.35,0,4.36.48,6.03,1.44,1.67.96,2.94,2.26,3.83,3.91.89,1.65,1.33,3.52,1.33,5.62,0,.4-.02.81-.05,1.22-.04.42-.11.79-.22,1.11h-16.18c.04,3.91.73,6.73,2.09,8.44,1.36,1.72,3.38,2.58,6.06,2.58,1.81,0,3.28-.29,4.4-.87,1.12-.58,2.17-1.43,3.15-2.55l.54.49c-1.12,1.99-2.62,3.55-4.48,4.67-1.87,1.12-4.1,1.68-6.71,1.68s-4.85-.55-6.84-1.66c-1.99-1.1-3.55-2.69-4.67-4.75-1.12-2.06-1.68-4.53-1.68-7.39s.65-5.49,1.96-7.58c1.3-2.08,2.98-3.67,5.02-4.75,2.04-1.09,4.19-1.63,6.44-1.63ZM83.3,13.36c-1.05,0-1.95.32-2.69.95-.74.63-1.32,1.76-1.74,3.37-.42,1.61-.64,3.88-.68,6.82h9.29c.36-3.95.22-6.79-.43-8.53-.65-1.74-1.9-2.61-3.75-2.61Z"/>
      <path class="cls-1" d="M97.37,39.21v-.54l.76-.22c1.27-.36,1.9-1.25,1.9-2.66v-17c0-.8-.13-1.38-.38-1.77-.25-.38-.74-.64-1.47-.79l-.81-.22v-.54l9.29-3.15.54.54.43,3.26c1.27-1.12,2.7-2.04,4.29-2.77,1.59-.72,3.17-1.09,4.72-1.09,2.39,0,4.23.65,5.51,1.96,1.28,1.3,1.93,3.29,1.93,5.97v15.64c0,1.41.69,2.3,2.06,2.66l.49.16v.54h-12.82v-.54l.71-.22c1.27-.4,1.9-1.28,1.9-2.66v-17.32c0-2.32-1.16-3.48-3.48-3.48-1.59,0-3.33.8-5.21,2.39v18.46c0,1.41.63,2.3,1.9,2.66l.49.16v.54h-12.76ZM103.34,7.44c.29-2.35.91-4.18,1.87-5.48.96-1.3,2.16-1.96,3.61-1.96.94,0,1.71.15,2.31.46.6.31,1.17.7,1.71,1.17.58.54,1.15,1.06,1.71,1.55.56.49,1.19.73,1.87.73.98,0,1.82-.33,2.53-.98.71-.65,1.28-1.54,1.71-2.66l.81.27c-.29,2.32-.91,4.15-1.85,5.48-.94,1.34-2.14,2.01-3.58,2.01-.91,0-1.68-.15-2.34-.46-.65-.31-1.23-.7-1.74-1.17-.54-.51-1.1-1-1.68-1.49-.58-.49-1.23-.73-1.96-.73-.98,0-1.81.32-2.5.95-.69.63-1.25,1.49-1.68,2.58l-.81-.27Z"/>
      <path class="cls-1" d="M142.49,40.02c-2.75,0-5.14-.57-7.17-1.71-2.03-1.14-3.59-2.76-4.7-4.86-1.1-2.1-1.66-4.56-1.66-7.39s.59-5.27,1.77-7.33c1.18-2.06,2.79-3.66,4.83-4.78,2.04-1.12,4.35-1.68,6.92-1.68s4.87.55,6.9,1.66c2.03,1.1,3.63,2.69,4.81,4.75,1.18,2.06,1.76,4.53,1.76,7.39s-.55,5.33-1.66,7.41c-1.1,2.08-2.66,3.69-4.67,4.83-2.01,1.14-4.39,1.71-7.14,1.71ZM142.49,38.94c1.27,0,2.28-.36,3.04-1.09.76-.72,1.31-2.01,1.66-3.86.34-1.85.52-4.45.52-7.82s-.17-6.03-.52-7.87c-.34-1.85-.9-3.13-1.66-3.86-.76-.72-1.77-1.09-3.04-1.09s-2.29.36-3.07,1.09c-.78.72-1.34,2.01-1.68,3.86-.34,1.85-.52,4.47-.52,7.87s.17,5.97.52,7.82c.34,1.85.9,3.13,1.68,3.86.78.72,1.8,1.09,3.07,1.09Z"/>
      <path class="cls-1" d="M175.18,52.24c-1.45,0-2.6-.36-3.45-1.09-.85-.72-1.28-1.65-1.28-2.77,0-1.01.36-1.83,1.09-2.44.72-.62,1.54-.92,2.44-.92s1.67.19,2.28.57c.62.38,1.16.93,1.63,1.66l.38.43c.8,1.09,1.59,1.07,2.39-.05.33-.54.7-1.26,1.11-2.15.42-.89.9-2.07,1.44-3.56l-10.54-25.2c-.25-.69-.53-1.24-.81-1.66-.29-.42-.76-.77-1.41-1.06l-.98-.38v-.54h13.52v.49l-1.09.43c-.8.25-1.2.66-1.22,1.22-.02.56.12,1.26.41,2.09l5.65,14.66,5.38-14.83c.29-.83.4-1.53.33-2.09-.07-.56-.53-.95-1.36-1.17l-1.14-.27v-.54h7.55v.54l-1.2.38c-.83.25-1.41.62-1.74,1.09-.33.47-.63,1.12-.92,1.96l-8.74,23.84c-1.41,3.8-2.82,6.64-4.24,8.53-1.41,1.88-3.24,2.82-5.48,2.82Z"/>
    </g>
  </g>
</svg>