<?xml version="1.0" encoding="UTF-8"?>
<svg xmlns="http://www.w3.org/2000/svg" viewBox="0 0 537.18 121.78">
  <defs>
    <style>
      .cls-1 {
        fill: #535da7;
      }

      .cls-1, .cls-2 {
        stroke-width: 0px;
      }

      .cls-2 {
        fill: #f6a117;
      }

      .cls-3 {
        mix-blend-mode: screen;
      }

      .cls-4 {
        opacity: .77;
      }

      .cls-5 {
        isolation: isolate;
      }
    </style>
  </defs>
  <g class="cls-5">
    <g id="Capa_2" data-name="Capa 2">
      <g id="Capa_1-2" data-name="Capa 1">
        <g>
          <g class="cls-4">
            <g>
              <path class="cls-1" d="M0,119.36V3.21h49.04c1.13,0,2.65.04,4.56.12,1.91.08,3.62.26,5.12.52,6.94,1.08,12.62,3.36,17.06,6.86,4.44,3.5,7.7,7.89,9.8,13.19,2.1,5.3,3.15,11.2,3.15,17.71s-1.06,12.41-3.19,17.71c-2.12,5.3-5.4,9.69-9.84,13.19-4.44,3.5-10.1,5.78-16.98,6.86-1.51.22-3.23.38-5.16.48-1.94.11-3.44.16-4.52.16h-27.1v39.36H0ZM21.94,59.51h26.13c1.13,0,2.37-.05,3.71-.16,1.34-.11,2.58-.32,3.71-.65,2.96-.81,5.24-2.16,6.86-4.07,1.61-1.91,2.73-4.03,3.35-6.37.62-2.34.93-4.56.93-6.65s-.31-4.32-.93-6.65c-.62-2.34-1.73-4.46-3.35-6.37-1.61-1.91-3.9-3.27-6.86-4.07-1.13-.32-2.37-.54-3.71-.65-1.34-.11-2.58-.16-3.71-.16h-26.13v35.81Z"/>
              <path class="cls-1" d="M65.52,119.36L101.01,3.21h32.75l35.49,116.15h-22.58l-31.62-102.44h4.19l-31.13,102.44h-22.58ZM86.82,95.16v-20.49h61.3v20.49h-61.3Z"/>
              <path class="cls-1" d="M202.57,121.78c-9.36,0-17.58-1.9-24.68-5.69-7.1-3.79-12.64-9.13-16.62-16.01-3.98-6.88-5.97-14.97-5.97-24.28V3.37l22.26-.16v72.43c0,3.82.65,7.29,1.94,10.41,1.29,3.12,3.08,5.81,5.36,8.07,2.29,2.26,4.95,3.99,7.99,5.2,3.04,1.21,6.28,1.82,9.72,1.82s6.84-.62,9.88-1.86c3.04-1.24,5.69-2.99,7.95-5.24s4.02-4.95,5.28-8.07c1.26-3.12,1.9-6.56,1.9-10.32V3.21h22.26v72.59c0,9.3-1.99,17.4-5.97,24.28-3.98,6.88-9.52,12.22-16.62,16.01-7.1,3.79-15.33,5.69-24.68,5.69Z"/>
              <path class="cls-1" d="M249.31,119.36V3.21h21.94v95.66h50.01v20.49h-71.95Z"/>
              <path class="cls-1" d="M298.27,119.36L333.76,3.21h32.75l35.49,116.15h-22.59l-31.62-102.44h4.19l-31.13,102.44h-22.58ZM319.56,95.16v-20.49h61.3v20.49h-61.3Z"/>
              <path class="cls-1" d="M381.36,119.36V3.21h21.94v95.66h50.01v20.49h-71.95Z"/>
              <path class="cls-1" d="M430.33,119.36L465.82,3.21h32.75l35.49,116.15h-22.59l-31.62-102.44h4.19l-31.13,102.44h-22.58ZM451.62,95.16v-20.49h61.3v20.49h-61.3Z"/>
            </g>
          </g>
          <g class="cls-3">
            <path class="cls-2" d="M160.25,40.02c-2.14,0-4.06-.48-5.76-1.44-1.7-.96-3.05-2.44-4.05-4.45-1-2.01-1.49-4.59-1.49-7.74s.56-5.82,1.68-7.9c1.12-2.08,2.61-3.64,4.45-4.67,1.85-1.03,3.86-1.55,6.03-1.55,1.27,0,2.48.13,3.64.38,1.16.25,2.19.63,3.1,1.14v-7.06c0-.76-.12-1.32-.35-1.68-.24-.36-.73-.62-1.49-.76l-1.03-.22v-.54l9.88-2.39.6.49-.22,7.6v26.55c0,.72.13,1.31.38,1.76.25.45.72.77,1.41.95l.49.16v.54l-9.29.6-.49-1.96c-.98.65-2.09,1.18-3.34,1.58-1.25.4-2.63.6-4.15.6ZM163.4,38.01c1.52,0,2.91-.45,4.18-1.36V15.1c-1.34-.87-2.72-1.3-4.13-1.3-1.74,0-3.22,1-4.45,3.01-1.23,2.01-1.85,5.17-1.85,9.48s.58,7.34,1.74,9.1c1.16,1.76,2.66,2.63,4.51,2.63Z"/>
            <path class="cls-2" d="M180.02,39.21v-.54l.76-.22c.72-.22,1.22-.54,1.49-.98s.41-1.01.41-1.74v-17c0-.76-.14-1.33-.41-1.71-.27-.38-.77-.64-1.49-.79l-.76-.16v-.54l9.94-3.2.54.54-.16,7.71v15.21c0,.72.14,1.3.41,1.74.27.43.75.76,1.44.98l.54.16v.54h-12.71ZM186.43,9.45c-1.23,0-2.27-.39-3.12-1.17-.85-.78-1.28-1.77-1.28-2.96s.42-2.23,1.28-2.99c.85-.76,1.89-1.14,3.12-1.14s2.26.38,3.1,1.14c.83.76,1.25,1.76,1.25,2.99s-.42,2.18-1.25,2.96c-.83.78-1.87,1.17-3.1,1.17Z"/>
            <path class="cls-2" d="M204.51,40.02c-1.77,0-3.37-.21-4.78-.62-1.41-.42-2.72-.93-3.91-1.55l.05-6.46h.54l1.85,3.26c.8,1.45,1.67,2.53,2.63,3.23.96.71,2.18,1.06,3.67,1.06,1.74,0,3.14-.39,4.21-1.17,1.07-.78,1.6-1.82,1.6-3.12,0-1.19-.38-2.17-1.14-2.93-.76-.76-2.17-1.45-4.24-2.06l-2.28-.71c-2.21-.65-3.95-1.66-5.21-3.04-1.27-1.38-1.9-3.06-1.9-5.05,0-2.39.94-4.42,2.82-6.08,1.88-1.67,4.58-2.5,8.09-2.5,1.41,0,2.74.15,3.99.46,1.25.31,2.45.77,3.61,1.38l-.33,5.87h-.54l-1.9-3.37c-.69-1.19-1.37-2.04-2.04-2.52-.67-.49-1.67-.73-3.01-.73-1.23,0-2.39.34-3.48,1.03-1.09.69-1.63,1.67-1.63,2.93s.46,2.21,1.38,2.93c.92.72,2.29,1.39,4.1,2.01l2.44.71c2.61.8,4.47,1.89,5.59,3.29,1.12,1.39,1.68,3.07,1.68,5.02,0,2.64-1.04,4.76-3.12,6.35-2.08,1.59-5.01,2.39-8.77,2.39Z"/>
            <path class="cls-2" d="M232.42,12.27c2.35,0,4.36.48,6.03,1.44,1.67.96,2.94,2.26,3.83,3.91.89,1.65,1.33,3.52,1.33,5.62,0,.4-.02.81-.05,1.22-.04.42-.11.79-.22,1.11h-16.18c.04,3.91.73,6.72,2.09,8.44,1.36,1.72,3.38,2.58,6.06,2.58,1.81,0,3.28-.29,4.4-.87,1.12-.58,2.17-1.43,3.15-2.55l.54.49c-1.12,1.99-2.62,3.55-4.48,4.67-1.87,1.12-4.1,1.68-6.71,1.68s-4.85-.55-6.84-1.66c-1.99-1.1-3.55-2.69-4.67-4.75-1.12-2.06-1.68-4.53-1.68-7.39s.65-5.49,1.96-7.58,2.98-3.67,5.02-4.75c2.04-1.09,4.19-1.63,6.44-1.63ZM232.26,13.36c-1.05,0-1.95.32-2.69.95-.74.63-1.32,1.76-1.74,3.37-.42,1.61-.64,3.88-.68,6.82h9.29c.36-3.95.22-6.79-.43-8.53-.65-1.74-1.9-2.61-3.75-2.61Z"/>
            <path class="cls-2" d="M246.32,39.21v-.54l.76-.22c1.27-.36,1.9-1.25,1.9-2.66v-17c0-.8-.13-1.38-.38-1.77-.25-.38-.74-.64-1.47-.79l-.81-.22v-.54l9.29-3.15.54.54.43,3.26c1.27-1.12,2.7-2.04,4.29-2.77,1.59-.72,3.17-1.09,4.72-1.09,2.39,0,4.23.65,5.51,1.96,1.28,1.3,1.93,3.29,1.93,5.97v15.64c0,1.41.69,2.3,2.06,2.66l.49.16v.54h-12.82v-.54l.71-.22c1.27-.4,1.9-1.29,1.9-2.66v-17.32c0-2.32-1.16-3.48-3.48-3.48-1.59,0-3.33.8-5.21,2.39v18.46c0,1.41.63,2.3,1.9,2.66l.49.16v.54h-12.76ZM252.3,7.44c.29-2.35.91-4.18,1.87-5.49.96-1.3,2.16-1.96,3.61-1.96.94,0,1.71.15,2.31.46.6.31,1.17.7,1.71,1.17.58.54,1.15,1.06,1.71,1.55.56.49,1.19.73,1.87.73.98,0,1.82-.33,2.53-.98s1.28-1.54,1.71-2.66l.81.27c-.29,2.32-.91,4.15-1.85,5.49-.94,1.34-2.14,2.01-3.58,2.01-.91,0-1.68-.15-2.34-.46-.65-.31-1.23-.7-1.74-1.17-.54-.51-1.1-1-1.68-1.49-.58-.49-1.23-.73-1.96-.73-.98,0-1.81.32-2.5.95-.69.63-1.25,1.49-1.68,2.58l-.81-.27Z"/>
            <path class="cls-2" d="M291.45,40.02c-2.75,0-5.14-.57-7.17-1.71-2.03-1.14-3.59-2.76-4.7-4.86-1.1-2.1-1.66-4.56-1.66-7.39s.59-5.27,1.76-7.33c1.18-2.06,2.79-3.66,4.83-4.78,2.04-1.12,4.35-1.68,6.92-1.68s4.87.55,6.9,1.66,3.63,2.69,4.81,4.75c1.18,2.06,1.76,4.53,1.76,7.39s-.55,5.33-1.66,7.41c-1.1,2.08-2.66,3.69-4.67,4.83-2.01,1.14-4.39,1.71-7.14,1.71ZM291.45,38.94c1.27,0,2.28-.36,3.04-1.09.76-.72,1.31-2.01,1.66-3.86s.52-4.45.52-7.82-.17-6.03-.52-7.87c-.34-1.85-.9-3.13-1.66-3.86-.76-.72-1.77-1.09-3.04-1.09s-2.29.36-3.07,1.09c-.78.72-1.34,2.01-1.68,3.86-.34,1.85-.52,4.47-.52,7.87s.17,5.97.52,7.82c.34,1.85.9,3.13,1.68,3.86.78.72,1.8,1.09,3.07,1.09Z"/>
            <path class="cls-2" d="M324.14,52.24c-1.45,0-2.6-.36-3.45-1.09-.85-.72-1.28-1.65-1.28-2.77,0-1.01.36-1.83,1.09-2.44.72-.62,1.54-.92,2.44-.92s1.67.19,2.28.57,1.16.93,1.63,1.66l.38.43c.8,1.09,1.59,1.07,2.39-.05.33-.54.7-1.26,1.11-2.14.42-.89.9-2.07,1.44-3.56l-10.54-25.2c-.25-.69-.52-1.24-.81-1.66s-.76-.77-1.41-1.06l-.98-.38v-.54h13.52v.49l-1.09.43c-.8.25-1.2.66-1.22,1.22-.02.56.12,1.26.41,2.09l5.65,14.66,5.38-14.83c.29-.83.4-1.53.33-2.09-.07-.56-.53-.95-1.36-1.17l-1.14-.27v-.54h7.55v.54l-1.19.38c-.83.25-1.41.62-1.74,1.09-.33.47-.63,1.12-.92,1.96l-8.74,23.84c-1.41,3.8-2.82,6.64-4.24,8.53-1.41,1.88-3.24,2.82-5.49,2.82Z"/>
          </g>
          <g class="cls-3">
            <path class="cls-2" d="M254.61,85.39c-2.14,0-4.06-.48-5.76-1.44-1.7-.96-3.05-2.44-4.05-4.45-1-2.01-1.49-4.59-1.49-7.74s.56-5.82,1.68-7.9c1.12-2.08,2.61-3.64,4.45-4.67,1.85-1.03,3.86-1.55,6.03-1.55,1.27,0,2.48.13,3.64.38,1.16.25,2.19.63,3.1,1.14v-7.06c0-.76-.12-1.32-.35-1.68-.24-.36-.73-.62-1.49-.76l-1.03-.22v-.54l9.88-2.39.6.49-.22,7.6v26.55c0,.72.13,1.31.38,1.76.25.45.72.77,1.41.95l.49.16v.54l-9.29.6-.49-1.96c-.98.65-2.09,1.18-3.34,1.57-1.25.4-2.63.6-4.15.6ZM257.76,83.38c1.52,0,2.91-.45,4.18-1.36v-21.56c-1.34-.87-2.72-1.3-4.13-1.3-1.74,0-3.22,1-4.45,3.01-1.23,2.01-1.85,5.17-1.85,9.48s.58,7.34,1.74,9.1c1.16,1.76,2.66,2.63,4.51,2.63Z"/>
            <path class="cls-2" d="M287.9,57.64c2.35,0,4.36.48,6.03,1.44,1.67.96,2.94,2.26,3.83,3.91.89,1.65,1.33,3.52,1.33,5.62,0,.4-.02.81-.05,1.22-.04.42-.11.79-.22,1.11h-16.18c.04,3.91.73,6.73,2.09,8.44,1.36,1.72,3.38,2.58,6.06,2.58,1.81,0,3.28-.29,4.4-.87,1.12-.58,2.17-1.43,3.15-2.55l.54.49c-1.12,1.99-2.62,3.55-4.48,4.67-1.87,1.12-4.1,1.68-6.71,1.68s-4.85-.55-6.84-1.66-3.55-2.69-4.67-4.75-1.68-4.52-1.68-7.38.65-5.49,1.96-7.58c1.3-2.08,2.98-3.67,5.02-4.75,2.04-1.08,4.19-1.63,6.43-1.63ZM287.74,58.73c-1.05,0-1.95.32-2.69.95-.74.63-1.32,1.76-1.74,3.37-.42,1.61-.64,3.88-.68,6.82h9.29c.36-3.95.22-6.79-.43-8.53-.65-1.74-1.9-2.61-3.75-2.61Z"/>
            <path class="cls-2" d="M311.2,85.39c-1.77,0-3.37-.21-4.78-.62-1.41-.42-2.71-.93-3.91-1.55l.05-6.46h.54l1.85,3.26c.8,1.45,1.67,2.53,2.63,3.23.96.71,2.18,1.06,3.67,1.06,1.74,0,3.14-.39,4.21-1.17,1.07-.78,1.6-1.82,1.6-3.12,0-1.19-.38-2.17-1.14-2.93s-2.17-1.45-4.24-2.06l-2.28-.71c-2.21-.65-3.95-1.67-5.21-3.04-1.27-1.38-1.9-3.06-1.9-5.05,0-2.39.94-4.42,2.82-6.08,1.88-1.66,4.58-2.5,8.09-2.5,1.41,0,2.74.15,3.99.46,1.25.31,2.45.77,3.61,1.38l-.33,5.87h-.54l-1.9-3.37c-.69-1.19-1.37-2.04-2.04-2.52-.67-.49-1.67-.73-3.01-.73-1.23,0-2.39.34-3.48,1.03-1.09.69-1.63,1.67-1.63,2.93s.46,2.21,1.38,2.93c.92.72,2.29,1.39,4.1,2.01l2.44.71c2.61.8,4.47,1.89,5.59,3.29,1.12,1.39,1.68,3.07,1.68,5.02,0,2.64-1.04,4.76-3.12,6.35s-5,2.39-8.77,2.39Z"/>
            <path class="cls-2" d="M333.08,85.39c-2.1,0-3.87-.6-5.29-1.79-1.43-1.19-2.14-2.91-2.14-5.16,0-1.7.87-3.27,2.61-4.7,1.74-1.43,4.47-2.51,8.2-3.23.58-.11,1.23-.23,1.96-.35.72-.13,1.48-.26,2.28-.41v-4.29c0-2.46-.3-4.19-.9-5.19-.6-1-1.53-1.49-2.8-1.49-.87,0-1.56.28-2.06.84-.51.56-.83,1.53-.98,2.91l-.11.6c-.07,1.56-.45,2.7-1.14,3.42-.69.72-1.54,1.09-2.55,1.09-.94,0-1.72-.29-2.33-.87-.62-.58-.92-1.36-.92-2.34,0-1.48.52-2.73,1.55-3.75,1.03-1.01,2.4-1.77,4.1-2.28,1.7-.51,3.55-.76,5.54-.76,3.22,0,5.71.79,7.47,2.36,1.76,1.58,2.63,4.14,2.63,7.68v12c0,1.63.76,2.44,2.28,2.44h1.19l.49.43c-.69.87-1.44,1.54-2.25,2.01s-1.96.71-3.45.71c-1.59,0-2.85-.37-3.77-1.11s-1.53-1.73-1.82-2.96c-1.09,1.16-2.2,2.15-3.34,2.96s-2.62,1.22-4.43,1.22ZM336.39,82.08c.72,0,1.4-.17,2.04-.52.63-.34,1.38-.88,2.25-1.6v-9.12c-.36.07-.72.15-1.09.22-.36.07-.78.14-1.25.22-1.67.43-3,1.17-3.99,2.2-1,1.03-1.49,2.42-1.49,4.15,0,1.49.34,2.6,1.03,3.34.69.74,1.52,1.11,2.5,1.11Z"/>
            <path class="cls-2" d="M353.17,84.58v-.54l.82-.22c.72-.22,1.22-.54,1.49-.98.27-.43.41-1,.41-1.68v-17c0-.8-.14-1.38-.41-1.76s-.77-.64-1.49-.79l-.82-.22v-.54l9.34-3.15.54.54.49,4.67v.43c.51-1.01,1.17-1.95,1.98-2.8.81-.85,1.72-1.55,2.72-2.09,1-.54,1.98-.81,2.96-.81,1.38,0,2.42.38,3.15,1.14s1.09,1.72,1.09,2.88c0,1.23-.35,2.18-1.06,2.85s-1.55,1-2.52,1c-1.52,0-2.86-.76-4.02-2.28l-.11-.11c-.36-.51-.78-.79-1.25-.84s-.91.17-1.3.68c-.36.33-.66.72-.9,1.17-.24.45-.46.97-.68,1.55v15.15c0,1.45.63,2.35,1.9,2.71l1.74.49v.54h-14.07Z"/>
            <path class="cls-2" d="M377.12,84.58v-.54l.82-.22c.72-.22,1.22-.54,1.49-.98.27-.43.41-1,.41-1.68v-17c0-.8-.14-1.38-.41-1.76s-.77-.64-1.49-.79l-.82-.22v-.54l9.34-3.15.54.54.49,4.67v.43c.51-1.01,1.17-1.95,1.98-2.8.81-.85,1.72-1.55,2.72-2.09,1-.54,1.98-.81,2.96-.81,1.38,0,2.42.38,3.15,1.14s1.09,1.72,1.09,2.88c0,1.23-.35,2.18-1.06,2.85s-1.55,1-2.52,1c-1.52,0-2.86-.76-4.02-2.28l-.11-.11c-.36-.51-.78-.79-1.25-.84s-.91.17-1.3.68c-.36.33-.66.72-.9,1.17-.24.45-.46.97-.68,1.55v15.15c0,1.45.63,2.35,1.9,2.71l1.74.49v.54h-14.07Z"/>
            <path class="cls-2" d="M413.94,85.39c-2.75,0-5.14-.57-7.17-1.71-2.03-1.14-3.59-2.76-4.7-4.86s-1.66-4.56-1.66-7.39.59-5.27,1.77-7.33c1.18-2.06,2.79-3.66,4.83-4.78,2.04-1.12,4.35-1.68,6.92-1.68s4.87.55,6.9,1.66c2.03,1.11,3.63,2.69,4.81,4.75,1.18,2.06,1.77,4.53,1.77,7.39s-.55,5.33-1.66,7.41c-1.1,2.08-2.66,3.69-4.67,4.83-2.01,1.14-4.39,1.71-7.14,1.71ZM413.94,84.3c1.27,0,2.28-.36,3.04-1.09.76-.72,1.31-2.01,1.66-3.86.34-1.85.52-4.45.52-7.82s-.17-6.03-.52-7.87c-.34-1.85-.9-3.13-1.66-3.86-.76-.72-1.77-1.09-3.04-1.09s-2.29.36-3.07,1.09c-.78.72-1.34,2.01-1.68,3.86-.34,1.85-.52,4.47-.52,7.87s.17,5.97.52,7.82c.34,1.85.9,3.13,1.68,3.86.78.72,1.8,1.09,3.07,1.09Z"/>
            <path class="cls-2" d="M429.74,84.58v-.54l.65-.22c1.3-.43,1.96-1.34,1.96-2.71v-29.05c0-.72-.14-1.28-.43-1.66s-.8-.66-1.52-.84l-.71-.16v-.54l9.94-2.33.65.49-.22,7.6v18.57c0,1.34,0,2.67.03,3.99s.03,2.63.03,3.94c0,.72.14,1.31.43,1.76.29.45.78.79,1.47,1l.71.16v.54h-12.98Z"/>
            <path class="cls-2" d="M445.27,84.58v-.54l.65-.22c1.3-.43,1.96-1.34,1.96-2.71v-29.05c0-.72-.14-1.28-.43-1.66s-.8-.66-1.52-.84l-.71-.16v-.54l9.94-2.33.65.49-.22,7.6v18.57c0,1.34,0,2.67.03,3.99s.03,2.63.03,3.94c0,.72.14,1.31.43,1.76.29.45.78.79,1.47,1l.71.16v.54h-12.98Z"/>
            <path class="cls-2" d="M474.38,85.39c-2.75,0-5.14-.57-7.17-1.71-2.03-1.14-3.59-2.76-4.7-4.86-1.11-2.1-1.66-4.56-1.66-7.39s.59-5.27,1.76-7.33c1.18-2.06,2.79-3.66,4.83-4.78,2.04-1.12,4.35-1.68,6.92-1.68s4.87.55,6.9,1.66c2.03,1.11,3.63,2.69,4.81,4.75s1.77,4.53,1.77,7.39-.55,5.33-1.66,7.41c-1.11,2.08-2.66,3.69-4.67,4.83-2.01,1.14-4.39,1.71-7.14,1.71ZM474.38,84.3c1.27,0,2.28-.36,3.04-1.09.76-.72,1.31-2.01,1.66-3.86.34-1.85.52-4.45.52-7.82s-.17-6.03-.52-7.87c-.34-1.85-.9-3.13-1.66-3.86-.76-.72-1.77-1.09-3.04-1.09s-2.29.36-3.07,1.09c-.78.72-1.34,2.01-1.68,3.86s-.52,4.47-.52,7.87.17,5.97.52,7.82c.34,1.85.9,3.13,1.68,3.86.78.72,1.8,1.09,3.07,1.09Z"/>
          </g>
          <g class="cls-3">
            <path class="cls-2" d="M451.48,119.05l-8.36-22.97c-.4-1.16-1.19-1.97-2.39-2.44l-.92-.33v-.54h13.3v.54l-.81.22c-1.41.43-1.88,1.3-1.41,2.61l5.05,15.37,4.51-11.95-1.03-3.1c-.25-.8-.52-1.4-.79-1.82-.27-.42-.62-.71-1.06-.9l-.92-.43v-.54h11.24v.54l-.76.33c-.54.22-.87.51-.98.87-.11.36-.04.91.22,1.63l5,15.1,5.16-14.99c.51-1.38.24-2.24-.81-2.61l-1.19-.33v-.54h6.52v.54l-1.3.38c-.62.18-1.06.46-1.33.84-.27.38-.52.9-.73,1.55l-7.82,22.97h-2.77l-6.03-17.76-6.41,17.76h-3.15Z"/>
            <path class="cls-2" d="M494.98,91.95c2.35,0,4.36.48,6.03,1.44,1.67.96,2.94,2.26,3.83,3.91.89,1.65,1.33,3.52,1.33,5.62,0,.4-.02.81-.05,1.22-.04.42-.11.79-.22,1.11h-16.18c.04,3.91.73,6.73,2.09,8.44,1.36,1.72,3.38,2.58,6.05,2.58,1.81,0,3.28-.29,4.4-.87,1.12-.58,2.17-1.43,3.15-2.55l.54.49c-1.12,1.99-2.62,3.55-4.48,4.67-1.87,1.12-4.1,1.68-6.71,1.68s-4.85-.55-6.84-1.66c-1.99-1.1-3.55-2.69-4.67-4.75s-1.68-4.52-1.68-7.38.65-5.49,1.95-7.58c1.3-2.08,2.98-3.67,5.02-4.75,2.04-1.09,4.19-1.63,6.44-1.63ZM494.82,93.04c-1.05,0-1.95.32-2.69.95-.74.63-1.32,1.76-1.74,3.37-.42,1.61-.64,3.88-.68,6.82h9.29c.36-3.95.22-6.79-.43-8.53-.65-1.74-1.9-2.61-3.75-2.61Z"/>
            <path class="cls-2" d="M517.3,119.59l-9.18-.71v-.54l.54-.11c1.41-.33,2.12-1.23,2.12-2.72v-29.05c0-.76-.12-1.34-.35-1.74-.24-.4-.72-.67-1.44-.82l-.76-.22v-.54l9.67-2.33.65.49-.22,7.66v5.48c1.19-.83,2.5-1.46,3.91-1.87,1.41-.42,2.84-.62,4.29-.62,2.06,0,3.89.48,5.49,1.44,1.59.96,2.85,2.44,3.77,4.45.92,2.01,1.38,4.59,1.38,7.74s-.52,5.77-1.55,7.85c-1.03,2.08-2.41,3.65-4.13,4.7-1.72,1.05-3.61,1.58-5.67,1.58-1.34,0-2.69-.18-4.05-.54s-2.56-.87-3.61-1.52l-.87,1.96ZM523.11,117.86c1.16,0,2.17-.36,3.04-1.09.87-.72,1.56-1.96,2.06-3.72.51-1.76.76-4.17.76-7.25s-.24-5.45-.71-7.11c-.47-1.67-1.13-2.82-1.98-3.48s-1.87-.98-3.07-.98c-1.7,0-3.28.47-4.72,1.41v20.85c.69.43,1.39.77,2.12,1,.72.24,1.56.35,2.5.35Z"/>
          </g>
        </g>
      </g>
    </g>
  </g>
</svg>