<?xml version="1.0" encoding="UTF-8"?>
<svg id="Capa_2" data-name="Capa 2" xmlns="http://www.w3.org/2000/svg" viewBox="0 0 97.37 38.88">
  <defs>
    <style>
      .cls-1 {
        fill: #ed6936;
        stroke-width: 0px;
      }
    </style>
  </defs>
  <g id="Capa_1-2" data-name="Capa 1">
    <g>
      <path class="cls-1" d="M11.68,38.23L3.31,15.26c-.4-1.16-1.19-1.97-2.39-2.44l-.92-.33v-.54h13.3v.54l-.81.22c-1.41.43-1.88,1.3-1.41,2.61l5.05,15.37,4.51-11.95-1.03-3.1c-.25-.8-.52-1.4-.79-1.82-.27-.42-.62-.71-1.06-.9l-.92-.43v-.54h11.24v.54l-.76.33c-.54.22-.87.51-.98.87-.11.36-.04.91.22,1.63l5,15.1,5.16-14.99c.51-1.38.24-2.24-.81-2.61l-1.19-.33v-.54h6.52v.54l-1.3.38c-.62.18-1.06.46-1.33.84-.27.38-.52.9-.73,1.55l-7.82,22.97h-2.77l-6.03-17.76-6.41,17.76h-3.15Z"/>
      <path class="cls-1" d="M55.17,11.13c2.35,0,4.36.48,6.03,1.44,1.67.96,2.94,2.26,3.83,3.91.89,1.65,1.33,3.52,1.33,5.62,0,.4-.02.81-.05,1.22-.04.42-.11.79-.22,1.11h-16.18c.04,3.91.73,6.73,2.09,8.44,1.36,1.72,3.38,2.58,6.05,2.58,1.81,0,3.28-.29,4.4-.87,1.12-.58,2.17-1.43,3.15-2.55l.54.49c-1.12,1.99-2.62,3.55-4.48,4.67-1.87,1.12-4.1,1.68-6.71,1.68s-4.85-.55-6.84-1.66c-1.99-1.1-3.55-2.69-4.67-4.75s-1.68-4.52-1.68-7.38.65-5.49,1.95-7.58c1.3-2.08,2.98-3.67,5.02-4.75,2.04-1.09,4.19-1.63,6.44-1.63ZM55.01,12.22c-1.05,0-1.95.32-2.69.95-.74.63-1.32,1.76-1.74,3.37-.42,1.61-.64,3.88-.68,6.82h9.29c.36-3.95.22-6.79-.43-8.53-.65-1.74-1.9-2.61-3.75-2.61Z"/>
      <path class="cls-1" d="M77.49,38.77l-9.18-.71v-.54l.54-.11c1.41-.33,2.12-1.23,2.12-2.72V5.65c0-.76-.12-1.34-.35-1.74-.24-.4-.72-.67-1.44-.82l-.76-.22v-.54l9.67-2.33.65.49-.22,7.66v5.48c1.19-.83,2.5-1.46,3.91-1.87,1.41-.42,2.84-.62,4.29-.62,2.06,0,3.89.48,5.49,1.44,1.59.96,2.85,2.44,3.77,4.45.92,2.01,1.38,4.59,1.38,7.74s-.52,5.77-1.55,7.85c-1.03,2.08-2.41,3.65-4.13,4.7-1.72,1.05-3.61,1.58-5.67,1.58-1.34,0-2.69-.18-4.05-.54s-2.56-.87-3.61-1.52l-.87,1.96ZM83.3,37.04c1.16,0,2.17-.36,3.04-1.09.87-.72,1.56-1.96,2.06-3.72.51-1.76.76-4.17.76-7.25s-.24-5.45-.71-7.11c-.47-1.67-1.13-2.82-1.98-3.48s-1.87-.98-3.07-.98c-1.7,0-3.28.47-4.72,1.41v20.85c.69.43,1.39.77,2.12,1,.72.24,1.56.35,2.5.35Z"/>
    </g>
  </g>
</svg>