<?xml version="1.0" encoding="UTF-8"?>
<svg id="Capa_2" data-name="Capa 2" xmlns="http://www.w3.org/2000/svg" viewBox="0 0 244.53 38.88">
  <defs>
    <style>
      .cls-1 {
        fill: #ed6936;
        stroke-width: 0px;
      }
    </style>
  </defs>
  <g id="Capa_1-2" data-name="Capa 1">
    <g>
      <path class="cls-1" d="M11.3,38.88c-2.14,0-4.06-.48-5.76-1.44-1.7-.96-3.05-2.44-4.05-4.45-1-2.01-1.49-4.59-1.49-7.74s.56-5.82,1.68-7.9c1.12-2.08,2.61-3.64,4.45-4.67,1.85-1.03,3.86-1.55,6.03-1.55,1.27,0,2.48.13,3.64.38,1.16.25,2.19.63,3.1,1.14v-7.06c0-.76-.12-1.32-.35-1.68-.24-.36-.73-.62-1.49-.76l-1.03-.22v-.54L25.9,0l.6.49-.22,7.6v26.56c0,.72.13,1.31.38,1.76.25.45.72.77,1.41.95l.49.16v.54l-9.29.6-.49-1.96c-.98.65-2.09,1.18-3.34,1.57-1.25.4-2.63.6-4.15.6ZM14.45,36.87c1.52,0,2.91-.45,4.18-1.36V13.96c-1.34-.87-2.72-1.3-4.13-1.3-1.74,0-3.22,1-4.45,3.01-1.23,2.01-1.85,5.17-1.85,9.48s.58,7.34,1.74,9.1c1.16,1.76,2.66,2.63,4.51,2.63Z"/>
      <path class="cls-1" d="M44.58,11.13c2.35,0,4.36.48,6.03,1.44,1.67.96,2.94,2.26,3.83,3.91.89,1.65,1.33,3.52,1.33,5.62,0,.4-.02.81-.05,1.22-.04.42-.11.79-.22,1.11h-16.18c.04,3.91.73,6.73,2.09,8.44,1.36,1.72,3.38,2.58,6.06,2.58,1.81,0,3.28-.29,4.4-.87,1.12-.58,2.17-1.43,3.15-2.55l.54.49c-1.12,1.99-2.62,3.55-4.48,4.67-1.87,1.12-4.1,1.68-6.71,1.68s-4.85-.55-6.84-1.66-3.55-2.69-4.67-4.75-1.68-4.52-1.68-7.38.65-5.49,1.96-7.58c1.3-2.08,2.98-3.67,5.02-4.75,2.04-1.09,4.19-1.63,6.43-1.63ZM44.42,12.22c-1.05,0-1.95.32-2.69.95-.74.63-1.32,1.76-1.74,3.37-.42,1.61-.64,3.88-.68,6.82h9.29c.36-3.95.22-6.79-.43-8.53-.65-1.74-1.9-2.61-3.75-2.61Z"/>
      <path class="cls-1" d="M67.88,38.88c-1.77,0-3.37-.21-4.78-.62-1.41-.42-2.71-.93-3.91-1.55l.05-6.46h.54l1.85,3.26c.8,1.45,1.67,2.53,2.63,3.23.96.71,2.18,1.06,3.67,1.06,1.74,0,3.14-.39,4.21-1.17,1.07-.78,1.6-1.82,1.6-3.12,0-1.19-.38-2.17-1.14-2.93s-2.17-1.45-4.24-2.06l-2.28-.71c-2.21-.65-3.95-1.67-5.21-3.04-1.27-1.38-1.9-3.06-1.9-5.05,0-2.39.94-4.42,2.82-6.08,1.88-1.66,4.58-2.5,8.09-2.5,1.41,0,2.74.15,3.99.46,1.25.31,2.45.77,3.61,1.38l-.33,5.87h-.54l-1.9-3.37c-.69-1.19-1.37-2.04-2.04-2.52-.67-.49-1.67-.73-3.01-.73-1.23,0-2.39.35-3.48,1.03-1.09.69-1.63,1.67-1.63,2.93s.46,2.21,1.38,2.93c.92.72,2.29,1.39,4.1,2.01l2.44.71c2.61.8,4.47,1.89,5.59,3.29,1.12,1.39,1.68,3.07,1.68,5.02,0,2.64-1.04,4.76-3.12,6.35s-5,2.39-8.77,2.39Z"/>
      <path class="cls-1" d="M89.76,38.88c-2.1,0-3.87-.6-5.29-1.79-1.43-1.19-2.14-2.91-2.14-5.16,0-1.7.87-3.27,2.61-4.7,1.74-1.43,4.47-2.51,8.2-3.23.58-.11,1.23-.23,1.96-.35.72-.13,1.48-.26,2.28-.41v-4.29c0-2.46-.3-4.19-.9-5.19-.6-1-1.53-1.49-2.8-1.49-.87,0-1.56.28-2.06.84-.51.56-.83,1.53-.98,2.91l-.11.6c-.07,1.56-.45,2.7-1.14,3.42-.69.72-1.54,1.09-2.55,1.09-.94,0-1.72-.29-2.33-.87-.62-.58-.92-1.36-.92-2.34,0-1.48.52-2.73,1.55-3.75,1.03-1.01,2.4-1.77,4.1-2.28,1.7-.51,3.55-.76,5.54-.76,3.22,0,5.71.79,7.47,2.36,1.76,1.58,2.63,4.14,2.63,7.68v12c0,1.63.76,2.44,2.28,2.44h1.19l.49.43c-.69.87-1.44,1.54-2.25,2.01s-1.96.71-3.45.71c-1.59,0-2.85-.37-3.77-1.11s-1.53-1.73-1.82-2.96c-1.09,1.16-2.2,2.15-3.34,2.96s-2.62,1.22-4.43,1.22ZM93.08,35.57c.72,0,1.4-.17,2.04-.52.63-.34,1.38-.88,2.25-1.6v-9.12c-.36.07-.72.15-1.09.22-.36.07-.78.14-1.25.22-1.67.43-3,1.17-3.99,2.2-1,1.03-1.49,2.42-1.49,4.15,0,1.49.34,2.6,1.03,3.34.69.74,1.52,1.11,2.5,1.11Z"/>
      <path class="cls-1" d="M109.86,38.07v-.54l.82-.22c.72-.22,1.22-.54,1.49-.98.27-.43.41-1,.41-1.68v-17c0-.8-.14-1.38-.41-1.76s-.77-.64-1.49-.79l-.82-.22v-.54l9.34-3.15.54.54.49,4.67v.43c.51-1.01,1.17-1.95,1.98-2.8.81-.85,1.72-1.55,2.72-2.09,1-.54,1.98-.81,2.96-.81,1.38,0,2.42.38,3.15,1.14.72.76,1.09,1.72,1.09,2.88,0,1.23-.35,2.18-1.06,2.85s-1.55,1-2.52,1c-1.52,0-2.86-.76-4.02-2.28l-.11-.11c-.36-.51-.78-.79-1.25-.84s-.91.17-1.3.68c-.36.33-.66.72-.9,1.17-.24.45-.46.97-.68,1.55v15.15c0,1.45.63,2.35,1.9,2.71l1.74.49v.54h-14.07Z"/>
      <path class="cls-1" d="M133.8,38.07v-.54l.82-.22c.72-.22,1.22-.54,1.49-.98.27-.43.41-1,.41-1.68v-17c0-.8-.14-1.38-.41-1.76s-.77-.64-1.49-.79l-.82-.22v-.54l9.34-3.15.54.54.49,4.67v.43c.51-1.01,1.17-1.95,1.98-2.8.81-.85,1.72-1.55,2.72-2.09,1-.54,1.98-.81,2.96-.81,1.38,0,2.42.38,3.15,1.14.72.76,1.09,1.72,1.09,2.88,0,1.23-.35,2.18-1.06,2.85s-1.55,1-2.52,1c-1.52,0-2.86-.76-4.02-2.28l-.11-.11c-.36-.51-.78-.79-1.25-.84s-.91.17-1.3.68c-.36.33-.66.72-.9,1.17-.24.45-.46.97-.68,1.55v15.15c0,1.45.63,2.35,1.9,2.71l1.74.49v.54h-14.07Z"/>
      <path class="cls-1" d="M170.62,38.88c-2.75,0-5.14-.57-7.17-1.71-2.03-1.14-3.59-2.76-4.7-4.86s-1.66-4.56-1.66-7.39.59-5.27,1.77-7.33c1.18-2.06,2.79-3.66,4.83-4.78,2.04-1.12,4.35-1.68,6.92-1.68s4.87.55,6.9,1.66c2.03,1.11,3.63,2.69,4.81,4.75,1.18,2.06,1.77,4.53,1.77,7.39s-.55,5.33-1.66,7.41c-1.1,2.08-2.66,3.69-4.67,4.83-2.01,1.14-4.39,1.71-7.14,1.71ZM170.62,37.8c1.27,0,2.28-.36,3.04-1.09.76-.72,1.31-2.01,1.66-3.86.34-1.85.52-4.45.52-7.82s-.17-6.03-.52-7.87c-.34-1.85-.9-3.13-1.66-3.86-.76-.72-1.77-1.09-3.04-1.09s-2.29.36-3.07,1.09c-.78.72-1.34,2.01-1.68,3.86-.34,1.85-.52,4.47-.52,7.87s.17,5.97.52,7.82c.34,1.85.9,3.13,1.68,3.86.78.72,1.8,1.09,3.07,1.09Z"/>
      <path class="cls-1" d="M186.43,38.07v-.54l.65-.22c1.3-.43,1.96-1.34,1.96-2.71V5.54c0-.72-.14-1.28-.43-1.66-.29-.38-.8-.66-1.52-.84l-.71-.16v-.54l9.94-2.33.65.49-.22,7.6v18.57c0,1.34,0,2.67.03,3.99s.03,2.63.03,3.94c0,.72.14,1.31.43,1.76.29.45.78.79,1.47,1l.71.16v.54h-12.98Z"/>
      <path class="cls-1" d="M201.96,38.07v-.54l.65-.22c1.3-.43,1.96-1.34,1.96-2.71V5.54c0-.72-.14-1.28-.43-1.66-.29-.38-.8-.66-1.52-.84l-.71-.16v-.54l9.94-2.33.65.49-.22,7.6v18.57c0,1.34,0,2.67.03,3.99s.03,2.63.03,3.94c0,.72.14,1.31.43,1.76.29.45.78.79,1.47,1l.71.16v.54h-12.98Z"/>
      <path class="cls-1" d="M231.06,38.88c-2.75,0-5.14-.57-7.17-1.71-2.03-1.14-3.59-2.76-4.7-4.86-1.11-2.1-1.66-4.56-1.66-7.39s.59-5.27,1.76-7.33c1.18-2.06,2.79-3.66,4.83-4.78,2.04-1.12,4.35-1.68,6.92-1.68s4.87.55,6.9,1.66c2.03,1.11,3.63,2.69,4.81,4.75s1.77,4.53,1.77,7.39-.55,5.33-1.66,7.41c-1.11,2.08-2.66,3.69-4.67,4.83-2.01,1.14-4.39,1.71-7.14,1.71ZM231.06,37.8c1.27,0,2.28-.36,3.04-1.09.76-.72,1.31-2.01,1.66-3.86.34-1.85.52-4.45.52-7.82s-.17-6.03-.52-7.87c-.34-1.85-.9-3.13-1.66-3.86-.76-.72-1.77-1.09-3.04-1.09s-2.29.36-3.07,1.09c-.78.72-1.34,2.01-1.68,3.86s-.52,4.47-.52,7.87.17,5.97.52,7.82c.34,1.85.9,3.13,1.68,3.86.78.72,1.8,1.09,3.07,1.09Z"/>
    </g>
  </g>
</svg>