<svg width="355" height="79" viewBox="0 0 355 79" fill="none" xmlns="http://www.w3.org/2000/svg">
<path d="M9.345 61.14V52.59H0.7V25.895H9.345V17.25H35.28V0.054996H44.875V52.59H36.135V61.14H9.345ZM10.295 51.64H35.185V26.75H10.295V51.64ZM55.4141 61.14V17.25H65.0091V61.14H55.4141ZM55.4141 9.65V0.054996H65.0091V9.65H55.4141ZM75.5236 61.14V51.64H110.009V43.945H84.1686V35.3H75.5236V25.895H84.1686V17.25H119.699V26.75H85.1186V34.35H110.959V42.995H119.699V52.59H110.959V61.14H75.5236ZM137.027 61.14V52.59H128.382V25.895H137.027V17.25H163.817V25.895H172.557V35.3H162.867V26.75H137.977V34.35H155.267V43.945H137.977V51.64H162.867V42.9H172.557V52.495H163.817V61.14H137.027ZM183.096 61.14V17.25H218.531V25.895H227.271V61.14H217.581V26.75H192.691V61.14H183.096ZM192.786 10.22V0.434997H207.226V4.805H210.741V0.434997H216.251V10.22H201.716V5.755H198.201V10.22H192.786ZM246.455 61.14V52.59H237.81V25.895H246.455V17.25H273.245V25.895H281.985V52.59H273.245V61.14H246.455ZM247.405 51.64H272.295V26.75H247.405V51.64ZM319.238 78.335V69.785H310.593V60.285H320.188V68.835H345.173V52.59H319.238V43.945H310.593V17.25H320.188V42.995H345.173V17.25H354.768V69.785H346.123V78.335H319.238Z" fill="#FF5900"/>
</svg>
