<?xml version="1.0" standalone="no"?>
<!DOCTYPE svg PUBLIC "-//W3C//DTD SVG 20010904//EN"
 "http://www.w3.org/TR/2001/REC-SVG-20010904/DTD/svg10.dtd">
<svg version="1.0" xmlns="http://www.w3.org/2000/svg"
 width="216.000000pt" height="216.000000pt" viewBox="0 0 216.000000 216.000000"
 preserveAspectRatio="xMidYMid meet">

<g transform="translate(0.000000,216.000000) scale(0.100000,-0.100000)"
fill="#000000" stroke="none">
<path d="M240 1740 l0 -60 -60 0 -60 0 0 -600 0 -600 60 0 60 0 0 -60 0 -60
360 0 360 0 0 -120 0 -120 -300 0 -300 0 0 -60 0 -60 720 0 720 0 0 60 0 60
-360 0 -360 0 0 120 0 120 420 0 420 0 0 60 0 60 60 0 60 0 0 600 0 600 -60 0
-60 0 0 60 0 60 -840 0 -840 0 0 -60z m1680 -660 l0 -600 -840 0 -840 0 0 600
0 600 840 0 840 0 0 -600z"/>
</g>
</svg>
