<svg width="173" height="46" viewBox="0 0 173 46" fill="none" xmlns="http://www.w3.org/2000/svg">
<path d="M0.96 45.04V44.56L1.536 44.368C2.72 44.048 3.312 43.28 3.312 42.064V15.952C3.312 15.248 3.184 14.72 2.928 14.368C2.704 14.016 2.272 13.776 1.632 13.648L0.96 13.504V13.024L9.12 10.24L9.6 10.72L10.032 12.208C11.088 11.568 12.256 11.072 13.536 10.72C14.848 10.368 16.192 10.192 17.568 10.192C20.32 10.192 22.496 11.248 24.096 13.36C25.728 15.44 26.544 18.432 26.544 22.336C26.544 26.176 25.648 29.2 23.856 31.408C22.096 33.616 19.6 34.72 16.368 34.72C13.84 34.72 11.712 34.352 9.984 33.616V41.92C9.984 43.2 10.56 44 11.712 44.32L12.624 44.56V45.04H0.96ZM14.064 33.328C15.664 33.328 16.928 32.496 17.856 30.832C18.816 29.168 19.296 26.4 19.296 22.528C19.296 18.656 18.848 15.952 17.952 14.416C17.056 12.848 15.76 12.064 14.064 12.064C12.88 12.064 11.568 12.448 10.128 13.216V32.56C11.344 33.072 12.656 33.328 14.064 33.328ZM38.3168 34.72C36.4608 34.72 34.8928 34.192 33.6128 33.136C32.3648 32.08 31.7408 30.56 31.7408 28.576C31.7408 27.072 32.5088 25.696 34.0448 24.448C35.5808 23.168 37.9968 22.208 41.2928 21.568C41.8048 21.472 42.3808 21.376 43.0208 21.28C43.6608 21.152 44.3328 21.024 45.0368 20.896V17.104C45.0368 14.928 44.7648 13.408 44.2208 12.544C43.7088 11.648 42.8928 11.2 41.7728 11.2C41.0048 11.2 40.3968 11.456 39.9488 11.968C39.5008 12.448 39.2128 13.296 39.0848 14.512L38.9888 15.04C38.9248 16.416 38.5888 17.424 37.9808 18.064C37.3728 18.704 36.6208 19.024 35.7248 19.024C34.8928 19.024 34.2048 18.768 33.6608 18.256C33.1168 17.744 32.8448 17.056 32.8448 16.192C32.8448 14.88 33.2928 13.776 34.1888 12.88C35.1168 11.984 36.3328 11.312 37.8368 10.864C39.3408 10.416 40.9728 10.192 42.7328 10.192C45.5808 10.192 47.7728 10.896 49.3088 12.304C50.8768 13.68 51.6608 15.936 51.6608 19.072V29.68C51.6608 31.12 52.3328 31.84 53.6768 31.84H54.7328L55.1648 32.224C54.5568 32.992 53.8848 33.584 53.1488 34C52.4448 34.416 51.4368 34.624 50.1248 34.624C48.7168 34.624 47.5968 34.304 46.7648 33.664C45.9648 32.992 45.4368 32.112 45.1808 31.024C44.2208 32.048 43.2288 32.928 42.2048 33.664C41.2128 34.368 39.9168 34.72 38.3168 34.72ZM41.2448 31.792C41.8848 31.792 42.4768 31.648 43.0208 31.36C43.5968 31.04 44.2688 30.56 45.0368 29.92V21.856C44.7168 21.92 44.3968 21.984 44.0768 22.048C43.7568 22.112 43.3888 22.176 42.9728 22.24C41.5008 22.624 40.3168 23.28 39.4208 24.208C38.5568 25.104 38.1248 26.32 38.1248 27.856C38.1248 29.168 38.4288 30.16 39.0368 30.832C39.6448 31.472 40.3808 31.792 41.2448 31.792ZM67.3455 34.72C66.0975 34.72 64.9455 34.48 63.8895 34C62.8655 33.52 62.0495 32.752 61.4415 31.696C60.8655 30.608 60.5935 29.184 60.6255 27.424L60.7695 15.088C60.7695 14.352 60.6415 13.824 60.3855 13.504C60.1295 13.184 59.7295 12.96 59.1855 12.832L58.6095 12.64V12.16L67.2015 10.48L67.6815 10.96L67.4415 17.776V29.344C67.4415 30.368 67.7295 31.12 68.3055 31.6C68.9135 32.08 69.6655 32.32 70.5615 32.32C71.4575 32.32 72.2575 32.192 72.9615 31.936C73.6655 31.68 74.3695 31.296 75.0735 30.784L75.2655 15.136C75.2655 14.4 75.1535 13.888 74.9295 13.6C74.7055 13.28 74.2895 13.056 73.6815 12.928L73.2015 12.784V12.304L81.6015 10.48L82.0815 10.96L81.9375 17.776V30.784C81.9375 31.488 82.0335 32.032 82.2255 32.416C82.4175 32.8 82.8335 33.12 83.4735 33.376L83.9535 33.52V34L75.5535 34.48L75.1215 31.648C74.0655 32.512 72.9135 33.248 71.6655 33.856C70.4495 34.432 69.0095 34.72 67.3455 34.72ZM88.9159 34V33.52L89.4919 33.328C90.6439 32.944 91.2199 32.144 91.2199 30.928V5.248C91.2199 4.608 91.0919 4.128 90.8359 3.808C90.5799 3.456 90.1319 3.2 89.4919 3.04L88.8679 2.896V2.416L97.6519 0.351998L98.2279 0.783998L98.0359 7.504V23.92C98.0359 25.104 98.0359 26.288 98.0359 27.472C98.0679 28.624 98.0839 29.776 98.0839 30.928C98.0839 31.568 98.2119 32.096 98.4679 32.512C98.7239 32.896 99.1559 33.184 99.7639 33.376L100.388 33.52V34H88.9159ZM111.926 34.72C110.07 34.72 108.502 34.192 107.222 33.136C105.974 32.08 105.35 30.56 105.35 28.576C105.35 27.072 106.118 25.696 107.654 24.448C109.19 23.168 111.606 22.208 114.902 21.568C115.414 21.472 115.99 21.376 116.63 21.28C117.27 21.152 117.942 21.024 118.646 20.896V17.104C118.646 14.928 118.374 13.408 117.83 12.544C117.318 11.648 116.502 11.2 115.382 11.2C114.614 11.2 114.006 11.456 113.558 11.968C113.11 12.448 112.822 13.296 112.694 14.512L112.598 15.04C112.534 16.416 112.198 17.424 111.59 18.064C110.982 18.704 110.23 19.024 109.334 19.024C108.502 19.024 107.814 18.768 107.27 18.256C106.726 17.744 106.454 17.056 106.454 16.192C106.454 14.88 106.902 13.776 107.798 12.88C108.726 11.984 109.942 11.312 111.446 10.864C112.95 10.416 114.582 10.192 116.342 10.192C119.19 10.192 121.382 10.896 122.918 12.304C124.486 13.68 125.27 15.936 125.27 19.072V29.68C125.27 31.12 125.942 31.84 127.286 31.84H128.342L128.774 32.224C128.166 32.992 127.494 33.584 126.758 34C126.054 34.416 125.046 34.624 123.734 34.624C122.326 34.624 121.206 34.304 120.374 33.664C119.574 32.992 119.046 32.112 118.79 31.024C117.83 32.048 116.838 32.928 115.814 33.664C114.822 34.368 113.526 34.72 111.926 34.72ZM114.854 31.792C115.494 31.792 116.086 31.648 116.63 31.36C117.206 31.04 117.878 30.56 118.646 29.92V21.856C118.326 21.92 118.006 21.984 117.686 22.048C117.366 22.112 116.998 22.176 116.582 22.24C115.11 22.624 113.926 23.28 113.03 24.208C112.166 25.104 111.734 26.32 111.734 27.856C111.734 29.168 112.038 30.16 112.646 30.832C113.254 31.472 113.99 31.792 114.854 31.792ZM132.785 34V33.52L133.361 33.328C134.513 32.944 135.089 32.144 135.089 30.928V5.248C135.089 4.608 134.961 4.128 134.705 3.808C134.449 3.456 134.001 3.2 133.361 3.04L132.737 2.896V2.416L141.521 0.351998L142.097 0.783998L141.905 7.504V23.92C141.905 25.104 141.905 26.288 141.905 27.472C141.937 28.624 141.953 29.776 141.953 30.928C141.953 31.568 142.081 32.096 142.337 32.512C142.593 32.896 143.025 33.184 143.633 33.376L144.257 33.52V34H132.785ZM155.795 34.72C153.939 34.72 152.371 34.192 151.091 33.136C149.843 32.08 149.219 30.56 149.219 28.576C149.219 27.072 149.987 25.696 151.523 24.448C153.059 23.168 155.475 22.208 158.771 21.568C159.283 21.472 159.859 21.376 160.499 21.28C161.139 21.152 161.811 21.024 162.515 20.896V17.104C162.515 14.928 162.243 13.408 161.699 12.544C161.187 11.648 160.371 11.2 159.251 11.2C158.483 11.2 157.875 11.456 157.427 11.968C156.979 12.448 156.691 13.296 156.563 14.512L156.467 15.04C156.403 16.416 156.067 17.424 155.459 18.064C154.851 18.704 154.099 19.024 153.203 19.024C152.371 19.024 151.683 18.768 151.139 18.256C150.595 17.744 150.323 17.056 150.323 16.192C150.323 14.88 150.771 13.776 151.667 12.88C152.595 11.984 153.811 11.312 155.315 10.864C156.819 10.416 158.451 10.192 160.211 10.192C163.059 10.192 165.251 10.896 166.787 12.304C168.355 13.68 169.139 15.936 169.139 19.072V29.68C169.139 31.12 169.811 31.84 171.155 31.84H172.211L172.643 32.224C172.035 32.992 171.363 33.584 170.627 34C169.923 34.416 168.915 34.624 167.603 34.624C166.195 34.624 165.075 34.304 164.243 33.664C163.443 32.992 162.915 32.112 162.659 31.024C161.699 32.048 160.707 32.928 159.683 33.664C158.691 34.368 157.395 34.72 155.795 34.72ZM158.723 31.792C159.363 31.792 159.955 31.648 160.499 31.36C161.075 31.04 161.747 30.56 162.515 29.92V21.856C162.195 21.92 161.875 21.984 161.555 22.048C161.235 22.112 160.867 22.176 160.451 22.24C158.979 22.624 157.795 23.28 156.899 24.208C156.035 25.104 155.603 26.32 155.603 27.856C155.603 29.168 155.907 30.16 156.515 30.832C157.123 31.472 157.859 31.792 158.723 31.792Z" fill="#8879CE"/>
</svg>
