<?xml version="1.0" standalone="no"?>
<!DOCTYPE svg PUBLIC "-//W3C//DTD SVG 20010904//EN"
 "http://www.w3.org/TR/2001/REC-SVG-20010904/DTD/svg10.dtd">
<svg version="1.0" xmlns="http://www.w3.org/2000/svg"
 width="216.000000pt" height="216.000000pt" viewBox="0 0 216.000000 216.000000"
 preserveAspectRatio="xMidYMid meet">

<g transform="translate(0.000000,216.000000) scale(0.100000,-0.100000)"
fill="#000000" stroke="none">
<path d="M1200 2100 l0 -60 -60 0 -60 0 0 -60 0 -60 -300 0 -300 0 0 -180 0
-180 -60 0 -60 0 0 -180 0 -180 -60 0 -60 0 0 -180 0 -180 -60 0 -60 0 0 -180
0 -180 -60 0 -60 0 0 -240 0 -240 240 0 240 0 0 60 0 60 180 0 180 0 0 60 0
60 180 0 180 0 0 60 0 60 180 0 180 0 0 60 0 60 180 0 180 0 0 360 0 360 60 0
60 0 0 60 0 60 60 0 60 0 0 60 0 60 -60 0 -60 0 0 60 0 60 -60 0 -60 0 0 60 0
60 -60 0 -60 0 0 60 0 60 -60 0 -60 0 0 60 0 60 -60 0 -60 0 0 60 0 60 -60 0
-60 0 0 60 0 60 -120 0 -120 0 0 -60z m240 -120 l0 -60 60 0 60 0 0 -60 0 -60
60 0 60 0 0 -60 0 -60 60 0 60 0 0 -60 0 -60 60 0 60 0 0 -60 0 -60 60 0 60 0
0 -60 0 -60 -60 0 -60 0 0 -60 0 -60 -60 0 -60 0 0 -300 0 -300 -120 0 -120 0
0 -60 0 -60 -180 0 -180 0 0 -60 0 -60 -180 0 -180 0 0 -60 0 -60 -180 0 -180
0 0 -60 0 -60 -120 0 -120 0 0 60 0 60 -60 0 -60 0 0 120 0 120 60 0 60 0 0
180 0 180 60 0 60 0 0 180 0 180 60 0 60 0 0 180 0 180 60 0 60 0 0 120 0 120
300 0 300 0 0 120 0 120 120 0 120 0 0 -60z"/>
<path d="M1200 1740 l0 -60 60 0 60 0 0 -60 0 -60 60 0 60 0 0 -60 0 -60 60 0
60 0 0 -60 0 -60 60 0 60 0 0 -60 0 -60 60 0 60 0 0 60 0 60 -60 0 -60 0 0 60
0 60 -60 0 -60 0 0 60 0 60 -60 0 -60 0 0 60 0 60 -60 0 -60 0 0 60 0 60 -60
0 -60 0 0 -60z"/>
<path d="M840 1020 l0 -180 -60 0 -60 0 0 -60 0 -60 -60 0 -60 0 0 -60 0 -60
-60 0 -60 0 0 -60 0 -60 -60 0 -60 0 0 -60 0 -60 -60 0 -60 0 0 -60 0 -60 60
0 60 0 0 60 0 60 60 0 60 0 0 60 0 60 60 0 60 0 0 60 0 60 60 0 60 0 0 60 0
60 60 0 60 0 0 60 0 60 180 0 180 0 0 180 0 180 -180 0 -180 0 0 -180z m240 0
l0 -60 -60 0 -60 0 0 60 0 60 60 0 60 0 0 -60z"/>
</g>
</svg>
