<svg width="102" height="39" viewBox="0 0 102 39" fill="none" xmlns="http://www.w3.org/2000/svg">
<path d="M11.925 38.159L3.763 15.74C3.37433 14.6093 2.597 13.8143 1.431 13.355L0.53 13.037V12.507H13.515V13.037L12.72 13.249C11.342 13.673 10.8827 14.521 11.342 15.793L16.271 30.792L20.67 19.132L19.663 16.111C19.4157 15.3337 19.1507 14.7507 18.868 14.362C18.6207 13.938 18.285 13.6377 17.861 13.461L16.96 13.037V12.507H27.931V13.037L27.189 13.355C26.659 13.567 26.341 13.8497 26.235 14.203C26.129 14.5563 26.1997 15.0863 26.447 15.793L31.323 30.527L36.358 15.899C36.8527 14.5563 36.5877 13.7083 35.563 13.355L34.397 13.037V12.507H40.757V13.037L39.485 13.408C38.8843 13.5847 38.4427 13.8673 38.16 14.256C37.9127 14.6093 37.683 15.104 37.471 15.74L29.839 38.159H27.136L21.253 20.828L14.999 38.159H11.925ZM57.5518 11.712C59.8485 11.712 61.8095 12.189 63.4348 13.143C65.0601 14.0617 66.2968 15.3337 67.1448 16.959C68.0281 18.549 68.4698 20.3687 68.4698 22.418C68.4698 22.8067 68.4521 23.213 68.4168 23.637C68.3815 24.0257 68.3108 24.379 68.2048 24.697H52.4108C52.4461 28.513 53.1175 31.269 54.4248 32.965C55.7675 34.6257 57.7461 35.456 60.3608 35.456C62.1275 35.456 63.5585 35.1733 64.6538 34.608C65.7491 34.0427 66.7738 33.2123 67.7278 32.117L68.2578 32.594C67.1625 34.5373 65.6961 36.0567 63.8588 37.152C62.0568 38.2473 59.8838 38.795 57.3398 38.795C54.8311 38.795 52.6051 38.265 50.6618 37.205C48.7185 36.1097 47.1991 34.555 46.1038 32.541C45.0085 30.527 44.4608 28.1243 44.4608 25.333C44.4608 22.4357 45.0968 19.98 46.3688 17.966C47.6408 15.9167 49.2661 14.362 51.2448 13.302C53.2588 12.242 55.3611 11.712 57.5518 11.712ZM57.3928 12.772C56.3681 12.772 55.4848 13.09 54.7428 13.726C54.0361 14.3267 53.4708 15.422 53.0468 17.012C52.6581 18.5667 52.4461 20.775 52.4108 23.637H61.4738C61.8271 19.7857 61.6858 17.012 61.0498 15.316C60.4138 13.62 59.1948 12.772 57.3928 12.772ZM82.526 38.689L73.569 38V37.47L74.099 37.364C75.477 37.046 76.166 36.1627 76.166 34.714V6.359C76.166 5.617 76.0423 5.05167 75.795 4.663C75.583 4.27433 75.1236 4.00933 74.417 3.868L73.675 3.656V3.126L83.109 0.846998L83.745 1.324L83.533 8.797V14.15C84.699 13.3373 85.971 12.7367 87.349 12.348C88.727 11.924 90.1226 11.712 91.536 11.712C93.55 11.712 95.3343 12.189 96.889 13.143C98.4436 14.0617 99.6626 15.5103 100.546 17.489C101.465 19.4323 101.924 21.941 101.924 25.015C101.924 28.089 101.412 30.6507 100.387 32.7C99.3976 34.714 98.055 36.2333 96.359 37.258C94.6983 38.2827 92.861 38.795 90.847 38.795C89.5396 38.795 88.2146 38.6183 86.872 38.265C85.5646 37.9117 84.3986 37.417 83.374 36.781L82.526 38.689ZM88.197 36.993C89.3276 36.993 90.317 36.6397 91.165 35.933C92.013 35.2263 92.6843 34.025 93.179 32.329C93.6736 30.5977 93.921 28.2303 93.921 25.227C93.921 22.2237 93.6913 19.9093 93.232 18.284C92.7726 16.6587 92.119 15.528 91.271 14.892C90.4583 14.256 89.469 13.938 88.303 13.938C86.6423 13.938 85.1053 14.3973 83.692 15.316V35.668C84.3633 36.092 85.0523 36.4277 85.759 36.675C86.4656 36.887 87.2783 36.993 88.197 36.993Z" fill="#FF5900"/>
</svg>
