<svg width="118" height="44" viewBox="0 0 118 44" fill="none" xmlns="http://www.w3.org/2000/svg">
<path d="M13.725 43.183L4.331 17.38C3.88367 16.0787 2.989 15.1637 1.647 14.635L0.61 14.269V13.659H15.555V14.269L14.64 14.513C13.054 15.001 12.5253 15.977 13.054 17.441L18.727 34.704L23.79 21.284L22.631 17.807C22.3463 16.9123 22.0413 16.2413 21.716 15.794C21.4313 15.306 21.045 14.9603 20.557 14.757L19.52 14.269V13.659H32.147V14.269L31.293 14.635C30.683 14.879 30.317 15.2043 30.195 15.611C30.073 16.0177 30.1543 16.6277 30.439 17.441L36.051 34.399L41.846 17.563C42.4153 16.0177 42.1103 15.0417 40.931 14.635L39.589 14.269V13.659H46.909V14.269L45.445 14.696C44.7537 14.8993 44.2453 15.2247 43.92 15.672C43.6353 16.0787 43.371 16.648 43.127 17.38L34.343 43.183H31.232L24.461 23.236L17.263 43.183H13.725ZM66.2389 12.744C68.8822 12.744 71.1392 13.293 73.0099 14.391C74.8805 15.4483 76.3039 16.9123 77.2799 18.783C78.2965 20.613 78.8049 22.7073 78.8049 25.066C78.8049 25.5133 78.7845 25.981 78.7439 26.469C78.7032 26.9163 78.6219 27.323 78.4999 27.689H60.3219C60.3625 32.081 61.1352 35.253 62.6399 37.205C64.1852 39.1163 66.4625 40.072 69.4719 40.072C71.5052 40.072 73.1522 39.7467 74.4129 39.096C75.6735 38.4453 76.8529 37.4897 77.9509 36.229L78.5609 36.778C77.3002 39.0147 75.6125 40.7633 73.4979 42.024C71.4239 43.2847 68.9229 43.915 65.9949 43.915C63.1075 43.915 60.5455 43.305 58.3089 42.085C56.0722 40.8243 54.3235 39.035 53.0629 36.717C51.8022 34.399 51.1719 31.6337 51.1719 28.421C51.1719 25.0863 51.9039 22.26 53.3679 19.942C54.8319 17.5833 56.7025 15.794 58.9799 14.574C61.2979 13.354 63.7175 12.744 66.2389 12.744ZM66.0559 13.964C64.8765 13.964 63.8599 14.33 63.0059 15.062C62.1925 15.7533 61.5419 17.014 61.0539 18.844C60.6065 20.6333 60.3625 23.175 60.3219 26.469H70.7529C71.1595 22.0363 70.9969 18.844 70.2649 16.892C69.5329 14.94 68.1299 13.964 66.0559 13.964ZM94.9827 43.793L84.6737 43V42.39L85.2837 42.268C86.8697 41.902 87.6627 40.8853 87.6627 39.218V6.583C87.6627 5.729 87.5204 5.07833 87.2357 4.631C86.9917 4.18366 86.4631 3.87866 85.6497 3.716L84.7957 3.472V2.862L95.6537 0.238998L96.3857 0.787998L96.1417 9.389V15.55C97.4837 14.6147 98.9477 13.9233 100.534 13.476C102.12 12.988 103.726 12.744 105.353 12.744C107.671 12.744 109.724 13.293 111.514 14.391C113.303 15.4483 114.706 17.1157 115.723 19.393C116.78 21.6297 117.309 24.517 117.309 28.055C117.309 31.593 116.719 34.5413 115.54 36.9C114.401 39.218 112.856 40.9667 110.904 42.146C108.992 43.3253 106.878 43.915 104.56 43.915C103.055 43.915 101.53 43.7117 99.9847 43.305C98.4801 42.8983 97.1381 42.329 95.9587 41.597L94.9827 43.793ZM101.51 41.841C102.811 41.841 103.95 41.4343 104.926 40.621C105.902 39.8077 106.674 38.425 107.244 36.473C107.813 34.4803 108.098 31.7557 108.098 28.299C108.098 24.8423 107.833 22.1787 107.305 20.308C106.776 18.4373 106.024 17.136 105.048 16.404C104.112 15.672 102.974 15.306 101.632 15.306C99.7204 15.306 97.9514 15.8347 96.3247 16.892V40.316C97.0974 40.804 97.8904 41.1903 98.7037 41.475C99.5171 41.719 100.452 41.841 101.51 41.841Z" fill="#FF5900"/>
</svg>
