<svg width="185" height="70" viewBox="0 0 185 70" fill="none" xmlns="http://www.w3.org/2000/svg">
<path d="M21.6 68.288L6.816 27.68C6.112 25.632 4.704 24.192 2.592 23.36L0.96 22.784V21.824H24.48V22.784L23.04 23.168C20.544 23.936 19.712 25.472 20.544 27.776L29.472 54.944L37.44 33.824L35.616 28.352C35.168 26.944 34.688 25.888 34.176 25.184C33.728 24.416 33.12 23.872 32.352 23.552L30.72 22.784V21.824H50.592V22.784L49.248 23.36C48.288 23.744 47.712 24.256 47.52 24.896C47.328 25.536 47.456 26.496 47.904 27.776L56.736 54.464L65.856 27.968C66.752 25.536 66.272 24 64.416 23.36L62.304 22.784V21.824H73.824V22.784L71.52 23.456C70.432 23.776 69.632 24.288 69.12 24.992C68.672 25.632 68.256 26.528 67.872 27.68L54.048 68.288H49.152L38.496 36.896L27.168 68.288H21.6ZM104.245 20.384C108.405 20.384 111.957 21.248 114.901 22.976C117.845 24.64 120.085 26.944 121.621 29.888C123.221 32.768 124.021 36.064 124.021 39.776C124.021 40.48 123.989 41.216 123.925 41.984C123.861 42.688 123.733 43.328 123.541 43.904H94.9328C94.9968 50.816 96.2128 55.808 98.5808 58.88C101.013 61.888 104.597 63.392 109.333 63.392C112.533 63.392 115.125 62.88 117.109 61.856C119.093 60.832 120.949 59.328 122.677 57.344L123.637 58.208C121.653 61.728 118.997 64.48 115.669 66.464C112.405 68.448 108.469 69.44 103.861 69.44C99.3168 69.44 95.2848 68.48 91.7648 66.56C88.2448 64.576 85.4928 61.76 83.5088 58.112C81.5248 54.464 80.5328 50.112 80.5328 45.056C80.5328 39.808 81.6848 35.36 83.9888 31.712C86.2928 28 89.2368 25.184 92.8208 23.264C96.4688 21.344 100.277 20.384 104.245 20.384ZM103.957 22.304C102.101 22.304 100.501 22.88 99.1568 24.032C97.8768 25.12 96.8528 27.104 96.0848 29.984C95.3808 32.8 94.9968 36.8 94.9328 41.984H111.349C111.989 35.008 111.733 29.984 110.581 26.912C109.429 23.84 107.221 22.304 103.957 22.304ZM149.481 69.248L133.257 68V67.04L134.217 66.848C136.713 66.272 137.961 64.672 137.961 62.048V10.688C137.961 9.344 137.737 8.32 137.289 7.616C136.905 6.912 136.073 6.432 134.793 6.17599L133.449 5.792V4.832L150.537 0.703997L151.689 1.568L151.305 15.104V24.8C153.417 23.328 155.721 22.24 158.217 21.536C160.713 20.768 163.241 20.384 165.801 20.384C169.449 20.384 172.681 21.248 175.497 22.976C178.313 24.64 180.521 27.264 182.121 30.848C183.785 34.368 184.617 38.912 184.617 44.48C184.617 50.048 183.689 54.688 181.833 58.4C180.041 62.048 177.609 64.8 174.537 66.656C171.529 68.512 168.201 69.44 164.553 69.44C162.185 69.44 159.785 69.12 157.353 68.48C154.985 67.84 152.873 66.944 151.017 65.792L149.481 69.248ZM159.753 66.176C161.801 66.176 163.593 65.536 165.129 64.256C166.665 62.976 167.881 60.8 168.777 57.728C169.673 54.592 170.121 50.304 170.121 44.864C170.121 39.424 169.705 35.232 168.873 32.288C168.041 29.344 166.857 27.296 165.321 26.144C163.849 24.992 162.057 24.416 159.945 24.416C156.937 24.416 154.153 25.248 151.593 26.912V63.776C152.809 64.544 154.057 65.152 155.337 65.6C156.617 65.984 158.089 66.176 159.753 66.176Z" fill="#FF5900"/>
</svg>
